<?xml version="1.0" encoding="utf-8"?>
<!-- Generator: Adobe Illustrator 26.0.1, SVG Export Plug-In . SVG Version: 6.00 Build 0)  -->
<svg version="1.1" id="Layer_1" xmlns="http://www.w3.org/2000/svg" xmlns:xlink="http://www.w3.org/1999/xlink" x="0px" y="0px"
	 viewBox="0 0 600 400" style="enable-background:new 0 0 600 400;" xml:space="preserve">
<style type="text/css">
	.st0{display:none;fill:#FFFFFF;}
	.st1{fill:#1D3B63;}
	.st2{opacity:0.3;fill:url(#SVGID_1_);}
	.st3{opacity:0.2;}
	.st4{fill:url(#SVGID_00000102514391275819337470000002324865017671694750_);}
	.st5{fill:url(#SVGID_00000070798399043742500220000001111382956972816017_);}
	.st6{fill:url(#SVGID_00000089564607367945812560000018276621242615330200_);}
	.st7{fill:url(#SVGID_00000001642953273513662920000013487170836129578668_);}
	.st8{fill:url(#SVGID_00000168111311071120511840000010139297488031814837_);}
	.st9{fill:url(#SVGID_00000180359370474680443780000004641745966283154337_);}
	.st10{fill:url(#SVGID_00000075879476311517606230000007870051077563152560_);}
	.st11{fill:url(#SVGID_00000116949980141506174870000007121102923785376393_);}
	.st12{fill:#FFFFFF;}
</style>
<g>
	<rect x="-70.5" y="-110.3" class="st0" width="744.8" height="595.9"/>
	<g>
		<path class="st1" d="M88.2,371.8c-1.5-0.8-2.8-2-3.6-3.5c-0.9-1.5-1.3-3.1-1.3-5c0-1.9,0.4-3.5,1.3-5c0.9-1.5,2.1-2.6,3.6-3.5
			c1.5-0.8,3.3-1.3,5.2-1.3c1.5,0,3,0.3,4.2,0.8c1.3,0.5,2.4,1.3,3.2,2.4l-2.3,2.1c-1.4-1.5-3.1-2.2-5.1-2.2c-1.3,0-2.5,0.3-3.5,0.9
			c-1,0.6-1.8,1.4-2.4,2.4c-0.6,1-0.9,2.2-0.9,3.4c0,1.3,0.3,2.4,0.9,3.4c0.6,1,1.4,1.8,2.4,2.4c1,0.6,2.2,0.9,3.5,0.9
			c2,0,3.7-0.7,5.1-2.2l2.3,2.2c-0.9,1-2,1.8-3.3,2.4c-1.3,0.5-2.7,0.8-4.3,0.8C91.5,373.1,89.8,372.7,88.2,371.8z"/>
		<path class="st1" d="M137.6,372.8l-3.9-5.5c-0.2,0-0.4,0-0.7,0h-4.3v5.5h-3.5v-18.9h7.8c1.6,0,3.1,0.3,4.3,0.8
			c1.2,0.5,2.2,1.3,2.8,2.3c0.7,1,1,2.2,1,3.6c0,1.4-0.3,2.7-1,3.7c-0.7,1-1.7,1.8-3,2.3l4.4,6.2H137.6z M136.3,357.8
			c-0.8-0.6-2-1-3.5-1h-4.1v7.6h4.1c1.5,0,2.7-0.3,3.5-1c0.8-0.7,1.2-1.6,1.2-2.8S137.1,358.5,136.3,357.8z"/>
		<path class="st1" d="M180,369.9v2.9h-14.2v-18.9h13.8v2.9h-10.3v4.9h9.1v2.9h-9.1v5.2H180z"/>
		<path class="st1" d="M204.7,353.9h8.3c2,0,3.8,0.4,5.4,1.2c1.6,0.8,2.8,1.9,3.7,3.3c0.9,1.4,1.3,3.1,1.3,5c0,1.9-0.4,3.5-1.3,5
			c-0.9,1.4-2.1,2.5-3.7,3.3c-1.6,0.8-3.4,1.2-5.4,1.2h-8.3V353.9z M212.9,369.8c1.4,0,2.6-0.3,3.7-0.8c1.1-0.5,1.9-1.3,2.4-2.3
			c0.6-1,0.9-2.1,0.9-3.4c0-1.3-0.3-2.4-0.9-3.4c-0.6-1-1.4-1.7-2.4-2.3c-1.1-0.5-2.3-0.8-3.7-0.8h-4.6v13H212.9z"/>
		<path class="st1" d="M247.9,353.9h3.5v18.9h-3.5V353.9z"/>
		<path class="st1" d="M281.3,356.8H275v-3h16.1v3h-6.3v16h-3.5V356.8z"/>
		<path class="st1" d="M344.5,372.7c-1.5-0.4-2.7-0.8-3.7-1.4l2.1-4.7c0.9,0.5,1.9,0.9,3,1.3c1.1,0.3,2.2,0.5,3.2,0.5
			c0.9,0,1.5-0.1,1.9-0.3c0.4-0.2,0.6-0.4,0.6-0.8c0-0.4-0.2-0.7-0.7-0.9c-0.5-0.2-1.3-0.4-2.4-0.6c-1.5-0.3-2.7-0.6-3.7-1
			c-1-0.4-1.8-0.9-2.5-1.7c-0.7-0.8-1.1-1.9-1.1-3.3c0-1.2,0.3-2.3,1-3.2c0.7-1,1.7-1.7,3-2.3c1.3-0.6,2.9-0.8,4.8-0.8
			c1.3,0,2.6,0.1,3.8,0.4c1.3,0.3,2.4,0.7,3.3,1.2l-1.9,4.6c-1.9-0.9-3.6-1.4-5.3-1.4c-1.6,0-2.5,0.4-2.5,1.2c0,0.4,0.2,0.7,0.7,0.9
			c0.5,0.2,1.3,0.4,2.4,0.6c1.4,0.3,2.7,0.6,3.7,0.9c1,0.4,1.9,0.9,2.6,1.7c0.7,0.8,1.1,1.9,1.1,3.2c0,1.2-0.3,2.3-1,3.2
			c-0.7,1-1.7,1.7-3,2.3c-1.3,0.6-2.9,0.9-4.8,0.9C347.5,373.2,346,373.1,344.5,372.7z"/>
		<path class="st1" d="M385,372c-1.6-0.8-2.9-2-3.8-3.5c-0.9-1.5-1.4-3.2-1.4-5.1c0-1.9,0.5-3.6,1.4-5.1c0.9-1.5,2.2-2.7,3.8-3.5
			c1.6-0.8,3.4-1.3,5.4-1.3c1.8,0,3.5,0.3,4.9,1c1.4,0.6,2.6,1.6,3.6,2.8l-4,3.6c-1.2-1.5-2.6-2.2-4.1-2.2c-1.3,0-2.4,0.4-3.2,1.3
			c-0.8,0.9-1.2,2-1.2,3.5c0,1.4,0.4,2.6,1.2,3.5c0.8,0.9,1.9,1.3,3.2,1.3c1.6,0,3-0.7,4.1-2.2l4,3.6c-0.9,1.2-2.1,2.2-3.6,2.8
			c-1.4,0.6-3.1,1-4.9,1C388.5,373.2,386.6,372.8,385,372z"/>
		<path class="st1" d="M425.7,372c-1.6-0.8-2.9-2-3.8-3.5c-0.9-1.5-1.4-3.2-1.4-5.1c0-1.9,0.5-3.6,1.4-5.1c0.9-1.5,2.2-2.7,3.8-3.5
			c1.6-0.8,3.5-1.3,5.5-1.3c2,0,3.9,0.4,5.5,1.3c1.6,0.8,2.9,2,3.8,3.5c0.9,1.5,1.4,3.2,1.4,5.1c0,1.9-0.5,3.6-1.4,5.1
			c-0.9,1.5-2.2,2.7-3.8,3.5c-1.6,0.8-3.5,1.3-5.5,1.3C429.1,373.2,427.3,372.8,425.7,372z M433.3,367.5c0.6-0.4,1.2-0.9,1.5-1.7
			c0.4-0.7,0.6-1.5,0.6-2.5c0-1-0.2-1.8-0.6-2.5c-0.4-0.7-0.9-1.3-1.5-1.7c-0.6-0.4-1.4-0.6-2.1-0.6c-0.8,0-1.5,0.2-2.2,0.6
			c-0.6,0.4-1.1,0.9-1.5,1.7c-0.4,0.7-0.6,1.5-0.6,2.5c0,1,0.2,1.8,0.6,2.5c0.4,0.7,0.9,1.3,1.5,1.7c0.6,0.4,1.4,0.6,2.2,0.6
			C431.9,368.1,432.7,367.9,433.3,367.5z"/>
		<path class="st1" d="M473.1,368.1h-1.7v4.8H465v-18.9h9.1c1.7,0,3.3,0.3,4.6,0.9c1.3,0.6,2.3,1.4,3,2.5c0.7,1.1,1.1,2.3,1.1,3.8
			c0,1.4-0.3,2.5-0.9,3.5c-0.6,1-1.5,1.8-2.7,2.4l4,5.8h-6.8L473.1,368.1z M475.7,359.4c-0.4-0.4-1.1-0.6-1.9-0.6h-2.3v4.4h2.3
			c0.9,0,1.5-0.2,1.9-0.6c0.4-0.4,0.6-0.9,0.6-1.6C476.3,360.3,476.1,359.8,475.7,359.4z"/>
		<path class="st1" d="M521.8,368v4.8H506v-18.9h15.4v4.8h-9.1v2.2h8v4.6h-8v2.5H521.8z"/>
	</g>
	
		<radialGradient id="SVGID_1_" cx="-1537.9231" cy="1554.3655" r="63.8113" gradientTransform="matrix(3.2097 0 0 0.3831 5235.459 -287.0311)" gradientUnits="userSpaceOnUse">
		<stop  offset="0.199" style="stop-color:#BABABA"/>
		<stop  offset="0.2652" style="stop-color:#C6C6C6"/>
		<stop  offset="0.4311" style="stop-color:#DFDFDF"/>
		<stop  offset="0.6044" style="stop-color:#F1F1F1"/>
		<stop  offset="0.7881" style="stop-color:#FCFCFC"/>
		<stop  offset="1" style="stop-color:#FFFFFF"/>
	</radialGradient>
	<ellipse class="st2" cx="299.2" cy="308.4" rx="204.8" ry="24.4"/>
	<g>
		<g class="st3">
			
				<linearGradient id="SVGID_00000045617330681776429580000008049533083767298745_" gradientUnits="userSpaceOnUse" x1="445.6739" y1="261.5413" x2="445.6739" y2="217.4156">
				<stop  offset="0" style="stop-color:#00963A"/>
				<stop  offset="0.1576" style="stop-color:#06A541"/>
				<stop  offset="0.4706" style="stop-color:#0FBD4B"/>
				<stop  offset="0.7597" style="stop-color:#14CC52"/>
				<stop  offset="1" style="stop-color:#16D154"/>
			</linearGradient>
			<path style="fill:url(#SVGID_00000045617330681776429580000008049533083767298745_);" d="M466.9,90.8L411,146.7l-55.9,55.9
				c14.3,14.3,23.1,34,23.1,55.8h79h79C536.2,192.9,509.7,133.7,466.9,90.8z"/>
			
				<linearGradient id="SVGID_00000026157126352234885870000007127067946152081074_" gradientUnits="userSpaceOnUse" x1="403.848" y1="155.485" x2="365.3361" y2="117.7592">
				<stop  offset="0" style="stop-color:#FFAC05"/>
				<stop  offset="0.1821" style="stop-color:#FFBE10"/>
				<stop  offset="0.494" style="stop-color:#FFD820"/>
				<stop  offset="0.776" style="stop-color:#FFE82A"/>
				<stop  offset="1" style="stop-color:#FFED2D"/>
			</linearGradient>
			<path style="fill:url(#SVGID_00000026157126352234885870000007127067946152081074_);" d="M299.3,21.5v79v79
				c21.8,0,41.6,8.8,55.8,23.1l55.9-55.9l55.9-55.9C424,48,364.8,21.5,299.3,21.5z"/>
			
				<linearGradient id="SVGID_00000062173572042512179030000006749766901795490734_" gradientUnits="userSpaceOnUse" x1="298.4003" y1="112.0331" x2="239.4328" y2="112.0331">
				<stop  offset="0" style="stop-color:#FF4D05"/>
				<stop  offset="0.2771" style="stop-color:#FF6E16"/>
				<stop  offset="0.5535" style="stop-color:#FF8822"/>
				<stop  offset="0.8024" style="stop-color:#FF982A"/>
				<stop  offset="1" style="stop-color:#FF9D2D"/>
			</linearGradient>
			<path style="fill:url(#SVGID_00000062173572042512179030000006749766901795490734_);" d="M131.7,90.8l55.9,55.9l55.8,55.9h0
				c14.3-14.3,34-23.1,55.8-23.1v-79v-79C233.8,21.5,174.5,48,131.7,90.8z"/>
			
				<linearGradient id="SVGID_00000031919171286107069020000009915966761207851147_" gradientUnits="userSpaceOnUse" x1="194.3239" y1="153.154" x2="167.6014" y2="183.8063">
				<stop  offset="0" style="stop-color:#FF0508"/>
				<stop  offset="4.606551e-02" style="stop-color:#FF0C0B"/>
				<stop  offset="0.3221" style="stop-color:#FF2F1A"/>
				<stop  offset="0.5813" style="stop-color:#FF4924"/>
				<stop  offset="0.8147" style="stop-color:#FF592B"/>
				<stop  offset="1" style="stop-color:#FF5E2D"/>
			</linearGradient>
			<path style="fill:url(#SVGID_00000031919171286107069020000009915966761207851147_);" d="M187.5,146.7l-55.9-55.9
				c-42.9,42.9-69.4,102.1-69.4,167.6h79h79c0-21.8,8.8-41.6,23.1-55.8L187.5,146.7z"/>
		</g>
		<g>
			
				<linearGradient id="SVGID_00000064337514070469276600000009920048995447098810_" gradientUnits="userSpaceOnUse" x1="413.4609" y1="260.8593" x2="413.4609" y2="226.4422">
				<stop  offset="0" style="stop-color:#00963A"/>
				<stop  offset="0.1576" style="stop-color:#06A541"/>
				<stop  offset="0.4706" style="stop-color:#0FBD4B"/>
				<stop  offset="0.7597" style="stop-color:#14CC52"/>
				<stop  offset="1" style="stop-color:#16D154"/>
			</linearGradient>
			<path style="fill:url(#SVGID_00000064337514070469276600000009920048995447098810_);" d="M430,127.7l-43.6,43.6l-43.6,43.6
				c11.2,11.1,18.1,26.5,18.1,43.6h61.6h61.6C484.1,207.3,463.4,161.1,430,127.7z"/>
			
				<linearGradient id="SVGID_00000034803541523164730510000012741509343907090843_" gradientUnits="userSpaceOnUse" x1="380.8376" y1="178.1376" x2="350.7992" y2="148.7122">
				<stop  offset="0" style="stop-color:#FFAC05"/>
				<stop  offset="0.1821" style="stop-color:#FFBE10"/>
				<stop  offset="0.494" style="stop-color:#FFD820"/>
				<stop  offset="0.776" style="stop-color:#FFE82A"/>
				<stop  offset="1" style="stop-color:#FFED2D"/>
			</linearGradient>
			<path style="fill:url(#SVGID_00000034803541523164730510000012741509343907090843_);" d="M299.3,73.6v61.6v61.6
				c17,0,32.4,6.9,43.6,18.1l43.6-43.6l43.6-43.6C396.6,94.3,350.4,73.6,299.3,73.6z"/>
			
				<linearGradient id="SVGID_00000082360014601582138510000017047593566945832083_" gradientUnits="userSpaceOnUse" x1="298.5907" y1="144.246" x2="252.5972" y2="144.246">
				<stop  offset="0" style="stop-color:#FF4D05"/>
				<stop  offset="0.2771" style="stop-color:#FF6E16"/>
				<stop  offset="0.5535" style="stop-color:#FF8822"/>
				<stop  offset="0.8024" style="stop-color:#FF982A"/>
				<stop  offset="1" style="stop-color:#FF9D2D"/>
			</linearGradient>
			<path style="fill:url(#SVGID_00000082360014601582138510000017047593566945832083_);" d="M168.5,127.7l43.6,43.6l43.6,43.6h0
				c11.1-11.2,26.5-18.1,43.6-18.1v-61.6V73.6C248.2,73.6,202,94.3,168.5,127.7z"/>
			
				<linearGradient id="SVGID_00000047777394274246859190000005661103156604622476_" gradientUnits="userSpaceOnUse" x1="217.4132" y1="176.3195" x2="196.5702" y2="200.2276">
				<stop  offset="0" style="stop-color:#FF0508"/>
				<stop  offset="4.606551e-02" style="stop-color:#FF0C0B"/>
				<stop  offset="0.3221" style="stop-color:#FF2F1A"/>
				<stop  offset="0.5813" style="stop-color:#FF4924"/>
				<stop  offset="0.8147" style="stop-color:#FF592B"/>
				<stop  offset="1" style="stop-color:#FF5E2D"/>
			</linearGradient>
			<path style="fill:url(#SVGID_00000047777394274246859190000005661103156604622476_);" d="M212.1,171.3l-43.6-43.6
				c-33.4,33.4-54.1,79.6-54.1,130.7H176h61.6c0-17,6.9-32.4,18-43.6L212.1,171.3z"/>
		</g>
		<g>
			<g>
				<path class="st1" d="M464.9,134.5l-1.7,1.3l-5.5-7.1l9.1-7.2l5.4,6.9l-1.7,1.3l-3.8-4.8l-2,1.6l3.3,4.2l-1.6,1.3l-3.3-4.2
					l-2.1,1.7L464.9,134.5z"/>
				<path class="st1" d="M470,145.5l1.7-4.6l-4.9,0l-1.7-2.5l7.3,0.2l2.4-6.6l1.7,2.5l-1.6,4.3l4.6,0l1.6,2.4l-6.9-0.2l-2.5,6.9
					L470,145.5z"/>
				<path class="st1" d="M475.2,152.8c0-1.1,0.2-2.1,0.7-3c0.5-0.9,1.3-1.7,2.3-2.3c1-0.6,2-0.9,3.1-0.9c1.1,0,2.1,0.3,3,0.9
					c0.9,0.6,1.7,1.4,2.3,2.4c0.5,0.9,0.8,1.7,0.9,2.6c0.1,0.9,0,1.7-0.3,2.5l-2.2-0.7c0.4-1.1,0.3-2.2-0.3-3.2
					c-0.4-0.6-0.8-1.1-1.4-1.4c-0.6-0.3-1.2-0.5-1.8-0.5c-0.6,0-1.3,0.2-1.9,0.6c-0.6,0.4-1.1,0.8-1.4,1.4c-0.3,0.6-0.5,1.2-0.5,1.8
					c0,0.6,0.2,1.3,0.6,1.9c0.6,1,1.5,1.6,2.7,1.8l-0.5,2.3c-0.9-0.1-1.6-0.5-2.4-1c-0.7-0.5-1.3-1.2-1.8-2.1
					C475.6,154.9,475.3,153.9,475.2,152.8z"/>
				<path class="st1" d="M486.7,170.8l-1.9,1l-4-8l10.4-5.1l3.9,7.8l-1.9,1l-2.7-5.5l-2.3,1.1l2.4,4.8l-1.9,0.9l-2.4-4.8l-2.4,1.2
					L486.7,170.8z"/>
				<path class="st1" d="M497.3,171.5l1,2.5l-8.7,3.6l2.2,5.4l-2,0.8l-3.3-7.8L497.3,171.5z"/>
				<path class="st1" d="M502.2,183.7l0.9,2.5l-8.9,3.1l1.9,5.5l-2.1,0.7l-2.8-8L502.2,183.7z"/>
				<path class="st1" d="M499.7,207.4l-2.1,0.6l-2.4-8.6l11.2-3.1l2.3,8.4l-2.1,0.6l-1.6-5.9l-2.4,0.7l1.4,5.2l-2,0.6l-1.4-5.2
					l-2.6,0.7L499.7,207.4z"/>
				<path class="st1" d="M512.2,220.6l-11.4,2.3l-0.4-2.2l5.8-7l-6.9,1.4l-0.5-2.6l11.4-2.3l0.4,2.2l-5.8,7l6.9-1.4L512.2,220.6z"/>
				<path class="st1" d="M511.2,229.2l-0.5-3.7l2.2-0.3l1.3,10l-2.2,0.3l-0.5-3.7l-9.3,1.2l-0.3-2.7L511.2,229.2z"/>
			</g>
			<g>
				<path class="st1" d="M357.7,56l2.4,0.6l-1.2,4.5c-0.7,0.3-1.5,0.5-2.4,0.5c-0.9,0-1.7-0.1-2.5-0.3c-1.2-0.3-2.1-0.9-2.9-1.6
					c-0.8-0.7-1.3-1.6-1.6-2.7c-0.3-1-0.3-2.1,0-3.2c0.3-1.1,0.8-2,1.6-2.8c0.8-0.7,1.7-1.2,2.8-1.5c1.1-0.2,2.2-0.2,3.4,0.1
					c1,0.3,1.8,0.7,2.5,1.2c0.7,0.5,1.2,1.2,1.6,2l-2.1,1.1c-0.6-1.1-1.4-1.7-2.5-2.1c-0.7-0.2-1.4-0.2-2-0.1
					c-0.6,0.1-1.2,0.4-1.6,0.9c-0.5,0.5-0.8,1-1,1.7c-0.2,0.7-0.2,1.4,0,2c0.2,0.6,0.5,1.2,0.9,1.6c0.5,0.5,1,0.8,1.7,1
					c0.7,0.2,1.5,0.2,2.1,0.1L357.7,56z"/>
				<path class="st1" d="M365.6,64.1c-0.7-0.8-1.2-1.7-1.4-2.8c-0.2-1-0.1-2.1,0.3-3.2c0.4-1.1,1-1.9,1.8-2.6
					c0.8-0.7,1.8-1.1,2.9-1.3c1.1-0.2,2.2,0,3.3,0.4c1.1,0.4,2.1,1,2.8,1.8c0.7,0.8,1.2,1.7,1.4,2.8c0.2,1,0.1,2.1-0.3,3.2
					c-0.4,1.1-1,1.9-1.8,2.6c-0.8,0.7-1.8,1.1-2.9,1.3c-1.1,0.2-2.2,0-3.3-0.4C367.3,65.5,366.3,64.9,365.6,64.1z M371.1,64
					c0.6-0.1,1.2-0.4,1.7-0.8c0.5-0.4,0.8-1,1.1-1.6c0.2-0.7,0.3-1.3,0.2-2c-0.1-0.6-0.4-1.2-0.8-1.7c-0.4-0.5-0.9-0.8-1.6-1.1
					c-0.6-0.2-1.3-0.3-1.9-0.2c-0.6,0.1-1.2,0.4-1.7,0.8c-0.5,0.4-0.9,1-1.1,1.6c-0.2,0.7-0.3,1.3-0.2,2c0.1,0.6,0.4,1.2,0.8,1.7
					c0.4,0.5,0.9,0.8,1.6,1.1C369.8,64,370.4,64.1,371.1,64z"/>
				<path class="st1" d="M381,70c-0.7-0.9-1.1-1.8-1.2-2.9c-0.1-1.1,0.1-2.1,0.5-3.1c0.5-1,1.1-1.9,2-2.5c0.9-0.6,1.9-0.9,3-1
					c1.1-0.1,2.2,0.1,3.3,0.6c1.1,0.5,2,1.2,2.6,2c0.7,0.9,1.1,1.8,1.2,2.9c0.1,1.1,0,2.1-0.5,3.1c-0.5,1-1.1,1.9-2,2.5
					c-0.9,0.6-1.9,0.9-2.9,1c-1.1,0.1-2.2-0.1-3.3-0.6C382.5,71.6,381.6,70.9,381,70z M386.4,70.3c0.6-0.1,1.2-0.3,1.7-0.7
					c0.5-0.4,0.9-0.9,1.2-1.6c0.3-0.7,0.4-1.3,0.4-1.9c-0.1-0.6-0.3-1.2-0.6-1.7c-0.4-0.5-0.9-0.9-1.5-1.2c-0.6-0.3-1.3-0.4-1.9-0.3
					c-0.6,0.1-1.2,0.3-1.7,0.7c-0.5,0.4-0.9,0.9-1.2,1.6c-0.3,0.7-0.4,1.3-0.4,1.9c0.1,0.6,0.3,1.2,0.6,1.7c0.4,0.5,0.9,0.9,1.5,1.2
					C385.2,70.3,385.8,70.4,386.4,70.3z"/>
				<path class="st1" d="M399,66.4l4.6,2.5c1.1,0.6,2,1.4,2.6,2.2c0.6,0.9,0.9,1.8,1,2.9c0,1-0.2,2-0.8,3.1c-0.6,1-1.3,1.8-2.2,2.3
					c-0.9,0.5-1.9,0.7-2.9,0.7c-1.1,0-2.2-0.4-3.3-1l-4.6-2.5L399,66.4z M398.9,77.1c1,0.6,2,0.7,2.9,0.5c0.9-0.2,1.6-0.8,2.2-1.8
					c0.5-1,0.7-1.9,0.4-2.8c-0.3-0.9-0.9-1.6-2-2.2l-2.1-1.2l-3.5,6.3L398.9,77.1z"/>
			</g>
			<g>
				<path class="st1" d="M197.6,69.9l1.4,2.7l4.7-2.5l1,1.9l-4.7,2.5l2,3.7l-2.4,1.3l-5.4-10.2l7.7-4.1l1,1.9L197.6,69.9z"/>
				<path class="st1" d="M216.7,68.3l-4.9,2.2l0.1,2.7l-2.5,1.1l0-12.7l2.4-1.1l9.5,8.4l-2.6,1.2L216.7,68.3z M215.1,66.8l-3.5-3.3
					l0.1,4.8L215.1,66.8z"/>
				<path class="st1" d="M220.6,56.9l2.5-1l4.1,10.8l-2.5,1L220.6,56.9z"/>
				<path class="st1" d="M239.2,62.7l-3.1-2.4l-0.1,0l-2.2,0.7l1,3.1l-2.6,0.8l-3.5-11l4.8-1.5c1-0.3,1.9-0.4,2.7-0.3
					c0.8,0.1,1.5,0.4,2.1,0.9c0.6,0.5,1,1.1,1.3,1.9c0.3,0.8,0.3,1.6,0.1,2.3c-0.2,0.7-0.6,1.4-1.2,1.9l3.6,2.8L239.2,62.7z
					 M235.9,54.4c-0.5-0.2-1.1-0.2-1.9,0.1l-2.1,0.7l1.2,3.8l2.1-0.7c0.8-0.2,1.3-0.6,1.6-1.1c0.3-0.5,0.3-1,0.1-1.6
					C236.7,55,236.4,54.6,235.9,54.4z"/>
			</g>
			<g>
				<path class="st1" d="M92.3,197.5c0.5-0.6,1.2-1.1,1.9-1.3c0.7-0.2,1.5-0.2,2.3,0c0.8,0.2,1.5,0.6,2,1.2c0.5,0.6,0.8,1.3,0.9,2.1
					c0.1,0.8,0,1.7-0.2,2.7l-0.6,2.2l3.1,0.9l-0.7,2.6l-11.2-3.1l1.3-4.8C91.4,199,91.8,198.2,92.3,197.5z M97,199.9
					c-0.2-0.5-0.6-0.8-1.3-1c-0.6-0.2-1.2-0.1-1.6,0.2c-0.4,0.3-0.8,0.9-1,1.6l-0.6,2.1l3.9,1.1l0.6-2.1
					C97.3,201,97.3,200.4,97,199.9z"/>
				<path class="st1" d="M105.2,191.5c-0.8,0.7-1.7,1.2-2.8,1.4c-1,0.2-2.1,0.1-3.2-0.3c-1.1-0.4-1.9-1-2.6-1.8
					c-0.7-0.8-1.1-1.8-1.2-2.9c-0.2-1.1,0-2.2,0.4-3.3c0.4-1.1,1-2.1,1.8-2.8c0.8-0.7,1.7-1.2,2.8-1.4c1-0.2,2.1-0.1,3.2,0.3
					c1.1,0.4,1.9,1,2.6,1.8c0.7,0.8,1.1,1.8,1.2,2.9c0.2,1.1,0,2.2-0.4,3.3C106.7,189.8,106.1,190.8,105.2,191.5z M105.1,186
					c-0.1-0.6-0.4-1.2-0.8-1.7c-0.4-0.5-1-0.9-1.6-1.1c-0.7-0.2-1.3-0.3-2-0.2c-0.6,0.1-1.2,0.4-1.7,0.8c-0.5,0.4-0.8,0.9-1.1,1.6
					c-0.2,0.6-0.3,1.3-0.2,1.9c0.1,0.6,0.4,1.2,0.8,1.7c0.4,0.5,1,0.9,1.6,1.1c0.7,0.2,1.3,0.3,2,0.2c0.6-0.1,1.2-0.4,1.7-0.8
					c0.5-0.4,0.8-0.9,1.1-1.6C105.2,187.3,105.2,186.7,105.1,186z"/>
				<path class="st1" d="M111.2,176.2c-0.9,0.7-1.8,1.1-2.9,1.2c-1.1,0.1-2.1-0.1-3.1-0.5c-1-0.5-1.9-1.1-2.5-2
					c-0.6-0.9-0.9-1.9-1-3c-0.1-1.1,0.1-2.2,0.6-3.3c0.5-1.1,1.2-2,2.1-2.6c0.9-0.7,1.8-1.1,2.9-1.2c1.1-0.1,2.1,0,3.1,0.5
					c1,0.5,1.9,1.1,2.5,2c0.6,0.9,0.9,1.9,1,3c0.1,1.1-0.1,2.2-0.6,3.3C112.7,174.7,112.1,175.5,111.2,176.2z M111.5,170.7
					c-0.1-0.6-0.3-1.2-0.7-1.7c-0.4-0.5-0.9-0.9-1.6-1.2c-0.7-0.3-1.3-0.4-1.9-0.4c-0.6,0.1-1.2,0.3-1.7,0.6
					c-0.5,0.4-0.9,0.9-1.2,1.5c-0.3,0.6-0.4,1.3-0.3,1.9c0.1,0.6,0.3,1.2,0.7,1.7c0.4,0.5,0.9,0.9,1.6,1.2c0.7,0.3,1.3,0.4,1.9,0.4
					c0.6-0.1,1.2-0.3,1.7-0.6c0.5-0.4,0.9-0.9,1.2-1.5C111.4,172,111.6,171.4,111.5,170.7z"/>
				<path class="st1" d="M121.3,157.3l-3.9,0.4l-0.1,0.1l-1.1,2l2.8,1.6l-1.3,2.3l-10.1-5.6l2.4-4.4c0.5-0.9,1.1-1.6,1.7-2.1
					c0.7-0.5,1.4-0.8,2.1-0.8c0.7-0.1,1.5,0.1,2.3,0.5c0.8,0.4,1.3,1,1.6,1.6c0.3,0.7,0.5,1.4,0.4,2.2l4.5-0.5L121.3,157.3z
					 M113.2,153.6c-0.5,0.2-1,0.7-1.3,1.4l-1.1,1.9l3.5,1.9l1.1-1.9c0.4-0.7,0.5-1.3,0.4-1.9c-0.1-0.5-0.4-1-1-1.3
					C114.2,153.5,113.7,153.4,113.2,153.6z"/>
			</g>
		</g>
		<path class="st1" d="M294.2,247.2l121.6-56.7c1.3-0.6,2.5,1.3,1.2,2.1c0,0-112.8,72.6-112.8,72.6
			C291.6,272.7,281.2,254,294.2,247.2L294.2,247.2z"/>
		<path class="st1" d="M284.9,232.6c13.1-7.9,30.1-3.7,38.1,9.4c2.9,4.7,4.1,10,4,15.1c-0.3,9.1-5,17.9-13.4,22.9
			c-13.1,7.9-30.1,3.7-38-9.4C267.6,257.5,271.8,240.5,284.9,232.6z"/>
		<path class="st12" d="M292,244.3c6.6-4,15.2-1.9,19.2,4.7c1.4,2.4,2.1,5,2,7.6c-0.1,4.6-2.5,9-6.7,11.5c-6.6,4-15.2,1.9-19.2-4.7
			C283.3,256.9,285.4,248.3,292,244.3z"/>
	</g>
</g>
</svg>
