<?xml version="1.0" encoding="utf-8"?>
<!-- Generator: Adobe Illustrator 26.0.1, SVG Export Plug-In . SVG Version: 6.00 Build 0)  -->
<svg version="1.1" id="Layer_1" xmlns="http://www.w3.org/2000/svg" xmlns:xlink="http://www.w3.org/1999/xlink" x="0px" y="0px"
	 viewBox="0 0 378 131" style="enable-background:new 0 0 378 131;" xml:space="preserve">
<style type="text/css">
	.st0{fill:#FFFFFF;}
	.st1{fill:#FFFFFF;filter:url(#Adobe_OpacityMaskFilter);}
	.st2{mask:url(#mask0_438_36_00000075882469853830720120000016255446177158135702_);}
	.st3{fill:#FFFFFF;filter:url(#Adobe_OpacityMaskFilter_00000008110711326126268100000004620090046784748202_);}
	.st4{mask:url(#mask1_438_36_00000110445419833558110290000016202950115002522507_);}
	.st5{fill:#FFFFFF;filter:url(#Adobe_OpacityMaskFilter_00000124131714464068351590000002555677764268180919_);}
	.st6{mask:url(#mask2_438_36_00000000208546468353700520000012984946120155871398_);}
	.st7{fill:#FFFFFF;filter:url(#Adobe_OpacityMaskFilter_00000115489853414819637740000012172901902264694436_);}
	.st8{mask:url(#mask3_438_36_00000116233474273589502750000004553257123983234749_);}
	.st9{fill-rule:evenodd;clip-rule:evenodd;fill:#FFFFFF;}
</style>
<path class="st0" d="M46.77,94.55c-0.7-5.49-2.21-11.32-4.37-17.22c-7.73,1.92-15.69,3.18-21.29,3.93
	c5.16,4.44,9.96,12.58,12.07,24.46c2.82-0.92,7.65-2.33,13.87-3.51C47.19,99.76,47.11,97.21,46.77,94.55z"/>
<defs>
	<filter id="Adobe_OpacityMaskFilter" filterUnits="userSpaceOnUse" x="20.87" y="76.89" width="26.7" height="28.86">
		<feColorMatrix  type="matrix" values="1 0 0 0 0  0 1 0 0 0  0 0 1 0 0  0 0 0 1 0"/>
	</filter>
</defs>
<mask maskUnits="userSpaceOnUse" x="20.87" y="76.89" width="26.7" height="28.86" id="mask0_438_36_00000075882469853830720120000016255446177158135702_">
	<path class="st1" d="M33.19,105.72c-2.11-11.88-6.91-20.02-12.07-24.46c5.6-0.75,13.55-2.01,21.29-3.93
		c2.15,5.9,3.67,11.73,4.37,17.22c0.24,1.85,0.35,3.65,0.35,5.4c0,0.77-0.02,1.52-0.06,2.26C40.83,103.39,36,104.8,33.19,105.72z"/>
</mask>
<g class="st2">
	<rect x="20.87" y="76.89" class="st0" width="26.7" height="28.86"/>
</g>
<path class="st0" d="M38.79,122.67c3.73-3.97,6.47-9.24,7.67-15.48c-8.68,1.77-14.23,3.89-14.32,3.92l-2.8,1.09l-0.4-2.99
	c-2.42-18.03-11.12-26.2-16.03-27.12H12.9c-1.49-0.27-2.7,0.03-3.59,0.91c-1.67,1.65-2.21,5.19-1.47,9.71
	c3.26,20,20.35,38.28,35.16,37.62l0.02,0c3-0.11,5.8-1.04,8.31-2.75c1.52-1.03,2.81-2.27,3.9-3.64
	C48.6,124.29,42.76,123.83,38.79,122.67z"/>
<defs>
	
		<filter id="Adobe_OpacityMaskFilter_00000173151968973996299710000003196641339179553162_" filterUnits="userSpaceOnUse" x="7.3" y="81.92" width="48.23" height="48.49">
		<feColorMatrix  type="matrix" values="1 0 0 0 0  0 1 0 0 0  0 0 1 0 0  0 0 0 1 0"/>
	</filter>
</defs>
<mask maskUnits="userSpaceOnUse" x="7.3" y="81.92" width="48.23" height="48.49" id="mask1_438_36_00000110445419833558110290000016202950115002522507_">
	<path style="fill:#FFFFFF;filter:url(#Adobe_OpacityMaskFilter_00000173151968973996299710000003196641339179553162_);" d="
		M42.21,130.35c-14.62,0-31.18-17.98-34.38-37.64c-0.22-1.33-0.33-2.58-0.33-3.71c0.01-2.72,0.63-4.83,1.8-5.99
		c0.68-0.67,1.55-0.99,2.58-0.99c0.32,0,0.66,0.03,1,0.08h0.01c4.91,0.92,13.62,9.1,16.03,27.12l0.4,2.99l2.8-1.09
		c0.08-0.03,5.64-2.15,14.31-3.92c-1.2,6.25-3.93,11.52-7.66,15.47c0.01,0.01,0.03,0.01,0.06,0.03h0.01
		c0.03,0.01,0.06,0.01,0.07,0.03c0.03,0,0.04,0,0.06,0.01c3.07,0.86,7.2,1.32,11.93,1.32h0.01c1.31,0,2.68-0.03,4.09-0.11
		c0.04,0,0.08,0,0.13,0c0.03,0,0.06,0,0.08,0c-1.09,1.38-2.39,2.61-3.91,3.64c-2.51,1.7-5.3,2.64-8.31,2.75H43
		C42.74,130.35,42.48,130.35,42.21,130.35z"/>
</mask>
<g class="st4">
	<rect x="7.3" y="81.92" class="st0" width="48.23" height="48.49"/>
</g>
<path class="st0" d="M42.41,77.33c2.15,5.9,3.67,11.73,4.37,17.22c0.34,2.66,0.42,5.22,0.28,7.66c-0.1,1.72-0.29,3.39-0.6,4.99
	c-1.2,6.24-3.94,11.51-7.67,15.48c3.97,1.16,9.81,1.62,16.44,1.26c4.69-5.92,5.71-14.51,5.63-21.29c-0.11-9.56-2.39-20.52-6.6-31.7
	c-6.76-17.98-17.32-33.47-28.98-42.5l-3.27-2.53l3.83-1.56c0.32-0.13,27.62-11.1,59.03-13.64c-3.06-3.86-6.3-7.34-9.72-10.25
	c-0.09-0.07-0.2-0.11-0.31-0.1C35.84,4.21-0.2,23.21-0.2,23.21c14.38,8.22,27.43,23.43,36.16,39.75c1.75,3.26,3.31,6.57,4.69,9.88
	C41.28,74.35,41.86,75.84,42.41,77.33z"/>
<defs>
	
		<filter id="Adobe_OpacityMaskFilter_00000163033322820909462700000009545210602505907360_" filterUnits="userSpaceOnUse" x="-0.26" y="0.24" width="85.45" height="124.07">
		<feColorMatrix  type="matrix" values="1 0 0 0 0  0 1 0 0 0  0 0 1 0 0  0 0 0 1 0"/>
	</filter>
</defs>
<mask maskUnits="userSpaceOnUse" x="-0.26" y="0.24" width="85.45" height="124.07" id="mask2_438_36_00000000208546468353700520000012984946120155871398_">
	<path style="fill:#FFFFFF;filter:url(#Adobe_OpacityMaskFilter_00000163033322820909462700000009545210602505907360_);" d="
		M50.94,124.06c-4.73,0-8.87-0.46-11.95-1.35c0,0-0.02,0-0.05,0s-0.05,0-0.07-0.04h-0.02c0,0-0.02,0-0.05,0
		c3.72-3.97,6.48-9.25,7.66-15.49c0.32-1.6,0.52-3.26,0.62-5c0.02-0.75,0.05-1.49,0.05-2.23c0-1.77-0.1-3.55-0.35-5.42
		c-0.69-5.49-2.22-11.31-4.36-17.19c-0.54-1.49-1.13-3.01-1.75-4.5c-1.4-3.3-2.96-6.59-4.71-9.85
		C27.23,46.64,14.17,31.43-0.19,23.21c0,0,36.02-19,75.03-22.86c0.02,0,0.02,0,0.05,0c0.1,0,0.2,0.04,0.27,0.11
		c3.4,2.91,6.65,6.38,9.71,10.24c-31.42,2.55-58.72,13.54-59.04,13.65l-3.82,1.56l3.28,2.55c11.65,9,22.22,24.5,28.98,42.47
		c4.21,11.2,6.48,22.16,6.6,31.73c0,0.21,0,0.46,0,0.71c0,6.66-1.11,14.85-5.64,20.56c-0.02,0-0.05,0-0.07,0.04
		c-0.05,0-0.1,0-0.12,0C53.62,124.03,52.24,124.06,50.94,124.06z"/>
</mask>
<g class="st6">
	<rect x="-0.26" y="0.24" class="st0" width="85.45" height="124.07"/>
</g>
<path class="st0" d="M65.15,41.71c-2.08,1.39-4.8,0.64-6.09-1.68c-1.29-2.32-0.65-5.34,1.44-6.74c2.08-1.39,4.8-0.64,6.09,1.67
	C67.88,37.28,67.24,40.3,65.15,41.71z M77.01,29.67c1.87-1.25,4.33-0.58,5.48,1.51c1.16,2.1,0.58,4.8-1.3,6.07
	c-1.87,1.26-4.33,0.59-5.48-1.5C74.55,33.65,75.14,30.93,77.01,29.67z M91.16,26.7c1.69-1.13,3.89-0.52,4.94,1.36
	c1.04,1.88,0.52,4.33-1.17,5.46c-1.69,1.14-3.89,0.53-4.93-1.35C88.96,30.28,89.48,27.85,91.16,26.7z M118.95,42.07l0.03-0.07
	c5.32-14.26,10.3-21.72,10.61-22.18c-28.2,29.97-39.27,66.6-39.27,66.6c-3.76-5.91-14.17-18.04-20.62-21.53
	c8.59-0.27,17.19,5.21,17.19,5.21c4.19-8.49,13.48-23.56,24.16-35.34c-3.29-7.48-7.34-14.31-12.08-19.82
	c-29.09-0.33-57.54,8.82-67.58,12.4c11.03,9.76,20.85,24.79,27.29,41.91c4.4,11.7,6.79,23.22,6.91,33.33
	c0.14,12.59-3.26,22.07-9.86,27.59c16.59-1.36,41.92-6.45,53.66-15.71l0.22-0.16c0.39-0.3,0.76-0.62,1.12-0.95l1.15-1.12
	c9.78-10.38,11.19-33.57,6.14-56.11C116.96,51.45,117.27,46.57,118.95,42.07z"/>
<defs>
	
		<filter id="Adobe_OpacityMaskFilter_00000147198502675180057030000009903558233344065683_" filterUnits="userSpaceOnUse" x="30.88" y="14.91" width="98.92" height="115.49">
		<feColorMatrix  type="matrix" values="1 0 0 0 0  0 1 0 0 0  0 0 1 0 0  0 0 0 1 0"/>
	</filter>
</defs>
<mask maskUnits="userSpaceOnUse" x="30.88" y="14.91" width="98.92" height="115.49" id="mask3_438_36_00000116233474273589502750000004553257123983234749_">
	<path style="fill:#FFFFFF;filter:url(#Adobe_OpacityMaskFilter_00000147198502675180057030000009903558233344065683_);" d="
		M55.74,130.17c6.48-5.4,9.85-14.62,9.85-26.86c0-0.23,0-0.46,0-0.73c-0.11-10.11-2.49-21.62-6.91-33.32
		c-6.43-17.11-16.25-32.16-27.29-41.91c9.88-3.51,37.51-12.4,66.05-12.4c0.51,0,1.02,0,1.53,0c4.76,5.5,8.8,12.33,12.09,19.83
		c-10.7,11.77-19.99,26.82-24.18,35.31c0,0-8.18-5.21-16.56-5.21c-0.2,0-0.4,0-0.62,0c6.45,3.51,16.87,15.62,20.64,21.55
		c0,0,11.07-36.64,39.27-66.61c-0.31,0.46-5.29,7.92-10.62,22.18l-0.03,0.07c-1.02,2.75-1.56,5.67-1.56,8.59
		c0,1.82,0.2,3.68,0.62,5.47c1.87,8.36,2.86,16.78,2.86,24.6c0,13.36-2.83,24.97-9,31.5l-1.16,1.13c-0.37,0.33-0.71,0.63-1.1,0.96
		l-0.23,0.13C97.67,123.74,72.33,128.81,55.74,130.17z M58.4,37.43c0,0.9,0.23,1.79,0.65,2.59c0.85,1.56,2.35,2.39,3.85,2.39
		c0.76,0,1.56-0.23,2.26-0.7c1.36-0.9,2.09-2.52,2.09-4.14c0-0.9-0.23-1.79-0.68-2.62c-0.85-1.53-2.32-2.35-3.82-2.35
		c-0.76,0-1.56,0.23-2.26,0.7C59.13,34.21,58.4,35.8,58.4,37.43z M75.1,33.41c0,0.8,0.2,1.59,0.59,2.32
		c0.76,1.39,2.1,2.16,3.45,2.16c0.71,0,1.42-0.2,2.04-0.63c1.22-0.83,1.9-2.25,1.9-3.75c0-0.8-0.2-1.59-0.59-2.32
		c-0.76-1.39-2.1-2.16-3.45-2.16c-0.68,0-1.39,0.2-2.04,0.63C75.78,30.5,75.1,31.92,75.1,33.41z M89.46,30.06
		c0,0.73,0.2,1.46,0.54,2.12c0.71,1.23,1.9,1.92,3.09,1.92c0.65,0,1.27-0.2,1.87-0.6c1.1-0.73,1.7-2.02,1.7-3.35
		c0-0.73-0.17-1.46-0.54-2.09c-0.68-1.26-1.9-1.92-3.11-1.92c-0.62,0-1.25,0.17-1.84,0.56C90.08,27.45,89.46,28.74,89.46,30.06z"/>
</mask>
<g class="st8">
	<rect x="30.88" y="14.91" class="st0" width="98.92" height="115.49"/>
</g>
<path class="st9" d="M141.93,63.54V49.65h10.36c2.57,0,4.63,1.55,4.63,6.72c0,5.24-1.62,7.16-4.63,7.16H141.93z M129.88,93.22h12.05
	V72.54c0.37,0.15,8.52,1.26,11.46,1.48c6.39,0.37,15.65-0.96,15.65-17.8c0-15.06-8.6-17.06-15.65-17.06h-23.51V93.22z M185.12,81.11
	v-1.26c0-1.48,0.22-3.47,2.79-3.69l6.9-0.59v5.98c0,0-2.5,2.81-6.24,2.81C186.89,84.36,185.12,84.29,185.12,81.11z M173.08,82.96
	c0,4.65,3.23,10.41,11.53,10.71c5.66,0.15,9.7-3.47,10.21-4.58l2.5,4.14h9.55V66.34c0-10.34-5.88-13.07-15.13-13.07
	c-7.27,0-12.2,0.59-17.34,2.73v7.31c1.76-0.15,12.78-0.81,15.5-0.81c3.16,0,4.92,0.3,4.92,4.36c0.07,0.07,0,1.62,0,1.62
	c0,0.07-9.7,0-9.7,0c-9.18,0-12.05,5.46-12.05,11.08V82.96z M209.59,54.01l6.98,28.58c1.69,6.94,5.8,10.63,12.64,10.63l-2.98,11.88
	h12.14l12.07-51.09h-12.34l-6.61,29.17c-0.88-0.07-2.94-0.15-3.6-2.88l-5.73-26.29H209.59z"/>
<path class="st9" d="M257.19,93.22h6.76V70.33h23.73v22.89h6.76V39.17h-6.76v24.66h-23.73V39.17h-6.76V93.22z M308.69,74.17
	c0-13.22,2.94-14.33,10.58-14.33c7.93,0,10.58,1.11,10.58,14.33c0,12.18-3.23,13.14-10.58,13.14
	C312.29,87.31,308.69,86.43,308.69,74.17z M301.93,74.17c0,14.03,4.11,19.42,17.34,19.42c13.3,0,17.34-4.87,17.34-19.42
	c0-15.58-4.11-20.53-17.34-20.53C306.34,53.64,301.93,58.15,301.93,74.17z M339.25,54.01l9.04,30.57c2.28,7.75,6.98,8.64,9.55,8.64
	l-3.9,11.88h7.44l16.07-51.09h-7.35l-10.29,32.64c-0.15,0-3.38,1.11-4.63-2.88l-8.67-29.76H339.25z"/>
<path class="st0" d="M129.28,122.35v-9.46h2v7.81h4.05v1.65H129.28z M144.97,117.62c0,1.03-0.2,1.91-0.59,2.63
	c-0.39,0.72-0.92,1.28-1.59,1.66c-0.67,0.38-1.42,0.57-2.25,0.57c-0.84,0-1.6-0.19-2.26-0.57c-0.67-0.38-1.2-0.93-1.58-1.66
	c-0.39-0.72-0.58-1.6-0.58-2.63c0-1.03,0.19-1.91,0.58-2.63c0.39-0.72,0.92-1.27,1.58-1.65c0.67-0.38,1.42-0.57,2.26-0.57
	c0.83,0,1.58,0.19,2.25,0.57c0.67,0.38,1.2,0.93,1.59,1.65C144.78,115.71,144.97,116.59,144.97,117.62z M142.95,117.62
	c0-0.67-0.1-1.23-0.3-1.69c-0.2-0.46-0.47-0.81-0.84-1.04c-0.36-0.24-0.78-0.36-1.26-0.36c-0.48,0-0.9,0.12-1.26,0.36
	s-0.64,0.58-0.84,1.04c-0.2,0.46-0.29,1.02-0.29,1.69s0.1,1.23,0.29,1.69c0.2,0.46,0.48,0.81,0.84,1.04s0.78,0.36,1.26,0.36
	c0.48,0,0.9-0.12,1.26-0.36c0.36-0.24,0.64-0.58,0.84-1.04C142.85,118.85,142.95,118.29,142.95,117.62z M147.55,122.35h-2.14
	l3.26-9.46h2.58l3.26,9.46h-2.14l-2.37-7.29h-0.07L147.55,122.35z M147.42,118.63h5.06v1.56h-5.06V118.63z M163.55,112.89v9.46
	h-1.73l-4.11-5.95h-0.07v5.95h-2v-9.46h1.75l4.08,5.95h0.08v-5.95H163.55z M170.33,115.61c-0.04-0.37-0.2-0.66-0.48-0.87
	c-0.28-0.21-0.66-0.31-1.14-0.31c-0.33,0-0.6,0.05-0.83,0.14c-0.22,0.09-0.4,0.21-0.52,0.37c-0.12,0.16-0.18,0.34-0.18,0.54
	c-0.01,0.17,0.03,0.32,0.11,0.44c0.08,0.13,0.19,0.24,0.33,0.33c0.14,0.09,0.3,0.17,0.48,0.24c0.18,0.07,0.38,0.12,0.58,0.17
	l0.85,0.2c0.41,0.09,0.79,0.22,1.14,0.37c0.34,0.15,0.64,0.34,0.89,0.57c0.25,0.22,0.45,0.49,0.59,0.79
	c0.14,0.31,0.21,0.65,0.22,1.05c0,0.58-0.15,1.08-0.44,1.5c-0.29,0.42-0.71,0.75-1.25,0.98c-0.55,0.23-1.2,0.35-1.97,0.35
	c-0.76,0-1.43-0.12-1.99-0.35c-0.56-0.23-1-0.58-1.32-1.04c-0.31-0.46-0.48-1.03-0.49-1.71h1.93c0.02,0.32,0.11,0.58,0.27,0.79
	c0.16,0.21,0.38,0.37,0.65,0.48c0.27,0.1,0.58,0.16,0.93,0.16c0.34,0,0.63-0.05,0.88-0.15c0.25-0.1,0.45-0.24,0.59-0.41
	c0.14-0.18,0.21-0.38,0.21-0.61c0-0.21-0.06-0.39-0.19-0.54c-0.12-0.14-0.3-0.27-0.54-0.37c-0.24-0.1-0.53-0.19-0.87-0.28
	l-1.03-0.26c-0.8-0.19-1.43-0.5-1.89-0.91c-0.46-0.41-0.69-0.97-0.69-1.67c0-0.57,0.15-1.07,0.46-1.5c0.31-0.43,0.74-0.76,1.28-1
	c0.54-0.24,1.16-0.36,1.85-0.36c0.7,0,1.32,0.12,1.84,0.36c0.53,0.24,0.93,0.57,1.23,1c0.29,0.43,0.44,0.92,0.45,1.49H170.33z
	 M176.73,112.89h2.47l2.6,6.35h0.11l2.6-6.35h2.46v9.46h-1.94v-6.15h-0.08l-2.45,6.11h-1.32l-2.45-6.13h-0.08v6.18h-1.94V112.89z
	 M190.26,122.35h-2.14l3.26-9.46h2.58l3.26,9.46h-2.14l-2.37-7.29h-0.07L190.26,122.35z M190.12,118.63h5.06v1.56h-5.06V118.63z
	 M201.7,122.35h-3.35v-9.46h3.38c0.95,0,1.77,0.19,2.46,0.57c0.69,0.38,1.21,0.92,1.58,1.62c0.37,0.7,0.56,1.55,0.56,2.53
	c0,0.99-0.19,1.83-0.56,2.54c-0.37,0.71-0.9,1.25-1.59,1.63C203.49,122.16,202.67,122.35,201.7,122.35z M200.35,120.63h1.27
	c0.59,0,1.09-0.1,1.49-0.31c0.41-0.21,0.71-0.54,0.91-0.98c0.21-0.45,0.31-1.02,0.31-1.73c0-0.7-0.1-1.27-0.31-1.71
	c-0.2-0.44-0.51-0.77-0.91-0.98s-0.9-0.31-1.49-0.31h-1.27V120.63z M207.81,122.35v-9.46h6.37v1.65h-4.37v2.25h4.04v1.65h-4.04v2.26
	h4.39v1.65H207.81z M223.91,115.61c-0.04-0.37-0.2-0.66-0.48-0.87c-0.28-0.21-0.66-0.31-1.14-0.31c-0.33,0-0.6,0.05-0.83,0.14
	c-0.22,0.09-0.4,0.21-0.52,0.37c-0.12,0.16-0.18,0.34-0.18,0.54c-0.01,0.17,0.03,0.32,0.11,0.44c0.08,0.13,0.19,0.24,0.33,0.33
	c0.14,0.09,0.3,0.17,0.48,0.24c0.18,0.07,0.38,0.12,0.58,0.17l0.85,0.2c0.41,0.09,0.79,0.22,1.14,0.37c0.35,0.15,0.64,0.34,0.9,0.57
	c0.25,0.22,0.45,0.49,0.59,0.79c0.14,0.31,0.21,0.65,0.22,1.05c0,0.58-0.15,1.08-0.44,1.5c-0.29,0.42-0.71,0.75-1.26,0.98
	c-0.54,0.23-1.2,0.35-1.97,0.35c-0.76,0-1.43-0.12-2-0.35c-0.56-0.23-1-0.58-1.32-1.04c-0.31-0.46-0.48-1.03-0.49-1.71h1.93
	c0.02,0.32,0.11,0.58,0.27,0.79c0.16,0.21,0.38,0.37,0.65,0.48c0.27,0.1,0.58,0.16,0.93,0.16c0.34,0,0.63-0.05,0.88-0.15
	c0.25-0.1,0.45-0.24,0.59-0.41c0.14-0.18,0.21-0.38,0.21-0.61c0-0.21-0.06-0.39-0.19-0.54c-0.12-0.14-0.31-0.27-0.54-0.37
	c-0.24-0.1-0.53-0.19-0.87-0.28l-1.03-0.26c-0.8-0.19-1.43-0.5-1.89-0.91c-0.46-0.41-0.69-0.97-0.69-1.67c0-0.57,0.15-1.07,0.46-1.5
	c0.31-0.43,0.74-0.76,1.28-1c0.54-0.24,1.16-0.36,1.85-0.36c0.7,0,1.31,0.12,1.84,0.36c0.53,0.24,0.94,0.57,1.23,1
	c0.29,0.43,0.44,0.92,0.45,1.49H223.91z M229.3,112.89v9.46h-2v-9.46H229.3z M230.94,112.89h2.47l2.6,6.35h0.11l2.6-6.35h2.46v9.46
	h-1.94v-6.15h-0.08l-2.45,6.11h-1.32l-2.45-6.13h-0.08v6.18h-1.94V112.89z M242.84,122.35v-9.46h3.73c0.72,0,1.33,0.14,1.83,0.41
	c0.51,0.27,0.89,0.65,1.15,1.13c0.27,0.48,0.4,1.03,0.4,1.66s-0.14,1.18-0.41,1.66c-0.27,0.48-0.66,0.85-1.18,1.12
	c-0.51,0.27-1.13,0.4-1.85,0.4h-2.38v-1.6h2.05c0.38,0,0.7-0.07,0.95-0.2c0.25-0.14,0.44-0.32,0.56-0.56
	c0.13-0.24,0.19-0.52,0.19-0.83c0-0.31-0.06-0.59-0.19-0.82c-0.12-0.24-0.31-0.42-0.56-0.55c-0.25-0.13-0.57-0.2-0.96-0.2h-1.35
	v7.82H242.84z M251.25,122.35v-9.46h2v7.81h4.05v1.65H251.25z M258.63,122.35v-9.46H265v1.65h-4.37v2.25h4.04v1.65h-4.04v2.26h4.39
	v1.65H258.63z M268.69,121.05l-0.05,0.51c-0.04,0.41-0.12,0.81-0.23,1.21c-0.11,0.41-0.23,0.77-0.35,1.1
	c-0.12,0.33-0.22,0.59-0.29,0.78h-1.27c0.05-0.18,0.11-0.43,0.19-0.76c0.08-0.32,0.15-0.69,0.23-1.09c0.07-0.4,0.11-0.81,0.13-1.23
	l0.02-0.52H268.69z M276.88,112.89h1.98v6.59c0,0.61-0.14,1.14-0.41,1.59c-0.27,0.45-0.65,0.8-1.13,1.04
	c-0.48,0.24-1.05,0.36-1.68,0.36c-0.57,0-1.09-0.1-1.55-0.3c-0.46-0.2-0.83-0.51-1.1-0.92c-0.27-0.42-0.4-0.94-0.4-1.56h1.99
	c0.01,0.25,0.06,0.46,0.15,0.64c0.1,0.17,0.23,0.31,0.4,0.41c0.17,0.09,0.38,0.14,0.61,0.14c0.25,0,0.45-0.05,0.62-0.16
	c0.17-0.11,0.3-0.26,0.39-0.47c0.09-0.21,0.13-0.46,0.13-0.76V112.89z M286.34,112.89h2v6.14c0,0.69-0.17,1.29-0.49,1.81
	c-0.33,0.52-0.78,0.92-1.37,1.21c-0.59,0.29-1.27,0.43-2.05,0.43c-0.78,0-1.47-0.14-2.06-0.43c-0.59-0.29-1.04-0.69-1.37-1.21
	c-0.33-0.52-0.49-1.12-0.49-1.81v-6.14h2v5.97c0,0.36,0.08,0.68,0.24,0.96c0.16,0.28,0.38,0.5,0.67,0.66
	c0.29,0.16,0.63,0.24,1.01,0.24c0.39,0,0.72-0.08,1.01-0.24c0.29-0.16,0.51-0.38,0.67-0.66c0.16-0.28,0.24-0.6,0.24-0.96V112.89z
	 M295.12,115.61c-0.04-0.37-0.2-0.66-0.48-0.87c-0.28-0.21-0.66-0.31-1.14-0.31c-0.33,0-0.6,0.05-0.83,0.14
	c-0.22,0.09-0.4,0.21-0.52,0.37c-0.12,0.16-0.17,0.34-0.17,0.54c-0.01,0.17,0.03,0.32,0.11,0.44c0.08,0.13,0.19,0.24,0.33,0.33
	c0.14,0.09,0.3,0.17,0.48,0.24c0.18,0.07,0.38,0.12,0.58,0.17l0.85,0.2c0.41,0.09,0.79,0.22,1.14,0.37c0.35,0.15,0.64,0.34,0.9,0.57
	c0.25,0.22,0.45,0.49,0.59,0.79c0.14,0.31,0.21,0.65,0.22,1.05c0,0.58-0.15,1.08-0.44,1.5c-0.29,0.42-0.71,0.75-1.26,0.98
	c-0.54,0.23-1.2,0.35-1.97,0.35c-0.76,0-1.43-0.12-2-0.35c-0.56-0.23-1-0.58-1.32-1.04c-0.31-0.46-0.48-1.03-0.49-1.71h1.93
	c0.02,0.32,0.11,0.58,0.27,0.79c0.16,0.21,0.38,0.37,0.65,0.48c0.27,0.1,0.58,0.16,0.93,0.16c0.34,0,0.63-0.05,0.88-0.15
	c0.25-0.1,0.45-0.24,0.59-0.41c0.14-0.18,0.21-0.38,0.21-0.61c0-0.21-0.06-0.39-0.19-0.54c-0.12-0.14-0.3-0.27-0.54-0.37
	c-0.24-0.1-0.53-0.19-0.87-0.28l-1.03-0.26c-0.8-0.19-1.43-0.5-1.89-0.91c-0.46-0.41-0.69-0.97-0.69-1.67c0-0.57,0.15-1.07,0.46-1.5
	c0.31-0.43,0.74-0.76,1.28-1s1.16-0.36,1.85-0.36c0.7,0,1.31,0.12,1.84,0.36c0.53,0.24,0.94,0.57,1.23,1s0.44,0.92,0.45,1.49H295.12
	z M298.15,114.54v-1.65h7.76v1.65h-2.89v7.81h-1.98v-7.81H298.15z M310.2,122.35v-9.46h6.26v1.65h-4.26v2.25h3.85v1.65h-3.85v3.91
	H310.2z M326.49,117.62c0,1.03-0.2,1.91-0.59,2.63c-0.39,0.72-0.92,1.28-1.59,1.66c-0.67,0.38-1.42,0.57-2.25,0.57
	c-0.84,0-1.59-0.19-2.26-0.57c-0.67-0.38-1.2-0.93-1.58-1.66c-0.39-0.72-0.58-1.6-0.58-2.63c0-1.03,0.19-1.91,0.58-2.63
	c0.39-0.72,0.92-1.27,1.58-1.65c0.67-0.38,1.42-0.57,2.26-0.57c0.83,0,1.58,0.19,2.25,0.57c0.67,0.38,1.2,0.93,1.59,1.65
	C326.3,115.71,326.49,116.59,326.49,117.62z M324.47,117.62c0-0.67-0.1-1.23-0.3-1.69c-0.2-0.46-0.48-0.81-0.84-1.04
	c-0.36-0.24-0.78-0.36-1.26-0.36s-0.9,0.12-1.27,0.36c-0.36,0.24-0.64,0.58-0.84,1.04c-0.2,0.46-0.29,1.02-0.29,1.69
	s0.1,1.23,0.29,1.69c0.2,0.46,0.48,0.81,0.84,1.04c0.36,0.24,0.78,0.36,1.27,0.36s0.9-0.12,1.26-0.36c0.36-0.24,0.64-0.58,0.84-1.04
	C324.37,118.85,324.47,118.29,324.47,117.62z M327.97,122.35v-9.46h3.73c0.71,0,1.32,0.13,1.83,0.38c0.51,0.25,0.89,0.61,1.16,1.07
	c0.27,0.46,0.4,1.01,0.4,1.63c0,0.63-0.14,1.17-0.41,1.62c-0.27,0.45-0.66,0.79-1.18,1.03c-0.51,0.24-1.13,0.36-1.86,0.36h-2.5
	v-1.61h2.17c0.38,0,0.7-0.05,0.95-0.16c0.25-0.11,0.44-0.26,0.56-0.47c0.13-0.21,0.19-0.47,0.19-0.78c0-0.31-0.06-0.58-0.19-0.79
	c-0.12-0.22-0.31-0.38-0.57-0.49c-0.25-0.11-0.57-0.17-0.96-0.17h-1.35v7.82H327.97z M333.08,118.04l2.35,4.3h-2.21l-2.3-4.3H333.08
	z M338.96,112.89h2.24l2.16,4.07h0.09l2.16-4.07h2.24l-3.45,6.11v3.34h-1.99V119L338.96,112.89z M357.05,117.62
	c0,1.03-0.19,1.91-0.59,2.63c-0.39,0.72-0.92,1.28-1.59,1.66c-0.67,0.38-1.42,0.57-2.25,0.57c-0.84,0-1.59-0.19-2.26-0.57
	c-0.67-0.38-1.2-0.93-1.58-1.66c-0.39-0.72-0.58-1.6-0.58-2.63c0-1.03,0.19-1.91,0.58-2.63c0.39-0.72,0.92-1.27,1.58-1.65
	c0.67-0.38,1.42-0.57,2.26-0.57c0.83,0,1.59,0.19,2.25,0.57c0.67,0.38,1.2,0.93,1.59,1.65
	C356.85,115.71,357.05,116.59,357.05,117.62z M355.02,117.62c0-0.67-0.1-1.23-0.3-1.69c-0.2-0.46-0.48-0.81-0.83-1.04
	s-0.78-0.36-1.27-0.36c-0.48,0-0.9,0.12-1.26,0.36c-0.36,0.24-0.64,0.58-0.84,1.04c-0.2,0.46-0.3,1.02-0.3,1.69s0.1,1.23,0.3,1.69
	c0.2,0.46,0.48,0.81,0.84,1.04c0.36,0.24,0.78,0.36,1.26,0.36c0.48,0,0.91-0.12,1.27-0.36s0.64-0.58,0.83-1.04
	C354.92,118.85,355.02,118.29,355.02,117.62z M364.37,112.89h2v6.14c0,0.69-0.16,1.29-0.49,1.81c-0.33,0.52-0.78,0.92-1.37,1.21
	c-0.59,0.29-1.27,0.43-2.05,0.43c-0.79,0-1.47-0.14-2.06-0.43c-0.59-0.29-1.04-0.69-1.37-1.21c-0.33-0.52-0.49-1.12-0.49-1.81v-6.14
	h2v5.97c0,0.36,0.08,0.68,0.24,0.96c0.16,0.28,0.38,0.5,0.67,0.66c0.29,0.16,0.63,0.24,1.01,0.24c0.39,0,0.72-0.08,1.01-0.24
	c0.29-0.16,0.51-0.38,0.67-0.66c0.16-0.28,0.24-0.6,0.24-0.96V112.89z"/>
</svg>
