<?xml version="1.0" encoding="utf-8"?>
<!-- Generator: Adobe Illustrator 26.0.1, SVG Export Plug-In . SVG Version: 6.00 Build 0)  -->
<svg version="1.1" id="Layer_1" xmlns="http://www.w3.org/2000/svg" xmlns:xlink="http://www.w3.org/1999/xlink" x="0px" y="0px"
	 viewBox="0 0 40 40" style="enable-background:new 0 0 40 40;" xml:space="preserve">
<style type="text/css">
	.st0{fill:#494949;}
</style>
<path class="st0" d="M2.28,0.02h35.43c1.2,0,2.28,1.08,2.28,2.28v35.41c0,1.2-1.08,2.28-2.28,2.28H2.28C1.08,40,0,38.92,0,37.72
	V2.31C0,1.11,1.08,0.02,2.28,0.02z M28.41,22.47h5.53l0.24-5.28h-5.77v-3.9c0-1.5,0.3-2.34,2.22-2.34h3.36l0.12-4.92
	c0,0-1.5-0.24-3.66-0.24c-5.28,0-7.63,3.3-7.63,6.84v4.56h-3.9v5.28h3.9v14.64h5.58V22.47z"/>
</svg>
