<?xml version="1.0" encoding="utf-8"?>
<!-- Generator: Adobe Illustrator 26.0.1, SVG Export Plug-In . SVG Version: 6.00 Build 0)  -->
<svg version="1.1" id="Camada_1" xmlns="http://www.w3.org/2000/svg" xmlns:xlink="http://www.w3.org/1999/xlink" x="0px" y="0px"
	 viewBox="0 0 40 40" style="enable-background:new 0 0 40 40;" xml:space="preserve">
<style type="text/css">
	.st0{fill:#494949;}
	.st1{fill:#FFFFFF;}
</style>
<path class="st0" d="M5.71,0h28.57C37.43,0,40,2.57,40,5.71v28.57c0,3.14-2.57,5.71-5.71,5.71H5.71C2.57,40,0,37.43,0,34.29V5.71
	C0,2.57,2.57,0,5.71,0z"/>
<g>
	<path class="st1" d="M27.57,11c-0.86,0-1.71,0.71-1.71,1.71s0.71,1.71,1.71,1.71c1,0,1.71-0.71,1.71-1.71
		C29.14,11.71,28.43,11,27.57,11z"/>
	<path class="st1" d="M20,13.14c-3.86,0-7,3.14-7,7s3.14,7,7,7s7-3.14,7-7C27.14,16.29,24,13.14,20,13.14z M20,24.71
		c-2.43,0-4.57-2-4.57-4.57c0-2.43,2-4.57,4.57-4.57c2.43,0,4.57,2,4.57,4.57S22.57,24.71,20,24.71z"/>
	<path class="st1" d="M25.71,5.71H14.29c-4.71,0-8.57,3.86-8.57,8.57v11.43c0,4.71,3.86,8.57,8.57,8.57h11.43
		c4.71,0,8.57-3.86,8.57-8.57V14.29C34.29,9.57,30.43,5.71,25.71,5.71z M31.57,25.71c0,3.29-2.71,5.86-5.86,5.86H14.29
		c-3.29,0-5.86-2.71-5.86-5.86V14.29c0-3.29,2.71-5.86,5.86-5.86h11.43c3.29,0,5.86,2.71,5.86,5.86V25.71z"/>
</g>
</svg>
