<?xml version="1.0" encoding="utf-8"?>
<!-- Generator: Adobe Illustrator 26.0.1, SVG Export Plug-In . SVG Version: 6.00 Build 0)  -->
<svg version="1.1" id="Layer_1" xmlns="http://www.w3.org/2000/svg" xmlns:xlink="http://www.w3.org/1999/xlink" x="0px" y="0px"
	 viewBox="0 0 40 40" style="enable-background:new 0 0 40 40;" xml:space="preserve">
<style type="text/css">
	.st0{fill:#494949;}
</style>
<path class="st0" d="M36.88,0H3.12C1.4,0,0,1.4,0,3.12v33.75C0,38.6,1.4,40,3.12,40h33.75C38.6,40,40,38.6,40,36.88V3.12
	C40,1.4,38.6,0,36.88,0z M14.41,28.37h-3.9V15.89h3.9V28.37z M12.35,14.33h-0.03c-1.41,0-2.33-0.95-2.33-2.16
	c0-1.23,0.95-2.16,2.38-2.16s2.32,0.93,2.35,2.16C14.73,13.37,13.82,14.33,12.35,14.33z M30,28.37h-4.42v-6.45
	c0-1.69-0.69-2.84-2.21-2.84c-1.16,0-1.81,0.78-2.11,1.53c-0.11,0.27-0.09,0.64-0.09,1.02v6.74h-4.38c0,0,0.05-11.44,0-12.48h4.38
	v1.96c0.26-0.86,1.66-2.08,3.89-2.08c2.77,0,4.95,1.8,4.95,5.66V28.37z"/>
</svg>
