<?xml version="1.0" encoding="utf-8"?>
<!-- Generator: Adobe Illustrator 26.0.1, SVG Export Plug-In . SVG Version: 6.00 Build 0)  -->
<svg version="1.1" id="Layer_1" xmlns="http://www.w3.org/2000/svg" xmlns:xlink="http://www.w3.org/1999/xlink" x="0px" y="0px"
	 viewBox="0 0 40 40" style="enable-background:new 0 0 40 40;" xml:space="preserve">
<style type="text/css">
	.st0{fill:#494949;}
</style>
<g>
	<polygon class="st0" points="17.34,23.85 23.88,20.01 17.34,16.16 	"/>
	<path class="st0" d="M36.88,0H3.12C1.4,0,0,1.4,0,3.12v33.75C0,38.6,1.4,40,3.12,40h33.75C38.6,40,40,38.6,40,36.88V3.12
		C40,1.4,38.6,0,36.88,0z M30,23.58L30,23.58c0,3.45-3.45,3.45-3.45,3.45H13.45C10,27.02,10,23.58,10,23.58v-7.15
		c0-3.45,3.45-3.45,3.45-3.45h13.11c3.45,0,3.45,3.45,3.45,3.45V23.58z"/>
</g>
</svg>
