<?xml version="1.0" encoding="utf-8"?>
<!-- Generator: Adobe Illustrator 26.0.1, SVG Export Plug-In . SVG Version: 6.00 Build 0)  -->
<svg version="1.1" xmlns="http://www.w3.org/2000/svg" xmlns:xlink="http://www.w3.org/1999/xlink" x="0px" y="0px"
	 viewBox="0 0 500 500" style="enable-background:new 0 0 500 500;" xml:space="preserve">
<style type="text/css">
	.st0{fill:#E0E0E0;}
	.st1{fill:#EBEBEB;}
	.st2{opacity:0.2;}
	.st3{fill:#FFFFFF;}
	.st4{fill:#F0F0F0;}
	.st5{opacity:0.2;fill:#FFFFFF;}
	.st6{opacity:0.3;}
	.st7{opacity:0.6;fill:#FFFFFF;enable-background:new    ;}
	.st8{fill:#E6E6E6;}
	.st9{fill:#CECECE;}
	.st10{display:none;}
	.st11{display:inline;}
	.st12{fill:#407BFF;}
	.st13{opacity:0.9;fill:#FFFFFF;}
	.st14{fill:#F5F5F5;}
	.st15{fill:#263238;}
	.st16{opacity:0.5;fill:#FFFFFF;}
	.st17{fill:#FFFFFF;stroke:#263238;stroke-miterlimit:10;}
	.st18{fill:none;stroke:#407BFF;stroke-width:0.75;stroke-linejoin:round;stroke-miterlimit:10;}
	.st19{fill:none;stroke:#407BFF;stroke-miterlimit:10;}
	.st20{fill:#FFAD4E;}
	.st21{fill:#FFBCB4;}
	.st22{fill:#FF3F3E;}
	.st23{opacity:0.2;enable-background:new    ;}
	.st24{fill:none;stroke:#407BFF;stroke-width:0.5;stroke-linecap:round;stroke-linejoin:round;stroke-miterlimit:10;}
	.st25{opacity:0.1;fill:#FFFFFF;enable-background:new    ;}
	.st26{opacity:0.3;enable-background:new    ;}
	.st27{fill:#FF7200;}
	.st28{fill:#EF8274;}
	.st29{opacity:0.2;fill:none;stroke:#000000;stroke-width:0.5;stroke-linecap:round;stroke-linejoin:round;stroke-miterlimit:10;}
</style>
<g id="Background_complete">
	<g>
		<g>
			<g>
				<g>
					<path class="st0" d="M448.2,360.8H267.5c-3.2,0-5.9-2.9-5.9-6.6V59.2c0-3.6,2.6-6.6,5.9-6.6h180.7c3.2,0,5.9,2.9,5.9,6.6v295.1
						C454.1,357.9,451.5,360.8,448.2,360.8z M267.5,52.9c-3.1,0-5.6,2.8-5.6,6.3v295.1c0,3.5,2.5,6.3,5.6,6.3h180.7
						c3.1,0,5.6-2.8,5.6-6.3V59.2c0-3.5-2.5-6.3-5.6-6.3H267.5z"/>
				</g>
			</g>
			<g>
				<g>
					<path class="st0" d="M239.8,360.8H59c-3.2,0-5.9-2.9-5.9-6.6V59.2c0-3.6,2.6-6.6,5.9-6.6h180.7c3.2,0,5.9,2.9,5.9,6.6v295.1
						C245.7,357.9,243,360.8,239.8,360.8z M59,52.9c-3.1,0-5.6,2.8-5.6,6.3v295.1c0,3.5,2.5,6.3,5.6,6.3h180.7
						c3.1,0,5.6-2.8,5.6-6.3V59.2c0-3.5-2.5-6.3-5.6-6.3H59z"/>
				</g>
			</g>
		</g>
		<g>
			<g>
				<g>
					<rect x="0" y="406.2" class="st0" width="500" height="0.2"/>
				</g>
			</g>
			<rect x="51.7" y="420.5" class="st0" width="16.1" height="0.2"/>
			<rect x="170.4" y="417.8" class="st0" width="53.5" height="0.2"/>
			<rect x="68.7" y="429.8" class="st0" width="36.2" height="0.2"/>
			<rect x="378.4" y="417.6" class="st0" width="43.2" height="0.2"/>
			<rect x="430.5" y="417.6" class="st0" width="6.3" height="0.2"/>
			<rect x="316.2" y="423.9" class="st0" width="53.9" height="0.2"/>
		</g>
	</g>
	<g>
		<path class="st1" d="M61.2,123.5c10.8-5.4,21.7-7.6,27.8-2.4c1.3,1.1,3,4.8,3.8,6.4c4.4,8.8-2.6,21.2-15.7,27.8
			c-13.1,6.6-27.2,4.8-31.6-4c-0.6-1.3-2.6-4.9-2.7-6.3C41.7,136.7,50,129.1,61.2,123.5z"/>
		<g>
			<g class="st2">
				<path class="st3" d="M71.7,151.5l-5.1,1.4c1.5,1.4,2.5,3.2,2.9,5.2c1.7-0.4,3.5-1,5.2-1.8C74.1,154.5,73.1,152.8,71.7,151.5z"/>
			</g>
			<g class="st2">
				<path class="st3" d="M88,138.7l-1.5,2.2c1.4,1.1,2.6,2.1,3.9,3.2c0.7-1,1.3-2,1.8-3C90.7,140.2,89.5,139.6,88,138.7z"/>
			</g>
			<g class="st2">
				<path class="st3" d="M92.9,139.5c1.3-3.3,1.7-6.7,0.9-9.7c-1-0.4-2-0.7-3.1-1l-1.8,8.5C90.2,138,91.7,138.7,92.9,139.5z"/>
			</g>
		</g>
		<ellipse transform="matrix(0.8935 -0.449 0.449 0.8935 -53.214 44.2236)" class="st4" cx="66.6" cy="134.3" rx="26.3" ry="17.7"/>
		<path class="st1" d="M61.4,123.4c9-4.5,18.8-3.4,21.8,2.6c3,6-1.9,14.5-10.9,19c-9,4.5-18.8,3.4-21.8-2.6
			C47.5,136.5,52.3,127.9,61.4,123.4z"/>
		<path class="st0" d="M72.1,143.9c-9,4.5-18.8,3.4-21.8-2.6c-0.3-0.7-0.6-1.4-0.7-2.1c0.1,1.2,0.3,2.3,0.9,3.3
			c3,6,12.8,7.2,21.8,2.6c8-4,12.8-11.2,11.6-17C84.2,133.7,79.5,140.1,72.1,143.9z"/>
		<path class="st5" d="M81,137.9c0.3,0.1,6.9,0.8,6.9,0.8l-1.4,2.1l-7-1L81,137.9z"/>
		<path class="st5" d="M44.3,148c0.2,0.2,0.4,0.5,0.6,0.7l2.2,2c0,0,0,0,0,0l19.5,2.4c0,0,0,0,0,0l5.1-1.7c0,0,0,0,0,0
			C71.8,151.4,47.2,148.6,44.3,148z"/>
		<path class="st5" d="M64.1,116.2c4.9,0.7,18.2,2.1,23.3,2.7C82.4,114.3,73.3,113.2,64.1,116.2z"/>
		<path class="st5" d="M82.3,136l6.5,1.3c0,0,2.7-5.4,2.6-8.1l-7.5-0.9c0,0,0,0,0,0C84.3,130.7,83.7,133.4,82.3,136z"/>
		<path class="st5" d="M58.6,125l-8.4-0.8c-2.7,2.5-4.8,5.2-6.2,8l7.6-0.2C53.2,129.4,55.6,127,58.6,125z"/>
		<g>
			<g>
				<path class="st0" d="M91.1,128.2c0,8.1-6.2,15.1-12.6,19.3c-7.3,4.9-17,7.8-25.7,5.5c-3.9-1.1-7.4-3.3-9.3-7
					c-0.2-0.4-0.9,0-0.6,0.4c3.7,7.2,12.8,8.8,20.2,7.9c9.4-1.2,18.8-6.4,24.5-14.1c2.5-3.5,4.3-7.6,4.4-11.9
					C91.8,127.7,91.1,127.7,91.1,128.2L91.1,128.2z"/>
			</g>
		</g>
	</g>
	<g>
		<rect x="29.6" y="359.7" class="st1" width="54.6" height="12"/>
		<g>
			<g class="st6">
				<g>
					<path class="st0" d="M34.3,360.3c0,3.6,0,7.1,0,10.7c0,0.5,0.8,0.5,0.8,0c0-3.6,0-7.1,0-10.7C35,359.8,34.3,359.8,34.3,360.3
						L34.3,360.3z"/>
				</g>
			</g>
			<g class="st6">
				<g>
					<path class="st0" d="M38.8,360.3c0,3.6,0,7.1,0,10.7c0,0.5,0.8,0.5,0.8,0c0-3.6,0-7.1,0-10.7C39.6,359.8,38.8,359.8,38.8,360.3
						L38.8,360.3z"/>
				</g>
			</g>
			<g class="st6">
				<g>
					<path class="st0" d="M43.3,360.3c0,3.6,0,7.1,0,10.7c0,0.5,0.8,0.5,0.8,0c0-3.6,0-7.1,0-10.7C44,359.8,43.3,359.8,43.3,360.3
						L43.3,360.3z"/>
				</g>
			</g>
			<g class="st6">
				<g>
					<path class="st0" d="M47.7,360.3c0,3.6,0,7.1,0,10.7c0,0.5,0.8,0.5,0.8,0c0-3.6,0-7.1,0-10.7C48.5,359.8,47.7,359.8,47.7,360.3
						L47.7,360.3z"/>
				</g>
			</g>
			<g class="st6">
				<g>
					<path class="st0" d="M52.2,360.3c0,3.6,0,7.1,0,10.7c0,0.5,0.8,0.5,0.8,0c0-3.6,0-7.1,0-10.7C52.9,359.8,52.2,359.8,52.2,360.3
						L52.2,360.3z"/>
				</g>
			</g>
			<g class="st6">
				<g>
					<path class="st0" d="M56.6,360.3c0,3.6,0,7.1,0,10.7c0,0.5,0.8,0.5,0.8,0c0-3.6,0-7.1,0-10.7C57.3,359.8,56.6,359.8,56.6,360.3
						L56.6,360.3z"/>
				</g>
			</g>
			<g class="st6">
				<g>
					<path class="st0" d="M61,360.3c0,3.6,0,7.1,0,10.7c0,0.5,0.8,0.5,0.8,0c0-3.6,0-7.1,0-10.7C61.8,359.8,61,359.8,61,360.3
						L61,360.3z"/>
				</g>
			</g>
			<g class="st6">
				<g>
					<path class="st0" d="M65.5,360.3c0,3.6,0,7.1,0,10.7c0,0.5,0.8,0.5,0.8,0c0-3.6,0-7.1,0-10.7C66.2,359.8,65.5,359.8,65.5,360.3
						L65.5,360.3z"/>
				</g>
			</g>
			<g class="st6">
				<g>
					<path class="st0" d="M69.9,360.3c0,3.6,0,7.1,0,10.7c0,0.5,0.8,0.5,0.8,0c0-3.6,0-7.1,0-10.7C70.7,359.8,69.9,359.8,69.9,360.3
						L69.9,360.3z"/>
				</g>
			</g>
			<g class="st6">
				<g>
					<path class="st0" d="M74.4,360.3c0,3.6,0,7.1,0,10.7c0,0.5,0.8,0.5,0.8,0c0-3.6,0-7.1,0-10.7C75.1,359.8,74.4,359.8,74.4,360.3
						L74.4,360.3z"/>
				</g>
			</g>
			<g class="st6">
				<g>
					<path class="st0" d="M78.8,360.3c0,3.6,0,7.1,0,10.7c0,0.5,0.8,0.5,0.8,0c0-3.6,0-7.1,0-10.7C79.6,359.8,78.8,359.8,78.8,360.3
						L78.8,360.3z"/>
				</g>
			</g>
		</g>
		<rect x="26.3" y="371.6" class="st4" width="54.6" height="12"/>
		<g>
			<g class="st6">
				<g>
					<path class="st0" d="M30.7,372.3c0,3.6,0,7.1,0,10.7c0,0.5,0.8,0.5,0.8,0c0-3.6,0-7.1,0-10.7C31.4,371.8,30.7,371.8,30.7,372.3
						L30.7,372.3z"/>
				</g>
			</g>
			<g class="st6">
				<g>
					<path class="st0" d="M35.2,372.3c0,3.6,0,7.1,0,10.7c0,0.5,0.8,0.5,0.8,0c0-3.6,0-7.1,0-10.7C35.9,371.8,35.2,371.8,35.2,372.3
						L35.2,372.3z"/>
				</g>
			</g>
			<g class="st6">
				<g>
					<path class="st0" d="M39.6,372.3c0,3.6,0,7.1,0,10.7c0,0.5,0.8,0.5,0.8,0c0-3.6,0-7.1,0-10.7C40.4,371.8,39.6,371.8,39.6,372.3
						L39.6,372.3z"/>
				</g>
			</g>
			<g class="st6">
				<g>
					<path class="st0" d="M44.1,372.3c0,3.6,0,7.1,0,10.7c0,0.5,0.8,0.5,0.8,0c0-3.6,0-7.1,0-10.7C44.8,371.8,44.1,371.8,44.1,372.3
						L44.1,372.3z"/>
				</g>
			</g>
			<g class="st6">
				<g>
					<path class="st0" d="M48.5,372.3c0,3.6,0,7.1,0,10.7c0,0.5,0.8,0.5,0.8,0c0-3.6,0-7.1,0-10.7C49.3,371.8,48.5,371.8,48.5,372.3
						L48.5,372.3z"/>
				</g>
			</g>
			<g class="st6">
				<g>
					<path class="st0" d="M53,372.3c0,3.6,0,7.1,0,10.7c0,0.5,0.8,0.5,0.8,0c0-3.6,0-7.1,0-10.7C53.7,371.8,53,371.8,53,372.3
						L53,372.3z"/>
				</g>
			</g>
			<g class="st6">
				<g>
					<path class="st0" d="M57.4,372.3c0,3.6,0,7.1,0,10.7c0,0.5,0.8,0.5,0.8,0c0-3.6,0-7.1,0-10.7C58.2,371.8,57.4,371.8,57.4,372.3
						L57.4,372.3z"/>
				</g>
			</g>
			<g class="st6">
				<g>
					<path class="st0" d="M61.9,372.3c0,3.6,0,7.1,0,10.7c0,0.5,0.8,0.5,0.8,0c0-3.6,0-7.1,0-10.7C62.6,371.8,61.9,371.8,61.9,372.3
						L61.9,372.3z"/>
				</g>
			</g>
			<g class="st6">
				<g>
					<path class="st0" d="M66.3,372.3c0,3.6,0,7.1,0,10.7c0,0.5,0.8,0.5,0.8,0c0-3.6,0-7.1,0-10.7C67.1,371.8,66.3,371.8,66.3,372.3
						L66.3,372.3z"/>
				</g>
			</g>
			<g class="st6">
				<g>
					<path class="st0" d="M70.8,372.3c0,3.6,0,7.1,0,10.7c0,0.5,0.8,0.5,0.8,0c0-3.6,0-7.1,0-10.7C71.5,371.8,70.8,371.8,70.8,372.3
						L70.8,372.3z"/>
				</g>
			</g>
			<g class="st6">
				<g>
					<path class="st0" d="M75.2,372.3c0,3.6,0,7.1,0,10.7c0,0.5,0.8,0.5,0.8,0c0-3.6,0-7.1,0-10.7C76,371.8,75.2,371.8,75.2,372.3
						L75.2,372.3z"/>
				</g>
			</g>
		</g>
		<rect x="25.5" y="394.9" class="st4" width="54.6" height="12"/>
		<rect x="29.6" y="383.3" class="st1" width="54.6" height="12"/>
		<g>
			<g class="st6">
				<g>
					<path class="st0" d="M34.3,383.9c0,3.6,0,7.1,0,10.7c0,0.5,0.8,0.5,0.8,0c0-3.6,0-7.1,0-10.7C35,383.4,34.3,383.4,34.3,383.9
						L34.3,383.9z"/>
				</g>
			</g>
			<g class="st6">
				<g>
					<path class="st0" d="M38.8,383.9c0,3.6,0,7.1,0,10.7c0,0.5,0.8,0.5,0.8,0c0-3.6,0-7.1,0-10.7C39.6,383.4,38.8,383.4,38.8,383.9
						L38.8,383.9z"/>
				</g>
			</g>
			<g class="st6">
				<g>
					<path class="st0" d="M43.3,383.9c0,3.6,0,7.1,0,10.7c0,0.5,0.8,0.5,0.8,0c0-3.6,0-7.1,0-10.7C44,383.4,43.3,383.4,43.3,383.9
						L43.3,383.9z"/>
				</g>
			</g>
			<g class="st6">
				<g>
					<path class="st0" d="M47.7,383.9c0,3.6,0,7.1,0,10.7c0,0.5,0.8,0.5,0.8,0c0-3.6,0-7.1,0-10.7C48.5,383.4,47.7,383.4,47.7,383.9
						L47.7,383.9z"/>
				</g>
			</g>
			<g class="st6">
				<g>
					<path class="st0" d="M52.2,383.9c0,3.6,0,7.1,0,10.7c0,0.5,0.8,0.5,0.8,0c0-3.6,0-7.1,0-10.7C52.9,383.4,52.2,383.4,52.2,383.9
						L52.2,383.9z"/>
				</g>
			</g>
			<g class="st6">
				<g>
					<path class="st0" d="M56.6,383.9c0,3.6,0,7.1,0,10.7c0,0.5,0.8,0.5,0.8,0c0-3.6,0-7.1,0-10.7C57.3,383.4,56.6,383.4,56.6,383.9
						L56.6,383.9z"/>
				</g>
			</g>
			<g class="st6">
				<g>
					<path class="st0" d="M61,383.9c0,3.6,0,7.1,0,10.7c0,0.5,0.8,0.5,0.8,0c0-3.6,0-7.1,0-10.7C61.8,383.4,61,383.4,61,383.9
						L61,383.9z"/>
				</g>
			</g>
			<g class="st6">
				<g>
					<path class="st0" d="M65.5,383.9c0,3.6,0,7.1,0,10.7c0,0.5,0.8,0.5,0.8,0c0-3.6,0-7.1,0-10.7C66.2,383.4,65.5,383.4,65.5,383.9
						L65.5,383.9z"/>
				</g>
			</g>
			<g class="st6">
				<g>
					<path class="st0" d="M69.9,383.9c0,3.6,0,7.1,0,10.7c0,0.5,0.8,0.5,0.8,0c0-3.6,0-7.1,0-10.7C70.7,383.4,69.9,383.4,69.9,383.9
						L69.9,383.9z"/>
				</g>
			</g>
			<g class="st6">
				<g>
					<path class="st0" d="M74.4,383.9c0,3.6,0,7.1,0,10.7c0,0.5,0.8,0.5,0.8,0c0-3.6,0-7.1,0-10.7C75.1,383.4,74.4,383.4,74.4,383.9
						L74.4,383.9z"/>
				</g>
			</g>
			<g class="st6">
				<g>
					<path class="st0" d="M78.8,383.9c0,3.6,0,7.1,0,10.7c0,0.5,0.8,0.5,0.8,0c0-3.6,0-7.1,0-10.7C79.6,383.4,78.8,383.4,78.8,383.9
						L78.8,383.9z"/>
				</g>
			</g>
		</g>
		<g>
			<g class="st6">
				<g>
					<path class="st0" d="M29.4,395.8c0,3.6,0,7.1,0,10.7c0,0.5,0.8,0.5,0.8,0c0-3.6,0-7.1,0-10.7C30.2,395.3,29.4,395.3,29.4,395.8
						L29.4,395.8z"/>
				</g>
			</g>
			<g class="st6">
				<g>
					<path class="st0" d="M33.9,395.8c0,3.6,0,7.1,0,10.7c0,0.5,0.8,0.5,0.8,0c0-3.6,0-7.1,0-10.7C34.7,395.3,33.9,395.3,33.9,395.8
						L33.9,395.8z"/>
				</g>
			</g>
			<g class="st6">
				<g>
					<path class="st0" d="M38.4,395.8c0,3.6,0,7.1,0,10.7c0,0.5,0.8,0.5,0.8,0c0-3.6,0-7.1,0-10.7C39.1,395.3,38.4,395.3,38.4,395.8
						L38.4,395.8z"/>
				</g>
			</g>
			<g class="st6">
				<g>
					<path class="st0" d="M42.8,395.8c0,3.6,0,7.1,0,10.7c0,0.5,0.8,0.5,0.8,0c0-3.6,0-7.1,0-10.7C43.6,395.3,42.8,395.3,42.8,395.8
						L42.8,395.8z"/>
				</g>
			</g>
			<g class="st6">
				<g>
					<path class="st0" d="M47.3,395.8c0,3.6,0,7.1,0,10.7c0,0.5,0.8,0.5,0.8,0c0-3.6,0-7.1,0-10.7C48,395.3,47.3,395.3,47.3,395.8
						L47.3,395.8z"/>
				</g>
			</g>
			<g class="st6">
				<g>
					<path class="st0" d="M51.7,395.8c0,3.6,0,7.1,0,10.7c0,0.5,0.8,0.5,0.8,0c0-3.6,0-7.1,0-10.7C52.5,395.3,51.7,395.3,51.7,395.8
						L51.7,395.8z"/>
				</g>
			</g>
			<g class="st6">
				<g>
					<path class="st0" d="M56.2,395.8c0,3.6,0,7.1,0,10.7c0,0.5,0.8,0.5,0.8,0c0-3.6,0-7.1,0-10.7C56.9,395.3,56.2,395.3,56.2,395.8
						L56.2,395.8z"/>
				</g>
			</g>
			<g class="st6">
				<g>
					<path class="st0" d="M60.6,395.8c0,3.6,0,7.1,0,10.7c0,0.5,0.8,0.5,0.8,0c0-3.6,0-7.1,0-10.7C61.4,395.3,60.6,395.3,60.6,395.8
						L60.6,395.8z"/>
				</g>
			</g>
			<g class="st6">
				<g>
					<path class="st0" d="M65.1,395.8c0,3.6,0,7.1,0,10.7c0,0.5,0.8,0.5,0.8,0c0-3.6,0-7.1,0-10.7C65.8,395.3,65.1,395.3,65.1,395.8
						L65.1,395.8z"/>
				</g>
			</g>
			<g class="st6">
				<g>
					<path class="st0" d="M69.5,395.8c0,3.6,0,7.1,0,10.7c0,0.5,0.8,0.5,0.8,0c0-3.6,0-7.1,0-10.7C70.3,395.3,69.5,395.3,69.5,395.8
						L69.5,395.8z"/>
				</g>
			</g>
			<g class="st6">
				<g>
					<path class="st0" d="M74,395.8c0,3.6,0,7.1,0,10.7c0,0.5,0.8,0.5,0.8,0c0-3.6,0-7.1,0-10.7C74.7,395.3,74,395.3,74,395.8
						L74,395.8z"/>
				</g>
			</g>
		</g>
	</g>
	<g>
		<g>
			<path class="st1" d="M339.3,367.6c-2.6-0.1-5-1.4-6.9-3.1c-1.9-1.7-3.3-3.9-4.5-6.2c-3.1-6.1-4.6-13-4.3-19.8
				c0.1-1.5,0.2-3,0.8-4.3c0.6-1.3,1.8-2.5,3.3-2.7c2.2-0.3,4.1,1.4,5.4,3.1c6.2,7.7,9.4,17.8,8.8,27.7
				C341.9,364.8,341,367.1,339.3,367.6"/>
		</g>
		<g>
			<path class="st1" d="M354.4,353.9c-2.4-4.9-2.5-10.7-1-15.9c1.6-5.2,4.8-9.8,8.7-13.5c4.3-4.1,9.9-7.2,15.9-7.2
				c2.5,0,5.3,0.7,6.8,2.7c1.7,2.1,1.5,5.2,0.8,7.8c-1.2,4.3-3.7,8.1-6.7,11.3c-3,3.2-6.5,6-10.1,8.7c-4,3-8.2,6.2-13.2,6.6"/>
		</g>
		<g>
			<g>
				<path class="st0" d="M327.8,335.3c7.6,18.6,13.2,37.9,16.8,57.6c0.1,0.5,0.8,0.3,0.7-0.2c-3.6-19.7-9.2-39-16.8-57.6
					C328.4,334.7,327.6,334.9,327.8,335.3L327.8,335.3z"/>
			</g>
		</g>
		<g>
			<g>
				<path class="st0" d="M348.7,390.5c-0.3-10,0.5-20,3.3-29.6c2.8-9.5,7.5-18.3,14.1-25.7c4.2-4.7,9-8.8,14.2-12.4
					c0.4-0.3,0-0.9-0.4-0.6c-8.9,6.1-16.7,13.8-22.1,23.2c-5,8.5-7.8,18-9.1,27.7c-0.8,5.8-0.9,11.6-0.7,17.5
					C347.9,391,348.7,391,348.7,390.5L348.7,390.5z"/>
			</g>
		</g>
		<g>
			<path class="st0" d="M330.2,385.6v-11.9h16.6h16.6v11.9c0,0,0.6,21-11.1,23h-5.5h-5.5C329.6,406.7,330.2,385.6,330.2,385.6z"/>
		</g>
	</g>
	<g>
		<rect x="367.1" y="71.3" class="st0" width="78.2" height="124.3"/>
		<rect x="373" y="77.1" class="st7" width="66.5" height="112.7"/>
		<rect x="377.4" y="81.1" class="st3" width="57.7" height="104.6"/>
		<rect x="390.6" y="94.8" class="st8" width="31.9" height="76"/>
		<path class="st7" d="M380.7,83.4c0,0-1,75.9,0.5,75.6c1.5-0.3,41.1-74.7,41.3-75.5L380.7,83.4z"/>
	</g>
	<path class="st9" d="M75.2,135.9c0.2,0.2,0.5,0.3,0.8,0.1l1.6-1c0.3-0.2,0.4-0.5,0.2-0.7l-6.8-10.6c-0.2-0.2-0.5-0.3-0.8-0.1
		l-1.8,1.1c-0.3,0.2-0.4,0.5-0.2,0.7l2,3.1c0.6,1,0.7,2,0.3,2.9l-3.4-5.2c-0.2-0.2-0.5-0.3-0.8-0.1l-1.6,1c-0.3,0.2-0.4,0.5-0.2,0.7
		l3.7,5.7c-1.6,0.7-3.1,0.3-4-1.2l-1.9-3c-0.2-0.2-0.5-0.3-0.8-0.1l-2.1,1.4c-0.1,0.1-0.2,0.2-0.3,0.4l-2.2,9.8c0,0.1,0,0.3,0.1,0.4
		l1.9,3c0.3,0.4,0.9,0.2,1-0.2l2-8.9c1.9,2.7,5.1,3.3,8.2,1.7l1.2,1.9c0.2,0.2,0.5,0.3,0.8,0.1l1.6-1c0.3-0.2,0.4-0.5,0.2-0.7
		l-1.4-2.1c0.4-0.4,0.7-0.9,0.9-1.3L75.2,135.9z"/>
</g>
<g id="Background_simple" class="st10">
	<g class="st11">
		<path class="st12" d="M161.2,110.9c-23.5,2.8-46.1,8.9-66.2,18.4c-23.7,11.2-47.9,28.7-40.7,51.5c13.2,42.1,76.5,42.9,63.9,71.3
			c-14.3,32.1-4.7,69.8,59.5,80.2c122,19.9,269.5-96.5,228.1-160.4C379.9,132,286,95.7,161.2,110.9z"/>
		<path class="st13" d="M161.2,110.9c-23.5,2.8-46.1,8.9-66.2,18.4c-23.7,11.2-47.9,28.7-40.7,51.5c13.2,42.1,76.5,42.9,63.9,71.3
			c-14.3,32.1-4.7,69.8,59.5,80.2c122,19.9,269.5-96.5,228.1-160.4C379.9,132,286,95.7,161.2,110.9z"/>
	</g>
</g>
<g id="Shadow">
	<g>
		<g>
			<path class="st14" d="M486,465c0,7.1-96.2,12.9-214.9,12.9S56.3,472.1,56.3,465c0-7.1,96.2-12.9,214.9-12.9S486,457.8,486,465z"
				/>
		</g>
	</g>
</g>
<g id="Coins">
	<g>
		<path class="st12" d="M316.4,272.3c11.1-4.1,21.8-5,27.2,0.7c1.1,1.2,2.4,5,3,6.6c3.3,8.9-4.8,20.2-18.2,25.1
			c-13.4,4.9-26.9,1.7-30.2-7.2c-0.5-1.3-1.9-5-2-6.4C296.1,283,305,276.5,316.4,272.3z"/>
		<g>
			<g class="st2">
				<path class="st3" d="M323.5,300.5l-5,0.8c1.3,1.5,2.1,3.4,2.2,5.4c1.7-0.2,3.5-0.6,5.2-1.1C325.6,303.7,324.7,301.9,323.5,300.5
					z"/>
			</g>
			<g class="st2">
				<path class="st3" d="M340.7,289.9l-1.7,2c1.2,1.2,2.3,2.3,3.4,3.5c0.8-0.9,1.5-1.8,2.1-2.8C343.2,291.6,342.1,290.9,340.7,289.9
					z"/>
			</g>
			<g class="st2">
				<path class="st3" d="M345.3,291.2c1.7-3.1,2.4-6.3,1.9-9.3c-0.9-0.5-1.9-0.9-2.9-1.3l-2.7,8
					C342.9,289.5,344.2,290.3,345.3,291.2z"/>
			</g>
		</g>
		<path class="st2" d="M316.4,272.3c11.1-4.1,21.8-5,27.2,0.7c1.1,1.2,2.4,5,3,6.6c3.3,8.9-4.8,20.2-18.2,25.1
			c-13.4,4.9-26.9,1.7-30.2-7.2c-0.5-1.3-1.9-5-2-6.4C296.2,283,305,276.5,316.4,272.3z"/>
		
			<ellipse transform="matrix(0.9377 -0.3473 0.3473 0.9377 -78.4627 128.9595)" class="st12" cx="320.5" cy="283.3" rx="25.6" ry="17.3"/>
		<path class="st12" d="M316.6,272.2c9.2-3.4,18.5-1.2,20.8,4.9c2.3,6.1-3.4,13.8-12.6,17.2c-9.2,3.4-18.5,1.2-20.8-4.9
			C301.7,283.4,307.3,275.6,316.6,272.2z"/>
		<path class="st2" d="M316.6,272.2c9.2-3.4,18.5-1.2,20.8,4.9c2.3,6.1-3.4,13.8-12.6,17.2c-9.2,3.4-18.5,1.2-20.8-4.9
			C301.7,283.4,307.3,275.6,316.6,272.2z"/>
		<path class="st2" d="M324.7,293.2c-9.2,3.4-18.5,1.2-20.8-4.9c-0.2-0.7-0.4-1.4-0.5-2.1c-0.1,1.1,0.1,2.2,0.5,3.3
			c2.3,6.1,11.6,8.3,20.8,4.9c8.2-3,13.6-9.5,13.1-15.2C337.5,284.6,332.3,290.4,324.7,293.2z"/>
		<path class="st5" d="M334,288.4c0.3,0.1,6.6,1.5,6.6,1.5l-1.6,1.9l-6.7-1.7L334,288.4z"/>
		<path class="st5" d="M297.4,294.2c0.1,0.2,0.3,0.5,0.5,0.7l1.9,2.2c0,0,0,0,0,0l18.6,4.4c0,0,0,0,0,0l5.1-1.1c0,0,0,0,0,0
			C323.6,300.4,300.2,295.1,297.4,294.2z"/>
		<path class="st5" d="M320,265.6c4.6,1.2,17.4,4,22.3,5.1C337.9,265.7,329.2,263.7,320,265.6z"/>
		<path class="st5" d="M335.4,286.6l6.2,2c0,0,3.2-4.9,3.4-7.6l-7.2-1.7c0,0,0,0,0,0C338,281.8,337.1,284.3,335.4,286.6z"/>
		<path class="st5" d="M313.7,273.5l-8-1.6c-2.9,2.1-5.2,4.5-6.9,7l7.4,0.7C308,277.2,310.6,275.1,313.7,273.5z"/>
		<g>
			<g>
				<path class="st15" d="M344.8,280.1c-0.9,7.8-7.7,13.9-14.3,17.3c-7.5,3.9-17.1,5.6-25.2,2.5c-3.7-1.4-7-4-8.4-7.8
					c-0.2-0.4-0.9-0.3-0.7,0.2c2.9,7.5,11.5,10,18.9,9.8c9.2-0.2,18.8-4.3,25.1-11.1c2.8-3.1,4.9-6.8,5.4-11
					C345.6,279.6,344.8,279.6,344.8,280.1L344.8,280.1z"/>
			</g>
		</g>
	</g>
	<g>
		<g>
			<g>
				<g>
					<rect x="96.5" y="415.6" class="st12" width="63.1" height="11"/>
					<g>
						<g class="st6">
							<g>
								<path class="st15" d="M101.7,416.2c0,3.3,0,6.6,0,9.8c0,0.5,0.8,0.5,0.8,0c0-3.3,0-6.6,0-9.8
									C102.4,415.7,101.7,415.7,101.7,416.2L101.7,416.2z"/>
							</g>
						</g>
						<g class="st6">
							<g>
								<path class="st15" d="M106.9,416.2c0,3.3,0,6.6,0,9.8c0,0.5,0.8,0.5,0.8,0c0-3.3,0-6.6,0-9.8
									C107.6,415.7,106.9,415.7,106.9,416.2L106.9,416.2z"/>
							</g>
						</g>
						<g class="st6">
							<g>
								<path class="st15" d="M112,416.2c0,3.3,0,6.6,0,9.8c0,0.5,0.8,0.5,0.8,0c0-3.3,0-6.6,0-9.8C112.8,415.7,112,415.7,112,416.2
									L112,416.2z"/>
							</g>
						</g>
						<g class="st6">
							<g>
								<path class="st15" d="M117.2,416.2c0,3.3,0,6.6,0,9.8c0,0.5,0.8,0.5,0.8,0c0-3.3,0-6.6,0-9.8
									C117.9,415.7,117.2,415.7,117.2,416.2L117.2,416.2z"/>
							</g>
						</g>
						<g class="st6">
							<g>
								<path class="st15" d="M122.3,416.2c0,3.3,0,6.6,0,9.8c0,0.5,0.8,0.5,0.8,0c0-3.3,0-6.6,0-9.8
									C123.1,415.7,122.3,415.7,122.3,416.2L122.3,416.2z"/>
							</g>
						</g>
						<g class="st6">
							<g>
								<path class="st15" d="M127.5,416.2c0,3.3,0,6.6,0,9.8c0,0.5,0.8,0.5,0.8,0c0-3.3,0-6.6,0-9.8
									C128.2,415.7,127.5,415.7,127.5,416.2L127.5,416.2z"/>
							</g>
						</g>
						<g class="st6">
							<g>
								<path class="st15" d="M132.6,416.2c0,3.3,0,6.6,0,9.8c0,0.5,0.8,0.5,0.8,0c0-3.3,0-6.6,0-9.8
									C133.3,415.7,132.6,415.7,132.6,416.2L132.6,416.2z"/>
							</g>
						</g>
						<g class="st6">
							<g>
								<path class="st15" d="M137.7,416.2c0,3.3,0,6.6,0,9.8c0,0.5,0.8,0.5,0.8,0c0-3.3,0-6.6,0-9.8
									C138.5,415.7,137.7,415.7,137.7,416.2L137.7,416.2z"/>
							</g>
						</g>
						<g class="st6">
							<g>
								<path class="st15" d="M142.9,416.2c0,3.3,0,6.6,0,9.8c0,0.5,0.8,0.5,0.8,0c0-3.3,0-6.6,0-9.8
									C143.6,415.7,142.9,415.7,142.9,416.2L142.9,416.2z"/>
							</g>
						</g>
						<g class="st6">
							<g>
								<path class="st15" d="M148,416.2c0,3.3,0,6.6,0,9.8c0,0.5,0.8,0.5,0.8,0c0-3.3,0-6.6,0-9.8C148.8,415.7,148,415.7,148,416.2
									L148,416.2z"/>
							</g>
						</g>
						<g class="st6">
							<g>
								<path class="st15" d="M153.2,416.2c0,3.3,0,6.6,0,9.8c0,0.5,0.8,0.5,0.8,0c0-3.3,0-6.6,0-9.8
									C153.9,415.7,153.2,415.7,153.2,416.2L153.2,416.2z"/>
							</g>
						</g>
					</g>
					<rect x="95.6" y="437" class="st12" width="63.1" height="11"/>
					<rect x="100.4" y="426.3" class="st12" width="63.1" height="11"/>
					<rect x="100.4" y="426.3" class="st2" width="63.1" height="11"/>
					<g>
						<g class="st6">
							<g>
								<path class="st15" d="M105.8,426.8c0,3.3,0,6.6,0,9.8c0,0.5,0.8,0.5,0.8,0c0-3.3,0-6.6,0-9.8
									C106.6,426.3,105.8,426.3,105.8,426.8L105.8,426.8z"/>
							</g>
						</g>
						<g class="st6">
							<g>
								<path class="st15" d="M111.1,426.8c0,3.3,0,6.6,0,9.8c0,0.5,0.8,0.5,0.8,0c0-3.3,0-6.6,0-9.8
									C111.8,426.3,111.1,426.3,111.1,426.8L111.1,426.8z"/>
							</g>
						</g>
						<g class="st6">
							<g>
								<path class="st15" d="M116.2,426.8c0,3.3,0,6.6,0,9.8c0,0.5,0.8,0.5,0.8,0c0-3.3,0-6.6,0-9.8
									C117,426.3,116.2,426.3,116.2,426.8L116.2,426.8z"/>
							</g>
						</g>
						<g class="st6">
							<g>
								<path class="st15" d="M121.3,426.8c0,3.3,0,6.6,0,9.8c0,0.5,0.8,0.5,0.8,0c0-3.3,0-6.6,0-9.8
									C122.1,426.3,121.3,426.3,121.3,426.8L121.3,426.8z"/>
							</g>
						</g>
						<g class="st6">
							<g>
								<path class="st15" d="M126.5,426.8c0,3.3,0,6.6,0,9.8c0,0.5,0.8,0.5,0.8,0c0-3.3,0-6.6,0-9.8
									C127.2,426.3,126.5,426.3,126.5,426.8L126.5,426.8z"/>
							</g>
						</g>
						<g class="st6">
							<g>
								<path class="st15" d="M131.6,426.8c0,3.3,0,6.6,0,9.8c0,0.5,0.8,0.5,0.8,0c0-3.3,0-6.6,0-9.8
									C132.4,426.3,131.6,426.3,131.6,426.8L131.6,426.8z"/>
							</g>
						</g>
						<g class="st6">
							<g>
								<path class="st15" d="M136.8,426.8c0,3.3,0,6.6,0,9.8c0,0.5,0.8,0.5,0.8,0c0-3.3,0-6.6,0-9.8
									C137.5,426.3,136.8,426.3,136.8,426.8L136.8,426.8z"/>
							</g>
						</g>
						<g class="st6">
							<g>
								<path class="st15" d="M141.9,426.8c0,3.3,0,6.6,0,9.8c0,0.5,0.8,0.5,0.8,0c0-3.3,0-6.6,0-9.8
									C142.7,426.3,141.9,426.3,141.9,426.8L141.9,426.8z"/>
							</g>
						</g>
						<g class="st6">
							<g>
								<path class="st15" d="M147,426.8c0,3.3,0,6.6,0,9.8c0,0.5,0.8,0.5,0.8,0c0-3.3,0-6.6,0-9.8C147.8,426.3,147,426.3,147,426.8
									L147,426.8z"/>
							</g>
						</g>
						<g class="st6">
							<g>
								<path class="st15" d="M152.2,426.8c0,3.3,0,6.6,0,9.8c0,0.5,0.8,0.5,0.8,0c0-3.3,0-6.6,0-9.8
									C152.9,426.3,152.2,426.3,152.2,426.8L152.2,426.8z"/>
							</g>
						</g>
						<g class="st6">
							<g>
								<path class="st15" d="M157.3,426.8c0,3.3,0,6.6,0,9.8c0,0.5,0.8,0.5,0.8,0c0-3.3,0-6.6,0-9.8
									C158.1,426.3,157.3,426.3,157.3,426.8L157.3,426.8z"/>
							</g>
						</g>
					</g>
					<rect x="100.4" y="404.4" class="st12" width="63.1" height="11"/>
					<rect x="100.4" y="404.4" class="st2" width="63.1" height="11"/>
					<g>
						<g class="st6">
							<g>
								<path class="st15" d="M105.8,405c0,3.3,0,6.6,0,9.8c0,0.5,0.8,0.5,0.8,0c0-3.3,0-6.6,0-9.8
									C106.6,404.5,105.8,404.5,105.8,405L105.8,405z"/>
							</g>
						</g>
						<g class="st6">
							<g>
								<path class="st15" d="M111.1,405c0,3.3,0,6.6,0,9.8c0,0.5,0.8,0.5,0.8,0c0-3.3,0-6.6,0-9.8
									C111.8,404.5,111.1,404.5,111.1,405L111.1,405z"/>
							</g>
						</g>
						<g class="st6">
							<g>
								<path class="st15" d="M116.2,405c0,3.3,0,6.6,0,9.8c0,0.5,0.8,0.5,0.8,0c0-3.3,0-6.6,0-9.8C117,404.5,116.2,404.5,116.2,405
									L116.2,405z"/>
							</g>
						</g>
						<g class="st6">
							<g>
								<path class="st15" d="M121.3,405c0,3.3,0,6.6,0,9.8c0,0.5,0.8,0.5,0.8,0c0-3.3,0-6.6,0-9.8
									C122.1,404.5,121.3,404.5,121.3,405L121.3,405z"/>
							</g>
						</g>
						<g class="st6">
							<g>
								<path class="st15" d="M126.5,405c0,3.3,0,6.6,0,9.8c0,0.5,0.8,0.5,0.8,0c0-3.3,0-6.6,0-9.8
									C127.2,404.5,126.5,404.5,126.5,405L126.5,405z"/>
							</g>
						</g>
						<g class="st6">
							<g>
								<path class="st15" d="M131.6,405c0,3.3,0,6.6,0,9.8c0,0.5,0.8,0.5,0.8,0c0-3.3,0-6.6,0-9.8
									C132.4,404.5,131.6,404.5,131.6,405L131.6,405z"/>
							</g>
						</g>
						<g class="st6">
							<g>
								<path class="st15" d="M136.8,405c0,3.3,0,6.6,0,9.8c0,0.5,0.8,0.5,0.8,0c0-3.3,0-6.6,0-9.8
									C137.5,404.5,136.8,404.5,136.8,405L136.8,405z"/>
							</g>
						</g>
						<g class="st6">
							<g>
								<path class="st15" d="M141.9,405c0,3.3,0,6.6,0,9.8c0,0.5,0.8,0.5,0.8,0c0-3.3,0-6.6,0-9.8
									C142.7,404.5,141.9,404.5,141.9,405L141.9,405z"/>
							</g>
						</g>
						<g class="st6">
							<g>
								<path class="st15" d="M147,405c0,3.3,0,6.6,0,9.8c0,0.5,0.8,0.5,0.8,0c0-3.3,0-6.6,0-9.8C147.8,404.5,147,404.5,147,405
									L147,405z"/>
							</g>
						</g>
						<g class="st6">
							<g>
								<path class="st15" d="M152.2,405c0,3.3,0,6.6,0,9.8c0,0.5,0.8,0.5,0.8,0c0-3.3,0-6.6,0-9.8
									C152.9,404.5,152.2,404.5,152.2,405L152.2,405z"/>
							</g>
						</g>
						<g class="st6">
							<g>
								<path class="st15" d="M157.3,405c0,3.3,0,6.6,0,9.8c0,0.5,0.8,0.5,0.8,0c0-3.3,0-6.6,0-9.8
									C158.1,404.5,157.3,404.5,157.3,405L157.3,405z"/>
							</g>
						</g>
					</g>
					<g>
						<g class="st6">
							<g>
								<path class="st15" d="M100.2,437.7c0,3.3,0,6.6,0,9.8c0,0.5,0.8,0.5,0.8,0c0-3.3,0-6.6,0-9.8
									C101,437.2,100.2,437.2,100.2,437.7L100.2,437.7z"/>
							</g>
						</g>
						<g class="st6">
							<g>
								<path class="st15" d="M105.4,437.7c0,3.3,0,6.6,0,9.8c0,0.5,0.8,0.5,0.8,0c0-3.3,0-6.6,0-9.8
									C106.2,437.2,105.4,437.2,105.4,437.7L105.4,437.7z"/>
							</g>
						</g>
						<g class="st6">
							<g>
								<path class="st15" d="M110.6,437.7c0,3.3,0,6.6,0,9.8c0,0.5,0.8,0.5,0.8,0c0-3.3,0-6.6,0-9.8
									C111.3,437.2,110.6,437.2,110.6,437.7L110.6,437.7z"/>
							</g>
						</g>
						<g class="st6">
							<g>
								<path class="st15" d="M115.7,437.7c0,3.3,0,6.6,0,9.8c0,0.5,0.8,0.5,0.8,0c0-3.3,0-6.6,0-9.8
									C116.5,437.2,115.7,437.2,115.7,437.7L115.7,437.7z"/>
							</g>
						</g>
						<g class="st6">
							<g>
								<path class="st15" d="M120.8,437.7c0,3.3,0,6.6,0,9.8c0,0.5,0.8,0.5,0.8,0c0-3.3,0-6.6,0-9.8
									C121.6,437.2,120.8,437.2,120.8,437.7L120.8,437.7z"/>
							</g>
						</g>
						<g class="st6">
							<g>
								<path class="st15" d="M126,437.7c0,3.3,0,6.6,0,9.8c0,0.5,0.8,0.5,0.8,0c0-3.3,0-6.6,0-9.8C126.7,437.2,126,437.2,126,437.7
									L126,437.7z"/>
							</g>
						</g>
						<g class="st6">
							<g>
								<path class="st15" d="M131.1,437.7c0,3.3,0,6.6,0,9.8c0,0.5,0.8,0.5,0.8,0c0-3.3,0-6.6,0-9.8
									C131.9,437.2,131.1,437.2,131.1,437.7L131.1,437.7z"/>
							</g>
						</g>
						<g class="st6">
							<g>
								<path class="st15" d="M136.3,437.7c0,3.3,0,6.6,0,9.8c0,0.5,0.8,0.5,0.8,0c0-3.3,0-6.6,0-9.8
									C137,437.2,136.3,437.2,136.3,437.7L136.3,437.7z"/>
							</g>
						</g>
						<g class="st6">
							<g>
								<path class="st15" d="M141.4,437.7c0,3.3,0,6.6,0,9.8c0,0.5,0.8,0.5,0.8,0c0-3.3,0-6.6,0-9.8
									C142.2,437.2,141.4,437.2,141.4,437.7L141.4,437.7z"/>
							</g>
						</g>
						<g class="st6">
							<g>
								<path class="st15" d="M146.6,437.7c0,3.3,0,6.6,0,9.8c0,0.5,0.8,0.5,0.8,0c0-3.3,0-6.6,0-9.8
									C147.3,437.2,146.6,437.2,146.6,437.7L146.6,437.7z"/>
							</g>
						</g>
						<g class="st6">
							<g>
								<path class="st15" d="M151.7,437.7c0,3.3,0,6.6,0,9.8c0,0.5,0.8,0.5,0.8,0c0-3.3,0-6.6,0-9.8
									C152.4,437.2,151.7,437.2,151.7,437.7L151.7,437.7z"/>
							</g>
						</g>
					</g>
				</g>
			</g>
			<g>
				<g class="st6">
					<polygon points="159.6,415.6 96.5,415.6 96.5,426.6 100.4,426.6 100.4,437 95.6,437 95.6,447.9 158.7,447.9 158.7,437.2 
						163.5,437.2 163.5,426.3 159.6,426.3 					"/>
				</g>
				<g class="st2">
					<rect x="100.4" y="404.4" width="63.1" height="11"/>
				</g>
			</g>
		</g>
		<g>
			<rect x="61.9" y="340.1" class="st12" width="63.1" height="11"/>
			<rect x="61.9" y="340.1" class="st2" width="63.1" height="11"/>
			<g>
				<g class="st6">
					<g>
						<path class="st15" d="M67.4,340.7c0,3.3,0,6.6,0,9.8c0,0.5,0.8,0.5,0.8,0c0-3.3,0-6.6,0-9.8C68.1,340.2,67.4,340.2,67.4,340.7
							L67.4,340.7z"/>
					</g>
				</g>
				<g class="st6">
					<g>
						<path class="st15" d="M72.6,340.7c0,3.3,0,6.6,0,9.8c0,0.5,0.8,0.5,0.8,0c0-3.3,0-6.6,0-9.8C73.3,340.2,72.6,340.2,72.6,340.7
							L72.6,340.7z"/>
					</g>
				</g>
				<g class="st6">
					<g>
						<path class="st15" d="M77.7,340.7c0,3.3,0,6.6,0,9.8c0,0.5,0.8,0.5,0.8,0c0-3.3,0-6.6,0-9.8C78.5,340.2,77.7,340.2,77.7,340.7
							L77.7,340.7z"/>
					</g>
				</g>
				<g class="st6">
					<g>
						<path class="st15" d="M82.9,340.7c0,3.3,0,6.6,0,9.8c0,0.5,0.8,0.5,0.8,0c0-3.3,0-6.6,0-9.8C83.6,340.2,82.9,340.2,82.9,340.7
							L82.9,340.7z"/>
					</g>
				</g>
				<g class="st6">
					<g>
						<path class="st15" d="M88,340.7c0,3.3,0,6.6,0,9.8c0,0.5,0.8,0.5,0.8,0c0-3.3,0-6.6,0-9.8C88.8,340.2,88,340.2,88,340.7
							L88,340.7z"/>
					</g>
				</g>
				<g class="st6">
					<g>
						<path class="st15" d="M93.2,340.7c0,3.3,0,6.6,0,9.8c0,0.5,0.8,0.5,0.8,0c0-3.3,0-6.6,0-9.8C93.9,340.2,93.2,340.2,93.2,340.7
							L93.2,340.7z"/>
					</g>
				</g>
				<g class="st6">
					<g>
						<path class="st15" d="M98.3,340.7c0,3.3,0,6.6,0,9.8c0,0.5,0.8,0.5,0.8,0c0-3.3,0-6.6,0-9.8C99,340.2,98.3,340.2,98.3,340.7
							L98.3,340.7z"/>
					</g>
				</g>
				<g class="st6">
					<g>
						<path class="st15" d="M103.4,340.7c0,3.3,0,6.6,0,9.8c0,0.5,0.8,0.5,0.8,0c0-3.3,0-6.6,0-9.8
							C104.2,340.2,103.4,340.2,103.4,340.7L103.4,340.7z"/>
					</g>
				</g>
				<g class="st6">
					<g>
						<path class="st15" d="M108.6,340.7c0,3.3,0,6.6,0,9.8c0,0.5,0.8,0.5,0.8,0c0-3.3,0-6.6,0-9.8
							C109.3,340.2,108.6,340.2,108.6,340.7L108.6,340.7z"/>
					</g>
				</g>
				<g class="st6">
					<g>
						<path class="st15" d="M113.7,340.7c0,3.3,0,6.6,0,9.8c0,0.5,0.8,0.5,0.8,0c0-3.3,0-6.6,0-9.8
							C114.5,340.2,113.7,340.2,113.7,340.7L113.7,340.7z"/>
					</g>
				</g>
				<g class="st6">
					<g>
						<path class="st15" d="M118.9,340.7c0,3.3,0,6.6,0,9.8c0,0.5,0.8,0.5,0.8,0c0-3.3,0-6.6,0-9.8
							C119.6,340.2,118.9,340.2,118.9,340.7L118.9,340.7z"/>
					</g>
				</g>
			</g>
			<rect x="58" y="329.5" class="st12" width="63.1" height="11"/>
			<g>
				<g class="st6">
					<g>
						<path class="st15" d="M63.2,330.1c0,3.3,0,6.6,0,9.8c0,0.5,0.8,0.5,0.8,0c0-3.3,0-6.6,0-9.8C63.9,329.6,63.2,329.6,63.2,330.1
							L63.2,330.1z"/>
					</g>
				</g>
				<g class="st6">
					<g>
						<path class="st15" d="M68.4,330.1c0,3.3,0,6.6,0,9.8c0,0.5,0.8,0.5,0.8,0c0-3.3,0-6.6,0-9.8C69.2,329.6,68.4,329.6,68.4,330.1
							L68.4,330.1z"/>
					</g>
				</g>
				<g class="st6">
					<g>
						<path class="st15" d="M73.6,330.1c0,3.3,0,6.6,0,9.8c0,0.5,0.8,0.5,0.8,0c0-3.3,0-6.6,0-9.8C74.3,329.6,73.6,329.6,73.6,330.1
							L73.6,330.1z"/>
					</g>
				</g>
				<g class="st6">
					<g>
						<path class="st15" d="M78.7,330.1c0,3.3,0,6.6,0,9.8c0,0.5,0.8,0.5,0.8,0c0-3.3,0-6.6,0-9.8C79.4,329.6,78.7,329.6,78.7,330.1
							L78.7,330.1z"/>
					</g>
				</g>
				<g class="st6">
					<g>
						<path class="st15" d="M83.8,330.1c0,3.3,0,6.6,0,9.8c0,0.5,0.8,0.5,0.8,0c0-3.3,0-6.6,0-9.8C84.6,329.6,83.8,329.6,83.8,330.1
							L83.8,330.1z"/>
					</g>
				</g>
				<g class="st6">
					<g>
						<path class="st15" d="M89,330.1c0,3.3,0,6.6,0,9.8c0,0.5,0.8,0.5,0.8,0c0-3.3,0-6.6,0-9.8C89.7,329.6,89,329.6,89,330.1
							L89,330.1z"/>
					</g>
				</g>
				<g class="st6">
					<g>
						<path class="st15" d="M94.1,330.1c0,3.3,0,6.6,0,9.8c0,0.5,0.8,0.5,0.8,0c0-3.3,0-6.6,0-9.8C94.9,329.6,94.1,329.6,94.1,330.1
							L94.1,330.1z"/>
					</g>
				</g>
				<g class="st6">
					<g>
						<path class="st15" d="M99.3,330.1c0,3.3,0,6.6,0,9.8c0,0.5,0.8,0.5,0.8,0c0-3.3,0-6.6,0-9.8C100,329.6,99.3,329.6,99.3,330.1
							L99.3,330.1z"/>
					</g>
				</g>
				<g class="st6">
					<g>
						<path class="st15" d="M104.4,330.1c0,3.3,0,6.6,0,9.8c0,0.5,0.8,0.5,0.8,0c0-3.3,0-6.6,0-9.8
							C105.1,329.6,104.4,329.6,104.4,330.1L104.4,330.1z"/>
					</g>
				</g>
				<g class="st6">
					<g>
						<path class="st15" d="M109.5,330.1c0,3.3,0,6.6,0,9.8c0,0.5,0.8,0.5,0.8,0c0-3.3,0-6.6,0-9.8
							C110.3,329.6,109.5,329.6,109.5,330.1L109.5,330.1z"/>
					</g>
				</g>
				<g class="st6">
					<g>
						<path class="st15" d="M114.7,330.1c0,3.3,0,6.6,0,9.8c0,0.5,0.8,0.5,0.8,0c0-3.3,0-6.6,0-9.8
							C115.4,329.6,114.7,329.6,114.7,330.1L114.7,330.1z"/>
					</g>
				</g>
			</g>
			<rect x="61.5" y="361.7" class="st12" width="63.1" height="11"/>
			<rect x="61.5" y="361.7" class="st2" width="63.1" height="11"/>
			<g>
				<g class="st6">
					<g>
						<path class="st15" d="M66.9,362.3c0,3.3,0,6.6,0,9.8c0,0.5,0.8,0.5,0.8,0c0-3.3,0-6.6,0-9.8C67.7,361.8,66.9,361.8,66.9,362.3
							L66.9,362.3z"/>
					</g>
				</g>
				<g class="st6">
					<g>
						<path class="st15" d="M72.1,362.3c0,3.3,0,6.6,0,9.8c0,0.5,0.8,0.5,0.8,0c0-3.3,0-6.6,0-9.8C72.9,361.8,72.1,361.8,72.1,362.3
							L72.1,362.3z"/>
					</g>
				</g>
				<g class="st6">
					<g>
						<path class="st15" d="M77.3,362.3c0,3.3,0,6.6,0,9.8c0,0.5,0.8,0.5,0.8,0c0-3.3,0-6.6,0-9.8C78,361.8,77.3,361.8,77.3,362.3
							L77.3,362.3z"/>
					</g>
				</g>
				<g class="st6">
					<g>
						<path class="st15" d="M82.4,362.3c0,3.3,0,6.6,0,9.8c0,0.5,0.8,0.5,0.8,0c0-3.3,0-6.6,0-9.8C83.2,361.8,82.4,361.8,82.4,362.3
							L82.4,362.3z"/>
					</g>
				</g>
				<g class="st6">
					<g>
						<path class="st15" d="M87.5,362.3c0,3.3,0,6.6,0,9.8c0,0.5,0.8,0.5,0.8,0c0-3.3,0-6.6,0-9.8C88.3,361.8,87.5,361.8,87.5,362.3
							L87.5,362.3z"/>
					</g>
				</g>
				<g class="st6">
					<g>
						<path class="st15" d="M92.7,362.3c0,3.3,0,6.6,0,9.8c0,0.5,0.8,0.5,0.8,0c0-3.3,0-6.6,0-9.8C93.4,361.8,92.7,361.8,92.7,362.3
							L92.7,362.3z"/>
					</g>
				</g>
				<g class="st6">
					<g>
						<path class="st15" d="M97.8,362.3c0,3.3,0,6.6,0,9.8c0,0.5,0.8,0.5,0.8,0c0-3.3,0-6.6,0-9.8C98.6,361.8,97.8,361.8,97.8,362.3
							L97.8,362.3z"/>
					</g>
				</g>
				<g class="st6">
					<g>
						<path class="st15" d="M103,362.3c0,3.3,0,6.6,0,9.8c0,0.5,0.8,0.5,0.8,0c0-3.3,0-6.6,0-9.8C103.7,361.8,103,361.8,103,362.3
							L103,362.3z"/>
					</g>
				</g>
				<g class="st6">
					<g>
						<path class="st15" d="M108.1,362.3c0,3.3,0,6.6,0,9.8c0,0.5,0.8,0.5,0.8,0c0-3.3,0-6.6,0-9.8
							C108.9,361.8,108.1,361.8,108.1,362.3L108.1,362.3z"/>
					</g>
				</g>
				<g class="st6">
					<g>
						<path class="st15" d="M113.2,362.3c0,3.3,0,6.6,0,9.8c0,0.5,0.8,0.5,0.8,0c0-3.3,0-6.6,0-9.8
							C114,361.8,113.2,361.8,113.2,362.3L113.2,362.3z"/>
					</g>
				</g>
				<g class="st6">
					<g>
						<path class="st15" d="M118.4,362.3c0,3.3,0,6.6,0,9.8c0,0.5,0.8,0.5,0.8,0c0-3.3,0-6.6,0-9.8
							C119.1,361.8,118.4,361.8,118.4,362.3L118.4,362.3z"/>
					</g>
				</g>
			</g>
			<rect x="57.6" y="351.1" class="st12" width="63.1" height="11"/>
			<g>
				<g class="st6">
					<g>
						<path class="st15" d="M62.7,351.7c0,3.3,0,6.6,0,9.8c0,0.5,0.8,0.5,0.8,0c0-3.3,0-6.6,0-9.8C63.5,351.2,62.7,351.2,62.7,351.7
							L62.7,351.7z"/>
					</g>
				</g>
				<g class="st6">
					<g>
						<path class="st15" d="M67.9,351.7c0,3.3,0,6.6,0,9.8c0,0.5,0.8,0.5,0.8,0c0-3.3,0-6.6,0-9.8C68.7,351.2,67.9,351.2,67.9,351.7
							L67.9,351.7z"/>
					</g>
				</g>
				<g class="st6">
					<g>
						<path class="st15" d="M73.1,351.7c0,3.3,0,6.6,0,9.8c0,0.5,0.8,0.5,0.8,0c0-3.3,0-6.6,0-9.8C73.8,351.2,73.1,351.2,73.1,351.7
							L73.1,351.7z"/>
					</g>
				</g>
				<g class="st6">
					<g>
						<path class="st15" d="M78.2,351.7c0,3.3,0,6.6,0,9.8c0,0.5,0.8,0.5,0.8,0c0-3.3,0-6.6,0-9.8C79,351.2,78.2,351.2,78.2,351.7
							L78.2,351.7z"/>
					</g>
				</g>
				<g class="st6">
					<g>
						<path class="st15" d="M83.4,351.7c0,3.3,0,6.6,0,9.8c0,0.5,0.8,0.5,0.8,0c0-3.3,0-6.6,0-9.8C84.1,351.2,83.4,351.2,83.4,351.7
							L83.4,351.7z"/>
					</g>
				</g>
				<g class="st6">
					<g>
						<path class="st15" d="M88.5,351.7c0,3.3,0,6.6,0,9.8c0,0.5,0.8,0.5,0.8,0c0-3.3,0-6.6,0-9.8C89.3,351.2,88.5,351.2,88.5,351.7
							L88.5,351.7z"/>
					</g>
				</g>
				<g class="st6">
					<g>
						<path class="st15" d="M93.6,351.7c0,3.3,0,6.6,0,9.8c0,0.5,0.8,0.5,0.8,0c0-3.3,0-6.6,0-9.8C94.4,351.2,93.6,351.2,93.6,351.7
							L93.6,351.7z"/>
					</g>
				</g>
				<g class="st6">
					<g>
						<path class="st15" d="M98.8,351.7c0,3.3,0,6.6,0,9.8c0,0.5,0.8,0.5,0.8,0c0-3.3,0-6.6,0-9.8C99.5,351.2,98.8,351.2,98.8,351.7
							L98.8,351.7z"/>
					</g>
				</g>
				<g class="st6">
					<g>
						<path class="st15" d="M103.9,351.7c0,3.3,0,6.6,0,9.8c0,0.5,0.8,0.5,0.8,0c0-3.3,0-6.6,0-9.8
							C104.7,351.2,103.9,351.2,103.9,351.7L103.9,351.7z"/>
					</g>
				</g>
				<g class="st6">
					<g>
						<path class="st15" d="M109.1,351.7c0,3.3,0,6.6,0,9.8c0,0.5,0.8,0.5,0.8,0c0-3.3,0-6.6,0-9.8
							C109.8,351.2,109.1,351.2,109.1,351.7L109.1,351.7z"/>
					</g>
				</g>
				<g class="st6">
					<g>
						<path class="st15" d="M114.2,351.7c0,3.3,0,6.6,0,9.8c0,0.5,0.8,0.5,0.8,0c0-3.3,0-6.6,0-9.8
							C115,351.2,114.2,351.2,114.2,351.7L114.2,351.7z"/>
					</g>
				</g>
			</g>
			<g>
				<rect x="57.4" y="415.7" class="st12" width="63.1" height="11"/>
				<g>
					<g class="st6">
						<g>
							<path class="st15" d="M62.5,416.3c0,3.3,0,6.6,0,9.8c0,0.5,0.8,0.5,0.8,0c0-3.3,0-6.6,0-9.8
								C63.3,415.9,62.5,415.9,62.5,416.3L62.5,416.3z"/>
						</g>
					</g>
					<g class="st6">
						<g>
							<path class="st15" d="M67.7,416.3c0,3.3,0,6.6,0,9.8c0,0.5,0.8,0.5,0.8,0c0-3.3,0-6.6,0-9.8
								C68.5,415.9,67.7,415.9,67.7,416.3L67.7,416.3z"/>
						</g>
					</g>
					<g class="st6">
						<g>
							<path class="st15" d="M72.9,416.3c0,3.3,0,6.6,0,9.8c0,0.5,0.8,0.5,0.8,0c0-3.3,0-6.6,0-9.8
								C73.6,415.9,72.9,415.9,72.9,416.3L72.9,416.3z"/>
						</g>
					</g>
					<g class="st6">
						<g>
							<path class="st15" d="M78,416.3c0,3.3,0,6.6,0,9.8c0,0.5,0.8,0.5,0.8,0c0-3.3,0-6.6,0-9.8C78.8,415.9,78,415.9,78,416.3
								L78,416.3z"/>
						</g>
					</g>
					<g class="st6">
						<g>
							<path class="st15" d="M83.1,416.3c0,3.3,0,6.6,0,9.8c0,0.5,0.8,0.5,0.8,0c0-3.3,0-6.6,0-9.8
								C83.9,415.9,83.1,415.9,83.1,416.3L83.1,416.3z"/>
						</g>
					</g>
					<g class="st6">
						<g>
							<path class="st15" d="M88.3,416.3c0,3.3,0,6.6,0,9.8c0,0.5,0.8,0.5,0.8,0c0-3.3,0-6.6,0-9.8C89,415.9,88.3,415.9,88.3,416.3
								L88.3,416.3z"/>
						</g>
					</g>
					<g class="st6">
						<g>
							<path class="st15" d="M93.4,416.3c0,3.3,0,6.6,0,9.8c0,0.5,0.8,0.5,0.8,0c0-3.3,0-6.6,0-9.8
								C94.2,415.9,93.4,415.9,93.4,416.3L93.4,416.3z"/>
						</g>
					</g>
					<g class="st6">
						<g>
							<path class="st15" d="M98.6,416.3c0,3.3,0,6.6,0,9.8c0,0.5,0.8,0.5,0.8,0c0-3.3,0-6.6,0-9.8
								C99.3,415.9,98.6,415.9,98.6,416.3L98.6,416.3z"/>
						</g>
					</g>
					<g class="st6">
						<g>
							<path class="st15" d="M103.7,416.3c0,3.3,0,6.6,0,9.8c0,0.5,0.8,0.5,0.8,0c0-3.3,0-6.6,0-9.8
								C104.5,415.9,103.7,415.9,103.7,416.3L103.7,416.3z"/>
						</g>
					</g>
					<g class="st6">
						<g>
							<path class="st15" d="M108.8,416.3c0,3.3,0,6.6,0,9.8c0,0.5,0.8,0.5,0.8,0c0-3.3,0-6.6,0-9.8
								C109.6,415.9,108.8,415.9,108.8,416.3L108.8,416.3z"/>
						</g>
					</g>
					<g class="st6">
						<g>
							<path class="st15" d="M114,416.3c0,3.3,0,6.6,0,9.8c0,0.5,0.8,0.5,0.8,0c0-3.3,0-6.6,0-9.8C114.7,415.9,114,415.9,114,416.3
								L114,416.3z"/>
						</g>
					</g>
				</g>
				<rect x="56.4" y="437.1" class="st12" width="63.1" height="11"/>
				<rect x="61.2" y="426.4" class="st12" width="63.1" height="11"/>
				<rect x="61.2" y="426.4" class="st2" width="63.1" height="11"/>
				<g>
					<g class="st6">
						<g>
							<path class="st15" d="M66.7,427c0,3.3,0,6.6,0,9.8c0,0.5,0.8,0.5,0.8,0c0-3.3,0-6.6,0-9.8C67.4,426.5,66.7,426.5,66.7,427
								L66.7,427z"/>
						</g>
					</g>
					<g class="st6">
						<g>
							<path class="st15" d="M71.9,427c0,3.3,0,6.6,0,9.8c0,0.5,0.8,0.5,0.8,0c0-3.3,0-6.6,0-9.8C72.7,426.5,71.9,426.5,71.9,427
								L71.9,427z"/>
						</g>
					</g>
					<g class="st6">
						<g>
							<path class="st15" d="M77,427c0,3.3,0,6.6,0,9.8c0,0.5,0.8,0.5,0.8,0c0-3.3,0-6.6,0-9.8C77.8,426.5,77,426.5,77,427L77,427z"
								/>
						</g>
					</g>
					<g class="st6">
						<g>
							<path class="st15" d="M82.2,427c0,3.3,0,6.6,0,9.8c0,0.5,0.8,0.5,0.8,0c0-3.3,0-6.6,0-9.8C82.9,426.5,82.2,426.5,82.2,427
								L82.2,427z"/>
						</g>
					</g>
					<g class="st6">
						<g>
							<path class="st15" d="M87.3,427c0,3.3,0,6.6,0,9.8c0,0.5,0.8,0.5,0.8,0c0-3.3,0-6.6,0-9.8C88.1,426.5,87.3,426.5,87.3,427
								L87.3,427z"/>
						</g>
					</g>
					<g class="st6">
						<g>
							<path class="st15" d="M92.5,427c0,3.3,0,6.6,0,9.8c0,0.5,0.8,0.5,0.8,0c0-3.3,0-6.6,0-9.8C93.2,426.5,92.5,426.5,92.5,427
								L92.5,427z"/>
						</g>
					</g>
					<g class="st6">
						<g>
							<path class="st15" d="M97.6,427c0,3.3,0,6.6,0,9.8c0,0.5,0.8,0.5,0.8,0c0-3.3,0-6.6,0-9.8C98.4,426.5,97.6,426.5,97.6,427
								L97.6,427z"/>
						</g>
					</g>
					<g class="st6">
						<g>
							<path class="st15" d="M102.7,427c0,3.3,0,6.6,0,9.8c0,0.5,0.8,0.5,0.8,0c0-3.3,0-6.6,0-9.8
								C103.5,426.5,102.7,426.5,102.7,427L102.7,427z"/>
						</g>
					</g>
					<g class="st6">
						<g>
							<path class="st15" d="M107.9,427c0,3.3,0,6.6,0,9.8c0,0.5,0.8,0.5,0.8,0c0-3.3,0-6.6,0-9.8
								C108.6,426.5,107.9,426.5,107.9,427L107.9,427z"/>
						</g>
					</g>
					<g class="st6">
						<g>
							<path class="st15" d="M113,427c0,3.3,0,6.6,0,9.8c0,0.5,0.8,0.5,0.8,0c0-3.3,0-6.6,0-9.8C113.8,426.5,113,426.5,113,427
								L113,427z"/>
						</g>
					</g>
					<g class="st6">
						<g>
							<path class="st15" d="M118.2,427c0,3.3,0,6.6,0,9.8c0,0.5,0.8,0.5,0.8,0c0-3.3,0-6.6,0-9.8
								C118.9,426.5,118.2,426.5,118.2,427L118.2,427z"/>
						</g>
					</g>
				</g>
				<rect x="61.2" y="404.6" class="st12" width="63.1" height="11"/>
				<rect x="61.2" y="404.6" class="st2" width="63.1" height="11"/>
				<g>
					<g class="st6">
						<g>
							<path class="st15" d="M66.7,405.2c0,3.3,0,6.6,0,9.8c0,0.5,0.8,0.5,0.8,0c0-3.3,0-6.6,0-9.8
								C67.4,404.7,66.7,404.7,66.7,405.2L66.7,405.2z"/>
						</g>
					</g>
					<g class="st6">
						<g>
							<path class="st15" d="M71.9,405.2c0,3.3,0,6.6,0,9.8c0,0.5,0.8,0.5,0.8,0c0-3.3,0-6.6,0-9.8
								C72.7,404.7,71.9,404.7,71.9,405.2L71.9,405.2z"/>
						</g>
					</g>
					<g class="st6">
						<g>
							<path class="st15" d="M77,405.2c0,3.3,0,6.6,0,9.8c0,0.5,0.8,0.5,0.8,0c0-3.3,0-6.6,0-9.8C77.8,404.7,77,404.7,77,405.2
								L77,405.2z"/>
						</g>
					</g>
					<g class="st6">
						<g>
							<path class="st15" d="M82.2,405.2c0,3.3,0,6.6,0,9.8c0,0.5,0.8,0.5,0.8,0c0-3.3,0-6.6,0-9.8
								C82.9,404.7,82.2,404.7,82.2,405.2L82.2,405.2z"/>
						</g>
					</g>
					<g class="st6">
						<g>
							<path class="st15" d="M87.3,405.2c0,3.3,0,6.6,0,9.8c0,0.5,0.8,0.5,0.8,0c0-3.3,0-6.6,0-9.8
								C88.1,404.7,87.3,404.7,87.3,405.2L87.3,405.2z"/>
						</g>
					</g>
					<g class="st6">
						<g>
							<path class="st15" d="M92.5,405.2c0,3.3,0,6.6,0,9.8c0,0.5,0.8,0.5,0.8,0c0-3.3,0-6.6,0-9.8
								C93.2,404.7,92.5,404.7,92.5,405.2L92.5,405.2z"/>
						</g>
					</g>
					<g class="st6">
						<g>
							<path class="st15" d="M97.6,405.2c0,3.3,0,6.6,0,9.8c0,0.5,0.8,0.5,0.8,0c0-3.3,0-6.6,0-9.8
								C98.4,404.7,97.6,404.7,97.6,405.2L97.6,405.2z"/>
						</g>
					</g>
					<g class="st6">
						<g>
							<path class="st15" d="M102.7,405.2c0,3.3,0,6.6,0,9.8c0,0.5,0.8,0.5,0.8,0c0-3.3,0-6.6,0-9.8
								C103.5,404.7,102.7,404.7,102.7,405.2L102.7,405.2z"/>
						</g>
					</g>
					<g class="st6">
						<g>
							<path class="st15" d="M107.9,405.2c0,3.3,0,6.6,0,9.8c0,0.5,0.8,0.5,0.8,0c0-3.3,0-6.6,0-9.8
								C108.6,404.7,107.9,404.7,107.9,405.2L107.9,405.2z"/>
						</g>
					</g>
					<g class="st6">
						<g>
							<path class="st15" d="M113,405.2c0,3.3,0,6.6,0,9.8c0,0.5,0.8,0.5,0.8,0c0-3.3,0-6.6,0-9.8C113.8,404.7,113,404.7,113,405.2
								L113,405.2z"/>
						</g>
					</g>
					<g class="st6">
						<g>
							<path class="st15" d="M118.2,405.2c0,3.3,0,6.6,0,9.8c0,0.5,0.8,0.5,0.8,0c0-3.3,0-6.6,0-9.8
								C118.9,404.7,118.2,404.7,118.2,405.2L118.2,405.2z"/>
						</g>
					</g>
				</g>
				<g>
					<g class="st6">
						<g>
							<path class="st15" d="M61,437.9c0,3.3,0,6.6,0,9.8c0,0.5,0.8,0.5,0.8,0c0-3.3,0-6.6,0-9.8C61.8,437.4,61,437.4,61,437.9
								L61,437.9z"/>
						</g>
					</g>
					<g class="st6">
						<g>
							<path class="st15" d="M66.3,437.9c0,3.3,0,6.6,0,9.8c0,0.5,0.8,0.5,0.8,0c0-3.3,0-6.6,0-9.8C67,437.4,66.3,437.4,66.3,437.9
								L66.3,437.9z"/>
						</g>
					</g>
					<g class="st6">
						<g>
							<path class="st15" d="M71.4,437.9c0,3.3,0,6.6,0,9.8c0,0.5,0.8,0.5,0.8,0c0-3.3,0-6.6,0-9.8
								C72.2,437.4,71.4,437.4,71.4,437.9L71.4,437.9z"/>
						</g>
					</g>
					<g class="st6">
						<g>
							<path class="st15" d="M76.5,437.9c0,3.3,0,6.6,0,9.8c0,0.5,0.8,0.5,0.8,0c0-3.3,0-6.6,0-9.8
								C77.3,437.4,76.5,437.4,76.5,437.9L76.5,437.9z"/>
						</g>
					</g>
					<g class="st6">
						<g>
							<path class="st15" d="M81.7,437.9c0,3.3,0,6.6,0,9.8c0,0.5,0.8,0.5,0.8,0c0-3.3,0-6.6,0-9.8
								C82.4,437.4,81.7,437.4,81.7,437.9L81.7,437.9z"/>
						</g>
					</g>
					<g class="st6">
						<g>
							<path class="st15" d="M86.8,437.9c0,3.3,0,6.6,0,9.8c0,0.5,0.8,0.5,0.8,0c0-3.3,0-6.6,0-9.8
								C87.6,437.4,86.8,437.4,86.8,437.9L86.8,437.9z"/>
						</g>
					</g>
					<g class="st6">
						<g>
							<path class="st15" d="M92,437.9c0,3.3,0,6.6,0,9.8c0,0.5,0.8,0.5,0.8,0c0-3.3,0-6.6,0-9.8C92.7,437.4,92,437.4,92,437.9
								L92,437.9z"/>
						</g>
					</g>
					<g class="st6">
						<g>
							<path class="st15" d="M97.1,437.9c0,3.3,0,6.6,0,9.8c0,0.5,0.8,0.5,0.8,0c0-3.3,0-6.6,0-9.8
								C97.9,437.4,97.1,437.4,97.1,437.9L97.1,437.9z"/>
						</g>
					</g>
					<g class="st6">
						<g>
							<path class="st15" d="M102.2,437.9c0,3.3,0,6.6,0,9.8c0,0.5,0.8,0.5,0.8,0c0-3.3,0-6.6,0-9.8
								C103,437.4,102.2,437.4,102.2,437.9L102.2,437.9z"/>
						</g>
					</g>
					<g class="st6">
						<g>
							<path class="st15" d="M107.4,437.9c0,3.3,0,6.6,0,9.8c0,0.5,0.8,0.5,0.8,0c0-3.3,0-6.6,0-9.8
								C108.1,437.4,107.4,437.4,107.4,437.9L107.4,437.9z"/>
						</g>
					</g>
					<g class="st6">
						<g>
							<path class="st15" d="M112.5,437.9c0,3.3,0,6.6,0,9.8c0,0.5,0.8,0.5,0.8,0c0-3.3,0-6.6,0-9.8
								C113.3,437.4,112.5,437.4,112.5,437.9L112.5,437.9z"/>
						</g>
					</g>
				</g>
			</g>
			<g>
				<rect x="57.4" y="372.7" class="st12" width="63.1" height="11"/>
				<g>
					<g class="st6">
						<g>
							<path class="st15" d="M62.5,373.3c0,3.3,0,6.6,0,9.8c0,0.5,0.8,0.5,0.8,0c0-3.3,0-6.6,0-9.8
								C63.3,372.8,62.5,372.8,62.5,373.3L62.5,373.3z"/>
						</g>
					</g>
					<g class="st6">
						<g>
							<path class="st15" d="M67.7,373.3c0,3.3,0,6.6,0,9.8c0,0.5,0.8,0.5,0.8,0c0-3.3,0-6.6,0-9.8
								C68.5,372.8,67.7,372.8,67.7,373.3L67.7,373.3z"/>
						</g>
					</g>
					<g class="st6">
						<g>
							<path class="st15" d="M72.9,373.3c0,3.3,0,6.6,0,9.8c0,0.5,0.8,0.5,0.8,0c0-3.3,0-6.6,0-9.8
								C73.6,372.8,72.9,372.8,72.9,373.3L72.9,373.3z"/>
						</g>
					</g>
					<g class="st6">
						<g>
							<path class="st15" d="M78,373.3c0,3.3,0,6.6,0,9.8c0,0.5,0.8,0.5,0.8,0c0-3.3,0-6.6,0-9.8C78.8,372.8,78,372.8,78,373.3
								L78,373.3z"/>
						</g>
					</g>
					<g class="st6">
						<g>
							<path class="st15" d="M83.1,373.3c0,3.3,0,6.6,0,9.8c0,0.5,0.8,0.5,0.8,0c0-3.3,0-6.6,0-9.8
								C83.9,372.8,83.1,372.8,83.1,373.3L83.1,373.3z"/>
						</g>
					</g>
					<g class="st6">
						<g>
							<path class="st15" d="M88.3,373.3c0,3.3,0,6.6,0,9.8c0,0.5,0.8,0.5,0.8,0c0-3.3,0-6.6,0-9.8C89,372.8,88.3,372.8,88.3,373.3
								L88.3,373.3z"/>
						</g>
					</g>
					<g class="st6">
						<g>
							<path class="st15" d="M93.4,373.3c0,3.3,0,6.6,0,9.8c0,0.5,0.8,0.5,0.8,0c0-3.3,0-6.6,0-9.8
								C94.2,372.8,93.4,372.8,93.4,373.3L93.4,373.3z"/>
						</g>
					</g>
					<g class="st6">
						<g>
							<path class="st15" d="M98.6,373.3c0,3.3,0,6.6,0,9.8c0,0.5,0.8,0.5,0.8,0c0-3.3,0-6.6,0-9.8
								C99.3,372.8,98.6,372.8,98.6,373.3L98.6,373.3z"/>
						</g>
					</g>
					<g class="st6">
						<g>
							<path class="st15" d="M103.7,373.3c0,3.3,0,6.6,0,9.8c0,0.5,0.8,0.5,0.8,0c0-3.3,0-6.6,0-9.8
								C104.5,372.8,103.7,372.8,103.7,373.3L103.7,373.3z"/>
						</g>
					</g>
					<g class="st6">
						<g>
							<path class="st15" d="M108.8,373.3c0,3.3,0,6.6,0,9.8c0,0.5,0.8,0.5,0.8,0c0-3.3,0-6.6,0-9.8
								C109.6,372.8,108.8,372.8,108.8,373.3L108.8,373.3z"/>
						</g>
					</g>
					<g class="st6">
						<g>
							<path class="st15" d="M114,373.3c0,3.3,0,6.6,0,9.8c0,0.5,0.8,0.5,0.8,0c0-3.3,0-6.6,0-9.8C114.7,372.8,114,372.8,114,373.3
								L114,373.3z"/>
						</g>
					</g>
				</g>
				<rect x="56.4" y="394.1" class="st12" width="63.1" height="11"/>
				<rect x="61.2" y="383.4" class="st12" width="63.1" height="11"/>
				<rect x="61.2" y="383.4" class="st2" width="63.1" height="11"/>
				<g>
					<g class="st6">
						<g>
							<path class="st15" d="M66.7,383.9c0,3.3,0,6.6,0,9.8c0,0.5,0.8,0.5,0.8,0c0-3.3,0-6.6,0-9.8
								C67.4,383.4,66.7,383.4,66.7,383.9L66.7,383.9z"/>
						</g>
					</g>
					<g class="st6">
						<g>
							<path class="st15" d="M71.9,383.9c0,3.3,0,6.6,0,9.8c0,0.5,0.8,0.5,0.8,0c0-3.3,0-6.6,0-9.8
								C72.7,383.4,71.9,383.4,71.9,383.9L71.9,383.9z"/>
						</g>
					</g>
					<g class="st6">
						<g>
							<path class="st15" d="M77,383.9c0,3.3,0,6.6,0,9.8c0,0.5,0.8,0.5,0.8,0c0-3.3,0-6.6,0-9.8C77.8,383.4,77,383.4,77,383.9
								L77,383.9z"/>
						</g>
					</g>
					<g class="st6">
						<g>
							<path class="st15" d="M82.2,383.9c0,3.3,0,6.6,0,9.8c0,0.5,0.8,0.5,0.8,0c0-3.3,0-6.6,0-9.8
								C82.9,383.4,82.2,383.4,82.2,383.9L82.2,383.9z"/>
						</g>
					</g>
					<g class="st6">
						<g>
							<path class="st15" d="M87.3,383.9c0,3.3,0,6.6,0,9.8c0,0.5,0.8,0.5,0.8,0c0-3.3,0-6.6,0-9.8
								C88.1,383.4,87.3,383.4,87.3,383.9L87.3,383.9z"/>
						</g>
					</g>
					<g class="st6">
						<g>
							<path class="st15" d="M92.5,383.9c0,3.3,0,6.6,0,9.8c0,0.5,0.8,0.5,0.8,0c0-3.3,0-6.6,0-9.8
								C93.2,383.4,92.5,383.4,92.5,383.9L92.5,383.9z"/>
						</g>
					</g>
					<g class="st6">
						<g>
							<path class="st15" d="M97.6,383.9c0,3.3,0,6.6,0,9.8c0,0.5,0.8,0.5,0.8,0c0-3.3,0-6.6,0-9.8
								C98.4,383.4,97.6,383.4,97.6,383.9L97.6,383.9z"/>
						</g>
					</g>
					<g class="st6">
						<g>
							<path class="st15" d="M102.7,383.9c0,3.3,0,6.6,0,9.8c0,0.5,0.8,0.5,0.8,0c0-3.3,0-6.6,0-9.8
								C103.5,383.4,102.7,383.4,102.7,383.9L102.7,383.9z"/>
						</g>
					</g>
					<g class="st6">
						<g>
							<path class="st15" d="M107.9,383.9c0,3.3,0,6.6,0,9.8c0,0.5,0.8,0.5,0.8,0c0-3.3,0-6.6,0-9.8
								C108.6,383.4,107.9,383.4,107.9,383.9L107.9,383.9z"/>
						</g>
					</g>
					<g class="st6">
						<g>
							<path class="st15" d="M113,383.9c0,3.3,0,6.6,0,9.8c0,0.5,0.8,0.5,0.8,0c0-3.3,0-6.6,0-9.8C113.8,383.4,113,383.4,113,383.9
								L113,383.9z"/>
						</g>
					</g>
					<g class="st6">
						<g>
							<path class="st15" d="M118.2,383.9c0,3.3,0,6.6,0,9.8c0,0.5,0.8,0.5,0.8,0c0-3.3,0-6.6,0-9.8
								C118.9,383.4,118.2,383.4,118.2,383.9L118.2,383.9z"/>
						</g>
					</g>
				</g>
				<g>
					<g class="st6">
						<g>
							<path class="st15" d="M61,394.8c0,3.3,0,6.6,0,9.8c0,0.5,0.8,0.5,0.8,0c0-3.3,0-6.6,0-9.8C61.8,394.3,61,394.3,61,394.8
								L61,394.8z"/>
						</g>
					</g>
					<g class="st6">
						<g>
							<path class="st15" d="M66.3,394.8c0,3.3,0,6.6,0,9.8c0,0.5,0.8,0.5,0.8,0c0-3.3,0-6.6,0-9.8C67,394.3,66.3,394.3,66.3,394.8
								L66.3,394.8z"/>
						</g>
					</g>
					<g class="st6">
						<g>
							<path class="st15" d="M71.4,394.8c0,3.3,0,6.6,0,9.8c0,0.5,0.8,0.5,0.8,0c0-3.3,0-6.6,0-9.8
								C72.2,394.3,71.4,394.3,71.4,394.8L71.4,394.8z"/>
						</g>
					</g>
					<g class="st6">
						<g>
							<path class="st15" d="M76.5,394.8c0,3.3,0,6.6,0,9.8c0,0.5,0.8,0.5,0.8,0c0-3.3,0-6.6,0-9.8
								C77.3,394.3,76.5,394.3,76.5,394.8L76.5,394.8z"/>
						</g>
					</g>
					<g class="st6">
						<g>
							<path class="st15" d="M81.7,394.8c0,3.3,0,6.6,0,9.8c0,0.5,0.8,0.5,0.8,0c0-3.3,0-6.6,0-9.8
								C82.4,394.3,81.7,394.3,81.7,394.8L81.7,394.8z"/>
						</g>
					</g>
					<g class="st6">
						<g>
							<path class="st15" d="M86.8,394.8c0,3.3,0,6.6,0,9.8c0,0.5,0.8,0.5,0.8,0c0-3.3,0-6.6,0-9.8
								C87.6,394.3,86.8,394.3,86.8,394.8L86.8,394.8z"/>
						</g>
					</g>
					<g class="st6">
						<g>
							<path class="st15" d="M92,394.8c0,3.3,0,6.6,0,9.8c0,0.5,0.8,0.5,0.8,0c0-3.3,0-6.6,0-9.8C92.7,394.3,92,394.3,92,394.8
								L92,394.8z"/>
						</g>
					</g>
					<g class="st6">
						<g>
							<path class="st15" d="M97.1,394.8c0,3.3,0,6.6,0,9.8c0,0.5,0.8,0.5,0.8,0c0-3.3,0-6.6,0-9.8
								C97.9,394.3,97.1,394.3,97.1,394.8L97.1,394.8z"/>
						</g>
					</g>
					<g class="st6">
						<g>
							<path class="st15" d="M102.2,394.8c0,3.3,0,6.6,0,9.8c0,0.5,0.8,0.5,0.8,0c0-3.3,0-6.6,0-9.8
								C103,394.3,102.2,394.3,102.2,394.8L102.2,394.8z"/>
						</g>
					</g>
					<g class="st6">
						<g>
							<path class="st15" d="M107.4,394.8c0,3.3,0,6.6,0,9.8c0,0.5,0.8,0.5,0.8,0c0-3.3,0-6.6,0-9.8
								C108.1,394.3,107.4,394.3,107.4,394.8L107.4,394.8z"/>
						</g>
					</g>
					<g class="st6">
						<g>
							<path class="st15" d="M112.5,394.8c0,3.3,0,6.6,0,9.8c0,0.5,0.8,0.5,0.8,0c0-3.3,0-6.6,0-9.8
								C113.3,394.3,112.5,394.3,112.5,394.8L112.5,394.8z"/>
						</g>
					</g>
				</g>
			</g>
		</g>
	</g>
	<g>
		<path class="st12" d="M125.6,39.6c9.9-2,19.2-1.4,23,4.1c0.8,1.2,1.4,4.6,1.7,6c1.6,8-6.7,16.5-18.7,19c-12,2.5-23-2-24.7-10.1
			c-0.2-1.2-1-4.5-0.8-5.6C107,46,115.3,41.7,125.6,39.6z"/>
		<g>
			<g class="st2">
				<path class="st3" d="M127.9,64.4l-4.4,0.1c0.9,1.4,1.3,3.2,1.2,4.8c1.5,0,3-0.1,4.6-0.3C129.3,67.4,128.8,65.8,127.9,64.4z"/>
			</g>
			<g class="st2">
				<path class="st3" d="M143.9,57.7l-1.7,1.4c0.9,1.2,1.6,2.3,2.4,3.4c0.8-0.7,1.5-1.3,2.1-2.1C145.8,59.4,145,58.7,143.9,57.7z"/>
			</g>
			<g class="st2">
				<path class="st3" d="M147.6,59.4c1.8-2.4,2.8-5,2.8-7.6c-0.7-0.5-1.5-1-2.3-1.5l-3.3,6.4C145.9,57.6,146.9,58.5,147.6,59.4z"/>
			</g>
		</g>
		<path class="st2" d="M125.6,39.6c9.9-2,19.2-1.4,23,4.1c0.8,1.2,1.4,4.6,1.7,6c1.6,8-6.7,16.5-18.7,19c-12,2.5-23-2-24.7-10.1
			c-0.2-1.2-1-4.5-0.8-5.6C107,46,115.4,41.7,125.6,39.6z"/>
		
			<ellipse transform="matrix(0.9795 -0.2014 0.2014 0.9795 -7.3495 26.7125)" class="st12" cx="127.6" cy="49.5" rx="22" ry="14.8"/>
		
			<ellipse transform="matrix(0.9795 -0.2014 0.2014 0.9795 -7.3399 26.7424)" class="st12" cx="127.8" cy="49.4" rx="15.3" ry="10.1"/>
		
			<ellipse transform="matrix(0.9795 -0.2014 0.2014 0.9795 -7.3399 26.7424)" class="st2" cx="127.8" cy="49.4" rx="15.3" ry="10.1"/>
		<path class="st2" d="M129.9,58.4c-8.3,1.7-15.9-1.4-17-6.8c-0.1-0.6-0.2-1.2-0.1-1.8c-0.2,1-0.2,1.9,0,2.9c1.1,5.5,8.7,8.5,17,6.8
			c7.4-1.5,12.7-6.3,13.1-11.2C141.9,52.8,136.8,57,129.9,58.4z"/>
		<path class="st5" d="M138.4,55.5c0.2,0.1,5.4,2.2,5.4,2.2l-1.6,1.4l-5.5-2.3L138.4,55.5z"/>
		<path class="st5" d="M106.6,55.7c0.1,0.2,0.2,0.4,0.3,0.7l1.3,2.1c0,0,0,0,0,0l15.3,6.2c0,0,0,0,0,0l4.5-0.2c0,0,0,0,0,0
			C128.1,64.4,108.9,56.8,106.6,55.7z"/>
		<path class="st5" d="M129.5,34.3c3.8,1.6,14.2,5.7,18.2,7.3C144.7,36.7,137.6,33.9,129.5,34.3z"/>
		<path class="st5" d="M139.9,54.2l5,2.5c0,0,3.3-3.8,3.9-6l-5.9-2.4c0,0,0,0,0,0C142.7,50.4,141.6,52.4,139.9,54.2z"/>
		<path class="st5" d="M123.2,40.2l-6.6-2.4c-2.7,1.4-5,3.1-6.8,5.1l6.2,1.5C117.8,42.6,120.3,41.2,123.2,40.2z"/>
		<g>
			<g>
				<path class="st15" d="M148.6,49.8c-1.9,6.7-8.6,11-14.9,13c-6.8,2.1-15,2.3-21.3-1.4c-2.9-1.7-5.2-4.3-5.9-7.6
					c-0.1-0.5-0.8-0.3-0.7,0.2c1.5,6.7,8.4,9.9,14.6,10.8c7.8,1.1,16.4-1,22.7-5.9c2.9-2.3,5.4-5.3,6.4-8.9
					C149.5,49.5,148.8,49.3,148.6,49.8L148.6,49.8z"/>
			</g>
		</g>
	</g>
	<g>
		<path class="st12" d="M71.8,248.7c12.6,2.9,23,8.6,24.4,17.1c0.3,1.8-0.8,6-1.2,7.8c-2.4,10.2-16.6,15.5-31.8,12
			C48,282,37.6,270.9,40,260.7c0.3-1.5,1.2-5.7,2-7C46.8,246.3,58.8,245.7,71.8,248.7z"/>
		<g>
			<g class="st2">
				<path class="st3" d="M61.3,278.7l-5.1-2.3c0.3,2.1-0.2,4.4-1.2,6.2c1.7,0.8,3.5,1.5,5.5,2.1C61.2,282.9,61.5,280.8,61.3,278.7z"
					/>
			</g>
			<g class="st2">
				<path class="st3" d="M83.3,279.5l-2.8,0.7c0.4,1.9,0.7,3.5,1,5.3c1.3-0.3,2.4-0.8,3.6-1.3C84.6,282.5,84,281.2,83.3,279.5z"/>
			</g>
			<g class="st2">
				<path class="st3" d="M86.8,283.5c3.4-1.8,6-4.3,7.4-7.3c-0.6-1-1.2-2-1.9-2.9l-7.3,5.7C85.7,280.4,86.4,282,86.8,283.5z"/>
			</g>
		</g>
		<path class="st2" d="M71.8,248.7c12.6,2.9,23,8.6,24.4,17.1c0.3,1.8-0.8,6-1.2,7.8c-2.4,10.2-16.6,15.5-31.8,12
			S37.6,270.9,40,260.7c0.3-1.5,1.2-5.7,2-7C46.9,246.3,58.9,245.7,71.8,248.7z"/>
		
			<ellipse transform="matrix(0.2275 -0.9738 0.9738 0.2275 -201.2241 268.922)" class="st12" cx="68.9" cy="261.3" rx="18.9" ry="28"/>
		
			<ellipse transform="matrix(0.2275 -0.9738 0.9738 0.2275 -201.1174 269.1485)" class="st12" cx="69.1" cy="261.3" rx="12.9" ry="19.5"/>
		
			<ellipse transform="matrix(0.2275 -0.9738 0.9738 0.2275 -201.1174 269.1485)" class="st2" cx="69.1" cy="261.3" rx="12.9" ry="19.5"/>
		<path class="st2" d="M66.8,272.8c-10.5-2.5-17.7-10.1-16.1-17c0.2-0.8,0.5-1.5,0.8-2.2c-0.7,1-1.3,2.1-1.6,3.3
			c-1.6,7,5.6,14.6,16.1,17c9.3,2.2,18.1-0.5,21.1-6C83.7,272.7,75.5,274.8,66.8,272.8z"/>
		<path class="st5" d="M78.2,274c0.2,0.3,5.1,5.4,5.1,5.4l-2.7,0.8l-5.1-5.6L78.2,274z"/>
		<path class="st5" d="M41.2,257.3c0,0.3,0,0.6,0,0.9l0.4,3.1c0,0,0,0,0,0l14.4,15.3c0,0,0,0,0,0l5.3,2.1c0,0,0,0,0,0
			C61.4,278.8,43.2,259.8,41.2,257.3z"/>
		<path class="st5" d="M79.1,244.7c3.5,3.9,13.5,14.2,17.3,18.2C95.4,255.6,88.8,248.6,79.1,244.7z"/>
		<path class="st5" d="M80.6,273.3l4.4,5.6c0,0,5.9-2.6,7.7-4.9l-5.5-5.9c0,0,0,0,0,0C85.8,270.4,83.5,272.2,80.6,273.3z"/>
		<path class="st5" d="M68.7,248.2l-6.3-6.3c-3.9,0.2-7.5,1-10.5,2.3l6.4,5.1C61.2,248.1,64.8,247.7,68.7,248.2z"/>
		<g>
			<g>
				<path class="st15" d="M93.1,272.9c-6.1,7.2-16.9,8.4-25.7,7c-8.8-1.4-18.1-5.7-23.1-13.4c-2.2-3.4-3.4-7.5-2.5-11.5
					c0.1-0.5-0.6-0.7-0.7-0.2c-1.8,8,3.8,15.2,10,19.5c8.4,5.8,19.8,8.2,29.8,6.1c4.8-1,9.4-3.2,12.6-7
					C94,273.1,93.5,272.6,93.1,272.9L93.1,272.9z"/>
			</g>
		</g>
	</g>
</g>
<g id="Speech_Bubble">
	<g>
		<path class="st12" d="M328.6,137.2c-3.8-9.3,0.6-20,9.9-23.9c9.3-3.8,20,0.6,23.9,9.9c3,7.2,1,15.2-4.4,20.2l0.2,5.5l-5.4-2
			c-0.1,0-0.2,0.1-0.3,0.1C343.1,151,332.4,146.5,328.6,137.2z"/>
		<g>
			<g>
				<path class="st12" d="M337.9,110.8c-5.8,1.8-10.5,6.7-12.1,12.5c-0.1,0.5,0.6,0.7,0.7,0.2c1.6-5.6,6-10.3,11.6-12
					C338.6,111.3,338.4,110.6,337.9,110.8L337.9,110.8z"/>
			</g>
		</g>
		<g>
			<g>
				<path class="st12" d="M325.2,126c-0.3,0.9-0.4,1.8-0.4,2.8c0,0.2,0.2,0.4,0.4,0.4c0.2,0,0.4-0.2,0.4-0.4
					c-0.1-0.9,0.1-1.7,0.3-2.6c0.1-0.2-0.1-0.4-0.3-0.5C325.4,125.7,325.3,125.8,325.2,126L325.2,126z"/>
			</g>
		</g>
		<polygon class="st3" points="344.1,138.1 336.1,131.3 338.5,128.5 343.8,133.1 352.1,124.3 354.7,126.8 		"/>
	</g>
</g>
<g id="Clipboard">
	<g>
		<g>
			<path class="st12" d="M292.3,373.6H106.1c-3.7,0-6.8-3-6.8-6.8V88.2c0-3.7,3-6.8,6.8-6.8h186.3c3.7,0,6.8,3,6.8,6.8v278.7
				C299.1,370.6,296.1,373.6,292.3,373.6z"/>
			<path class="st16" d="M292.3,373.6H106.1c-3.7,0-6.8-3-6.8-6.8V88.2c0-3.7,3-6.8,6.8-6.8h186.3c3.7,0,6.8,3,6.8,6.8v278.7
				C299.1,370.6,296.1,373.6,292.3,373.6z"/>
			<polygon class="st1" points="114.9,89.4 106.1,89.4 106.1,366.2 290.8,367.7 295.9,361.4 291.5,100.3 			"/>
			<polygon class="st0" points="295.9,361.4 113.3,361.4 113.3,89.4 106.1,89.4 106.1,367.7 290.8,367.7 			"/>
			<polygon class="st2" points="106.1,367.7 113.3,361.4 295.9,361.4 290.8,367.7 			"/>
			<path class="st17" d="M311.7,352.5H131.2c-17.6-43.7-20.7-155-17.9-263.1h179.2C291,197.4,294.6,294.3,311.7,352.5z"/>
			<polygon class="st2" points="167.1,81.4 167.1,102.6 232.9,102.9 232.8,99 201.2,80.4 			"/>
			<path class="st15" d="M236,99h-65V84.6c0-4.2,3.4-7.6,7.6-7.6h49.8c4.2,0,7.6,3.4,7.6,7.6V99z"/>
			<path class="st15" d="M191.5,78.7l-2.5-8.6c-0.2-0.6,0.3-1.3,0.9-1.3H219c0.6,0,1.1,0.7,0.9,1.3l-2.9,9c-0.1,0.4-0.5,0.7-0.9,0.7
				l-23.7-0.4C192,79.4,191.6,79.1,191.5,78.7z"/>
			<path class="st18" d="M121.2,77.3c15.3,0,30.6,0,45.9,0"/>
			<line class="st18" x1="118.6" y1="77.3" x2="111.5" y2="77.3"/>
			<g>
				<g>
					<path d="M192.6,76.6c8.4,0,16.8,0,25.3,0c1,0,1-1.5,0-1.5c-8.4,0-16.8,0-25.3,0C191.6,75.1,191.6,76.6,192.6,76.6L192.6,76.6z"
						/>
				</g>
			</g>
		</g>
		<g>
			<path class="st12" d="M167.6,124.8c0,1.7-1.4,2.7-4,2.7h-5.3v-9.8h5c2.6,0,3.8,1.1,3.8,2.6c0,0.9-0.5,1.7-1.3,2.1
				C166.9,122.8,167.6,123.6,167.6,124.8z M161,119.7v1.9h1.9c0.9,0,1.4-0.3,1.4-1c0-0.6-0.5-0.9-1.4-0.9H161z M164.8,124.5
				c0-0.7-0.5-1-1.5-1H161v2h2.3C164.2,125.5,164.8,125.2,164.8,124.5z"/>
			<path class="st12" d="M175.6,125.6h-4.2l-0.8,1.9h-2.8l4.3-9.8h2.7l4.3,9.8h-2.9L175.6,125.6z M174.8,123.5l-1.3-3.1l-1.3,3.1
				H174.8z"/>
			<path class="st12" d="M189.4,117.7v9.8h-2.3l-4.3-5.2v5.2H180v-9.8h2.3l4.3,5.2v-5.2H189.4z"/>
			<path class="st12" d="M195.1,123.9l-1,1.1v2.5h-2.7v-9.8h2.7v4.1l3.8-4.1h3.1l-4,4.3l4.2,5.5h-3.2L195.1,123.9z"/>
			<path class="st12" d="M206,117.7h2.8v7.6h4.7v2.2H206V117.7z"/>
			<path class="st12" d="M213.9,122.6c0-2.9,2.3-5.1,5.5-5.1s5.5,2.2,5.5,5.1s-2.3,5.1-5.5,5.1S213.9,125.5,213.9,122.6z M222,122.6
				c0-1.7-1.2-2.8-2.7-2.8s-2.7,1.1-2.7,2.8s1.2,2.8,2.7,2.8S222,124.3,222,122.6z"/>
			<path class="st12" d="M232.7,125.6h-4.2l-0.8,1.9h-2.8l4.3-9.8h2.7l4.3,9.8h-2.9L232.7,125.6z M231.8,123.5l-1.3-3.1l-1.3,3.1
				H231.8z"/>
			<path class="st12" d="M246.4,117.7v9.8h-2.3l-4.3-5.2v5.2h-2.7v-9.8h2.3l4.3,5.2v-5.2H246.4z"/>
		</g>
		<g>
			<g>
				<path class="st0" d="M132.8,145.9c15.3,0,30.6,0,46,0c1,0,1-1.5,0-1.5c-15.3,0-30.6,0-46,0C131.9,144.4,131.9,145.9,132.8,145.9
					L132.8,145.9z"/>
			</g>
		</g>
		<g>
			<g>
				<path class="st15" d="M132.8,155.3c18.3,0,36.6,0,55,0c18.3,0,36.6,0,55,0c10.3,0,20.7,0,31,0c1,0,1-1.5,0-1.5
					c-18.3,0-36.6,0-55,0c-18.3,0-36.6,0-55,0c-10.3,0-20.7,0-31,0C131.9,153.8,131.9,155.3,132.8,155.3L132.8,155.3z"/>
			</g>
		</g>
		<g>
			<g>
				<path class="st15" d="M132.8,164.8c18.3,0,36.6,0,55,0c18.3,0,36.6,0,55,0c10.3,0,20.7,0,31,0c1,0,1-1.5,0-1.5
					c-18.3,0-36.6,0-55,0c-18.3,0-36.6,0-55,0c-10.3,0-20.7,0-31,0C131.9,163.3,131.9,164.8,132.8,164.8L132.8,164.8z"/>
			</g>
		</g>
		<g>
			<g>
				<path class="st15" d="M132.8,174.3c18.3,0,36.6,0,55,0c18.3,0,36.6,0,55,0c10.3,0,20.7,0,31,0c1,0,1-1.5,0-1.5
					c-18.3,0-36.6,0-55,0c-18.3,0-36.6,0-55,0c-10.3,0-20.7,0-31,0C131.9,172.8,131.9,174.3,132.8,174.3L132.8,174.3z"/>
			</g>
		</g>
		<g>
			<g>
				<path class="st15" d="M132.8,183.7c18.3,0,36.6,0,55,0c18.3,0,36.6,0,55,0c10.3,0,20.7,0,31,0c1,0,1-1.5,0-1.5
					c-18.3,0-36.6,0-55,0c-18.3,0-36.6,0-55,0c-10.3,0-20.7,0-31,0C131.9,182.2,131.9,183.7,132.8,183.7L132.8,183.7z"/>
			</g>
		</g>
		<g>
			<g>
				<path class="st15" d="M132.8,193.2c18.3,0,36.6,0,55,0c18.3,0,36.6,0,55,0c10.3,0,20.7,0,31,0c1,0,1-1.5,0-1.5
					c-18.3,0-36.6,0-55,0c-18.3,0-36.6,0-55,0c-10.3,0-20.7,0-31,0C131.9,191.7,131.9,193.2,132.8,193.2L132.8,193.2z"/>
			</g>
		</g>
		<g>
			<g>
				<path class="st15" d="M133.1,203.9c22,0,44.1,0,66.1,0c6.3,0,12.6,0,18.9,0c1,0,1-1.5,0-1.5c-22,0-44.1,0-66.1,0
					c-6.3,0-12.6,0-18.9,0C132.2,202.4,132.2,203.9,133.1,203.9L133.1,203.9z"/>
			</g>
		</g>
		<g>
			<g>
				<path class="st0" d="M131.9,220.1c18.5,0,36.9,0,55.4,0c18.4,0,36.7,0,55.1,0c10.4,0,20.8,0,31.2,0c1,0,1-1.5,0-1.5
					c-18.5,0-36.9,0-55.4,0c-18.4,0-36.7,0-55.1,0c-10.4,0-20.8,0-31.2,0C130.9,218.6,130.9,220.1,131.9,220.1L131.9,220.1z"/>
			</g>
		</g>
		<g>
			<g>
				<path class="st15" d="M133.4,229.9c18.5,0,36.9,0,55.4,0c18.4,0,36.7,0,55.1,0c10.4,0,20.8,0,31.2,0c1,0,1-1.5,0-1.5
					c-18.5,0-36.9,0-55.4,0c-18.4,0-36.7,0-55.1,0c-10.4,0-20.8,0-31.2,0C132.4,228.4,132.4,229.9,133.4,229.9L133.4,229.9z"/>
			</g>
		</g>
		<g>
			<g>
				<path class="st15" d="M133.7,240c18.5,0,36.9,0,55.4,0c18.4,0,36.7,0,55.1,0c10.4,0,20.8,0,31.2,0c1,0,1-1.5,0-1.5
					c-18.5,0-36.9,0-55.4,0c-18.4,0-36.7,0-55.1,0c-10.4,0-20.8,0-31.2,0C132.7,238.5,132.7,240,133.7,240L133.7,240z"/>
			</g>
		</g>
		<g>
			<g>
				<path class="st15" d="M134,250.1c18.5,0,36.9,0,55.4,0c18.4,0,36.7,0,55.1,0c10.4,0,20.8,0,31.2,0c1,0,1-1.5,0-1.5
					c-18.5,0-36.9,0-55.4,0c-18.4,0-36.7,0-55.1,0c-10.4,0-20.8,0-31.2,0C133,248.6,133,250.1,134,250.1L134,250.1z"/>
			</g>
		</g>
		<g>
			<g>
				<path class="st15" d="M134.3,260.2c18.5,0,36.9,0,55.4,0c18.4,0,36.7,0,55.1,0c10.4,0,20.8,0,31.2,0c1,0,1-1.5,0-1.5
					c-18.5,0-36.9,0-55.4,0c-18.4,0-36.7,0-55.1,0c-10.4,0-20.8,0-31.2,0C133.3,258.7,133.3,260.2,134.3,260.2L134.3,260.2z"/>
			</g>
		</g>
		<g>
			<g>
				<path class="st15" d="M134.6,270.3c18.5,0,36.9,0,55.4,0c18.4,0,36.7,0,55.1,0c10.4,0,20.8,0,31.2,0c1,0,1-1.5,0-1.5
					c-18.5,0-36.9,0-55.4,0c-18.4,0-36.7,0-55.1,0c-10.4,0-20.8,0-31.2,0C133.6,268.8,133.6,270.3,134.6,270.3L134.6,270.3z"/>
			</g>
		</g>
		<g>
			<g>
				<path class="st15" d="M137.7,280.4c18.5,0,37,0,55.5,0c18.6,0,37.2,0,55.7,0c10.4,0,20.8,0,31.2,0c1,0,1-1.5,0-1.5
					c-18.5,0-37,0-55.5,0c-18.6,0-37.2,0-55.7,0c-10.4,0-20.8,0-31.2,0C136.7,278.9,136.7,280.4,137.7,280.4L137.7,280.4z"/>
			</g>
		</g>
		<g>
			<g>
				<path class="st15" d="M141.4,290.5c18.2,0,36.4,0,54.7,0s36.4,0,54.7,0c10.3,0,20.6,0,30.9,0c1,0,1-1.5,0-1.5
					c-18.2,0-36.4,0-54.7,0s-36.4,0-54.7,0c-10.3,0-20.6,0-30.9,0C140.4,289,140.4,290.5,141.4,290.5L141.4,290.5z"/>
			</g>
		</g>
		<g>
			<g>
				<path class="st15" d="M227.5,203.6c7.9,0,15.9,0,23.8,0c1,0,1-1.5,0-1.5c-7.9,0-15.9,0-23.8,0
					C226.5,202.1,226.5,203.6,227.5,203.6L227.5,203.6z"/>
			</g>
		</g>
		<g>
			<g>
				<path class="st0" d="M152.7,333.7c9.6-1.1,18.8-4.7,26.6-10.6c3.3-2.5,7.4-5.9,7.3-10.4c-0.1-3.6-3-6-6.3-7
					c-7.3-2.3-16.5,1.9-19.8,8.8c-3.8,8,1.7,16.4,9.2,19.5c4.7,1.9,9.9,2.2,14.8,1.7c5.1-0.5,10.1-1.5,15-3c4.9-1.5,9.6-3.5,14.1-6
					c3.3-1.8,7.6-4.8,7.2-9c-0.4-3.6-3.8-5.2-7.1-5.6c-2.1-0.3-4.1-0.1-6.2,0.1c-2.3,0.2-4.6,0.6-6.8,1.4c-3.8,1.4-7.2,4.4-7.8,8.6
					c-0.6,4.1,2.2,7.1,5.8,8.6c4.3,1.7,9.4,2,14,1.9c5.1,0,10.2-0.7,15.1-2.1c2.4-0.7,4.8-1.5,7.1-2.5c2.1-0.9,4.3-1.9,6.1-3.4
					c2.8-2.3,4.4-7.7,0.2-9.5c-1.4-0.6-3-0.5-4.2,0.5c-0.7,0.6,0.3,1.7,1.1,1.1c1.5-1.2,3.6,0,4.1,1.7c0.6,2.2-0.9,4.2-2.5,5.5
					c-1.6,1.2-3.6,2.1-5.4,2.8c-2,0.8-4.1,1.6-6.2,2.2c-8.2,2.4-17.2,3-25.6,1.3c-3.3-0.7-7.4-2.2-8-6.1c-0.6-3.8,2.3-7.1,5.5-8.7
					c3.5-1.7,7.8-2.1,11.7-2.1c2.8,0,6.9,0.7,7.6,4c0.9,4-4,6.8-6.9,8.4c-3.9,2.1-7.9,3.8-12.1,5.2c-4,1.3-8.1,2.3-12.3,2.9
					c-4.3,0.6-8.8,1-13.2,0.1c-7.2-1.4-14.9-7.2-13.9-15.3c0.9-7,8.6-12.1,15.3-12c3,0,6.7,1,8.3,3.8c2.2,3.7-1,7.5-3.7,9.8
					c-6.2,5.3-13.8,9.1-21.7,11c-2,0.5-4.1,0.9-6.2,1.1C151.7,332.3,151.7,333.8,152.7,333.7L152.7,333.7z"/>
			</g>
		</g>
		<rect x="150.6" y="110.1" class="st19" width="103.4" height="22.3"/>
	</g>
</g>
<g id="Characters">
	<g>
		<g>
			<path class="st20" d="M314.1,235.6l7-1.3l-0.4,10c0,0-2.5,1-7.8-2.3L314.1,235.6z"/>
			<polygon class="st20" points="329.5,237.6 328.2,243.7 320.6,244.3 321.1,234.2 			"/>
			<path class="st20" d="M273.3,192.3c0,0,11.9,28.2,15.9,30.1c5.5,2.5,20.1,10.2,26.2,13.8c0.4,1.4,0.4,5.2-0.2,6.3
				c-10.1-0.8-30.9-7.7-34.9-11.5c-9.1-8.7-18.7-35.3-18.7-35.3"/>
			<g id="freepik--character-1--inject-2_00000140703253536892823900000011331182321114980480_">
				<path class="st21" d="M328.7,233.4l-6.2,3.2l0.6,2.2l5,5c0,0,3.6-2.8,3.5-6.7L328.7,233.4z"/>
				<polygon class="st21" points="327.8,234.3 322.1,233.2 318.4,234.8 320.9,235.2 322.5,236.7 				"/>
				<path class="st15" d="M384.2,151.3c-0.1,0.7-0.6,1.2-1.1,1.1c-0.4-0.1-0.7-0.7-0.6-1.5c0.1-0.7,0.6-1.2,1.1-1.1
					S384.4,150.6,384.2,151.3z"/>
				<path class="st22" d="M383.6,152.5c-1.3,2-2.8,3.8-4.6,5.4c1.1,1.4,3.2,1.3,3.2,1.3L383.6,152.5z"/>
				<path class="st15" d="M387.6,147.9c0.1,0,0.2,0,0.3-0.1c0.2-0.2,0.2-0.4,0-0.6c-0.9-1-2.2-1.5-3.6-1.4c-0.2,0.1-0.4,0.3-0.3,0.5
					c0.1,0.2,0.2,0.3,0.4,0.3l0,0c1.1-0.1,2.1,0.3,2.8,1.1C387.3,147.8,387.4,147.9,387.6,147.9z"/>
				<path class="st21" d="M403.4,163.8c-1.2,6.2-2,14.8,2.4,19c0,0-1.7,6.3-13.3,6.3c-12.7,0-6.1-5.6-6.1-5.6
					c5.3-1.6,5.3-7.7,4-12.5L403.4,163.8z"/>
				<path class="st12" d="M407.1,187.1c1-1.6,0.7-6.4-0.5-7.2c-1.9-1.3-9.9-1.1-20.4,2c1.4,4.6-0.9,7.2-0.9,7.2L407.1,187.1z"/>
				<path class="st15" d="M415.7,184.7c0,0,30.7,35.3,27.3,52c-3.4,16.7-25.7,25.9-25.7,25.9l-4.7-8.3c0,0,14.1-11.7,15.8-18.5
					c1.7-6.8-13.2-25-13.2-25L415.7,184.7z"/>
				<path class="st23" d="M415.9,199.2c3.8,3.7,4.9,11.3,4.4,16.5c-0.9-1.6-1.9-3.1-2.9-4.7c-1.5-2.4-3.1-4.7-4.8-7
					c-0.5-0.6-0.9-1.3-1.4-1.9c-0.1-0.4-0.2-0.8-0.3-1.2L415.9,199.2z"/>
				<g>
					<polygon class="st21" points="392.6,461.2 383.3,459.3 383.3,437.7 392.5,439.5 					"/>
					<path class="st15" d="M381.3,455.2l3.5,0c0.8,0,1.5,0.4,2,1c2.1,2.6,3.6,1.6,5.7-0.9c1.4-0.2,1.8,1.4,2,1.8l3,9.1
						c0.3,0.8-0.2,1.6-1,1.8c-0.1,0-0.3,0.1-0.4,0.1c-4.3,0-6.3,0.1-11.6,0.1l-16.3,0.1c-4.4,0-5.5-4.2-3.7-4.6
						c8.1-1.8,13.9-4.2,16.3-6.5C381.3,456.7,380.8,456.4,381.3,455.2z"/>
					<path class="st12" d="M376.1,458.3c1.1,0,2.2-0.2,3.3-0.4c0.1,0,0.1-0.1,0.1-0.2c0-0.1-0.1-0.1-0.1-0.1c-0.5-0.2-5-2.1-6.1-1.4
						c-0.2,0.1-0.3,0.4-0.3,0.6c0,0.4,0.3,0.8,0.6,1.1C374.5,458.2,375.3,458.4,376.1,458.3z M378.7,457.6c-1.3,0.2-3.7,0.6-4.7-0.1
						c-0.3-0.2-0.4-0.5-0.5-0.8c0-0.1,0-0.2,0.1-0.3C374.2,456,376.9,456.9,378.7,457.6z"/>
					<path class="st12" d="M379.4,457.9c0,0,0.1,0,0.1,0c0.1,0,0.1-0.1,0-0.2c0-0.2-1.2-4.3-3.6-4c-0.6,0.1-0.8,0.4-0.8,0.6
						c-0.1,1.1,2.8,3.1,4.1,3.7L379.4,457.9z M376.2,454c1.5,0,2.5,2.4,2.9,3.3c-1.5-0.7-3.6-2.4-3.5-3.1c0-0.1,0-0.2,0.4-0.3
						L376.2,454z"/>
					<path class="st24" d="M378.9,457.8c1.2,0.1,2.4,0.8,3.1,1.8"/>
					<path class="st24" d="M376.8,459.4c1.2,0.1,2.4,0.8,3.1,1.8"/>
					<path class="st24" d="M374.1,460.7c1.2,0.1,2.4,0.8,3.1,1.8"/>
				</g>
				<g>
					<polygon class="st21" points="459.2,456.1 449.9,457.5 442.5,437.1 451.8,435.7 					"/>
					<path class="st15" d="M446.5,454.2l3.3-1.2c0.7-0.3,1.6-0.2,2.3,0.2c2.9,1.7,4,0.3,5.1-2.8c1.3-0.6,2.2,0.7,2.5,1l5.9,7.5
						c0.5,0.6,0.4,1.5-0.3,2c-0.1,0.1-0.2,0.2-0.4,0.2c-4,1.5-5.9,2.2-10.9,4l-15.3,5.6c-4.2,1.5-6.6-2.1-5.1-3.1
						c7-4.5,11.6-8.6,13.1-11.6C447.1,455.7,446.5,455.5,446.5,454.2z"/>
					<path class="st12" d="M442.8,458.9c1-0.4,2-0.9,2.9-1.5c0.1-0.1,0.1-0.2,0-0.3c0,0-0.1-0.1-0.2-0.1c-0.6,0-5.4-0.3-6.2,0.7
						c-0.1,0.2-0.2,0.4,0,0.6c0.2,0.4,0.5,0.7,1,0.8C441.2,459.4,442,459.3,442.8,458.9z M445,457.4c-1.1,0.7-3.3,1.8-4.5,1.5
						c-0.3-0.1-0.6-0.3-0.7-0.6c-0.1-0.1-0.1-0.2,0-0.3C440.2,457.4,443,457.3,445,457.4z"/>
					<path class="st12" d="M445.7,457.4c0,0,0.1,0,0.1,0c0-0.1,0-0.1,0-0.2c-0.1-0.2-2.6-3.6-4.8-2.5c-0.5,0.3-0.6,0.6-0.5,0.8
						C440.8,456.5,444.2,457.5,445.7,457.4L445.7,457.4z M441.4,454.9c1.4-0.5,3.2,1.4,3.8,2.2c-1.6-0.2-4.2-1.1-4.3-1.7
						c0-0.1-0.1-0.2,0.3-0.4L441.4,454.9z"/>
					<path class="st24" d="M445.2,457.5c1.2-0.3,2.5,0,3.5,0.7"/>
					<path class="st24" d="M443.8,459.7c1.2-0.3,2.5,0,3.5,0.7"/>
					<path class="st24" d="M441.7,461.9c1.2-0.3,2.5,0,3.5,0.7"/>
				</g>
				<path class="st15" d="M388.4,255.2c0,0,10,61.8,15.5,85c6,25.4,38.3,109.3,38.3,109.3l15.8-3.2c0,0-22.6-68.4-27.6-103.8
					c-3.9-27.2-11.5-87.2-11.5-87.2L388.4,255.2z"/>
				<path class="st25" d="M388.4,255.2c0,0,10,61.8,15.5,85c6,25.4,38.3,109.3,38.3,109.3l15.8-3.2c0,0-22.6-68.4-27.6-103.8
					c-3.9-27.2-11.5-87.2-11.5-87.2L388.4,255.2z"/>
				<path class="st26" d="M394.2,277.2c10.6,2.1,9.7,37.1,8.5,57.5c-3-14.4-7.8-37.6-10.9-57.2C392.6,277.2,393.4,277.1,394.2,277.2
					z"/>
				<path class="st15" d="M368.7,255.2c0,0-1.3,60.5-0.3,85.1C369.5,366,379.8,450,379.8,450h15.8c0,0,0.6-82.5,1.3-107.7
					c0.8-27.5,4.6-87.1,4.6-87.1H368.7z"/>
				<path class="st25" d="M368.7,255.2c0,0-1.3,60.5-0.3,85.1C369.5,366,379.8,450,379.8,450h15.8c0,0,0.6-82.5,1.3-107.7
					c0.8-27.5,4.6-87.1,4.6-87.1H368.7z"/>
				<path class="st15" d="M370.4,193c-1.7,8.7-3.8,37.5-1.1,72.1l49.9-0.3c0.3-6.2-5.2-43.8-0.5-73.7c0.5-3.5-2-6.8-5.6-7.3
					c0,0-0.1,0-0.1,0c-2.4-0.3-5.3-0.6-8.1-0.8c-6.3-0.4-12.6-0.4-19,0c-2.1,0.2-4.1,0.5-6,0.8C375.1,184.7,371.4,188.4,370.4,193z"
					/>
				<path class="st23" d="M370.7,201.7l7.9,2c0.6,7.4-4.3,15.7-9.1,22.1C369.4,217.7,369.8,209.7,370.7,201.7z"/>
				<path class="st21" d="M408.1,154.6c-2.3,8.6-3.2,13.7-8.5,17.3c-8,5.4-17.9-0.8-18.2-9.9c-0.3-8.2,3.5-20.9,12.7-22.6
					c6.6-1.3,12.9,3,14.2,9.6C408.7,150.8,408.7,152.7,408.1,154.6z"/>
				<path class="st15" d="M390.3,154.7c-2-3-2.8-7.6-1.4-9.9c-1.3,0.6-11,1.2-7.2-5.7c3.8-6.9,11.4-8.8,18-6.9l-3.2,0.9
					c0,0,9-0.7,13.4,3c-1.3,0.1-2.5,0-2.5,0s9.7,4.6,5.5,8c6.8,5.2,2.2,12.4-9,23.1c-2,1.8-7.5,1.1-8.7,0.1
					C396,162.7,391.5,156.4,390.3,154.7z"/>
				<path class="st15" d="M389.2,148.8c-2,1.5-4.5,5.8-5.6,7.9c-1.2,2.2-2.4,1.9-2.9,2.7c-0.6,0.9-3,15.3-0.4,17.6
					c2.5,2.3,10.2-1.3,11.2-4c1-2.7-0.8-9.2-1.3-10.7c-0.5-2.6-0.4-5.2,0.4-7.7C391.4,152.2,389.2,148.8,389.2,148.8z"/>
				<path class="st21" d="M393.7,155.1c-0.6,2.1-1.9,3.9-3.9,5c-2.3,1.1-2.6-1.7-2.2-4.2c0.4-2.3,1.1-4.2,2.9-5.1
					C392.8,149.6,394.5,152.5,393.7,155.1z"/>
			</g>
			<path class="st15" d="M387,193c-0.5,1.1-12.3,27.8-26.4,35.6c-14.1,7.8-28.8,11.6-28.8,11.6l-4.1-7.5c0,0,22.3-12.4,26.8-17.9
				c4.5-5.4,21.4-28.6,21.4-28.6L387,193z"/>
		</g>
		<g>
			<g>
				<g>
					<polygon class="st20" points="209.6,453.1 220,453.8 226.6,431.2 212.7,428.2 					"/>
					<path class="st15" d="M221.1,451.9l-3.3-0.6c-0.8-0.1-1.5,0.1-2.1,0.6c-2.4,2.3-3.7,1-5.3-1.9c-1.3-0.4-1.9,1.1-2.1,1.4
						l-4.2,8.6c-0.4,0.7-0.1,1.6,0.6,2c0.1,0.1,0.3,0.1,0.4,0.1c4.1,0.8,6,1.1,11,2.1l15.4,2.9c4.2,0.8,5.9-3.3,4.2-4
						c-7.5-3.2-12.6-6.5-14.5-9.2C220.8,453.4,221.3,453.2,221.1,451.9z"/>
					<path class="st12" d="M227.8,455.8c0.4-0.2,0.7-0.6,0.8-1c0.1-0.2,0-0.5-0.2-0.6c-0.9-0.9-5.4,0.2-6,0.4c-0.1,0-0.1,0-0.1,0.1
						c-0.1,0.1,0,0.2,0.1,0.3c1,0.4,2,0.8,3.1,1C226.3,456.2,227.1,456.1,227.8,455.8z M228.1,454.5c0.1,0.1,0.1,0.2,0.1,0.3
						c-0.1,0.3-0.3,0.6-0.6,0.7c-1.1,0.5-3.3-0.2-4.5-0.7C225,454.4,227.6,454,228.1,454.5z"/>
					<path class="st12" d="M222.6,455c1.4-0.3,4.4-1.9,4.4-3c0-0.2-0.1-0.5-0.6-0.7c-2.2-0.7-4,3.2-4,3.4c0,0.1,0,0.1,0,0.2
						C222.4,455,222.4,455,222.6,455L222.6,455z M226.2,451.6c0.4,0.1,0.4,0.3,0.4,0.3c0,0.7-2.2,2-3.7,2.5c0.5-0.9,1.8-3.1,3.2-2.9
						L226.2,451.6z"/>
					<path class="st24" d="M222.9,454.9c-1.2-0.1-2.4,0.4-3.2,1.3"/>
					<path class="st24" d="M224.7,456.9c-1.2-0.1-2.4,0.4-3.2,1.3"/>
					<path class="st24" d="M227,458.7c-1.2-0.1-2.4,0.4-3.2,1.3"/>
				</g>
				<g>
					<polygon class="st20" points="261.7,453.8 272.1,453.1 275.9,429.9 261.7,428.6 					"/>
					<path class="st15" d="M273,451.1l-3.4-0.2c-0.8,0-1.5,0.3-2,0.9c-2.1,2.5-3.5,1.4-5.5-1.2c-1.3-0.2-1.8,1.3-1.9,1.7l-3.1,9.1
						c-0.3,0.8,0.1,1.6,0.9,1.9c0.1,0,0.3,0.1,0.4,0.1c4.1,0.3,6.1,0.4,11.2,0.7l15.7,1c4.3,0.3,5.4-4,3.7-4.5
						c-7.8-2.2-13.3-4.9-15.6-7.4C272.9,452.6,273.4,452.4,273,451.1z"/>
					<path class="st12" d="M280.2,454.2c0.4-0.2,0.6-0.6,0.6-1.1c0-0.2,0-0.5-0.2-0.6c-1-0.8-5.4,0.9-5.9,1.1
						c-0.1,0-0.1,0.1-0.1,0.1c0,0.1,0,0.2,0.1,0.2c1,0.3,2.1,0.5,3.2,0.6C278.7,454.7,279.5,454.5,280.2,454.2z M280.3,452.8
						c0.1,0.1,0.1,0.2,0.1,0.3c0,0.3-0.2,0.6-0.5,0.8c-1,0.7-3.3,0.2-4.5-0.1C277.2,453.1,279.8,452.3,280.3,452.8z"/>
					<path class="st12" d="M274.9,454c1.3-0.5,4.1-2.4,4-3.5c0-0.2-0.2-0.5-0.7-0.6c-2.3-0.4-3.6,3.7-3.6,3.9c0,0.1,0,0.1,0,0.2
						C274.7,454,274.7,454,274.9,454L274.9,454z M278.1,450.2c0.4,0.1,0.4,0.2,0.4,0.3c0.1,0.7-2,2.3-3.4,2.9c0.3-1,1.4-3.3,2.8-3.2
						L278.1,450.2z"/>
					<path class="st24" d="M275.2,453.9c-1.2,0.1-2.3,0.7-3,1.7"/>
					<path class="st24" d="M277.2,455.6c-1.2,0.1-2.3,0.7-3,1.7"/>
					<path class="st24" d="M279.7,457.1c-1.2,0.1-2.3,0.7-3,1.7"/>
				</g>
				<g>
					<path class="st12" d="M273.8,263.4c2.7-2.1,14.6,103.8,3.7,182.3l-17.6-0.2c0,0-1.3-67.7-4-98.3c-2.6-30.6-14.6-82.9-14.6-82.9
						L273.8,263.4z"/>
					<path class="st23" d="M273.8,263.4c2.7-2.1,14.6,103.8,3.7,182.3l-17.6-0.2c0,0-1.3-67.7-4-98.3c-2.6-30.6-14.6-82.9-14.6-82.9
						L273.8,263.4z"/>
					<path class="st23" d="M254.9,337.9c0,0,0.9-7.9,1.2-17.9c0.2-9.9-1.4-19.7-4.6-29.1l0,0l-2.1,12.9L254.9,337.9z"/>
					<path class="st12" d="M221,355.6c0.9-39.4-2.7-80.4,2.3-89.7l31.3-3.7c-0.1,0.6-5.9,76.8-8.4,97.7
						c-3.5,27.6-23.9,89.1-23.9,89.1l-14.8-1.8C207.5,447.1,214.9,386.6,221,355.6z"/>
					<path class="st23" d="M221,355.6c0.9-39.4-2.7-80.4,2.3-89.7l31.3-3.7c-0.1,0.6-5.9,76.8-8.4,97.7
						c-3.5,27.6-23.9,89.1-23.9,89.1l-14.8-1.8C207.5,447.1,214.9,386.6,221,355.6z"/>
					<path class="st23" d="M276,272c0,0-5.4,9-24.1,7.3c-18.6-1.7-30.4-7-30.4-7c0.3-2,0.7-3.8,1.2-5.2l52.3,0.7L276,272z"/>
				</g>
				<g>
					<g>
						<path class="st15" d="M251.5,179.8c0-0.4,14.3,0,16,2.6c1.7,2.6,10.8,78.5,11.2,85.3c0.4,7-42.3,13-58.9,1.4
							c0,0,1.7-56.6,0.8-66.5c-0.9-10,4.5-18.8,4.5-18.8l10.1-2.4L251.5,179.8z"/>
					</g>
					<path class="st15" d="M258,187.8c0.5,7.1,5.2,28.2,5.2,28.2l21.1-6.2c0,0-4.4-15.6-9.6-22.2C267.9,179.1,257.3,178.6,258,187.8
						z"/>
					<g class="st6">
						<g>
							<path d="M271.5,213.7c-1.2-5.9-2.4-11.9-3.6-17.9c-0.1-0.5-0.8-0.3-0.7,0.2c1.2,6,2.4,11.9,3.6,17.9
								C270.9,214.4,271.6,214.2,271.5,213.7L271.5,213.7z"/>
						</g>
					</g>
				</g>
			</g>
			<g>
				<path class="st20" d="M217.6,195.8c-3.1,0.9-4.5,7.6-6.1,14c-3.1,12.3-6.4,26.3-6.4,32.8c0,12.8,10.5,38.7,10.5,38.7l7.5-1.6
					c0,0-5.2-33.9-4.8-36c1.3-7.7,9.5-33.1,9.3-39.8c-0.1-6.6-1.7-6.1-5.7-7.9C220.6,195.3,218.8,195.4,217.6,195.8z"/>
				<path class="st20" d="M214.7,278.6l6.6-2.6l2.8,4.9c0.4,0.5,0.7,1,0.9,1.4c2.3,3.8,5.3,9.2,5.8,12.6c0.5,3.3-1.5,6.9-2.4,5.1
					c-0.6-1.3-0.1-2.7-0.4-3.9c-0.6-2.9-1.1-4.6-1.1-4.6c0.3,5.6-1.2,9.6-2,10.1c-1.2,0.7-2.1-0.4-2.1-0.4s-0.1,0.9-2.2,0
					c-1.5-0.6-0.2-7.3-0.2-7.3s-2,6-3.6,5.3c-1.6-0.7,0.9-5.9,1-9c0.1-1.1-2.3-3-2.4-5.7C215.3,282.9,215.6,280.6,214.7,278.6z"/>
				<g>
					<g>
						<path class="st27" d="M223,301.2c0.6-1.8,1.2-3.6,1.4-5.6c0.2-2.2-0.3-4.5-1-6.6c-0.1-0.5-0.9-0.3-0.7,0.2
							c0.6,2.1,1.1,4.2,1,6.4c-0.1,1.9-0.7,3.6-1.4,5.4C222.1,301.4,222.8,301.6,223,301.2L223,301.2z"/>
					</g>
				</g>
				<g>
					<g>
						<path class="st27" d="M220.7,294c0.1-0.9,0.2-1.9,0.2-2.9c0-0.8-0.2-1.7-0.7-2.4c-0.1-0.2-0.3-0.2-0.5-0.1
							c-0.2,0.1-0.3,0.4-0.1,0.5c0.5,0.6,0.6,1.4,0.6,2.2c0,0.9-0.1,1.8-0.2,2.7C219.9,294.5,220.7,294.5,220.7,294L220.7,294z"/>
					</g>
				</g>
			</g>
			<g>
				<path class="st15" d="M216.8,190.9c-4.4,7.6-8,20-8,20l17.5,6.7c3-6.1,6.6-12.7,6.9-19.5c0.4-9.2-1.3-15.7-7.1-14.8
					C223.1,183.8,219.4,186.4,216.8,190.9z"/>
				<g class="st6">
					<g>
						<path d="M224.9,185.5c7.3,5.7,5.6,15.9,4,23.8c-0.1,0.5,0.6,0.7,0.7,0.2c1.6-8.2,3.3-18.6-4.2-24.5
							C225.1,184.7,224.6,185.2,224.9,185.5L224.9,185.5z"/>
					</g>
				</g>
			</g>
			<g>
				<path class="st20" d="M238.2,181c0,0,5.9-6.9-2.1-16.8c-0.9-1.1-1-3.2-1.2-4.3l15.4,7.7c0,3.4,1.6,9.6,2.9,12.1v0
					c-1.7,4.8-7.5,6.7-11.6,3.8L238.2,181z"/>
				<path class="st2" d="M251,172.3l-8.5-1.8c1,2.5,3.6,6.1,9.4,5.8C251.9,176.3,251,173.4,251,172.3z"/>
				<path class="st15" d="M259.2,140.7c2,3.2,1.9,11.6-3.6,10.6C250.1,150.2,255.7,135.2,259.2,140.7z"/>
				<path class="st20" d="M234.2,152.8c1.8,9.1,3,13.6,8.3,17.7c22.7,13.2,25.7-27.7,7.4-32.8C240.4,135.4,232.4,143.7,234.2,152.8z
					"/>
				<g>
					<g>
						<path class="st15" d="M254.4,162c-1.3-0.2-2.4-0.9-3.2-1.9c-0.1-0.2-0.4-0.1-0.5,0c-0.2,0.2-0.1,0.4,0,0.5
							c0.9,1.2,2.3,1.9,3.8,2.1c0.2,0,0.4-0.2,0.4-0.4C254.8,162.2,254.6,162.1,254.4,162L254.4,162z"/>
					</g>
				</g>
				<path class="st15" d="M227.9,142.9c0,0,8.3-1.4,9.7-1.5c1.4-0.1,3,4.8,2.8,6.4c-0.2,1.6-2.3,2.4-2.2,3.9
					c0.1,1.3,2.4,5.1,1.7,6.9c-0.9,0.7-5.9-2.1-5.9-2.1l-2.9,1.1C231.1,157.8,222.5,146.8,227.9,142.9z"/>
				<path class="st15" d="M227.9,143.5c-0.6-0.6-1.2-1.5-1.1-2.9c0-0.5,0.7-0.8,1-0.4c0,0,0.1,0.1,0.1,0.1c0.3,0.3,0.8,0.1,1-0.2
					c0.9-2.1,3.7-5.2,10.5-6.9c9.4-2.3,11.9,0.8,14.6-0.7c1.2-0.7,1.2-1.2,0.8-1.7c-0.4-0.4,0-1,0.5-1c1.5,0,3.4,0.5,4.3,2.5
					c1.6,3.6,0.5,9.9-7.9,9.7c-8.4-0.2-10,2.6-14.2,2c-3-0.3-6.1-0.4-9.1-0.3C228.2,143.7,228,143.6,227.9,143.5z"/>
				<path class="st20" d="M231.6,160.8c1.7,4.8,10.2,7.2,9,0C239.7,153.8,229.3,152.4,231.6,160.8z"/>
				<path class="st15" d="M247.9,153.8c0.3,2.2,2.6,1.9,2.2-0.3C249.8,151.2,247.5,151.6,247.9,153.8z"/>
				<path class="st15" d="M256.7,152.7c0.3,2.2,2.6,1.9,2.2-0.3C258.6,150.2,256.4,150.5,256.7,152.7z"/>
				<path class="st28" d="M253.9,152.5c0,0,3.6,4.3,4.8,6.1c-1.1,1.4-3.5,1.1-3.5,1.1L253.9,152.5z"/>
				<path class="st15" d="M244.8,149.5c0.1,0,0.3,0,0.4-0.1c1.5-1.4,3.1-1,3.1-1c2-0.8-1.6-1.8-3.7,0.3
					C244.3,148.9,244.4,149.4,244.8,149.5z"/>
				<path class="st29" d="M233.3,158.2c1.5-2.2,4.4,0.7,4.2,3.5"/>
				<path class="st15" d="M259.1,148.5c0.3-0.1,0.3-0.6,0-0.8c-2.1-1.2-3.9-0.3-4-0.3c-0.5,0.3-0.1,1.1,0.4,0.8
					C255.8,147.9,257.5,148,259.1,148.5z"/>
			</g>
		</g>
		<path class="st21" d="M328.6,243.4c-2.8,3-10.4,2.5-11.5,1.7c-1.1-0.8,4.1-1.7,4.1-1.7c-3.2,0.8-6.8,0.6-7.4,0
			c-0.6-0.6,0.1-3.5,1-4.2s7.7-2.6,7.7-2.6s-2-2.2-4.1-1.9c1.8-2,3.2-2.3,4.7-2.1c1.5,0.3,4.7,1.6,4.7,1.6L328.6,243.4z"/>
		<g>
			<g>
				<path class="st28" d="M319.6,243.9c0.9,0.1,1.8,0.1,2.7-0.1c0.6-0.1,1.2-0.4,1.7-0.5c0.5-0.1,0.3-0.9-0.2-0.7
					c-0.6,0.2-1.1,0.4-1.7,0.5c-0.8,0.2-1.7,0.2-2.5,0.1C319.1,243.2,319.2,243.9,319.6,243.9L319.6,243.9z"/>
			</g>
		</g>
		<g>
			<g>
				<path class="st28" d="M313.6,242.5c1.1,0.1,2.3,0.1,3.4,0.1c1.8-0.1,3.8-0.2,5.5-1.1c0.4-0.2,0.1-0.9-0.4-0.6
					c-1.6,0.8-3.6,0.9-5.3,1c-1.1,0-2.1,0-3.2-0.1C313.1,241.7,313.1,242.4,313.6,242.5L313.6,242.5z"/>
			</g>
		</g>
		<g>
			<g>
				<path class="st28" d="M314.1,240.5c1.1,0.1,2.3,0.1,3.4,0.1c1.8-0.1,3.8-0.2,5.5-1.1c0.4-0.2,0.1-0.9-0.4-0.6
					c-1.6,0.8-3.6,0.9-5.3,1c-1.1,0-2.1,0-3.2-0.1C313.6,239.7,313.6,240.5,314.1,240.5L314.1,240.5z"/>
			</g>
		</g>
	</g>
</g>
</svg>
