<?xml version="1.0" encoding="utf-8"?>
<!-- Generator: Adobe Illustrator 26.0.1, SVG Export Plug-In . SVG Version: 6.00 Build 0)  -->
<svg version="1.1" xmlns="http://www.w3.org/2000/svg" xmlns:xlink="http://www.w3.org/1999/xlink" x="0px" y="0px"
	 viewBox="0 0 500 500" style="enable-background:new 0 0 500 500;" xml:space="preserve">
<style type="text/css">
	.st0{fill:#EBEBEB;}
	.st1{fill:#F5F5F5;}
	.st2{fill:#E6E6E6;}
	.st3{fill:#FAFAFA;}
	.st4{fill:#E0E0E0;}
	.st5{display:none;}
	.st6{display:inline;}
	.st7{fill:#407BFF;}
	.st8{opacity:0.9;fill:#FFFFFF;}
	.st9{fill:#803E3C;}
	.st10{opacity:0.7;fill:#FFFFFF;}
	.st11{fill:#7F3E3B;}
	.st12{opacity:0.2;}
	.st13{fill:#FFFFFF;}
	.st14{fill:#263238;}
	.st15{opacity:0.6;}
	.st16{fill:#630F0F;}
	.st17{opacity:0.5;fill:#FFFFFF;}
	.st18{opacity:0.8;fill:#FFFFFF;}
	.st19{opacity:0.3;}
	.st20{opacity:0.6;fill:#FFFFFF;}
	.st21{opacity:0.5;}
</style>
<g id="Background_Complete">
	<rect x="416.8" y="398.5" class="st0" width="33.1" height="0.2"/>
	<rect x="322.5" y="401.2" class="st0" width="8.7" height="0.2"/>
	<rect x="396.6" y="389.2" class="st0" width="19.2" height="0.2"/>
	<rect x="52.5" y="390.9" class="st0" width="43.2" height="0.2"/>
	<rect x="104.6" y="390.9" class="st0" width="6.3" height="0.2"/>
	<rect x="131.5" y="395.1" class="st0" width="93.7" height="0.2"/>
	<g>
		<path class="st0" d="M238.4,337.8H45.3c-3.1,0-5.7-2.6-5.7-5.7V60.7c0-3.1,2.6-5.7,5.7-5.7h193.1c3.1,0,5.7,2.6,5.7,5.7v271.4
			C244.1,335.2,241.5,337.8,238.4,337.8z M45.3,55.2c-3,0-5.5,2.4-5.5,5.5v271.4c0,3,2.4,5.5,5.5,5.5h193.1c3,0,5.5-2.4,5.5-5.5
			V60.7c0-3-2.4-5.5-5.5-5.5H45.3z"/>
		<path class="st0" d="M454.7,337.8H261.6c-3.1,0-5.7-2.6-5.7-5.7V60.7c0-3.1,2.6-5.7,5.7-5.7h193.1c3.1,0,5.7,2.6,5.7,5.7v271.4
			C460.4,335.2,457.8,337.8,454.7,337.8z M261.6,55.2c-3,0-5.5,2.4-5.5,5.5v271.4c0,3,2.4,5.5,5.5,5.5h193.1c3,0,5.5-2.4,5.5-5.5
			V60.7c0-3-2.4-5.5-5.5-5.5H261.6z"/>
	</g>
	<rect y="382.4" class="st0" width="500" height="0.2"/>
	<g>
		<g>
			<path class="st1" d="M403.5,219.1c13.7-10.6,31.3-12.3,45-23c-6.1-6.1-12.2-12.2-18.3-18.3c-13.7,10.6-31.3,12.3-45,23
				C391.3,206.9,397.4,213,403.5,219.1z"/>
			<path class="st2" d="M393.2,198.2c10.4-5.9,22.5-7.8,32.9-13.8c2.2,1.1,4.9,1.4,7.2,0.6c3.1,3.1,4.6,4.6,7.7,7.7
				c-1.1,1.9-1.4,4-0.6,6c-10.3,6-22.5,7.9-32.9,13.8c-2.2-1.1-4.9-1.4-7.2-0.6c-3.1-3.1-4.6-4.6-7.7-7.7
				C393.7,202.3,394,200.2,393.2,198.2z"/>
			<path class="st3" d="M410.6,200.7c2.9,2.9,8.1,4.3,11.5,3.1c3.5-1.2,3.9-4.6,0.9-7.5c-2.9-2.9-8.1-4.3-11.5-3.1
				C408,194.4,407.6,197.7,410.6,200.7z"/>
		</g>
	</g>
	<g>
		<g>
			<path class="st4" d="M437.3,268.2c6.3,12.7,2.7,27.3-8.1,32.7l-3.8,1.9c-10.8,5.4-24.7-0.5-31-13.2c-6.3-12.7-2.7-27.3,8.2-32.7
				l3.8-1.9C417.1,249.6,430.9,255.5,437.3,268.2z"/>
		</g>
		<ellipse transform="matrix(0.895 -0.446 0.446 0.895 -80.1374 215.4803)" class="st1" cx="417.7" cy="278" rx="21.9" ry="25.7"/>
		<ellipse transform="matrix(0.895 -0.446 0.446 0.895 -80.1381 215.4862)" class="st4" cx="417.7" cy="278" rx="18.1" ry="21.2"/>
		<path class="st1" d="M423.5,288l1.1,3.3l-2.1,0.7l-1.1-3.3c-2.3,0.7-4.8,0.5-7-0.4l0.1-3.3c1.8,0.8,3.9,1,5.8,0.6l-2-5.9
			c-3.1,0.1-6.4,0.1-7.8-4c-1-3,0-6.2,3.8-8l-1.1-3.3l2.1-0.7l1.1,3.3c1.9-0.5,3.8-0.5,5.7,0.1l-0.1,3.3c-1.5-0.4-3.1-0.5-4.6-0.2
			l2,6c3.1-0.1,6.4-0.1,7.8,4C428.3,283,427.3,286.2,423.5,288z M417.2,276.1l-1.7-5.2c-1.4,0.6-2.1,2.1-1.6,3.5
			C414.3,275.8,415.6,276.1,417.2,276.1z M424.2,281.3c-0.5-1.4-1.8-1.8-3.5-1.8l1.8,5.2C424.2,283.9,424.6,282.6,424.2,281.3
			L424.2,281.3z"/>
	</g>
	<g>
		<g>
			<path class="st1" d="M80.9,229.1c25.2,3.1,45.2,19.6,70.4,22.8c0-12.7,0-25.3,0-38c-25.2-3.1-45.2-19.6-70.4-22.8
				C80.9,203.8,80.9,216.4,80.9,229.1z"/>
			<path class="st2" d="M91.9,196.8c16.9,4.7,31.4,15.3,48.4,19.8c1.2,3.4,3.7,6.5,6.8,8.1c0,6.4,0,9.6,0,15.9
				c-3.1,0.9-5.6,2.7-6.8,5.5c-17-4.5-31.5-15.1-48.4-19.8c-1.2-3.4-3.7-6.5-6.8-8.1c0-6.4,0-9.6,0-15.9
				C88.2,201.5,90.7,199.7,91.9,196.8z"/>
			<path class="st3" d="M107.4,217.3c0,6.1,3.9,12.8,8.7,15.1c4.8,2.3,8.7-0.8,8.7-6.8c0-6.1-3.9-12.8-8.7-15.1
				C111.3,208.2,107.4,211.3,107.4,217.3z"/>
		</g>
	</g>
	<g>
		<g>
			<path class="st1" d="M176.2,88.6c10.6,13.7,12.3,31.3,23,45c6.1-6.1,12.2-12.2,18.3-18.3c-10.6-13.7-12.3-31.3-23-45
				C188.4,76.4,182.3,82.5,176.2,88.6z"/>
			<path class="st2" d="M197,78.3c5.9,10.4,7.8,22.5,13.8,32.9c-1.1,2.2-1.4,4.9-0.6,7.2c-3.1,3.1-4.6,4.6-7.7,7.7
				c-1.9-1.1-4-1.4-6-0.6c-6-10.3-7.9-22.5-13.8-32.9c1.1-2.2,1.4-4.9,0.6-7.2c3.1-3.1,4.6-4.6,7.7-7.7
				C193,78.8,195.1,79.1,197,78.3z"/>
			<path class="st3" d="M194.6,95.7c-2.9,2.9-4.3,8.1-3.1,11.5c1.2,3.5,4.6,3.9,7.5,0.9s4.3-8.1,3.1-11.5
				C200.9,93.2,197.5,92.8,194.6,95.7z"/>
		</g>
	</g>
</g>
<g id="Background_Simple" class="st5">
	<g class="st6">
		<path class="st7" d="M252.4,309.2c-27.4-19.8-94.2,38.6-134.8,10.6c-36.8-25.3-34.4-89.3-11.5-126.5
			c34.1-55.3,115.3-85.8,152.5-56.1c43.2,34.4,1.3,82.4,25,109.8c23.2,26.9,27.1,8.7,78.2-0.7c47.5-8.7,78.5,38.3,49.5,76.1
			c-58.6,76.6-113.4,82.6-141.5,56.9C242.7,354.7,267.1,319.7,252.4,309.2z"/>
		<path class="st8" d="M252.4,309.2c-27.4-19.8-94.2,38.6-134.8,10.6c-36.8-25.3-34.4-89.3-11.5-126.5
			c34.1-55.3,115.3-85.8,152.5-56.1c43.2,34.4,1.3,82.4,25,109.8c23.2,26.9,27.1,8.7,78.2-0.7c47.5-8.7,78.5,38.3,49.5,76.1
			c-58.6,76.6-113.4,82.6-141.5,56.9C242.7,354.7,267.1,319.7,252.4,309.2z"/>
	</g>
</g>
<g id="Shadow">
	<ellipse id="_x3C_Path_x3E__359_" class="st1" cx="250" cy="415.7" rx="193.9" ry="11.3"/>
</g>
<g id="Character">
	<g>
		<path class="st9" d="M386,266.2c-2-1.7-4-3.4-6-5.2l-5.9-5.3c-1-0.8-1.8-2.2-2-3.6c-0.2-1.4,0.1-2.5,0.4-3.4
			c0.7-1.8,1.6-3,2.6-4.2c1.9-2.3,4.1-4,6.4-5.6l2.3,2.6c-1.6,1.9-3.2,4-4.4,6.1c-0.6,1-1.1,2.1-1.2,2.8c-0.1,0.4,0,0.6,0,0.6
			c0.1,0-0.1-0.3,0-0.2l1.6,1.2l1.6,1.2c1.1,0.8,2.1,1.7,3.2,2.5c2.1,1.7,4.1,3.4,6.1,5.2L386,266.2z"/>
		<path class="st7" d="M389.8,268.1c-3.6,0.5-11.8-7.8-11.8-7.8l5.6-6.5c0,0,4.4,2.7,7.6,6.1C394.6,263.3,393.7,267.5,389.8,268.1z"
			/>
		<path class="st10" d="M389.8,268.1c-3.6,0.5-11.8-7.8-11.8-7.8l5.6-6.5c0,0,4.4,2.7,7.6,6.1C394.6,263.3,393.7,267.5,389.8,268.1z
			"/>
		<g>
			<path class="st11" d="M380.7,240.5l0.9-4.5l4.1,3.1c0,0-1.1,4-3.1,3.4L380.7,240.5z"/>
			<polygon class="st11" points="384.8,232.6 387.4,236.4 385.7,239 381.6,235.9 			"/>
		</g>
		<path class="st12" d="M388.3,263.6c-1.7,1.4-5.4,0.1-7.6-0.8c2.6,2.3,6.5,5.3,8.8,5.3C389.7,265.6,389.9,262.2,388.3,263.6z"/>
		<polygon class="st11" points="366.2,405.2 361.6,403.5 364.1,392.4 368.7,394.1 		"/>
		<polygon class="st11" points="402.3,411.2 397.5,411.2 396.1,400 401,400 		"/>
		<path class="st7" d="M396.8,410.7h5.9c0.2,0,0.4,0.1,0.4,0.3l1,4.3c0.1,0.4-0.2,0.9-0.7,0.9c-1.9,0-3.3-0.1-5.7-0.1
			c-1.5,0-5.9,0.2-8,0.2c-2,0-2.3-2-1.5-2.2c3.7-0.8,6.6-2,7.8-3C396.3,410.8,396.5,410.7,396.8,410.7z"/>
		<path class="st7" d="M361.4,402.6l5.2,1.1c0.2,0,0.3,0.2,0.3,0.4l0.1,4.4c0,0.5-0.4,0.8-0.9,0.7c-1.9-0.4-4.6-1.1-6.9-1.6
			c-2.8-0.6-4.5-1.2-7.7-1.8c-2-0.4-2.1-2.5-1.2-2.5c3.9,0,6.3,0.7,9.9-0.5C360.6,402.5,361,402.5,361.4,402.6z"/>
		<g>
			<polygon class="st12" points="364.1,392.4 362.8,398.1 367.4,399.8 368.7,394.1 			"/>
			<polygon class="st12" points="401,400 396.1,400 396.8,405.8 401.7,405.8 			"/>
		</g>
		<path class="st7" d="M416.6,263.1c-2.1,5.1-3.7,11.5-5,16.5c-0.9,3.7-1.6,7.2-2.2,10.4c-1.3,7.5-1.9,13.4-2.3,15.3
			c-3.7-0.8-17.9-3.6-25.5-5.2c-0.2-28,8.2-41.3,8.2-41.3s2.9-0.2,6.3,0c0.4,0,0.9,0.1,1.3,0.1c2.9,0.3,7.6,1.4,10.9,2.2
			c0.7,0.2,1.4,0.4,2,0.6C413.6,262.9,416.6,263.1,416.6,263.1z"/>
		<path class="st10" d="M416.6,263.1c-2.1,5.1-3.7,11.5-5,16.5c-0.9,3.7-1.6,7.2-2.2,10.4c-1.3,7.5-1.9,13.4-2.3,15.3
			c-3.7-0.8-17.9-3.6-25.5-5.2c-0.2-28,8.2-41.3,8.2-41.3s2.9-0.2,6.3,0c0.4,0,0.9,0.1,1.3,0.1c2.9,0.3,7.6,1.4,10.9,2.2
			c0.7,0.2,1.4,0.4,2,0.6C413.6,262.9,416.6,263.1,416.6,263.1z"/>
		<path class="st7" d="M397.7,264.4c-1,1.9-7,25.8-8.6,30.9c0.2,1.1,0.4,2.3,0.7,3.5c0.8-1,1.7-2,2.6-3c1.1-5,5.3-28.8,6.4-31.3
			L397.7,264.4z"/>
		<polygon class="st7" points="397.7,265.9 397.3,263.3 399.1,262.9 400.3,264 		"/>
		<path class="st11" d="M409.5,248.9c-1.4,3.4-3.3,9.6-1.3,12.5c-2.1,1.5-5.1,2.5-9,1.6c-3-0.7-2.7-2.8-1.8-3.8
			c4.1-0.1,4.5-3.1,4.4-5.9L409.5,248.9z"/>
		<g>
			<path class="st13" d="M399.1,262.9c0,0,0.8,1.7,1.9,3.4c2.2-0.6,7.4-2.5,7.8-5.1c-0.1-0.8-1-1.5-1-1.5S404.3,261.9,399.1,262.9z"
				/>
		</g>
		<g>
			<path class="st13" d="M399.1,262.9c0,0-1.8,0.9-3.2,2.3c-1.2-1.3,0.6-6,1.3-6.4c1.3-0.5,2.1-0.2,2.1-0.2S397,261.9,399.1,262.9z"
				/>
		</g>
		<path class="st12" d="M406.3,250.6l-4.6,2.6c0,0.7,0,1.4,0,2c1.5,0.1,3.9-1.1,4.3-2.7C406.3,251.8,406.4,251,406.3,250.6z"/>
		<path class="st14" d="M400.6,236.7c-1.3,1.4-2.7,5.1,0.2,5C403.8,241.7,402.9,234.2,400.6,236.7z"/>
		<path class="st11" d="M411.8,244.7c-1.8,4.5-2.6,7.2-5.7,8.8c-4.6,2.4-9.6-1.6-9.2-6.6c0.4-4.4,3.2-11,8.3-11.4
			C410.2,235.3,413.6,240.2,411.8,244.7z"/>
		<path class="st14" d="M401.9,238.5c-3-1.5-4-5.7,1-6.8c0.1,0,0.2,0,0.3-0.1c1.1-0.2,2.1,0.7,2.2,1.8c0,0.1,0,0.2,0.1,0.3
			c0.5-0.5,1.7-1.3,3.1-1.4c1.2-0.1,2,1,1.9,2.1c-0.1,0.8,0.3,1.5,1.3,1.6c2.6,0.1,5.7,2,4.1,4.6c2.2,2.8-1.2,6.6-6.1,7
			c-1.3-2.7,0.8-6.6,0.8-6.6C408.3,240.9,404.6,239.8,401.9,238.5z"/>
		<path class="st14" d="M415.3,240.7c0,0,2.2-0.3,1.5-2.4C418.4,239.7,417.2,241,415.3,240.7z"/>
		<path class="st14" d="M414.8,241.1c0,0,2.2-0.6,2.3,1.6C418.1,240.7,416.5,240,414.8,241.1z"/>
		<path class="st11" d="M412.3,249.1c-0.8,1.1-1.9,1.7-3,1.8c-1.6,0.2-2.2-1.2-1.6-2.6c0.5-1.3,2-2.9,3.5-2.5
			C412.8,246.2,413.2,247.9,412.3,249.1z"/>
		<g>
			<path class="st14" d="M361.5,396.5l7.8,2.8c0,0,6.1-26.7,9.3-41.5c1-4.5,3-10.7,5.3-17.3c2.9-8.3,6.5-17.3,9.3-24.3
				c3-7.4,5.2-12.6,5.2-12.6l-16.8-3.4c0,0-12.8,36.9-15.7,51.5C362.9,366.8,361.5,396.5,361.5,396.5z"/>
		</g>
		<path class="st15" d="M383.8,340.4c2.9-8.3,6.5-17.3,9.3-24.3l-1.3-4C387,316.6,384,331.9,383.8,340.4z"/>
		<g>
			<path class="st14" d="M390.6,302c0,0-3,42-3.2,56.3c-0.2,15.6,7.1,46.3,7.1,46.3h8.9c0,0-3.6-27.6-2.4-43.2
				c1.3-17.3,6-56.1,6-56.1L390.6,302z"/>
		</g>
		<polygon class="st14" points="393.5,404.9 404,404.9 403.9,401.7 393,401.1 		"/>
		<polygon class="st14" points="360.4,396.4 369.7,399.6 370.7,396.6 360.6,392.9 		"/>
		<path class="st14" d="M404.5,243.7c-0.1,0.4-0.4,0.6-0.7,0.5c-0.2-0.1-0.3-0.5-0.2-0.8c0.1-0.4,0.4-0.6,0.7-0.5
			C404.5,242.9,404.6,243.3,404.5,243.7z"/>
		<path class="st14" d="M400.2,242.2c-0.1,0.4-0.4,0.6-0.7,0.5c-0.2-0.1-0.3-0.5-0.2-0.8c0.1-0.4,0.4-0.6,0.7-0.5
			C400.3,241.5,400.4,241.9,400.2,242.2z"/>
		<path class="st16" d="M401.5,242.9c0,0-1.5,1.8-2.8,2.5c0.5,0.8,1.7,0.9,1.7,0.9L401.5,242.9z"/>
		<path class="st14" d="M406.2,242.7c-0.1,0-0.1-0.1-0.2-0.2c-0.3-1-1.2-1.2-1.2-1.2c-0.1,0-0.2-0.2-0.2-0.3c0-0.1,0.2-0.2,0.3-0.2
			c0,0,1.1,0.3,1.5,1.5c0,0.1,0,0.3-0.1,0.3C406.3,242.7,406.2,242.7,406.2,242.7z"/>
		<path class="st14" d="M398.9,240.2c0,0-0.1,0-0.1-0.1c-0.1-0.1-0.1-0.2,0-0.3c0.9-0.9,1.9-0.7,2-0.7c0.1,0,0.2,0.1,0.2,0.3
			c0,0.1-0.1,0.2-0.3,0.2c0,0-0.8-0.2-1.6,0.6C399.1,240.2,399,240.2,398.9,240.2z"/>
		<path class="st7" d="M395.2,411.5c-0.4,0-0.7-0.1-0.9-0.2c-0.2-0.1-0.3-0.4-0.2-0.6c0-0.2,0.1-0.3,0.2-0.3
			c0.5-0.3,2.1,0.7,2.3,0.8c0,0,0.1,0.1,0.1,0.1c0,0,0,0.1-0.1,0.1C396.2,411.4,395.7,411.5,395.2,411.5z M394.5,410.5
			c-0.1,0-0.1,0-0.1,0c0,0-0.1,0-0.1,0.1c0,0.2,0,0.3,0.2,0.4c0.3,0.2,0.9,0.3,1.7,0.1C395.6,410.9,394.9,410.5,394.5,410.5z"/>
		<path class="st7" d="M396.5,411.4C396.5,411.4,396.4,411.4,396.5,411.4c-0.6-0.3-1.5-1.4-1.4-1.9c0-0.1,0.1-0.3,0.4-0.3
			c0.2,0,0.3,0,0.5,0.1c0.6,0.5,0.7,1.9,0.7,1.9C396.6,411.3,396.6,411.3,396.5,411.4C396.5,411.4,396.5,411.4,396.5,411.4z
			 M395.5,409.4C395.5,409.4,395.4,409.4,395.5,409.4c-0.2,0-0.2,0.1-0.2,0.1c-0.1,0.3,0.6,1.1,1.1,1.5c-0.1-0.4-0.2-1.2-0.6-1.5
			C395.7,409.4,395.6,409.4,395.5,409.4z"/>
		<path class="st7" d="M360.8,403.1C360.8,403.1,360.8,403.1,360.8,403.1c-0.8,0-2.2-0.1-2.7-0.7c-0.1-0.2-0.2-0.4-0.1-0.6
			c0-0.1,0.1-0.2,0.2-0.3c0.6-0.2,2.4,1.2,2.6,1.3C360.9,402.9,360.9,403,360.8,403.1C360.9,403.1,360.8,403.1,360.8,403.1z
			 M358.4,401.8C358.4,401.8,358.4,401.8,358.4,401.8c-0.1,0-0.1,0.1-0.1,0.1c0,0.2,0,0.3,0.1,0.4c0.2,0.3,1,0.5,2.1,0.6
			C359.8,402.4,358.8,401.7,358.4,401.8z"/>
		<path class="st7" d="M360.8,403.1C360.8,403.1,360.7,403.1,360.8,403.1c-0.6-0.4-1.5-1.7-1.3-2.2c0-0.1,0.2-0.3,0.5-0.2
			c0.2,0,0.4,0.1,0.6,0.3c0.5,0.6,0.4,1.9,0.4,2C360.9,403.1,360.9,403.1,360.8,403.1C360.8,403.1,360.8,403.1,360.8,403.1z
			 M359.8,400.9c-0.1,0-0.1,0.1-0.1,0.1c-0.1,0.3,0.5,1.3,1,1.8c0-0.4,0-1.2-0.3-1.6c-0.1-0.1-0.3-0.2-0.4-0.2
			C359.9,400.9,359.8,400.9,359.8,400.9z"/>
		<path class="st12" d="M413.6,265.9l-3.4,1.5v2.2c0,0,0.6,4.4,2.5,6c0.8-2.9,1.6-6,2.6-8.9C414.3,266.1,413.6,265.9,413.6,265.9z"
			/>
		<path class="st9" d="M414.3,264.4c1.4-0.2,2.9-0.4,4.3-0.7c1.5-0.2,2.9-0.5,4.3-0.8c1.4-0.3,2.8-0.6,4-1c0.6-0.2,1.2-0.4,1.5-0.6
			c0,0,0.2-0.1,0.2-0.1c0,0,0.1,0,0,0c-0.1,0.1-0.1,0.2-0.2,0.2c-0.1,0.3-0.1,0.2,0,0.1c0.1-0.3,0.1-0.9,0.1-1.5
			c0-0.6-0.1-1.3-0.2-2c-0.1-1.4-0.4-2.8-0.7-4.3c-0.3-1.5-0.6-2.9-0.9-4.4c-0.3-1.5-0.7-3-1-4.4l3.2-1.2c0.7,1.4,1.3,2.8,2,4.3
			c0.6,1.4,1.2,2.9,1.7,4.4c0.5,1.5,1,3,1.4,4.6c0.2,0.8,0.3,1.6,0.5,2.5c0.1,0.9,0.2,1.8,0,3c-0.1,0.6-0.2,1.3-0.8,2.3
			c-0.1,0.2-0.3,0.5-0.5,0.7c-0.2,0.2-0.3,0.3-0.4,0.4c-0.3,0.3-0.5,0.4-0.8,0.6c-1,0.7-1.8,1.1-2.6,1.4c-1.7,0.7-3.2,1.2-4.8,1.6
			c-3.2,0.8-6.2,1.4-9.4,1.7L414.3,264.4z"/>
		<path class="st7" d="M411.5,270.8c2.8,2.2,13.2-0.1,13.2-0.1l-1.7-9c0,0-4.8,0.4-9.2,1.6C408.9,264.8,408,268.2,411.5,270.8z"/>
		<path class="st10" d="M411.5,270.8c2.8,2.2,13.2-0.1,13.2-0.1l-1.7-9c0,0-4.8,0.4-9.2,1.6C408.9,264.8,408,268.2,411.5,270.8z"/>
		<g>
			<path class="st11" d="M429.5,244.9l0.3-4.7l-5.6,2.1c0,0,0.6,4.1,2.8,4L429.5,244.9z"/>
			<polygon class="st11" points="427.7,237 423.1,238.9 424.2,242.3 429.8,240.2 			"/>
		</g>
		<path class="st13" d="M399.4,247.9c0,0,1.2-0.2,4.3,0.1c-0.5,1-1.3,1.7-2.9,1.5C399.2,249.3,399.4,247.9,399.4,247.9z"/>
	</g>
</g>
<g id="Form">
	<g>
		<g>
			<path class="st7" d="M218.6,114.2h11.6l18.3,206.5h-11.6c-5.3,0-10-4.3-10.5-9.7l-16.6-187.2
				C209.3,118.6,213.3,114.2,218.6,114.2z"/>
			<path class="st7" d="M366.7,320.7H240.4c-6,0-11.2-4.8-11.8-10.8L212.4,125c-0.5-6,3.9-10.8,9.9-10.8h126.3
				c6,0,11.2,4.8,11.8,10.8l16.2,184.8C377.1,315.9,372.7,320.7,366.7,320.7z"/>
			<path class="st17" d="M366.7,320.7H240.4c-6,0-11.2-4.8-11.8-10.8L212.4,125c-0.5-6,3.9-10.8,9.9-10.8h126.3
				c6,0,11.2,4.8,11.8,10.8l16.2,184.8C377.1,315.9,372.7,320.7,366.7,320.7z"/>
		</g>
		<g>
			<polygon class="st12" points="241.6,297.1 365.4,297.1 349.7,121 226,121 			"/>
			<polygon class="st7" points="247,294.7 370.8,294.7 349.7,121 226,121 			"/>
			<polygon class="st18" points="247,294.7 370.8,294.7 349.7,121 226,121 			"/>
			<g>
				<g>
					<g>
						<path class="st14" d="M342.1,169.1h-77.4c-0.9,0-1.7-0.7-1.7-1.6l0,0c-0.1-0.9,0.6-1.6,1.5-1.6h77.4c0.9,0,1.7,0.7,1.7,1.6
							l0,0C343.7,168.4,343,169.1,342.1,169.1z"/>
					</g>
					<g>
						<path class="st14" d="M339.7,178.2h-87.8c-0.9,0-1.7-0.7-1.7-1.6l0,0c-0.1-0.9,0.6-1.6,1.5-1.6h87.8c0.9,0,1.7,0.7,1.7,1.6
							l0,0C341.3,177.5,340.6,178.2,339.7,178.2z"/>
					</g>
					<g>
						<path class="st14" d="M343.7,187.3h-91.1c-0.9,0-1.7-0.7-1.7-1.6l0,0c-0.1-0.9,0.6-1.6,1.5-1.6h91.1c0.9,0,1.7,0.7,1.7,1.6
							l0,0C345.3,186.6,344.6,187.3,343.7,187.3z"/>
					</g>
					<g>
						<path class="st14" d="M333.3,196.4h-79.8c-0.9,0-1.7-0.7-1.7-1.6l0,0c-0.1-0.9,0.6-1.6,1.5-1.6H333c0.9,0,1.7,0.7,1.7,1.6l0,0
							C334.8,195.7,334.2,196.4,333.3,196.4z"/>
					</g>
					<g>
						<path class="st14" d="M345.3,205.5h-77.4c-0.9,0-1.7-0.7-1.7-1.6l0,0c-0.1-0.9,0.6-1.6,1.5-1.6H345c0.9,0,1.7,0.7,1.7,1.6l0,0
							C346.9,204.8,346.2,205.5,345.3,205.5z"/>
					</g>
					<g>
						<path class="st14" d="M342.1,214.6h-87c-0.9,0-1.7-0.7-1.7-1.6l0,0c-0.1-0.9,0.6-1.6,1.5-1.6h87c0.9,0,1.7,0.7,1.7,1.6l0,0
							C343.6,213.9,343,214.6,342.1,214.6z"/>
					</g>
					<g>
						<path class="st14" d="M346.9,223.7h-91.1c-0.9,0-1.7-0.7-1.7-1.6l0,0c-0.1-0.9,0.6-1.6,1.5-1.6h91.1c0.9,0,1.7,0.7,1.7,1.6
							l0,0C348.4,223,347.8,223.7,346.9,223.7z"/>
					</g>
					<g>
						<path class="st14" d="M341.3,232.8h-84.6c-0.9,0-1.7-0.7-1.7-1.6l0,0c-0.1-0.9,0.6-1.6,1.5-1.6H341c0.9,0,1.7,0.7,1.7,1.6l0,0
							C342.8,232.1,342.2,232.8,341.3,232.8z"/>
					</g>
				</g>
				<g class="st19">
					<g>
						<path class="st13" d="M342.1,169.1h-77.4c-0.9,0-1.7-0.7-1.7-1.6l0,0c-0.1-0.9,0.6-1.6,1.5-1.6h77.4c0.9,0,1.7,0.7,1.7,1.6
							l0,0C343.7,168.4,343,169.1,342.1,169.1z"/>
					</g>
					<g>
						<path class="st13" d="M339.7,178.2h-87.8c-0.9,0-1.7-0.7-1.7-1.6l0,0c-0.1-0.9,0.6-1.6,1.5-1.6h87.8c0.9,0,1.7,0.7,1.7,1.6
							l0,0C341.3,177.5,340.6,178.2,339.7,178.2z"/>
					</g>
					<g>
						<path class="st13" d="M343.7,187.3h-91.1c-0.9,0-1.7-0.7-1.7-1.6l0,0c-0.1-0.9,0.6-1.6,1.5-1.6h91.1c0.9,0,1.7,0.7,1.7,1.6
							l0,0C345.3,186.6,344.6,187.3,343.7,187.3z"/>
					</g>
					<g>
						<path class="st13" d="M333.3,196.4h-79.8c-0.9,0-1.7-0.7-1.7-1.6l0,0c-0.1-0.9,0.6-1.6,1.5-1.6H333c0.9,0,1.7,0.7,1.7,1.6l0,0
							C334.8,195.7,334.2,196.4,333.3,196.4z"/>
					</g>
					<g>
						<path class="st13" d="M345.3,205.5h-77.4c-0.9,0-1.7-0.7-1.7-1.6l0,0c-0.1-0.9,0.6-1.6,1.5-1.6H345c0.9,0,1.7,0.7,1.7,1.6l0,0
							C346.9,204.8,346.2,205.5,345.3,205.5z"/>
					</g>
					<g>
						<path class="st13" d="M342.1,214.6h-87c-0.9,0-1.7-0.7-1.7-1.6l0,0c-0.1-0.9,0.6-1.6,1.5-1.6h87c0.9,0,1.7,0.7,1.7,1.6l0,0
							C343.6,213.9,343,214.6,342.1,214.6z"/>
					</g>
					<g>
						<path class="st13" d="M346.9,223.7h-91.1c-0.9,0-1.7-0.7-1.7-1.6l0,0c-0.1-0.9,0.6-1.6,1.5-1.6h91.1c0.9,0,1.7,0.7,1.7,1.6
							l0,0C348.4,223,347.8,223.7,346.9,223.7z"/>
					</g>
					<g>
						<path class="st13" d="M341.3,232.8h-84.6c-0.9,0-1.7-0.7-1.7-1.6l0,0c-0.1-0.9,0.6-1.6,1.5-1.6H341c0.9,0,1.7,0.7,1.7,1.6l0,0
							C342.8,232.1,342.2,232.8,341.3,232.8z"/>
					</g>
				</g>
			</g>
			<g>
				<g>
					<path class="st14" d="M270.3,141.5h2.4l0.7,8.3h5.1l0.2,1.9h-7.5L270.3,141.5z"/>
					<path class="st14" d="M281.9,151.2c-0.9-0.5-1.6-1.1-2.2-1.9c-0.6-0.8-0.9-1.7-1-2.7c-0.1-1,0.1-1.9,0.5-2.7
						c0.4-0.8,1-1.4,1.8-1.9c0.8-0.5,1.8-0.7,2.8-0.7c1.1,0,2,0.2,2.9,0.7c0.9,0.5,1.6,1.1,2.2,1.9c0.6,0.8,0.9,1.7,1,2.7
						c0.1,1-0.1,1.9-0.5,2.7c-0.4,0.8-1,1.4-1.8,1.9c-0.8,0.5-1.7,0.7-2.8,0.7C283.8,151.9,282.8,151.7,281.9,151.2z M286.3,149.5
						c0.5-0.3,0.8-0.7,1-1.2c0.2-0.5,0.3-1.1,0.3-1.7c-0.1-0.6-0.2-1.2-0.6-1.7c-0.3-0.5-0.7-0.9-1.2-1.2c-0.5-0.3-1.1-0.4-1.7-0.4
						s-1.1,0.1-1.6,0.4c-0.5,0.3-0.8,0.7-1,1.2c-0.2,0.5-0.3,1.1-0.3,1.7c0.1,0.6,0.2,1.2,0.6,1.7c0.3,0.5,0.7,0.9,1.3,1.2
						c0.5,0.3,1.1,0.4,1.7,0.4S285.8,149.7,286.3,149.5z"/>
					<path class="st14" d="M298.6,149.5h-4.8l-0.7,2.2h-2.4l3.7-10.2h2.3l5.5,10.2h-2.5L298.6,149.5z M297.7,147.7l-2-3.9l-1.3,3.9
						H297.7z"/>
					<path class="st14" d="M311.8,141.5l0.9,10.2h-1.9l-5.6-6.2l0.5,6.2h-2.3l-0.9-10.2h2l5.6,6.2l-0.5-6.2H311.8z"/>
				</g>
				<g class="st19">
					<path class="st13" d="M270.3,141.5h2.4l0.7,8.3h5.1l0.2,1.9h-7.5L270.3,141.5z"/>
					<path class="st13" d="M281.9,151.2c-0.9-0.5-1.6-1.1-2.2-1.9c-0.6-0.8-0.9-1.7-1-2.7c-0.1-1,0.1-1.9,0.5-2.7
						c0.4-0.8,1-1.4,1.8-1.9c0.8-0.5,1.8-0.7,2.8-0.7c1.1,0,2,0.2,2.9,0.7c0.9,0.5,1.6,1.1,2.2,1.9c0.6,0.8,0.9,1.7,1,2.7
						c0.1,1-0.1,1.9-0.5,2.7c-0.4,0.8-1,1.4-1.8,1.9c-0.8,0.5-1.7,0.7-2.8,0.7C283.8,151.9,282.8,151.7,281.9,151.2z M286.3,149.5
						c0.5-0.3,0.8-0.7,1-1.2c0.2-0.5,0.3-1.1,0.3-1.7c-0.1-0.6-0.2-1.2-0.6-1.7c-0.3-0.5-0.7-0.9-1.2-1.2c-0.5-0.3-1.1-0.4-1.7-0.4
						s-1.1,0.1-1.6,0.4c-0.5,0.3-0.8,0.7-1,1.2c-0.2,0.5-0.3,1.1-0.3,1.7c0.1,0.6,0.2,1.2,0.6,1.7c0.3,0.5,0.7,0.9,1.3,1.2
						c0.5,0.3,1.1,0.4,1.7,0.4S285.8,149.7,286.3,149.5z"/>
					<path class="st13" d="M298.6,149.5h-4.8l-0.7,2.2h-2.4l3.7-10.2h2.3l5.5,10.2h-2.5L298.6,149.5z M297.7,147.7l-2-3.9l-1.3,3.9
						H297.7z"/>
					<path class="st13" d="M311.8,141.5l0.9,10.2h-1.9l-5.6-6.2l0.5,6.2h-2.3l-0.9-10.2h2l5.6,6.2l-0.5-6.2H311.8z"/>
				</g>
			</g>
			<g>
				<g>
					<g>
						<path class="st14" d="M345.7,282.1h-27.2c-0.9,0-1.7-0.7-1.7-1.6l0,0c-0.1-0.9,0.6-1.6,1.5-1.6h27.2c0.9,0,1.7,0.7,1.7,1.6
							l0,0C347.3,281.4,346.6,282.1,345.7,282.1z"/>
					</g>
					<g>
						<path class="st14" d="M316.6,276.6L316.6,276.6c-0.2-0.3-0.2-0.7,0.1-0.9c1.9-1.4,4-3.1,6-4.7c0.5-3,2.5-7,4.6-8.8
							c1.6-1.4,2.7-1.2,3.4-0.8c0.5,0.3,0.8,0.7,0.9,1.2c0.3,2-3.7,5.8-7.7,9.1c-0.1,0.6,0,1.2,0.1,1.6c0.2,0.4,0.5,0.6,1,0.7
							c2.2,0.1,3.4-1,4.6-2.1c1.3-1.3,2.6-2.6,5.1-1.4c2.2,1.1,2.2,2.1,2.1,3.1c0,0.1,0,0.3,0,0.3l0,0c0,0,0.3,0.3,2,0.5
							c3.7,0.5,5.8-2.2,6.4-3.4c0.2-0.3,0.5-0.4,0.8-0.2l0,0c0.4,0.2,0.5,0.6,0.3,0.9c-0.8,1.4-3.2,4.5-7.6,4
							c-1.7-0.2-2.5-0.5-2.9-1c-0.4-0.5-0.3-1-0.3-1.3c0.1-0.5,0.1-0.9-1.3-1.6c-1.5-0.8-2.3-0.1-3.7,1.2c-1.2,1.2-2.7,2.7-5.5,2.5
							c-1-0.1-1.8-0.6-2.2-1.6c-0.1-0.3-0.2-0.6-0.2-0.9c-2.1,1.7-4,3.2-5.1,4C317.2,276.9,316.8,276.9,316.6,276.6z M329.8,262.4
							c-0.6,0-1.2,0.5-1.6,0.8c-1.6,1.4-3,4-3.8,6.3c3.4-3,6-5.7,5.9-6.8c0-0.1,0-0.1-0.1-0.1C330,262.4,329.9,262.4,329.8,262.4z"
							/>
					</g>
				</g>
				<g class="st19">
					<g>
						<path class="st13" d="M345.7,282.1h-27.2c-0.9,0-1.7-0.7-1.7-1.6l0,0c-0.1-0.9,0.6-1.6,1.5-1.6h27.2c0.9,0,1.7,0.7,1.7,1.6
							l0,0C347.3,281.4,346.6,282.1,345.7,282.1z"/>
					</g>
					<g>
						<path class="st13" d="M316.6,276.6L316.6,276.6c-0.2-0.3-0.2-0.7,0.1-0.9c1.9-1.4,4-3.1,6-4.7c0.5-3,2.5-7,4.6-8.8
							c1.6-1.4,2.7-1.2,3.4-0.8c0.5,0.3,0.8,0.7,0.9,1.2c0.3,2-3.7,5.8-7.7,9.1c-0.1,0.6,0,1.2,0.1,1.6c0.2,0.4,0.5,0.6,1,0.7
							c2.2,0.1,3.4-1,4.6-2.1c1.3-1.3,2.6-2.6,5.1-1.4c2.2,1.1,2.2,2.1,2.1,3.1c0,0.1,0,0.3,0,0.3l0,0c0,0,0.3,0.3,2,0.5
							c3.7,0.5,5.8-2.2,6.4-3.4c0.2-0.3,0.5-0.4,0.8-0.2l0,0c0.4,0.2,0.5,0.6,0.3,0.9c-0.8,1.4-3.2,4.5-7.6,4
							c-1.7-0.2-2.5-0.5-2.9-1c-0.4-0.5-0.3-1-0.3-1.3c0.1-0.5,0.1-0.9-1.3-1.6c-1.5-0.8-2.3-0.1-3.7,1.2c-1.2,1.2-2.7,2.7-5.5,2.5
							c-1-0.1-1.8-0.6-2.2-1.6c-0.1-0.3-0.2-0.6-0.2-0.9c-2.1,1.7-4,3.2-5.1,4C317.2,276.9,316.8,276.9,316.6,276.6z M329.8,262.4
							c-0.6,0-1.2,0.5-1.6,0.8c-1.6,1.4-3,4-3.8,6.3c3.4-3,6-5.7,5.9-6.8c0-0.1,0-0.1-0.1-0.1C330,262.4,329.9,262.4,329.8,262.4z"
							/>
					</g>
				</g>
			</g>
			<g>
				<g>
					<path class="st7" d="M314.4,266.9c-3.4,0-6.5-2.6-7.2-6l-0.2-1.3c-0.7-3.7,1.7-7,5.3-7.3l33.4-3.5c1.8-0.2,3.5,0.3,5,1.5
						c1.5,1.1,2.5,2.7,2.8,4.5l0.2,1.3c0.3,1.8,0,3.5-1,4.9c-1,1.4-2.5,2.3-4.3,2.4l-33.4,3.5C314.9,266.9,314.7,266.9,314.4,266.9z
						 M346.5,250c-0.2,0-0.4,0-0.6,0l-33.4,3.5c-1.4,0.2-2.7,0.9-3.5,2c-0.8,1.1-1.1,2.6-0.8,4l0.2,1.3c0.6,3,3.5,5.2,6.4,4.9
						l33.4-3.5c1.4-0.2,2.7-0.9,3.5-2s1.1-2.6,0.8-4l-0.2-1.3c-0.3-1.5-1.1-2.8-2.3-3.7C349,250.4,347.8,250,346.5,250z"/>
				</g>
				<g>
					<path class="st7" d="M314.5,260.8l-2.5,0.3l-0.3,1.3l-0.7,0.1l1.2-5.1l0.7-0.1l3.1,4.6l-0.7,0.1L314.5,260.8z M314.1,260.3
						l-1.5-2.3l-0.6,2.5L314.1,260.3z"/>
					<path class="st7" d="M319.1,257c0.4,0.3,0.7,0.7,0.8,1.2c0.1,0.5,0,1-0.3,1.3c-0.3,0.3-0.8,0.5-1.4,0.6l-1.2,0.1l0.3,1.5
						l-0.7,0.1l-0.9-4.8l1.9-0.2C318.2,256.7,318.7,256.8,319.1,257z M319,259.1c0.2-0.2,0.3-0.5,0.2-0.8c-0.1-0.3-0.2-0.6-0.5-0.8
						c-0.3-0.2-0.6-0.2-1-0.2l-1.2,0.1l0.4,2.2l1.2-0.1C318.5,259.5,318.8,259.3,319,259.1z"/>
					<path class="st7" d="M324,256.5c0.4,0.3,0.7,0.7,0.8,1.2c0.1,0.5,0,1-0.3,1.3c-0.3,0.3-0.8,0.5-1.4,0.6l-1.2,0.1l0.3,1.5
						l-0.7,0.1l-0.9-4.8l1.9-0.2C323.1,256.2,323.6,256.3,324,256.5z M323.9,258.6c0.2-0.2,0.3-0.5,0.2-0.8
						c-0.1-0.3-0.2-0.6-0.5-0.8c-0.3-0.2-0.6-0.2-1-0.2l-1.2,0.1l0.4,2.2l1.2-0.1C323.4,259,323.7,258.8,323.9,258.6z"/>
					<path class="st7" d="M329.6,260.4l-1.3-1.4c-0.1,0-0.2,0-0.3,0l-1.2,0.1l0.3,1.5l-0.7,0.1l-0.9-4.8l1.9-0.2
						c0.6-0.1,1.1,0,1.5,0.3c0.4,0.3,0.7,0.7,0.8,1.2c0.1,0.4,0,0.7-0.1,1c-0.1,0.3-0.4,0.5-0.7,0.7l1.4,1.5L329.6,260.4z
						 M328.8,258.1c0.2-0.2,0.3-0.5,0.2-0.8c-0.1-0.3-0.2-0.6-0.5-0.8c-0.3-0.2-0.6-0.2-1-0.2l-1.2,0.1l0.4,2.2l1.2-0.1
						C328.2,258.5,328.6,258.3,328.8,258.1z"/>
					<path class="st7" d="M332.1,259.9c-0.4-0.2-0.8-0.4-1.1-0.8c-0.3-0.4-0.5-0.8-0.6-1.2c-0.1-0.5-0.1-0.9,0.1-1.3
						c0.1-0.4,0.4-0.7,0.7-1c0.3-0.3,0.8-0.4,1.2-0.5c0.5-0.1,0.9,0,1.4,0.2c0.4,0.2,0.8,0.4,1.1,0.8c0.3,0.4,0.5,0.8,0.6,1.2
						c0.1,0.5,0.1,0.9-0.1,1.3c-0.1,0.4-0.4,0.7-0.7,1c-0.3,0.3-0.8,0.4-1.2,0.5C333,260.1,332.6,260,332.1,259.9z M334.3,259.1
						c0.2-0.2,0.4-0.4,0.5-0.7c0.1-0.3,0.1-0.6,0.1-1c-0.1-0.3-0.2-0.7-0.4-0.9c-0.2-0.3-0.5-0.5-0.8-0.6c-0.3-0.1-0.6-0.2-1-0.1
						c-0.4,0-0.7,0.2-0.9,0.3c-0.3,0.2-0.4,0.4-0.5,0.7c-0.1,0.3-0.1,0.6-0.1,1c0.1,0.3,0.2,0.7,0.4,0.9c0.2,0.3,0.5,0.5,0.8,0.6
						c0.3,0.1,0.6,0.2,1,0.1C333.7,259.4,334,259.3,334.3,259.1z"/>
					<path class="st7" d="M340.1,254.4l-1.2,5l-0.7,0.1l-3-4.6l0.7-0.1l2.5,3.8l1-4.1L340.1,254.4z"/>
					<path class="st7" d="M345,258.2l0.1,0.6l-3.5,0.4l-0.9-4.8l3.4-0.4l0.1,0.6l-2.7,0.3l0.3,1.5l2.4-0.3l0.1,0.6l-2.4,0.3l0.3,1.6
						L345,258.2z"/>
					<path class="st7" d="M345.3,253.8l2-0.2c0.5-0.1,1,0,1.4,0.2c0.4,0.2,0.8,0.4,1.1,0.8c0.3,0.3,0.5,0.8,0.6,1.2
						c0.1,0.5,0.1,0.9-0.1,1.3c-0.1,0.4-0.4,0.7-0.7,0.9c-0.4,0.2-0.8,0.4-1.3,0.4l-2,0.2L345.3,253.8z M348.1,257.8
						c0.4,0,0.7-0.2,1-0.3c0.3-0.2,0.4-0.4,0.6-0.7c0.1-0.3,0.1-0.6,0.1-1c-0.1-0.4-0.2-0.7-0.4-0.9c-0.2-0.3-0.5-0.4-0.8-0.6
						c-0.3-0.1-0.7-0.2-1.1-0.1l-1.3,0.1l0.7,3.6L348.1,257.8z"/>
				</g>
			</g>
		</g>
		<g>
			<path class="st14" d="M263.9,109.4h9.7l1.6,17.7h-9.7c-3.3,0-6.2-2.6-6.4-5.9l-0.5-5.8C258.2,112,260.6,109.4,263.9,109.4z"/>
			<path class="st14" d="M307,127.1h-39.2c-3.7,0-6.9-3-7.2-6.6l-0.4-4.4c-0.3-3.7,2.4-6.6,6-6.6h39.2c3.7,0,6.9,3,7.2,6.6l0.4,4.4
				C313.4,124.1,310.7,127.1,307,127.1z"/>
			<path class="st17" d="M307,127.1h-39.2c-3.7,0-6.9-3-7.2-6.6l-0.4-4.4c-0.3-3.7,2.4-6.6,6-6.6h39.2c3.7,0,6.9,3,7.2,6.6l0.4,4.4
				C313.4,124.1,310.7,127.1,307,127.1z"/>
			<g>
				<path class="st14" d="M306.7,120.1c0.1,1-0.6,1.7-1.6,1.7s-1.8-0.8-1.9-1.7c-0.1-1,0.6-1.7,1.6-1.7S306.6,119.1,306.7,120.1z"/>
				<path class="st14" d="M270.4,120.1c0.1,1-0.6,1.7-1.6,1.7c-1,0-1.8-0.8-1.9-1.7c-0.1-1,0.6-1.7,1.6-1.7
					C269.5,118.4,270.3,119.1,270.4,120.1z"/>
			</g>
		</g>
	</g>
</g>
<g id="Car_Keys">
	<g>
		<g>
			<path class="st14" d="M216.8,256.6l-0.9-1.7c-0.7-1.3-0.4-2.9,0.8-3.9l1.6-1.4c0.6-0.5,0.9-1.1,1.1-1.8l1.4-7
				c0.1-0.7,0-1.4-0.3-2.1L219,236c-0.7-1.3-0.4-2.9,0.8-3.9l2.7-2.3c0.6-0.5,0.9-1.1,1.1-1.8l2.2-11.2l-7.8-1.6l-7.8-1.6l-2.2,11.2
				c-0.1,0.7,0,1.4,0.3,2.1l1.7,3.2c0.7,1.3,0.4,2.9-0.8,3.9l-2.4,2c-0.6,0.5-0.9,1.1-1.1,1.8l-1.4,7c-0.1,0.7,0,1.4,0.3,2.1l1,1.9
				c0.7,1.3,0.4,2.9-0.8,3.9l-1.5,1.3c-1.1,1-1.5,2.6-0.8,3.9l0.6,1.2c0.7,1.3,0.4,2.9-0.8,3.9l0,0c-1.1,1-1.5,2.6-0.8,3.9l1.9,3.7
				l3.4,0.7l3.4,0.7l3.2-2.7c1.1-1,1.5-2.6,0.8-3.9l0,0c-0.7-1.3-0.4-2.9,0.8-3.9l1-0.9C217.2,259.5,217.5,257.9,216.8,256.6z"/>
			<path class="st20" d="M216.8,256.6l-0.9-1.7c-0.7-1.3-0.4-2.9,0.8-3.9l1.6-1.4c0.6-0.5,0.9-1.1,1.1-1.8l1.4-7
				c0.1-0.7,0-1.4-0.3-2.1L219,236c-0.7-1.3-0.4-2.9,0.8-3.9l2.7-2.3c0.6-0.5,0.9-1.1,1.1-1.8l2.2-11.2l-7.8-1.6l-7.8-1.6l-2.2,11.2
				c-0.1,0.7,0,1.4,0.3,2.1l1.7,3.2c0.7,1.3,0.4,2.9-0.8,3.9l-2.4,2c-0.6,0.5-0.9,1.1-1.1,1.8l-1.4,7c-0.1,0.7,0,1.4,0.3,2.1l1,1.9
				c0.7,1.3,0.4,2.9-0.8,3.9l-1.5,1.3c-1.1,1-1.5,2.6-0.8,3.9l0.6,1.2c0.7,1.3,0.4,2.9-0.8,3.9l0,0c-1.1,1-1.5,2.6-0.8,3.9l1.9,3.7
				l3.4,0.7l3.4,0.7l3.2-2.7c1.1-1,1.5-2.6,0.8-3.9l0,0c-0.7-1.3-0.4-2.9,0.8-3.9l1-0.9C217.2,259.5,217.5,257.9,216.8,256.6z"/>
			<path class="st12" d="M222.5,229.8c0.6-0.5,0.9-1.1,1.1-1.8l2.2-11.2l-3.9-0.8l-3.9-0.8l-7.8-1.6l-1.7,8.4l7.8,1.6l-9.5,47.6
				l3.4,0.7l3.2-2.7c1.1-1,1.5-2.6,0.8-3.9c-0.7-1.3-0.4-2.9,0.8-3.9l1-0.9c1.1-1,1.5-2.6,0.8-3.9l-0.9-1.7
				c-0.7-1.3-0.4-2.9,0.8-3.9l1.6-1.4c0.6-0.5,0.9-1.1,1.1-1.8l1.4-7c0.1-0.7,0-1.4-0.3-2.1L219,236c-0.7-1.3-0.4-2.9,0.8-3.9
				L222.5,229.8z"/>
			<g>
				<g>
					<path class="st14" d="M242,201.4c-2.1-2.5-11.2-6.9-16.1-7.9c-4.9-1-15.1-0.3-17.9,1.1c-6.3,3.3-10.3,14.9-4,20.1
						c2.5,2.1,12.2,4.5,16.6,5.6s14.2,2.1,17.5,1.2C246,219.2,246.6,206.8,242,201.4z M231.3,202.4l-13.9-2.8
						c-1-0.2-1.2-1.5-0.2-1.7c3-0.8,6.1-1.1,7.9-0.8c1.8,0.4,4.5,1.9,7,3.7C232.9,201.5,232.3,202.6,231.3,202.4z"/>
					<path class="st15" d="M242,201.4c-2.1-2.5-11.2-6.9-16.1-7.9c-4.9-1-15.1-0.3-17.9,1.1c-6.3,3.3-10.3,14.9-4,20.1
						c2.5,2.1,12.2,4.5,16.6,5.6s14.2,2.1,17.5,1.2C246,219.2,246.6,206.8,242,201.4z M231.3,202.4l-13.9-2.8
						c-1-0.2-1.2-1.5-0.2-1.7c3-0.8,6.1-1.1,7.9-0.8c1.8,0.4,4.5,1.9,7,3.7C232.9,201.5,232.3,202.6,231.3,202.4z"/>
				</g>
				<path class="st14" d="M238.6,200.7c-2.1-2.5-11.2-6.9-16.1-7.9c-4.9-1-15.1-0.3-17.9,1.1c-6.3,3.3-10.3,14.9-4,20.1
					c2.5,2.1,12.2,4.5,16.6,5.6c4.4,1,14.2,2.1,17.5,1.2C242.6,218.6,243.2,206.2,238.6,200.7z M227.9,201.7l-13.9-2.8
					c-1-0.2-1.2-1.5-0.2-1.7c3-0.8,6.1-1.1,7.9-0.8c1.8,0.4,4.5,1.9,7,3.7C229.5,200.8,228.9,201.9,227.9,201.7z"/>
			</g>
		</g>
		<g>
			<g>
				<path class="st14" d="M218.9,201.2c-3.5,8.5-13.2,12.7-21.8,9.5c-8.6-3.2-13.3-12.9-10.3-21.5c3.3-9.8,14.5-15.2,23.3-11.5
					l1.3,0.6c0.6,0.3,0.9,1,0.7,1.6l0,0c-0.3,0.6-1,0.9-1.6,0.7l-1.3-0.6c-7.4-3.1-16.8,1.5-19.8,9.7c-2.6,7.1,0.8,15.3,7.7,18.4
					c7.5,3.4,16.4-0.2,19.5-7.7c3.4-8.3-2.6-14.2-8.9-16.8l-1.8-0.8c-0.6-0.3-0.9-1-0.7-1.6h0c0.3-0.6,1-0.9,1.6-0.7l1.8,0.8
					C218.1,185,222.2,193.1,218.9,201.2z"/>
			</g>
			<g class="st21">
				<path class="st13" d="M218.9,201.2c-3.5,8.5-13.2,12.7-21.8,9.5c-8.6-3.2-13.3-12.9-10.3-21.5c3.3-9.8,14.5-15.2,23.3-11.5
					l1.3,0.6c0.6,0.3,0.9,1,0.7,1.6l0,0c-0.3,0.6-1,0.9-1.6,0.7l-1.3-0.6c-7.4-3.1-16.8,1.5-19.8,9.7c-2.6,7.1,0.8,15.3,7.7,18.4
					c7.5,3.4,16.4-0.2,19.5-7.7c3.4-8.3-2.6-14.2-8.9-16.8l-1.8-0.8c-0.6-0.3-0.9-1-0.7-1.6h0c0.3-0.6,1-0.9,1.6-0.7l1.8,0.8
					C218.1,185,222.2,193.1,218.9,201.2z"/>
			</g>
		</g>
		<g>
			<path class="st14" d="M207,218.6c-0.7-5-7.6-14-12.2-15.9c-4.6-1.9-15.9-0.4-19.9,2.6c-8.8,6.8-20.4,30.5-17,41.2
				c1.4,4.3,10.2,9,14.2,11.1c4,2.1,13.8,4.1,17.9,2.2C200,254.9,208.5,229.6,207,218.6z M198.7,212l-13.1-5.4c-1-0.4-0.8-1.8,0.3-2
				c3.2-0.3,6.3-0.3,8,0.5c1.7,0.7,4,2.9,6,5.4C200.5,211.2,199.6,212.4,198.7,212z"/>
			<path class="st15" d="M207,218.6c-0.7-5-7.6-14-12.2-15.9c-4.6-1.9-15.9-0.4-19.9,2.6c-8.8,6.8-20.4,30.5-17,41.2
				c1.4,4.3,10.2,9,14.2,11.1c4,2.1,13.8,4.1,17.9,2.2C200,254.9,208.5,229.6,207,218.6z M198.7,212l-13.1-5.4c-1-0.4-0.8-1.8,0.3-2
				c3.2-0.3,6.3-0.3,8,0.5c1.7,0.7,4,2.9,6,5.4C200.5,211.2,199.6,212.4,198.7,212z"/>
			<path class="st14" d="M203.8,217.3c-0.7-5-7.6-14-12.2-15.9c-4.6-1.9-15.9-0.4-19.9,2.6c-8.8,6.8-20.4,30.5-17,41.2
				c1.4,4.3,10.2,9,14.2,11.1c4,2.1,13.8,4.1,17.9,2.2C196.8,253.6,205.3,228.3,203.8,217.3z M195.4,210.7l-13.1-5.4
				c-1-0.4-0.8-1.8,0.3-2c3.2-0.3,6.3-0.3,8,0.5c1.7,0.7,4,2.9,6,5.4C197.3,209.9,196.4,211.1,195.4,210.7z"/>
			<g>
				<path class="st7" d="M194.7,230.7L168.8,220c-1.8,3-3.6,6.5-4.9,9.9l27.3,11.3C192.6,237.8,193.8,234.1,194.7,230.7z"/>
				<path class="st7" d="M162.9,232.7c-1.4,4.2-2,8.1-1.2,10.5c0.1,0.2,1.2,2.4,10.1,7c3.2,1.6,9.9,2.6,11.5,1.8
					c2.2-1.1,4.5-4.2,6.6-8.2L162.9,232.7z"/>
				<path class="st7" d="M195.3,227.7c0.4-2.6,0.6-4.9,0.3-6.7c-0.4-2.7-5.4-9.2-7.9-10.2s-10.6,0-12.8,1.7c-1.4,1.1-3,2.9-4.5,5
					L195.3,227.7z"/>
			</g>
			<g>
				<g>
					
						<rect x="176.2" y="229.8" transform="matrix(0.9239 0.3827 -0.3827 0.9239 102.376 -50.863)" class="st13" width="5.8" height="4.2"/>
					<g>
						<path class="st13" d="M181.4,231.7l-0.7-0.3l0.8-1.9c0.3-0.7,0-1.4-0.7-1.7c-0.7-0.3-1.4,0-1.7,0.7l-0.8,1.9l-0.7-0.3l0.8-1.9
							c0.4-1.1,1.7-1.6,2.7-1.1c1.1,0.4,1.6,1.7,1.1,2.7L181.4,231.7z"/>
					</g>
				</g>
				
					<rect x="170.8" y="242.6" transform="matrix(0.9239 0.3827 -0.3827 0.9239 106.8743 -47.8514)" class="st13" width="5.8" height="4.2"/>
				<g>
					<path class="st13" d="M172.9,243.2l-0.7-0.3l0.8-1.9c0.4-1.1,1.7-1.6,2.7-1.1c1.1,0.4,1.6,1.7,1.1,2.7l-0.7-0.3
						c0.3-0.7,0-1.4-0.7-1.7c-0.7-0.3-1.4,0-1.7,0.7L172.9,243.2z"/>
				</g>
				<g>
					<polygon class="st13" points="190.1,217.9 187.9,217 186.1,214 183.3,220.7 186.7,219.9 189,220.8 					"/>
					<g>
						<path class="st13" d="M180.5,219.4c-1.1-2.5,0.2-5.5,2.7-6.5l0.4,1c-2,0.8-3,3.1-2.1,5.1L180.5,219.4z"/>
					</g>
					<g>
						<path class="st13" d="M182.7,218.5c-0.3-0.6-0.3-1.3,0-1.9c0.3-0.6,0.7-1.1,1.4-1.4l0.4,1c-0.4,0.2-0.6,0.4-0.8,0.8
							c-0.2,0.4-0.2,0.8,0,1.1L182.7,218.5z"/>
					</g>
				</g>
			</g>
		</g>
	</g>
</g>
<g id="Car">
	<g>
		<g>
			<polygon class="st14" points="82.1,395.5 144.8,397.5 283.4,397.5 343.3,394.5 343.3,381.4 335.6,370.3 314.8,363 288.3,370.3 
				277.8,380.3 159,381.4 135.8,364.5 117.6,357.9 90.9,364.8 84.4,376.7 80.6,388.7 			"/>
			<polygon class="st15" points="82.1,395.5 144.8,397.5 283.4,397.5 343.3,394.5 343.3,381.4 335.6,370.3 314.8,363 288.3,370.3 
				277.8,380.3 159,381.4 135.8,364.5 117.6,357.9 90.9,364.8 84.4,376.7 80.6,388.7 			"/>
		</g>
		<path class="st7" d="M85.7,385.6c2.2-5.5,11.1-14.6,16.6-16.8c5.3-2.2,17.9-2.6,23,0c5.4,2.8,12.2,14,14.1,19.8
			c0.7,2.1,0.5,7.3,0.3,10.7l148,1.6c-0.3-4.1-0.5-9.8,0.5-12.2c2.2-5.5,11.1-14.6,16.6-16.8c5.3-2.2,17.9-2.6,23,0
			c5.4,2.8,12.2,14,14.1,19.8c0.4,1.4,0.5,4.1,0.4,6.7c1.1-0.8,2.1-1.8,3-2.9l1.4-1.9c1.9-2.5,2.9-5.5,2.9-8.7v-4.9
			c0-2.7-0.7-5.3-2.1-7.5l-3.6-5.9v-39.7c0-2-0.4-3.9-1.2-5.7l-14.2-33.4c-2.2-5.2-7.2-8.6-12.9-8.8c-15.3-0.5-45.2-1.4-57.4-1
			c-17.7,0.6-65.2,5.4-79.3,6.9c-2.6,0.3-5.1,1.4-7,3.2l-42,38.6L88,344.8c-3.5,1.5-6.2,4.7-7,8.5l-3.9,17l-1.3,1.7
			c-1.9,2.5-2.8,5.7-2.4,8.9l0.8,6.6c0.4,3.1,2,6,4.4,8l0.5,0.4c1.8,1.5,4,2.4,6.3,2.7C85,394.4,84.7,388.1,85.7,385.6z"/>
		<g>
			<circle class="st14" cx="111.9" cy="395.5" r="22.8"/>
			<circle class="st17" cx="111.9" cy="395.5" r="15.9"/>
			<g class="st21">
				<path d="M106,390.3l-1.1-3.3c-0.5-1.5-2.5-2-3.6-0.8c-1.2,1.4-2.2,3-2.8,4.8c-0.5,1.5,0.9,3.1,2.5,2.7l3.4-0.7
					C105.7,392.8,106.5,391.5,106,390.3z"/>
				<path d="M113.5,387.8l2.3-2.6c1.1-1.2,0.5-3.2-1.1-3.5c-0.9-0.2-1.8-0.3-2.8-0.3c-1,0-1.9,0.1-2.8,0.3c-1.6,0.3-2.2,2.3-1.1,3.5
					l2.3,2.6C111.1,388.8,112.6,388.8,113.5,387.8z"/>
				<path d="M119.3,393l3.4,0.7c1.6,0.3,3-1.2,2.5-2.7c-0.6-1.8-1.6-3.4-2.8-4.8c-1.1-1.2-3.1-0.8-3.6,0.8l-1.1,3.3
					C117.3,391.5,118.1,392.8,119.3,393z"/>
				<path d="M117.7,400.7l1.1,3.3c0.5,1.5,2.5,2,3.6,0.8c1.2-1.4,2.2-3,2.8-4.8c0.5-1.5-0.9-3.1-2.5-2.7l-3.4,0.7
					C118.1,398.2,117.3,399.5,117.7,400.7z"/>
				<path d="M110.3,403.1l-2.3,2.6c-1.1,1.2-0.5,3.2,1.1,3.5c0.9,0.2,1.8,0.3,2.8,0.3c1,0,1.9-0.1,2.8-0.3c1.6-0.3,2.2-2.3,1.1-3.5
					l-2.3-2.6C112.6,402.2,111.1,402.2,110.3,403.1z"/>
				<path d="M104.4,397.9l-3.4-0.7c-1.6-0.3-3,1.2-2.5,2.7c0.6,1.8,1.6,3.4,2.8,4.8c1.1,1.2,3.1,0.8,3.6-0.8l1.1-3.3
					C106.5,399.5,105.7,398.2,104.4,397.9z"/>
			</g>
			<g class="st21">
				<circle class="st13" cx="109.8" cy="393.4" r="1.1"/>
				<path class="st13" d="M115,393.4c0,0.6-0.5,1.1-1.1,1.1c-0.6,0-1.1-0.5-1.1-1.1s0.5-1.1,1.1-1.1
					C114.5,392.3,115,392.8,115,393.4z"/>
				<path class="st13" d="M110.9,397.5c0,0.6-0.5,1.1-1.1,1.1c-0.6,0-1.1-0.5-1.1-1.1c0-0.6,0.5-1.1,1.1-1.1
					C110.4,396.5,110.9,396.9,110.9,397.5z"/>
				<path class="st13" d="M115,397.5c0,0.6-0.5,1.1-1.1,1.1c-0.6,0-1.1-0.5-1.1-1.1c0-0.6,0.5-1.1,1.1-1.1
					C114.5,396.5,115,396.9,115,397.5z"/>
			</g>
		</g>
		<g>
			<circle class="st14" cx="315.7" cy="395.5" r="22.8"/>
			<circle class="st17" cx="315.7" cy="395.5" r="15.9"/>
			<g class="st21">
				<path d="M309.9,390.3l-1.1-3.3c-0.5-1.5-2.5-2-3.6-0.8c-1.2,1.4-2.2,3-2.8,4.8c-0.5,1.5,0.9,3.1,2.5,2.7l3.4-0.7
					C309.6,392.8,310.3,391.5,309.9,390.3z"/>
				<path d="M317.3,387.8l2.3-2.6c1.1-1.2,0.5-3.2-1.1-3.5c-0.9-0.2-1.8-0.3-2.8-0.3c-1,0-1.9,0.1-2.8,0.3c-1.6,0.3-2.2,2.3-1.1,3.5
					l2.3,2.6C315,388.8,316.5,388.8,317.3,387.8z"/>
				<path d="M323.2,393l3.4,0.7c1.6,0.3,3-1.2,2.5-2.7c-0.6-1.8-1.6-3.4-2.8-4.8c-1.1-1.2-3.1-0.8-3.6,0.8l-1.1,3.3
					C321.2,391.5,321.9,392.8,323.2,393z"/>
				<path d="M321.6,400.7l1.1,3.3c0.5,1.5,2.5,2,3.6,0.8c1.2-1.4,2.2-3,2.8-4.8c0.5-1.5-0.9-3.1-2.5-2.7l-3.4,0.7
					C321.9,398.2,321.2,399.5,321.6,400.7z"/>
				<path d="M314.1,403.1l-2.3,2.6c-1.1,1.2-0.5,3.2,1.1,3.5c0.9,0.2,1.8,0.3,2.8,0.3c1,0,1.9-0.1,2.8-0.3c1.6-0.3,2.2-2.3,1.1-3.5
					l-2.3-2.6C316.5,402.2,315,402.2,314.1,403.1z"/>
				<path d="M308.3,397.9l-3.4-0.7c-1.6-0.3-3,1.2-2.5,2.7c0.6,1.8,1.6,3.4,2.8,4.8c1.1,1.2,3.1,0.8,3.6-0.8l1.1-3.3
					C310.3,399.5,309.6,398.2,308.3,397.9z"/>
			</g>
			<g class="st21">
				<path class="st13" d="M314.8,393.4c0,0.6-0.5,1.1-1.1,1.1c-0.6,0-1.1-0.5-1.1-1.1s0.5-1.1,1.1-1.1
					C314.3,392.3,314.8,392.8,314.8,393.4z"/>
				<circle class="st13" cx="317.8" cy="393.4" r="1.1"/>
				<path class="st13" d="M314.8,397.5c0,0.6-0.5,1.1-1.1,1.1c-0.6,0-1.1-0.5-1.1-1.1c0-0.6,0.5-1.1,1.1-1.1
					C314.3,396.5,314.8,396.9,314.8,397.5z"/>
				<path class="st13" d="M318.9,397.5c0,0.6-0.5,1.1-1.1,1.1s-1.1-0.5-1.1-1.1c0-0.6,0.5-1.1,1.1-1.1S318.9,396.9,318.9,397.5z"/>
			</g>
		</g>
		<path class="st14" d="M170.5,294.4c1.6-1.5,1.7-4,0.3-5.6l-41.1,37.7l-1.2,0.5c0.1,0.1,0.1,0.2,0.2,0.3c1.5,1.6,4,1.7,5.7,0.2
			L170.5,294.4z"/>
		<path class="st17" d="M82.5,372.7L82.5,372.7c-0.3,0-0.5-0.2-0.5-0.5l1.9-19.4c0-0.3,0.3-0.5,0.6-0.4l1.7,0.6
			c2.2,0.7,3.4,2.9,3,5.2l-2.4,11.1C86.4,371.3,84.6,372.7,82.5,372.7z"/>
		<g class="st12">
			<path class="st13" d="M93.4,359.9L93.4,359.9c0-0.8,0.6-1.5,1.5-1.5l237.7-4.6c0.8,0,1.5,0.6,1.5,1.5l0,0c0,0.8-0.6,1.5-1.5,1.5
				l-237.7,4.6C94.1,361.4,93.4,360.7,93.4,359.9z"/>
		</g>
		<path class="st14" d="M243.4,331.8l44.2-0.8c4.8-0.1,8.4-4.4,7.7-9.1l-4.4-29.8c-0.3-1.7-1.7-3-3.5-3.1
			c-7.7-0.2-15.4-0.3-21.5-0.3c-2.9,0-5.5,0-7.6,0.1c-4,0.1-10.3,0.6-17.7,1.2c-1.8,0.1-3.2,1.6-3.3,3.4l-2.1,29.9
			C235,327.9,238.8,331.9,243.4,331.8z"/>
		<path class="st14" d="M332.2,324.8l-14-32.8c-0.5-1.3-1.8-2.1-3.1-2.1c-2.5-0.1-5.6-0.2-9.1-0.3c-2.3-0.1-4,1.9-3.7,4.1l4.5,30
			c0.6,3.9,4,6.8,8,6.8l13.6-0.2c1.8,0,3.5-1.2,4-3C332.6,326.5,332.5,325.6,332.2,324.8z"/>
		<path class="st14" d="M222.3,291.7c-16.2,1.5-32.6,3.2-39.6,4c-2.3,0.2-4.4,1.2-6.1,2.7L152.1,321c-4.8,4.4-1.6,12.4,4.9,12.3
			l59.4-1c4.1-0.1,7.5-3.3,7.8-7.4l2-29.3C226.4,293.3,224.5,291.5,222.3,291.7z"/>
		<g>
			<path class="st14" d="M290.2,339.5l-10.3,0.2c-0.8,0-1.5,0.7-1.5,1.5v0c0,0.8,0.7,1.5,1.5,1.5l10.3-0.2c0.8,0,1.5-0.7,1.5-1.5v0
				C291.7,340.2,291,339.5,290.2,339.5z"/>
			<path class="st14" d="M217.7,342.5L217.7,342.5c0-0.8-0.7-1.5-1.5-1.5l-10.3,0.2c-0.8,0-1.5,0.7-1.5,1.5l0,0
				c0,0.8,0.7,1.5,1.5,1.5l10.3-0.2C217.1,343.9,217.7,343.3,217.7,342.5z"/>
		</g>
		<g class="st12">
			<path d="M85.7,385.6c0.8-1.9,2.3-4.2,4.2-6.5l-12.5,0.2c-1.8,0-3.3-1.1-3.9-2.6c-0.3,1.3-0.4,2.7-0.2,4.1l0.8,6.6
				c0.4,3.1,2,6,4.4,8l0.5,0.4c1.8,1.5,4,2.4,6.3,2.7C85,394.4,84.7,388.1,85.7,385.6z"/>
			<path d="M287.6,400.8c-0.3-4.1-0.5-9.8,0.5-12.2c1.6-3.9,6.7-9.8,11.4-13.6l-165.4,3.2c2.4,3.7,4.4,7.6,5.2,10.3
				c0.7,2.1,0.5,7.3,0.3,10.7L287.6,400.8z"/>
			<path d="M341.7,391.6c0.4,1.4,0.5,4.1,0.4,6.7c1.1-0.8,2.1-1.8,3-2.9l1.4-1.9c1.9-2.5,2.9-5.5,2.9-8.7v-4.9
				c0-2.7-0.7-5.3-2.1-7.5l-1.3-2.1c-0.1,2.1-1.9,3.8-4,3.9l-10.9,0.2C335.6,378.9,340.3,387,341.7,391.6z"/>
		</g>
		<g class="st12">
			<g>
				<path class="st13" d="M148.7,386.8L148.7,386.8c0-1.1,0.9-2,2-2l127.4-2.5c1.1,0,2,0.9,2,2l0,0c0,1.1-0.9,2-2,2l-127.4,2.5
					C149.6,388.7,148.7,387.9,148.7,386.8z"/>
			</g>
		</g>
		<path class="st15" d="M159,314.5l-7,6.4c-4.8,4.4-1.6,12.4,4.9,12.3l2.1,0V314.5z"/>
		<g>
			<path class="st7" d="M168.6,316.2h-3.5c-1.8,0-3.2,1.4-3.2,3.2v4.9l-5.9,1.1c-0.7,0.1-1.3,0.8-1.3,1.5v1.4c0,1.1,1.1,1.8,2.1,1.4
				l5.6-2.2c0.7,1,2,1.6,3.3,1.3l3.3-0.7c1-0.2,1.8-1.2,1.8-2.2v-7.6C170.9,317.2,169.9,316.2,168.6,316.2z"/>
		</g>
	</g>
</g>
</svg>
