<?xml version="1.0" encoding="utf-8"?>
<!-- Generator: Adobe Illustrator 26.0.1, SVG Export Plug-In . SVG Version: 6.00 Build 0)  -->
<svg version="1.1" xmlns="http://www.w3.org/2000/svg" xmlns:xlink="http://www.w3.org/1999/xlink" x="0px" y="0px"
	 viewBox="0 0 500 500" style="enable-background:new 0 0 500 500;" xml:space="preserve">
<style type="text/css">
	.st0{fill:#EBEBEB;}
	.st1{fill:#E0E0E0;}
	.st2{fill:#F0F0F0;}
	.st3{fill:#FFFFFF;}
	.st4{fill:#E6E6E6;}
	.st5{fill:#F5F5F5;}
	.st6{fill:#E0E0E0;enable-background:new    ;}
	.st7{fill:#F0F0F0;stroke:#E0E0E0;stroke-width:1.5475;stroke-linecap:round;stroke-linejoin:round;stroke-miterlimit:10;}
	.st8{display:none;}
	.st9{display:inline;}
	.st10{fill:#407BFF;}
	.st11{opacity:0.9;fill:#FFFFFF;}
	.st12{opacity:0.5;fill:#FFFFFF;}
	.st13{opacity:0.7;fill:#FFFFFF;}
	.st14{opacity:0.2;}
	.st15{fill:#263238;}
	.st16{fill:none;stroke:#407BFF;stroke-width:0.9636;stroke-linecap:round;stroke-linejoin:round;stroke-miterlimit:10;}
	.st17{opacity:0.4;fill:#FFFFFF;}
	.st18{fill:none;stroke:#407BFF;stroke-width:1.9271;stroke-linecap:round;stroke-linejoin:round;stroke-miterlimit:10;}
	.st19{enable-background:new    ;}
	.st20{fill:#2B3743;}
	.st21{fill:#505764;}
	.st22{fill:#ECEFF0;}
	.st23{fill:#EDCC5D;}
	.st24{opacity:0.2;fill:#FFFFFF;}
	.st25{opacity:0.1;}
	.st26{fill:#E4897B;}
	.st27{opacity:0.7;}
	.st28{fill:#DE5753;}
	.st29{opacity:0.5;}
	.st30{opacity:0.6;fill:#FFFFFF;}
	.st31{fill:#EBB376;}
	.st32{fill:#E9B376;}
	.st33{opacity:0.2;enable-background:new    ;}
	.st34{opacity:0.1;fill:#FFFFFF;}
	.st35{opacity:0.3;}
	.st36{opacity:0.8;fill:#FFFFFF;}
	.st37{opacity:0.3;fill:#FFFFFF;}
	.st38{fill:#D58745;}
	.st39{fill:none;stroke:#263238;stroke-width:0.5599;stroke-linecap:round;stroke-linejoin:round;stroke-miterlimit:10;}
	.st40{opacity:0.3;enable-background:new    ;}
</style>
<g id="Background_Complete">
	<g>
		<rect y="382.4" class="st0" width="500" height="0.2"/>
		<rect x="416.8" y="398.5" class="st0" width="33.1" height="0.2"/>
		<rect x="322.5" y="401.2" class="st0" width="8.7" height="0.2"/>
		<rect x="396.6" y="389.2" class="st0" width="19.2" height="0.2"/>
		<rect x="52.5" y="390.9" class="st0" width="43.2" height="0.2"/>
		<rect x="104.6" y="390.9" class="st0" width="6.3" height="0.2"/>
		<rect x="131.5" y="395.1" class="st0" width="93.7" height="0.2"/>
		<path class="st0" d="M237,337.8H43.9c-3.1,0-5.7-2.6-5.7-5.7V60.7c0-3.1,2.6-5.7,5.7-5.7H237c3.1,0,5.7,2.6,5.7,5.7v271.4
			C242.7,335.2,240.2,337.8,237,337.8z M43.9,55.2c-3,0-5.5,2.4-5.5,5.5v271.4c0,3,2.4,5.5,5.5,5.5H237c3,0,5.5-2.4,5.5-5.5V60.7
			c0-3-2.4-5.5-5.5-5.5H43.9z"/>
		<path class="st0" d="M453.3,337.8H260.2c-3.1,0-5.7-2.6-5.7-5.7V60.7c0-3.1,2.6-5.7,5.7-5.7h193.1c3.1,0,5.7,2.6,5.7,5.7v271.4
			C459,335.2,456.5,337.8,453.3,337.8z M260.2,55.2c-3,0-5.5,2.4-5.5,5.5v271.4c0,3,2.4,5.5,5.5,5.5h193.1c3,0,5.5-2.4,5.5-5.5V60.7
			c0-3-2.4-5.5-5.5-5.5H260.2z"/>
	</g>
	<g>
		<rect x="412.7" y="113.7" class="st1" width="5.2" height="110.2"/>
		<g>
			
				<rect x="315.3" y="113.7" transform="matrix(-1 -1.224647e-16 1.224647e-16 -1 730.206 337.6441)" class="st1" width="99.6" height="110.2"/>
			
				<rect x="312.1" y="113.7" transform="matrix(-1 -1.224647e-16 1.224647e-16 -1 727.5481 337.6441)" class="st2" width="103.3" height="110.2"/>
			
				<rect x="316.5" y="117.2" transform="matrix(-1 -1.224647e-16 1.224647e-16 -1 727.7128 336.0961)" class="st3" width="94.7" height="101.6"/>
			
				<rect x="316.5" y="117.2" transform="matrix(-1 -1.224647e-16 1.224647e-16 -1 635.7079 336.0961)" class="st1" width="2.7" height="101.6"/>
			
				<rect x="363.8" y="145.4" transform="matrix(6.123234e-17 -1 1 6.123234e-17 173.5225 556.8801)" class="st1" width="2.7" height="92.5"/>
			
				<rect x="316.5" y="185.7" transform="matrix(-1 -1.224647e-16 1.224647e-16 -1 729.1823 376.0183)" class="st2" width="96.2" height="4.6"/>
		</g>
		<g>
			<rect x="63.1" y="183.1" class="st2" width="156.5" height="198.2"/>
			<g>
				<rect x="68.6" y="190.3" class="st1" width="145.5" height="42.4"/>
				<rect x="68.6" y="197.2" class="st0" width="8.3" height="35.5"/>
				<rect x="108.5" y="197.2" class="st0" width="8.3" height="35.5"/>
				
					<rect x="157" y="196.7" transform="matrix(0.9855 -0.1698 0.1698 0.9855 -34.0881 30.4797)" class="st0" width="8.3" height="35.5"/>
				<rect x="78.8" y="201.9" class="st0" width="8.3" height="30.8"/>
				<rect x="97.8" y="201.9" class="st0" width="8.3" height="30.8"/>
				<rect x="145.8" y="201.9" class="st0" width="8.3" height="30.8"/>
				
					<rect x="122.8" y="201.3" transform="matrix(0.9762 -0.2169 0.2169 0.9762 -43.9922 32.7031)" class="st0" width="8.3" height="30.8"/>
				<rect x="90.1" y="195.4" class="st0" width="4.1" height="37.3"/>
				<rect x="139.3" y="195.4" class="st0" width="4.1" height="37.3"/>
			</g>
			<g>
				
					<rect x="68.6" y="239.4" transform="matrix(-1 -1.224647e-16 1.224647e-16 -1 282.6449 521.2049)" class="st1" width="145.5" height="42.4"/>
				
					<rect x="205.8" y="246.3" transform="matrix(-1 -1.224647e-16 1.224647e-16 -1 419.8509 528.0668)" class="st0" width="8.3" height="35.5"/>
				
					<rect x="165.8" y="246.3" transform="matrix(-1 -1.224647e-16 1.224647e-16 -1 339.9352 528.0668)" class="st0" width="8.3" height="35.5"/>
				
					<rect x="117.4" y="245.8" transform="matrix(-0.9855 -0.1698 0.1698 -0.9855 196.5237 543.9905)" class="st0" width="8.3" height="35.5"/>
				
					<rect x="195.6" y="251" transform="matrix(-1 -1.224647e-16 1.224647e-16 -1 399.372 532.7483)" class="st0" width="8.3" height="30.8"/>
				
					<rect x="176.6" y="251" transform="matrix(-1 -1.224647e-16 1.224647e-16 -1 361.3842 532.7483)" class="st0" width="8.3" height="30.8"/>
				
					<rect x="128.6" y="251" transform="matrix(-1 -1.224647e-16 1.224647e-16 -1 265.4986 532.7483)" class="st0" width="8.3" height="30.8"/>
				
					<rect x="151.5" y="250.4" transform="matrix(-0.9762 -0.2169 0.2169 -0.9762 249.9688 559.1276)" class="st0" width="8.3" height="30.8"/>
				
					<rect x="188.4" y="244.5" transform="matrix(-1 -1.224647e-16 1.224647e-16 -1 380.949 526.3031)" class="st0" width="4.1" height="37.3"/>
				
					<rect x="139.3" y="244.5" transform="matrix(-1 -1.224647e-16 1.224647e-16 -1 282.6448 526.3031)" class="st0" width="4.1" height="37.3"/>
				<rect x="68.6" y="246.3" class="st0" width="8.3" height="35.5"/>
				<rect x="78.8" y="251" class="st0" width="8.3" height="30.8"/>
				<rect x="97.8" y="251" class="st0" width="8.3" height="30.8"/>
				<rect x="90.1" y="244.5" class="st0" width="4.1" height="37.3"/>
			</g>
			<g>
				<rect x="68.6" y="288.5" class="st1" width="145.5" height="42.4"/>
				<g>
					<rect x="152.1" y="295.4" class="st0" width="8.3" height="35.5"/>
					
						<rect x="200.5" y="294.9" transform="matrix(0.9855 -0.1698 0.1698 0.9855 -50.1331 39.3006)" class="st0" width="8.3" height="35.5"/>
					<rect x="122.4" y="300.1" class="st0" width="8.3" height="30.8"/>
					<rect x="141.4" y="300.1" class="st0" width="8.3" height="30.8"/>
					<rect x="189.3" y="300.1" class="st0" width="8.3" height="30.8"/>
					
						<rect x="166.4" y="299.5" transform="matrix(0.9762 -0.2169 0.2169 0.9762 -64.2551 44.4842)" class="st0" width="8.3" height="30.8"/>
					<rect x="133.6" y="293.6" class="st0" width="4.1" height="37.3"/>
					<rect x="182.8" y="293.6" class="st0" width="4.1" height="37.3"/>
					
						<rect x="105.5" y="294.9" transform="matrix(0.9855 -0.1698 0.1698 0.9855 -51.5149 23.1543)" class="st0" width="8.3" height="35.5"/>
					<rect x="94.2" y="300.1" class="st0" width="8.3" height="30.8"/>
					
						<rect x="71.3" y="299.5" transform="matrix(0.9762 -0.2169 0.2169 0.9762 -66.5194 23.8627)" class="st0" width="8.3" height="30.8"/>
					<rect x="87.7" y="293.6" class="st0" width="4.1" height="37.3"/>
				</g>
			</g>
		</g>
		<g>
			<path class="st4" d="M315.2,263h88.2c9.6,0,17.3,7.8,17.3,17.3v68.9H297.9v-68.9C297.9,270.7,305.6,263,315.2,263z"/>
			<path class="st1" d="M271.8,314h15.8c5.7,0,10.3,4.6,10.3,10.3v57h-36.4v-57C261.5,318.7,266.1,314,271.8,314z"/>
			<path class="st0" d="M271.8,314h0.3c5.7,0,10.3,4.6,10.3,10.3v57h-20.9v-57C261.5,318.7,266.1,314,271.8,314z"/>
			<rect x="286.8" y="355.1" class="st4" width="121.1" height="26.2"/>
			<path class="st5" d="M286.7,331.2h116.8c5.8,0,10.5,4.7,10.5,10.5v6.5c0,5.8-4.7,10.5-10.5,10.5H286.7c-5.8,0-10.5-4.7-10.5-10.5
				v-6.5C276.2,335.9,280.9,331.2,286.7,331.2z"/>
			<path class="st6" d="M388.7,331.2h14.5c5.8,0,10.5,4.7,10.5,10.5v6.5c0,5.8-4.7,10.5-10.5,10.5h-14.5c-5.8,0-10.5-4.7-10.5-10.5
				v-6.5C378.3,335.9,383,331.2,388.7,331.2z"/>
			<path class="st1" d="M404.8,314h15.8c5.7,0,10.3,4.6,10.3,10.3v57h-36.4v-57C394.5,318.7,399.1,314,404.8,314z"/>
			<path class="st2" d="M404.8,314h0.3c5.7,0,10.3,4.6,10.3,10.3v57h-20.9v-57C394.5,318.7,399.1,314,404.8,314z"/>
		</g>
		<g>
			
				<ellipse transform="matrix(0.7071 -0.7071 0.7071 0.7071 -10.7746 204.4205)" class="st1" cx="241.4" cy="115.2" rx="18.2" ry="18.2"/>
			
				<ellipse transform="matrix(0.9925 -0.1222 0.1222 0.9925 -12.2691 30.3546)" class="st2" cx="241.4" cy="115.2" rx="15.5" ry="15.5"/>
			<polyline class="st7" points="242.1,104.6 242.1,115.4 249.3,111.4 			"/>
		</g>
	</g>
</g>
<g id="Background_Simple" class="st8">
	<g class="st9">
		<path class="st10" d="M92.6,122.2c27.9-59.4,127.1-51.1,165.3-9.3c38.3,41.8,50.7,68.6,85.2,53c34.5-15.6,78.5-11.4,81,38.2
			s-37.9,108.3-102.1,125.6c-64.2,17.4-64.2,78.8-149.1,66.4c-46.3-6.8-47.4-56.9-40.8-98.3S60.2,191.1,92.6,122.2z"/>
		<path class="st11" d="M92.6,122.2c27.9-59.4,127.1-51.1,165.3-9.3c38.3,41.8,50.7,68.6,85.2,53c34.5-15.6,78.5-11.4,81,38.2
			s-37.9,108.3-102.1,125.6c-64.2,17.4-64.2,78.8-149.1,66.4c-46.3-6.8-47.4-56.9-40.8-98.3S60.2,191.1,92.6,122.2z"/>
	</g>
</g>
<g id="Shadow_1_">
	<ellipse id="_x3C_Path_x3E__359_" class="st5" cx="250" cy="416.2" rx="193.9" ry="11.3"/>
</g>
<g id="Papers">
	<g>
		<rect x="181" y="157" class="st10" width="155.6" height="259.5"/>
		<rect x="181" y="157" class="st12" width="155.6" height="259.5"/>
		<rect x="160.7" y="157" class="st10" width="155.6" height="259.5"/>
		<rect x="160.7" y="157" class="st13" width="155.6" height="259.5"/>
		<g class="st14">
			<polygon points="321.1,157 320.6,289.5 320.1,157 			"/>
			<polygon points="325.3,157 324.8,303 324.3,157 			"/>
			<polygon points="334.2,157 333.8,224.3 333.3,157 			"/>
			<polygon points="324.3,415.6 324.8,324.9 325.3,415.6 			"/>
			<polygon points="328.7,416.5 329.2,237.4 329.7,416.5 			"/>
			<polygon points="333.3,415.6 333.8,329 334.2,415.6 			"/>
			<polygon points="329.7,157 329.2,215.7 328.7,157 			"/>
			<polygon points="320.1,416 320.6,314.4 321.1,416 			"/>
		</g>
		<g>
			<g>
				<path class="st15" d="M168,234.9h-14.3c-0.7,0-1.3-0.6-1.3-1.3v-38.2c0-0.7,0.6-1.3,1.3-1.3H168V234.9z"/>
				<path class="st16" d="M168.6,203.4v4.2l-20.6,4.3c-0.7-1.1-1.8-1.8-3-1.8c-2.1,0-3.8,2-3.8,4.4c0,2.4,1.7,4.4,3.8,4.4
					c1.2,0,2.3-0.7,3-1.8l20.6,4.3v5"/>
				<g>
					<path class="st15" d="M169.2,193.9v11.3h-1.8v-11.3c0-0.5,0.4-0.9,0.9-0.9l0,0C168.8,193,169.2,193.4,169.2,193.9z"/>
					<rect x="167.4" y="209.9" class="st15" width="1.8" height="9.1"/>
					<path class="st15" d="M167.4,223.7h1.8V235c0,0.5-0.4,0.9-0.9,0.9l0,0c-0.5,0-0.9-0.4-0.9-0.9V223.7z"/>
				</g>
			</g>
			<g>
				<path class="st15" d="M168,379.5h-14.3c-0.7,0-1.3-0.6-1.3-1.3V340c0-0.7,0.6-1.3,1.3-1.3H168V379.5z"/>
				<path class="st16" d="M168.6,348v4.2l-20.6,4.3c-0.7-1.1-1.8-1.8-3-1.8c-2.1,0-3.8,2-3.8,4.4c0,2.4,1.7,4.4,3.8,4.4
					c1.2,0,2.3-0.7,3-1.8l20.6,4.3v5"/>
				<g>
					<path class="st15" d="M169.2,338.6v11.3h-1.8v-11.3c0-0.5,0.4-0.9,0.9-0.9l0,0C168.8,337.7,169.2,338.1,169.2,338.6z"/>
					<rect x="167.4" y="354.5" class="st15" width="1.8" height="9.1"/>
					<path class="st15" d="M167.4,368.3h1.8v11.3c0,0.5-0.4,0.9-0.9,0.9l0,0c-0.5,0-0.9-0.4-0.9-0.9V368.3z"/>
				</g>
			</g>
		</g>
		<g>
			<g>
				<rect x="181.3" y="201.4" class="st14" width="62.2" height="47.6"/>
				<polygon class="st17" points="181.3,242.5 201.1,226.1 212.3,236.4 231.2,220.5 243.4,232 243.4,249 181.3,249 				"/>
				<circle class="st17" cx="195.4" cy="215.2" r="5.7"/>
			</g>
			<rect x="181.3" y="172" class="st14" width="121.4" height="20.1"/>
			<rect x="251.1" y="201.4" class="st14" width="51.6" height="2.7"/>
			<rect x="251.1" y="208.8" class="st14" width="51.6" height="2.7"/>
			<rect x="251.1" y="216.3" class="st14" width="51.6" height="2.7"/>
			<rect x="251.1" y="223.7" class="st14" width="51.6" height="2.7"/>
			<rect x="251.1" y="231.2" class="st14" width="51.6" height="2.7"/>
			<rect x="251.1" y="238.6" class="st14" width="51.6" height="2.7"/>
			<rect x="251.1" y="246.4" class="st14" width="51.6" height="2.7"/>
			<rect x="181.3" y="259.8" class="st14" width="121.4" height="2.7"/>
			<rect x="181.3" y="266.9" class="st14" width="121.4" height="2.7"/>
			<rect x="181.3" y="274" class="st14" width="121.4" height="2.7"/>
			<rect x="181.3" y="281.1" class="st14" width="121.4" height="2.7"/>
			<rect x="181.3" y="288.2" class="st14" width="121.4" height="2.7"/>
			<rect x="181.3" y="295.3" class="st14" width="121.4" height="2.7"/>
			<g>
				<rect x="240.5" y="307.4" class="st14" width="62.2" height="47.6"/>
				<polygon class="st17" points="240.5,348.6 260.3,332.2 271.6,342.5 290.5,326.5 302.7,338.1 302.7,355.1 240.5,355.1 				"/>
				<path class="st17" d="M260.3,321.2c0,3.1-2.5,5.7-5.7,5.7c-3.1,0-5.7-2.5-5.7-5.7s2.5-5.7,5.7-5.7
					C257.7,315.6,260.3,318.1,260.3,321.2z"/>
			</g>
			
				<rect x="181.3" y="307.4" transform="matrix(-1 -1.224647e-16 1.224647e-16 -1 414.1032 617.5053)" class="st14" width="51.6" height="2.7"/>
			
				<rect x="181.3" y="314.9" transform="matrix(-1 -1.224647e-16 1.224647e-16 -1 414.1032 632.426)" class="st14" width="51.6" height="2.7"/>
			
				<rect x="181.3" y="322.3" transform="matrix(-1 -1.224647e-16 1.224647e-16 -1 414.1032 647.3299)" class="st14" width="51.6" height="2.7"/>
			
				<rect x="181.3" y="329.8" transform="matrix(-1 -1.224647e-16 1.224647e-16 -1 414.1032 662.2339)" class="st14" width="51.6" height="2.7"/>
			
				<rect x="181.3" y="337.2" transform="matrix(-1 -1.224647e-16 1.224647e-16 -1 414.1032 677.1377)" class="st14" width="51.6" height="2.7"/>
			
				<rect x="181.3" y="344.7" transform="matrix(-1 -1.224647e-16 1.224647e-16 -1 414.1032 692.0417)" class="st14" width="51.6" height="2.7"/>
			
				<rect x="181.3" y="352.4" transform="matrix(-1 -1.224647e-16 1.224647e-16 -1 414.1032 707.4827)" class="st14" width="51.6" height="2.7"/>
			<rect x="181.3" y="364.9" class="st14" width="121.4" height="2.7"/>
			<rect x="181.3" y="372" class="st14" width="121.4" height="2.7"/>
			<rect x="181.3" y="379.1" class="st14" width="121.4" height="2.7"/>
			<rect x="181.3" y="386.2" class="st14" width="121.4" height="2.7"/>
			<rect x="181.3" y="393.3" class="st14" width="121.4" height="2.7"/>
			<rect x="181.3" y="400.4" class="st14" width="121.4" height="2.7"/>
		</g>
		<g>
			<path class="st18" d="M224.1,256.9c-6.1-4.8-53-6-46.9,5.6c6.1,11.5,62.9-1.6,48.8-9"/>
			<path class="st18" d="M293.6,361c4.2,3.5,8.5,7.1,12.7,10.6"/>
			<path class="st18" d="M306.1,357.7c-2.7,5.2-6,10.1-9.9,14.5"/>
			<path class="st18" d="M177.2,384.2c0.3,1.4,1,2.6,1.9,3.7c2.1-3.8,4.9-7.3,8.1-10.2"/>
			<path class="st18" d="M250.3,226.6c-0.8-0.1-1.5-0.2-2.3-0.3c-0.3,0-0.5-0.1-0.7-0.2c-0.2-0.2-0.3-0.4-0.3-0.6
				c-0.5-1.7-0.5-3.6-0.5-5.4c0-6,0-11.9,0-17.9c0.5,0.1,1,0.2,1.5,0.3"/>
			<path class="st18" d="M228.9,207.1c4.2,0,8.3,0.2,12.5,0.4"/>
			<path class="st18" d="M232.2,211.1c3-0.7,6.1-0.2,9.1,0"/>
			<path class="st18" d="M234.9,214.4c1.9,0.3,4.6-0.1,6.5,0.2"/>
			<path class="st18" d="M228.4,218.2c4.3-0.1,8.6-0.2,13-0.3"/>
			<path class="st18" d="M234.8,221.6c2.2,0,4.4,0,6.6,0"/>
			<path class="st18" d="M230.2,321.2c-5.2-2.8-11.3-3.1-17.2-3.2c-7.2-0.2-14.5-0.2-21.7-0.3c-3.6,0-7.4,0-10.7,1.6
				c-1.3,0.6-2.4,1.5-3.1,2.7s-0.6,2.9,0.3,3.9c0.9,1,2.4,1.3,3.7,1.5c13.1,1.8,26.3,3.5,39.6,3.6c3.5,0,7.3-0.2,10.3-2.1
				c2.9-2,4.5-6.4,2.3-9.2"/>
			<path class="st18" d="M300.3,397.6c-6.6-0.1-13.5-0.2-19.4,2.7c-1.1,0.6-2.4,1.5-2.2,2.8c0.2,1.1,1.3,1.7,2.4,2.1
				c5.3,2,11.1,2.3,16.8,2.2c1.8,0,3.6-0.1,5.3-0.8c1.7-0.7,3.1-2.1,3.3-3.9c0.2-2.2-1.4-4-3.2-5.3c-1.9-1.4-4.2-2.4-6.5-2.9"/>
		</g>
	</g>
</g>
<g id="Speech_bubble_2">
	<g>
		<g>
			<path class="st10" d="M382,106.6h-27.4c-4.7,0-8.4,3.8-8.4,8.4v23.8c0,4.7,3.8,8.4,8.4,8.4h10.8l2.9,7.5l2.9-7.5H382
				c4.7,0,8.4-3.8,8.4-8.4V115C390.5,110.4,386.7,106.6,382,106.6z"/>
			<path class="st13" d="M382,106.6h-27.4c-4.7,0-8.4,3.8-8.4,8.4v23.8c0,4.7,3.8,8.4,8.4,8.4h10.8l2.9,7.5l2.9-7.5H382
				c4.7,0,8.4-3.8,8.4-8.4V115C390.5,110.4,386.7,106.6,382,106.6z"/>
		</g>
		<g>
			<g class="st19">
				<path class="st10" d="M381.9,126.9c0,7.5-6.1,13.6-13.6,13.6c-7.5,0-13.6-6.1-13.6-13.6c0-7.5,6.1-13.6,13.6-13.6
					C375.8,113.3,381.9,119.4,381.9,126.9z"/>
			</g>
			<path d="M373.4,122.4c0.2,0,0.4-0.2,0.4-0.4v-1.4c0-0.2-0.2-0.4-0.4-0.4h-10.2c-0.2,0-0.4,0.2-0.4,0.4v1.5c0,0.2,0.2,0.4,0.4,0.4
				h2.9c0.9,0,1.7,0.3,2.1,0.9h-5c-0.2,0-0.4,0.2-0.4,0.4v1.4c0,0.2,0.2,0.4,0.4,0.4h5.4c-0.2,1.2-1.1,2-2.6,2h-2.9
				c-0.2,0-0.4,0.2-0.4,0.4v1.8c0,0.1,0,0.2,0.1,0.3l5.7,5.2c0.1,0.1,0.2,0.1,0.3,0.1h2.8c0.4,0,0.6-0.5,0.3-0.7l-5.2-4.8
				c2.6-0.1,4.5-1.8,4.7-4.4h1.8c0.2,0,0.4-0.2,0.4-0.4v-1.4c0-0.2-0.2-0.4-0.4-0.4h-2c-0.1-0.4-0.3-0.8-0.5-1.1H373.4z"/>
		</g>
	</g>
	<g id="Education">
		<path class="st20" d="M247.8,164.8L247.8,164.8c-12.1,0-22-5.5-22-14.2v-14.2h44v14.2C269.8,158,260,164.8,247.8,164.8z"/>
		<path class="st21" d="M278.5,130.8l-26.8-13.1c-3-1.4-6.4-1.4-9.4,0l-26.8,13.1c-2.3,1.1-3.2,3.9-2.1,6.2c0.5,1,1.3,1.8,2.3,2.2
			l3.6,1.5l23.5,10c2.7,1.1,5.7,1.1,8.4,0l23.5-10l3.6-1.5c2.3-1,3.4-3.7,2.4-6.1C280.3,132.1,279.5,131.3,278.5,130.8z"/>
		<path class="st22" d="M269.8,170.5c-0.8,0-1.4-0.6-1.4-1.4v-25l-20-10.2c-0.7-0.4-1-1.2-0.6-1.9c0.4-0.7,1.2-1,1.9-0.6l21.5,11
			v26.7C271.2,169.9,270.6,170.5,269.8,170.5z"/>
		<ellipse class="st20" cx="247.8" cy="132.2" rx="6.4" ry="4.3"/>
		<circle class="st23" cx="269.8" cy="171.9" r="5.7"/>
	</g>
</g>
<g id="Character_2">
	<g>
		<g>
			<path class="st15" d="M364.2,201.5c-6.8,1.4-14.1,28.9-14.1,28.9l6.1,6.6l10.9-20L364.2,201.5z"/>
			<path class="st24" d="M367.1,217l-0.2,0.4l-9.1,16.7l-1.6,2.9l-6.1-6.6c0,0,7.3-27.4,14.1-28.9L367.1,217z"/>
			<path class="st25" d="M366.8,217.4l-9.1,16.7c0-0.3,0-0.6,0-0.9c0.8-12.7,7.9-19.4,7.9-19.4C366.2,214.9,366.6,216.1,366.8,217.4
				z"/>
		</g>
		<path class="st15" d="M415,271.5c0,0-20.9-5.6-46.3,2.6c0,0-4.1-53.2-3.6-60.5c0.5-7.3,39.2-5.2,39.2-5.2s1,21.3,3.5,34.1
			C410.2,255.5,416.3,269.1,415,271.5z"/>
		<path class="st14" d="M415,271.5c0,0-20.9-5.6-46.3,2.6c0,0-4.1-53.2-3.6-60.5c0.5-7.3,39.2-5.2,39.2-5.2s1,21.3,3.5,34.1
			C410.2,255.5,416.3,269.1,415,271.5z"/>
		<polygon class="st26" points="356.4,409.7 363.3,411.6 364.9,401 365.8,395.3 358.9,393.4 357.8,401 		"/>
		<polygon class="st26" points="395.7,410.3 402.7,411.2 402.8,401 402.9,394.7 395.8,393.8 395.8,401 		"/>
		<polygon class="st14" points="395.8,393.8 395.8,401 402.8,401 402.9,394.7 		"/>
		<polygon class="st14" points="357.8,401 364.9,401 365.8,395.3 358.9,393.4 		"/>
		<g>
			<path class="st15" d="M356.5,408.6l7.8-0.2c0.3,0,0.5,0.2,0.6,0.5l1.6,6.2c0.2,0.6-0.3,1.3-1,1.3c-2.8,0-6.8,0-10.4,0.1
				c-4.1,0.1-6.7-0.1-11.5,0c-2.9,0.1-3.8-2.8-2.6-3.1c5.5-1.4,9.1-1.1,13.8-4.2C355.3,408.9,355.9,408.7,356.5,408.6z"/>
			<path class="st10" d="M355.9,409.6C355.8,409.6,355.8,409.6,355.9,409.6c-1.2,0.3-3.2,0.6-4-0.1c-0.2-0.2-0.4-0.5-0.3-0.8
				c0-0.2,0.1-0.4,0.3-0.5c0.8-0.5,3.8,0.9,4.1,1c0.1,0,0.1,0.1,0.1,0.2C356,409.6,355.9,409.6,355.9,409.6z M352,408.6
				C352,408.6,352,408.6,352,408.6c-0.1,0.1-0.2,0.1-0.2,0.2c0,0.2,0.1,0.4,0.2,0.5c0.5,0.4,1.6,0.4,3.2,0.1
				C354.1,408.9,352.5,408.4,352,408.6z"/>
			<path class="st10" d="M355.9,409.6c0,0-0.1,0-0.1,0c-0.9-0.4-2.6-1.8-2.5-2.6c0-0.2,0.1-0.4,0.6-0.5c0.3,0,0.7,0,0.9,0.3
				c0.9,0.7,1.2,2.6,1.2,2.7C356,409.5,355.9,409.6,355.9,409.6C355.9,409.6,355.9,409.6,355.9,409.6z M353.7,406.9
				c-0.1,0.1-0.1,0.1-0.2,0.2c-0.1,0.5,1.1,1.7,2,2.2c-0.1-0.6-0.4-1.7-1-2.2c-0.2-0.2-0.4-0.2-0.7-0.2
				C353.8,406.8,353.7,406.9,353.7,406.9z"/>
		</g>
		<g>
			<path class="st15" d="M396,408.6l7.8-0.2c0.3,0,0.5,0.2,0.6,0.5l1.6,6.2c0.2,0.6-0.3,1.3-1,1.3c-2.8,0-6.8,0-10.4,0.1
				c-4.1,0.1-6.7-0.1-11.5,0c-2.9,0.1-3.8-2.8-2.6-3.1c5.5-1.4,9.1-1.1,13.8-4.2C394.8,408.9,395.4,408.7,396,408.6z"/>
			<path class="st10" d="M395.3,409.6C395.3,409.6,395.3,409.6,395.3,409.6c-1.2,0.3-3.2,0.6-4-0.1c-0.2-0.2-0.4-0.5-0.3-0.8
				c0-0.2,0.1-0.4,0.3-0.5c0.8-0.5,3.8,0.9,4.1,1c0.1,0,0.1,0.1,0.1,0.2C395.4,409.6,395.4,409.6,395.3,409.6z M391.5,408.6
				C391.5,408.6,391.4,408.6,391.5,408.6c-0.1,0.1-0.2,0.1-0.2,0.2c0,0.2,0.1,0.4,0.2,0.5c0.5,0.4,1.6,0.4,3.2,0.1
				C393.6,408.9,392,408.4,391.5,408.6z"/>
			<path class="st10" d="M395.3,409.6c0,0-0.1,0-0.1,0c-0.9-0.4-2.6-1.8-2.5-2.6c0-0.2,0.1-0.4,0.6-0.5c0.3,0,0.7,0,0.9,0.3
				c0.9,0.7,1.2,2.6,1.2,2.7C395.4,409.5,395.4,409.6,395.3,409.6C395.3,409.6,395.3,409.6,395.3,409.6z M393.2,406.9
				c-0.1,0.1-0.1,0.1-0.2,0.2c-0.1,0.5,1.1,1.7,2,2.2c-0.1-0.6-0.4-1.7-1-2.2c-0.2-0.2-0.4-0.2-0.7-0.2
				C393.3,406.8,393.2,406.9,393.2,406.9z"/>
		</g>
		<path class="st15" d="M410.2,255.5c3.7,16.2-2.7,143.4-2.7,143.4h-12.4l-5.3-106l-19.5,106l-13.2-1
			c8.6-82.1,16.3-131.2,16.3-131.2l0-6.2L410.2,255.5z"/>
		<g>
			<path class="st10" d="M403.6,195.6c-0.4,7.9-0.1,15.8,0.6,23.2c0.5,5.4,1.2,10.5,2,15.1c1.8,10.8,3.8,18.8,4.1,21.6
				c-5.4,0.7-25.7,3.5-36.8,5.1c-13.4-37.5-8.4-57.4-8.4-57.4l8.4-4.8c0,0,1.2-0.3,1.9-0.5c4.1-0.9,10.9-1.7,15.6-2.2
				c1-0.1,2-0.2,3-0.2C399,195.3,403.6,195.6,403.6,195.6z"/>
		</g>
		<g class="st27">
			<path class="st3" d="M403.6,195.6c-0.4,7.9-0.1,15.8,0.6,23.2c0.5,5.4,1.2,10.5,2,15.1c1.8,10.8,3.8,18.8,4.1,21.6
				c-5.4,0.7-25.7,3.5-36.8,5.1c-13.4-37.5-8.4-57.4-8.4-57.4l8.4-4.8c0,0,1.2-0.3,1.9-0.5c4.1-0.9,10.9-1.7,15.6-2.2
				c1-0.1,2-0.2,3-0.2C399,195.3,403.6,195.6,403.6,195.6z"/>
		</g>
		<g>
			<path class="st26" d="M389.7,195.5c0,0-8.4,6.7-11,6.6c-1.8,0-4.4-2.9-4.4-2.9c1.3-0.7,2.2-1.4,2.8-2.2c1.8-2.4,0.7-5.3-0.7-8
				l7.4-10.3c0.1,2.1,0.4,4.8,1,7.5c0,0,0,0,0,0C385.7,190.1,387.2,194.1,389.7,195.5z"/>
			<path class="st14" d="M384.8,186.1C384.8,186.1,384.8,186.1,384.8,186.1c-0.8,4.5-2.7,9.7-7.7,10.9c1.8-2.4,0.7-5.3-0.7-8
				l7.4-10.3C384,180.7,384.3,183.5,384.8,186.1z"/>
		</g>
		<g>
			<path class="st15" d="M362.8,174.6c-0.3,2.8,1.2,8.1,4.5,5.6C370.6,177.7,363.3,169.8,362.8,174.6z"/>
			<path class="st26" d="M382.3,174.3c1.7,6.6,3.1,10.5,0.9,14.9c-3.3,6.6-12.4,6.2-16.1,0.2c-3.3-5.4-5.6-15.4-0.1-20
				C372.5,164.8,380.6,167.7,382.3,174.3z"/>
			<path class="st15" d="M376.9,171.6l-1.5-7.5c0,0,7.9-2.2,8.3,2c4.9,1.3,5.1,11.5-0.1,16c-3.8-2-5.6-11.2-5.6-11.2
				C377.6,171.2,377.3,171.4,376.9,171.6z"/>
			<path class="st26" d="M386.7,179c0,1.8-0.8,3.5-1.9,4.6c-1.6,1.6-3.6,0.4-4.1-1.7c-0.4-1.9-0.1-5,2-5.8
				C384.7,175.2,386.6,176.8,386.7,179z"/>
			<path class="st15" d="M373,179.3c0.2,0.5,0,1.1-0.3,1.2c-0.3,0.1-0.8-0.2-0.9-0.8c-0.2-0.5,0-1.1,0.3-1.2
				C372.4,178.5,372.8,178.8,373,179.3z"/>
			<path class="st15" d="M367,181.3c0.2,0.5,0,1.1-0.3,1.2c-0.3,0.1-0.8-0.2-0.9-0.8c-0.2-0.5,0-1.1,0.3-1.2
				C366.4,180.4,366.8,180.7,367,181.3z"/>
			<path class="st28" d="M369,180.9c0,0-0.3,3.3-1.1,5.2c1.2,0.5,2.7-0.4,2.7-0.4L369,180.9z"/>
			<path class="st15" d="M374,186.9c-0.2,0.1-0.4,0.2-0.7,0.3c-0.1,0-0.2,0-0.2-0.1c0-0.1,0-0.2,0.1-0.2c2.3-0.8,2.9-2.7,2.9-2.7
				c0-0.1,0.1-0.1,0.2-0.1c0.1,0,0.1,0.1,0.1,0.2C376.5,184.2,376,185.9,374,186.9z"/>
			<path class="st15" d="M374.2,176.8c-0.1,0-0.2,0-0.3,0c-1.2-0.8-2.3-0.4-2.4-0.4c-0.2,0.1-0.4,0-0.4-0.2c-0.1-0.2,0-0.4,0.2-0.4
				c0.1,0,1.5-0.6,3,0.5c0.1,0.1,0.2,0.3,0.1,0.5C374.3,176.8,374.3,176.8,374.2,176.8z"/>
			<path class="st15" d="M363.7,180c-0.1,0-0.1,0-0.2,0c-0.2,0-0.3-0.2-0.3-0.4c0.2-1.8,1.6-2.4,1.7-2.5c0.2-0.1,0.4,0,0.4,0.2
				c0.1,0.2,0,0.4-0.2,0.4c-0.1,0-1.1,0.5-1.3,2C363.9,179.9,363.8,180,363.7,180z"/>
			<path class="st15" d="M377.9,171c0,0-12.4,6.9-17.8,3.7c-5.4-3.2,0-6,0-6s-1.7,1.9-0.1,2.9c0,0,0.4-5.3,5-7c0,0-1.2,1.5-0.7,3.2
				c0,0,3.1-2.7,8.5-4.1C378.1,162.1,392.4,163.1,377.9,171z"/>
		</g>
		<g>
			<g>
				<path class="st10" d="M378.7,202.2c0,0,2.1,1.9,4.4,3.7c2.8-1.9,9.4-6.8,8.6-10.5c-0.5-1-3.5-1.4-3.5-1.4
					S385.6,198.4,378.7,202.2z"/>
			</g>
			<g>
				<path class="st10" d="M378.7,202.2c0,0-2.1,2.1-3.4,4.6c-2.4-1.2-2.1-8.3-1.4-9.2c1.6-1.3,3.7-1.5,3.7-1.5
					S376.5,199.5,378.7,202.2z"/>
			</g>
			<g class="st29">
				<g>
					<path class="st3" d="M378.7,202.2c0,0,2.1,1.9,4.4,3.7c2.8-1.9,9.4-6.8,8.6-10.5c-0.5-1-3.5-1.4-3.5-1.4
						S385.6,198.4,378.7,202.2z"/>
				</g>
				<g>
					<path class="st3" d="M378.7,202.2c0,0-2.1,2.1-3.4,4.6c-2.4-1.2-2.1-8.3-1.4-9.2c1.6-1.3,3.7-1.5,3.7-1.5
						S376.5,199.5,378.7,202.2z"/>
				</g>
			</g>
		</g>
		<g>
			<path class="st15" d="M391.7,195.3c0,0,0.3,12.5,3.6,27.2c0,0,0,0,0,0c2.7,12.1,7.5,25.7,15.8,34.8c0,0,3.9,8.9,2.6,16.7
				c0,0,2.5-1,3-2.5c0.5-1.4-6.8-19.1-8.6-32.4c-1.8-13.4-2.8-43.8-2.8-43.8s-3.4-0.6-9.2-0.4C394.8,195,393.3,195.1,391.7,195.3z"
				/>
			<path class="st24" d="M416.7,271.5c-0.5,1.4-3,2.5-3,2.5c1.3-7.8-2.6-16.7-2.6-16.7c-0.5-0.6-1-1.2-1.5-1.8
				c-4.7-5.7-8.1-12.9-10.6-20.3c-1.5-4.3-2.6-8.6-3.6-12.7c0,0,0,0,0,0c-0.1-0.5-0.2-0.9-0.3-1.4c-2.7-12.7-3.2-23.5-3.3-25.5
				c0-0.2,0-0.3,0-0.3c1.6-0.2,3.1-0.3,4.4-0.4c5.8-0.3,9.2,0.4,9.2,0.4s0.2,7.1,0.7,15.9c0,0.1,0,0.3,0,0.4
				c0.1,2.5,0.3,5.2,0.4,7.9l0,0c0.3,5,0.7,10,1.1,14.3c0.2,2,0.4,3.8,0.6,5.3C409.9,252.5,417.3,270.1,416.7,271.5z"/>
			<path class="st15" d="M391.7,195.3c0,0,0.3,12.5,3.6,27.2c0,0,0,0,0,0l4.9-19.4l-5.1-0.5l5.1-3l-4-4.7
				C394.8,195,393.3,195.1,391.7,195.3z"/>
		</g>
		<g>
			<path class="st15" d="M368.4,276l1.3,1c0,0-1.9-20.4-1.1-47.5c0-1.3,0.1-2.6,0.1-3.8c1-23,4.5-27.1,4.8-27.4l-3.3,1.1l-6,2.1
				C362.4,221.1,368.4,276,368.4,276z"/>
			<path class="st24" d="M368.4,276l1.3,1c0,0-1.9-20.4-1.1-47.5c0-1.3,0.1-2.6,0.1-3.8c1-23,4.5-27.1,4.8-27.4l-3.3,1.1l-6,2.1
				C362.4,221.1,368.4,276,368.4,276z"/>
			<path class="st15" d="M369.9,206.4l-3.8,2.4c0,0,1,11.2,2.6,16.9c1-23,4.5-27.1,4.8-27.4l-3.3,1.1c-1.3,1.3-3.4,3.5-4.5,5.9
				L369.9,206.4z"/>
		</g>
		<path class="st14" d="M404.3,211.9c0,0,0.3,4.3,2.2,7.5c-0.2-2.7-0.3-5.3-0.4-7.9C405.5,211.6,404.9,211.7,404.3,211.9z"/>
		<path class="st14" d="M385.7,315.4l4.1-22.6l-0.8-11.9C389.1,280.9,383.4,301.6,385.7,315.4z"/>
		<path class="st25" d="M407.5,233.7c-0.4,0.2-0.9,0.3-1.3,0.5c-2.4,0.7-5,1-7.3,1.1c-2,0-3.8-0.1-5.1-0.3
			c-17.9-2.7-18.5-6.4-18.5-6.4s11.2-0.8,16.6-4c1.1-0.7,2.2-2,3.1-3.5c3.4-5.8,5.2-15.8,5.2-15.8s1.4,1.2,3.3,3.2
			c0.8,0.8,1.6,1.7,2.5,2.7c0,0.1,0,0.3,0,0.4c0.1,2.5,0.3,5.2,0.4,7.9l0,0C406.8,224.4,407.1,229.5,407.5,233.7z"/>
		<path class="st26" d="M374.3,222.7l0.2,4.5c-1.5,4.5-7,1.6-7,1.6l-3.2-0.3c-1.1-0.1-1.9-1.1-2-2.4l-0.2-3.2
			c-0.1-1.4,0.9-2.7,2.2-2.8l2.8-0.2c0.8,0,1.6,0.1,2.4,0.5L374.3,222.7z"/>
		<g>
			<path class="st15" d="M405.3,195.3c10.7,3,1.9,36-2.1,37.1c-7.4,2.1-29.7-2-29.7-2l0-8.7c0,0,21.4,2.1,23.3,1.3
				c2.3-1,3.5-13.5,4-19.4C401.2,197.8,405.3,195.3,405.3,195.3z"/>
			<path class="st24" d="M405.3,195.3c10.7,3,1.9,36-2.1,37.1c-7.4,2.1-29.7-2-29.7-2l0-8.7c0,0,21.4,2.1,23.3,1.3
				c2.3-1,3.5-13.5,4-19.4C401.2,197.8,405.3,195.3,405.3,195.3z"/>
		</g>
		<path class="st15" d="M363.7,241L363.7,241l-17.5,1.6c-0.7,0.1-1.4-0.4-1.6-1l-9.3-25.2c-0.1-0.4-0.1-0.7,0.1-0.9
			c0.1-0.2,0.4-0.3,0.7-0.4l17.5-1.6c0.7-0.1,1.4,0.4,1.6,1.1l9.3,25.2C364.7,240.4,364.3,240.9,363.7,241z"/>
		<path class="st30" d="M363.7,241L363.7,241l-17.5,1.6c-0.7,0.1-1.4-0.4-1.6-1l-9.3-25.2c-0.1-0.4-0.1-0.7,0.1-0.9
			c0.1-0.2,0.4-0.3,0.7-0.4l17.5-1.6c0.7-0.1,1.4,0.4,1.6,1.1l9.3,25.2C364.7,240.4,364.3,240.9,363.7,241z"/>
		<path class="st24" d="M363.7,241l-17.5,1.6c-0.7,0.1-1.4-0.4-1.6-1l-9.3-25.2c-0.1-0.4-0.1-0.7,0.1-0.9l17.4-1.6
			c0.7-0.1,1.4,0.4,1.6,1.1l9.3,25.2C363.9,240.4,363.8,240.8,363.7,241z"/>
		<path class="st14" d="M349.9,227.6c0.4,1.2,0,2.4-1,2.7c-1,0.3-2-0.3-2.4-1.5c-0.4-1.2,0-2.4,1-2.7
			C348.4,225.8,349.5,226.4,349.9,227.6z"/>
		<path class="st26" d="M338,230.2l1.9,4.1c3.3,3.9,6.4,0.9,6.4,0.9l2.5-0.5c0.8-0.2,1.1-1.1,0.6-2.3l-1.3-2.9
			c-0.6-1.3-1.9-2.3-3-2.3l-2.4,0.1c-0.7,0-1.3,0.2-1.7,0.6L338,230.2z"/>
	</g>
</g>
<g id="Speech_bubble_1">
	<g>
		<g>
			<path class="st10" d="M139.6,137.6h-27.4c-4.7,0-8.4,3.8-8.4,8.4v23.8c0,4.7,3.8,8.4,8.4,8.4H123l2.9,7.5l2.9-7.5h10.8
				c4.7,0,8.4-3.8,8.4-8.4v-23.8C148,141.4,144.3,137.6,139.6,137.6z"/>
			<path class="st13" d="M139.6,137.6h-27.4c-4.7,0-8.4,3.8-8.4,8.4v23.8c0,4.7,3.8,8.4,8.4,8.4H123l2.9,7.5l2.9-7.5h10.8
				c4.7,0,8.4-3.8,8.4-8.4v-23.8C148,141.4,144.3,137.6,139.6,137.6z"/>
		</g>
		<g>
			<g class="st19">
				
					<ellipse transform="matrix(0.9871 -0.1602 0.1602 0.9871 -23.6644 22.2056)" class="st10" cx="125.9" cy="157.9" rx="13.6" ry="13.6"/>
			</g>
			<g>
				<path class="st3" d="M124.5,164c-0.4,0-0.7-0.2-1-0.4l-5.3-6.3c-0.4-0.5-0.4-1.3,0.1-1.8c0.5-0.4,1.3-0.4,1.8,0.1l4.4,5.2
					l7.2-8.5c0.4-0.5,1.2-0.6,1.8-0.1c0.5,0.4,0.6,1.2,0.1,1.8l-8.2,9.6C125.2,163.8,124.8,164,124.5,164z"/>
			</g>
		</g>
	</g>
</g>
<g id="Character_1">
	<g>
		<g>
			<path class="st31" d="M160,270l-0.7-1.8c-0.3-0.7-0.9-1.2-1.6-1.4l-3.3-0.8c-1.3-0.3-2.7,0-3.8,0.9l-0.6,0.6
				c1,3.1,4.4,5.7,4.4,5.7l0.9,0.8c0.8,0.7,2,0.7,2.7,0l1.7-1.7C160.2,271.7,160.4,270.8,160,270z"/>
			<g>
				<path class="st32" d="M120.1,235.8c2.4,3.6,4.8,7.3,7.1,11c2.3,3.7,4.6,7.4,6.8,11.2l-1.8-1.4c3.5,1.5,7,3,10.5,4.5l5.2,2.4
					c1.7,0.8,3.4,1.6,5.1,2.5c1,0.5,1.4,1.7,0.9,2.7c-0.4,0.8-1.4,1.2-2.2,1c-1.9-0.4-3.7-0.9-5.5-1.4l-5.5-1.6
					c-3.7-1.1-7.3-2.2-10.9-3.4c-0.7-0.2-1.2-0.7-1.6-1.2l-0.1-0.2c-2.5-3.6-5-7.2-7.4-10.8c-2.4-3.6-4.8-7.3-7.1-11
					c-1.2-1.9-0.6-4.3,1.3-5.5C116.5,233.5,118.9,234.1,120.1,235.8z"/>
			</g>
		</g>
		<path class="st15" d="M128.9,248l-8.9,4.2l-1-1l-3.8-3.8l-0.5-0.5l3.5-17.2C124.3,233.4,128.9,248,128.9,248z"/>
		<path class="st14" d="M119,251.1l-3.8-3.8c0.8-2.6,2.2-5.3,4.3-7C119.5,240.3,120.8,245.7,119,251.1z"/>
		<path class="st15" d="M91.9,231.4c-1.4,4.7-1.9,8.8-2.8,12.2c-1.7,6-5.8,21.6-7.9,25.3l27.4,1.4c4.3-7.4,11.3-25.3,12.4-27.6
			c1.5-3.4,1.3-8.2-1-11.3c-0.5-0.7-1.1-1.3-1.9-1.8c-1.1-0.7-2.2-1.4-3.3-2.1c-3.4-2-8.8-3.4-11.8-3.4
			C95.5,224.1,93,227.7,91.9,231.4z"/>
		<path class="st31" d="M130.8,409.7l4.5-1.2c-1.6-22.5-6-49.6-9.8-69.9c-0.6-3.2-1.2-6.2-1.7-9c-0.3-1.3-0.5-2.6-0.8-3.9
			c-1.2-6.1-2.2-10.9-2.8-13.9c-0.5-2.2-0.7-3.4-0.7-3.4l-16,4.6l1.3,4l4.4,13.3l0.5,1.5l2.9,8.8l4.9,15
			C118.3,378.7,130.8,409.7,130.8,409.7z"/>
		<path class="st31" d="M92,408.6l4.6-0.4c2.4-24.4,2.5-54.7,2.2-75.8c-0.1-3.3-0.1-6.3-0.2-9.1c0-0.1,0-0.3,0-0.4
			c-0.1-5.5-0.3-9.9-0.4-12.6c-0.1-2.2-0.1-3.3-0.1-3.3l-16.6,1.9l1,6.9l1.5,10.1l0.3,2l1,6.9l2.8,18.5
			C84.9,375.9,92,408.6,92,408.6z"/>
		<path class="st33" d="M84,325.8l14.6-2.5c0-0.1,0-0.3,0-0.4c-0.1-5.5-0.3-9.9-0.4-12.6l-15.7,5.4L84,325.8z"/>
		<path class="st33" d="M121.8,319.6l-15.3,2.6l-1.7-5.1l15.4-5.3C120.6,313.7,121.2,316.4,121.8,319.6z"/>
		<path class="st10" d="M82.1,265c0,0-9.9,23.2-0.7,56.9l18.1-2.1v-17.4l3.9,16.7l18.2-3.6c-5.6-27.3-10.6-39.7-10.6-39.7l-0.9-9.3
			L82.1,265z"/>
		<g>
			<g>
				<polygon class="st15" points="91,271.2 105.9,271.8 105.9,267.2 91,266.6 				"/>
				<polygon class="st15" points="89.6,266.5 82.1,266.2 81.5,270.8 89.6,271.2 				"/>
				<polygon class="st15" points="107.1,267.3 107.1,271.9 110.4,272 110.4,267.4 				"/>
			</g>
			<g>
				<path class="st3" d="M104.6,267.6c-0.4-0.4-0.8-0.6-1.3-0.6l-3.5-0.2c-0.9,0-1.6,0.6-1.6,1.5v2.2c0,0.5,0.2,0.9,0.6,1.3
					c0.3,0.3,0.8,0.5,1.2,0.6c0.1,0,0.1,0,0.2,0l3.5,0.1c0.9,0,1.6-0.6,1.6-1.5v-2.1C105.1,268.4,104.9,267.9,104.6,267.6z
					 M103.4,271.6l-3.5-0.1c-0.2,0-0.5-0.1-0.6-0.3c-0.2-0.2-0.3-0.4-0.3-0.6v-2.2c0-0.4,0.3-0.7,0.8-0.7l3.5,0.2c0,0,0.1,0,0.1,0
					c0.2,0,0.4,0.1,0.6,0.3c0.2,0.2,0.3,0.4,0.3,0.6v0.3c0,0-0.1,0-0.1,0l-1-0.1c-0.3,0-0.6,0.2-0.6,0.5c0,0.3,0.3,0.6,0.6,0.6
					l1,0.1c0,0,0,0,0,0v0.7C104.2,271.3,103.9,271.6,103.4,271.6z"/>
			</g>
		</g>
		<g>
			<path class="st15" d="M89.8,407.7c0-0.6,7.1-0.1,7.1-0.1s4.4,4.4,8.6,5.4c4.2,1,1.9,3.5-2.9,3.5c-4.7,0-8.4,0-11.7,0
				C87.6,416.5,89.7,413.7,89.8,407.7z"/>
			<g>
				<path class="st10" d="M100.7,409.4c-1,0-2.6-0.7-2.9-0.9c0,0,0,0-0.1,0l0,0h0c0,0,0,0,0,0c0,0,0-0.1,0-0.1
					c0-0.1,0.6-1.7,1.6-2.1c0.3-0.1,0.6-0.1,0.9,0c0.3,0.2,0.5,0.4,0.5,0.6c0,0.4-0.5,0.7-1.1,1.1c0.6-0.1,1.2,0,1.6,0.2
					c0.2,0.1,0.3,0.3,0.4,0.5c0.1,0.4,0,0.6-0.2,0.8C101.1,409.3,100.9,409.4,100.7,409.4z M98.4,408.3c1,0.4,2.3,0.8,2.7,0.6
					c0,0,0.1-0.1,0-0.4c0-0.1-0.1-0.2-0.2-0.2C100.4,408,99.2,408.2,98.4,408.3z M99.6,406.4c-0.1,0-0.2,0-0.3,0.1
					c-0.5,0.2-1,1-1.2,1.5c1.1-0.4,2.1-1,2.1-1.3c0-0.1-0.2-0.2-0.3-0.2C99.8,406.4,99.7,406.4,99.6,406.4z"/>
			</g>
		</g>
		<g>
			<path class="st15" d="M129.6,407.7c0-0.6,7.1-0.1,7.1-0.1s4.4,4.4,8.6,5.4c4.2,1,1.9,3.5-2.9,3.5c-4.7,0-8.4,0-11.7,0
				C127.3,416.5,129.4,413.7,129.6,407.7z"/>
			<g>
				<path class="st10" d="M140.4,409.4c-1,0-2.6-0.7-2.9-0.9c0,0,0,0-0.1,0l0,0h0c0,0,0,0,0,0c0,0,0-0.1,0-0.1
					c0-0.1,0.6-1.7,1.6-2.1c0.3-0.1,0.6-0.1,0.9,0c0.3,0.2,0.5,0.4,0.5,0.6c0,0.4-0.5,0.7-1.1,1.1c0.6-0.1,1.2,0,1.6,0.2
					c0.2,0.1,0.3,0.3,0.4,0.5c0.1,0.4,0,0.6-0.2,0.8C140.9,409.3,140.7,409.4,140.4,409.4z M138.1,408.3c1,0.4,2.3,0.8,2.7,0.6
					c0,0,0.1-0.1,0-0.4c0-0.1-0.1-0.2-0.2-0.2C140.1,408,138.9,408.2,138.1,408.3z M139.4,406.4c-0.1,0-0.2,0-0.3,0.1
					c-0.5,0.2-1,1-1.2,1.5c1.1-0.4,2.1-1,2.1-1.3c0-0.1-0.2-0.2-0.3-0.2C139.6,406.4,139.5,406.4,139.4,406.4z"/>
			</g>
		</g>
		<path class="st33" d="M99.6,302.5c3.1-6.4,5.3-11.7,5.3-11.7s0.7,16.2-1.3,28.4L99.6,302.5z"/>
		<g>
			
				<rect x="165.4" y="251.1" transform="matrix(-0.2914 -0.9566 0.9566 -0.2914 -28.5092 499.6835)" class="st15" width="10.9" height="18.5"/>
			
				<rect x="165.4" y="251.1" transform="matrix(-0.2914 -0.9566 0.9566 -0.2914 -28.5092 499.6835)" class="st34" width="10.9" height="18.5"/>
			
				<rect x="162.8" y="263.2" transform="matrix(0.9566 -0.2914 0.2914 0.9566 -69.5856 61.6069)" class="st35" width="18.5" height="2.5"/>
			<g>
				<g>
					
						<ellipse transform="matrix(0.999 -4.497384e-02 4.497384e-02 0.999 -10.884 9.7744)" class="st10" cx="211.8" cy="246.8" rx="33.9" ry="33.9"/>
					
						<ellipse transform="matrix(0.999 -4.497384e-02 4.497384e-02 0.999 -10.884 9.7744)" class="st36" cx="211.8" cy="246.8" rx="33.9" ry="33.9"/>
				</g>
				<g>
					<g>
						<g>
							<path class="st14" d="M246,242.4v16.1h-58.7v-35.1c3.9-4.1,8.8-7.2,14.6-8.9c1.2-0.4,2.4-0.7,3.6-0.9H218
								c12,2.3,22.4,10.9,26.2,23.4c0.5,1.6,0.8,3.2,1.1,4.8v0L246,242.4z"/>
							<polygon class="st17" points="246,242.4 246,258.4 187.3,258.4 187.3,252.3 206.1,236.9 216.7,246.6 234.5,231.5 
								245.3,241.7 245.3,241.7 							"/>
							<path class="st17" d="M206,226.5c0,2.9-2.4,5.3-5.3,5.3c-2.9,0-5.3-2.4-5.3-5.3c0-2.9,2.4-5.3,5.3-5.3
								C203.6,221.1,206,223.5,206,226.5z"/>
						</g>
						<path class="st14" d="M237.7,268.7c-0.7,0.9-1.5,1.7-2.3,2.5h-48v-2.5H237.7z"/>
						<path class="st14" d="M230,275.4c-1.5,0.9-3.1,1.8-4.7,2.5h-27c-1.6-0.7-3.2-1.5-4.7-2.5H230z"/>
					</g>
					<g>
						<g>
							<path class="st10" d="M185,267.3C185,267.4,184.9,267.4,185,267.3c-0.5-0.4-0.8-0.9-1.2-1.4c7.5-6.2,39.2-4.9,44.5-0.8
								c0.4,0.3,0.5,0.9,0.1,1.3c-0.3,0.4-0.9,0.5-1.3,0.1C222.6,263,191.7,261.7,185,267.3z"/>
							<path class="st10" d="M232.5,265.5c-0.7,4.2-12.3,8-22.8,9.7c-4.1,0.7-8.4,1.1-12.4,1.1c-0.7,0-1.5,0-2.2-0.1
								c-0.5-0.3-1.1-0.6-1.6-0.9c-0.6-0.4-1.1-0.7-1.7-1.1c4.5,0.6,10.6,0.4,17.5-0.8c12.3-2,20.9-5.9,21.3-8.2
								c0.1-0.7-0.8-1.4-1.6-1.8c-0.4-0.2-0.6-0.8-0.4-1.2c0.2-0.4,0.8-0.6,1.2-0.4C232.4,263.1,232.7,264.5,232.5,265.5z"/>
						</g>
						<g>
							<path class="st10" d="M241.3,230.1l-9.4,0.2c0,0,0,0,0,0c-0.5,0-0.9-0.4-0.9-0.9c0-0.5,0.4-0.9,0.9-0.9l8.4-0.2
								C240.6,228.8,240.9,229.4,241.3,230.1z"/>
						</g>
						<g>
							<path class="st10" d="M243,233.5h-5.1c-0.5,0-0.9-0.4-0.9-0.9c0-0.5,0.4-0.9,0.9-0.9h4.3C242.4,232.3,242.7,232.9,243,233.5z
								"/>
						</g>
					</g>
				</g>
				<path class="st15" d="M201.8,214.6c-19.2,5.9-30.1,26.2-24.2,45.4c5.9,19.2,26.2,30.1,45.4,24.2c19.2-5.9,30.1-26.2,24.2-45.4
					C241.4,219.6,221.1,208.8,201.8,214.6z M203.1,218.8c16.9-5.2,34.9,4.4,40,21.3c5.2,16.9-4.4,34.9-21.3,40
					c-16.9,5.2-34.9-4.4-40-21.3C176.6,241.9,186.1,223.9,203.1,218.8z"/>
				<path class="st34" d="M201.8,214.6c-19.2,5.9-30.1,26.2-24.2,45.4c5.9,19.2,26.2,30.1,45.4,24.2c19.2-5.9,30.1-26.2,24.2-45.4
					C241.4,219.6,221.1,208.8,201.8,214.6z M203.1,218.8c16.9-5.2,34.9,4.4,40,21.3c5.2,16.9-4.4,34.9-21.3,40
					c-16.9,5.2-34.9-4.4-40-21.3C176.6,241.9,186.1,223.9,203.1,218.8z"/>
				<path class="st15" d="M200.9,211.5c-19.2,5.9-30.1,26.2-24.2,45.4c5.9,19.2,26.2,30.1,45.4,24.2c19.2-5.9,30.1-26.2,24.2-45.4
					C240.4,216.5,220.1,205.6,200.9,211.5z M202.1,215.6c16.9-5.2,34.9,4.4,40,21.3c5.2,16.9-4.4,34.9-21.3,40
					c-16.9,5.2-34.9-4.4-40-21.3C175.6,238.7,185.2,220.8,202.1,215.6z"/>
				<path class="st37" d="M200.9,211.5c-19.2,5.9-30.1,26.2-24.2,45.4c5.9,19.2,26.2,30.1,45.4,24.2c19.2-5.9,30.1-26.2,24.2-45.4
					C240.4,216.5,220.1,205.6,200.9,211.5z M202.1,215.6c16.9-5.2,34.9,4.4,40,21.3c5.2,16.9-4.4,34.9-21.3,40
					c-16.9,5.2-34.9-4.4-40-21.3C175.6,238.7,185.2,220.8,202.1,215.6z"/>
			</g>
			<path class="st15" d="M103.4,280.9L103.4,280.9c1.2,3.8,5.2,6,9.1,4.8l52.3-15.9c1.3-0.4,2-1.7,1.6-3l-2.9-9.4
				c-0.4-1.3-1.7-2-3-1.6l-52.3,15.9C104.4,273,102.2,277.1,103.4,280.9z"/>
			<path class="st37" d="M103.4,280.9L103.4,280.9c1.2,3.8,5.2,6,9.1,4.8l52.3-15.9c1.3-0.4,2-1.7,1.6-3l-2.9-9.4
				c-0.4-1.3-1.7-2-3-1.6l-52.3,15.9C104.4,273,102.2,277.1,103.4,280.9z"/>
			<path class="st35" d="M103.1,279.7c0,0.4,0.1,0.8,0.3,1.2c1.2,3.8,5.2,6,9.1,4.8l52.3-15.9c1.2-0.4,2-1.7,1.6-3l-0.7-2.4
				c0.4,1.2-0.3,2.6-1.6,3l-52.3,15.9C108.3,284.4,104.7,282.8,103.1,279.7z"/>
			<path class="st35" d="M108.7,275.6c-1.5,0.4-2.3,1.8-2,3c0.4,1.2,1.9,1.9,3.3,1.4s2.3-1.8,2-3
				C111.6,275.8,110.1,275.1,108.7,275.6z"/>
			<path class="st17" d="M222.3,226.9c-3.2,2.2-3.5,7.3-0.6,11.5c2.8,4.2,7.7,5.8,10.9,3.6c3.2-2.2,3.5-7.3,0.6-11.5
				C230.4,226.4,225.5,224.7,222.3,226.9z"/>
			<path class="st17" d="M217.2,239.8c-0.7,0.5-0.7,1.5-0.1,2.4c0.6,0.9,1.6,1.2,2.3,0.8c0.7-0.5,0.7-1.5,0.1-2.4
				C218.9,239.7,217.9,239.3,217.2,239.8z"/>
		</g>
		<path class="st31" d="M117.4,225.1c-0.7,0.5-1.3,1.1-1.8,1.7c-1.3,1.6-1.9,3.6-0.1,6.2c0,0,0.5,1.9-3.3,2.7
			c-2.4-8.7-5.5-10.8-5.5-10.8c1.8-0.1,3.7-1.7,5.4-3.8c1.1-1.3,2-2.7,2.8-4.1c0.4-0.7,0.7-1.3,1-1.9l0.3,2L117.4,225.1z"/>
		<path class="st14" d="M117.4,225.1c-0.7,0.5-1.3,1.1-1.8,1.7c-1.9-1.7-2.9-3.8-3.5-5.6c1.1-1.3,2-2.7,2.8-4.1
			c0.5,0,0.9,0.1,1.4,0.1L117.4,225.1z"/>
		<g>
			<path class="st15" d="M119.2,201.4c0,0,4.9-5.7-1-10.4c-5.9-4.7-17.5-2.6-19.6,8.1c-2.1,10.7,0.8,15.2,0.8,15.2s0-6.8,2-8.8
				c0,0-0.6,3.3,0,5.2s0,0.7,0,0.7s1.8-8.5,10.5-6.1C120.6,207.8,119.2,201.4,119.2,201.4z"/>
			<path class="st31" d="M123.9,202.3c6.5,2,7.5,6.1,5.9,12.9c-1.9,8.5-5.6,13.9-13.2,9.6C106.5,219,113.2,199,123.9,202.3z"/>
			<path class="st38" d="M125.8,213.5c0,0,0.4,2,1.1,3.3c0,0-0.8,0.7-1.9,0.2L125.8,213.5z"/>
			<g>
				<path class="st15" d="M122,211.8c-0.1,0.5-0.6,0.9-0.9,0.8c-0.4-0.1-0.5-0.6-0.4-1.2c0.1-0.5,0.6-0.9,0.9-0.8
					C122,210.7,122.2,211.2,122,211.8z"/>
				<path class="st15" d="M121.5,210.6l1.3-0.1C122.8,210.5,121.9,211.3,121.5,210.6z"/>
			</g>
			<g>
				<path class="st15" d="M128.7,213.5c-0.1,0.5-0.6,0.9-0.9,0.8c-0.4-0.1-0.5-0.6-0.4-1.2c0.1-0.5,0.6-0.9,0.9-0.8
					C128.7,212.5,128.8,213,128.7,213.5z"/>
				<path class="st15" d="M128.2,212.3l1.3-0.1C129.4,212.2,128.6,213,128.2,212.3z"/>
			</g>
			<path class="st39" d="M123.3,207.3c0,0-1.7-0.8-3.1,0.1"/>
			<path class="st39" d="M128.1,208.4c0,0,1.3-0.1,2.4,1.3"/>
			<path class="st15" d="M113.5,211c0,0,4.6-4.4,5.4-8.6c0,0,14.4-1.3,11.1,11.9c0,0,4.8-11.2-6.3-14.8c-11-3.6-16,12.6-11.7,19.2
				C112.1,218.7,110.6,213.8,113.5,211z"/>
			<path class="st39" d="M120.1,216.8c0,0,0.3,2.7,3.3,2.8"/>
			<g>
				<g>
					<path class="st15" d="M112.4,209.7c0,0.1,0,0.2,0.1,0.2c0,0,0,0,0,0l6.6,1.5c-0.2,1.2,0.4,2.5,1.7,3.1c1.6,0.8,3.6,0.2,4.4-1.2
						c0.1-0.1,0.1-0.3,0.2-0.4c0.4-0.2,0.6-0.3,0.9-0.2c0.3,0.1,0.3,0.4,0.3,0.4c-0.2,1.2,0.4,2.4,1.7,3c1.6,0.8,3.6,0.2,4.4-1.2
						c0.9-1.4,0.3-3.2-1.3-4c-1.6-0.8-3.6-0.2-4.4,1.2c-0.1,0.1-0.1,0.3-0.2,0.4c-0.1-0.1-0.2-0.2-0.3-0.2c-0.2-0.1-0.5-0.1-0.9,0.1
						c0.2-1.2-0.4-2.4-1.7-3.1c-1.6-0.8-3.6-0.2-4.4,1.2c-0.1,0.2-0.2,0.4-0.3,0.6l-6.6-1.5C112.6,209.5,112.4,209.6,112.4,209.7z
						 M127.3,212.3c0.7-1.3,2.5-1.7,3.9-1c1.4,0.7,1.9,2.2,1.2,3.5c-0.7,1.3-2.5,1.7-3.9,1C127.1,215.1,126.6,213.5,127.3,212.3z
						 M119.8,210.7c0.7-1.3,2.5-1.7,3.9-1c1.4,0.7,1.9,2.2,1.2,3.5c-0.7,1.3-2.5,1.7-3.9,1C119.6,213.5,119.1,212,119.8,210.7z"/>
				</g>
				<g class="st40">
					<path class="st3" d="M112.4,209.7c0,0.1,0,0.2,0.1,0.2c0,0,0,0,0,0l6.6,1.5c-0.2,1.2,0.4,2.5,1.7,3.1c1.6,0.8,3.6,0.2,4.4-1.2
						c0.1-0.1,0.1-0.3,0.2-0.4c0.4-0.2,0.6-0.3,0.9-0.2c0.3,0.1,0.3,0.4,0.3,0.4c-0.2,1.2,0.4,2.4,1.7,3c1.6,0.8,3.6,0.2,4.4-1.2
						c0.9-1.4,0.3-3.2-1.3-4c-1.6-0.8-3.6-0.2-4.4,1.2c-0.1,0.1-0.1,0.3-0.2,0.4c-0.1-0.1-0.2-0.2-0.3-0.2c-0.2-0.1-0.5-0.1-0.9,0.1
						c0.2-1.2-0.4-2.4-1.7-3.1c-1.6-0.8-3.6-0.2-4.4,1.2c-0.1,0.2-0.2,0.4-0.3,0.6l-6.6-1.5C112.6,209.5,112.4,209.6,112.4,209.7z
						 M127.3,212.3c0.7-1.3,2.5-1.7,3.9-1c1.4,0.7,1.9,2.2,1.2,3.5c-0.7,1.3-2.5,1.7-3.9,1C127.1,215.1,126.6,213.5,127.3,212.3z
						 M119.8,210.7c0.7-1.3,2.5-1.7,3.9-1c1.4,0.7,1.9,2.2,1.2,3.5c-0.7,1.3-2.5,1.7-3.9,1C119.6,213.5,119.1,212,119.8,210.7z"/>
				</g>
			</g>
			<path class="st31" d="M114.2,212.7c0.3-1.1-0.3-3.1-2.3-3.5c-2.1-0.4-4.3,3.4,0.4,5.9C113,215.5,113.6,214.9,114.2,212.7z"/>
		</g>
		<path class="st14" d="M93,234.1c0,0-2.5,14.2,6,21.5s8.5-13.9,6.5-20.9C104,229.3,93,234.1,93,234.1z"/>
		<g>
			<path class="st31" d="M125,281.5l0.1-2c0-0.7-0.3-1.4-0.9-1.9l-2.7-2.1c-1.1-0.8-2.5-1.1-3.8-0.7l-0.8,0.3c-0.3,3.2,1.7,7,1.7,7
				l0.5,1.1c0.4,1,1.5,1.5,2.5,1.1l2.2-0.9C124.5,283.2,125,282.4,125,281.5z"/>
			<g>
				<path class="st32" d="M102.4,234c0.7,4.3,1.4,8.6,1.9,13c0.6,4.3,1.1,8.7,1.7,13l-1-2c2.6,2.8,5.2,5.6,7.7,8.4l3.8,4.3
					c1.2,1.5,2.5,2.9,3.7,4.4c0.7,0.9,0.5,2.1-0.3,2.8c-0.7,0.6-1.7,0.6-2.4,0c-1.5-1.2-3-2.4-4.5-3.6l-4.4-3.7
					c-2.9-2.5-5.8-5-8.6-7.5c-0.5-0.5-0.9-1.1-1-1.8l0-0.3c-0.8-4.3-1.6-8.6-2.3-12.9c-0.7-4.3-1.4-8.6-2-12.9
					c-0.3-2.2,1.2-4.2,3.4-4.5C100.1,230.5,102.1,231.9,102.4,234z"/>
			</g>
		</g>
		<path class="st15" d="M100.5,225.6c-5,0.6-9.1,2.7-6.9,18.2l12.2-0.6C105.9,243.1,106.4,224.9,100.5,225.6z"/>
	</g>
</g>
</svg>
