<?xml version="1.0" encoding="utf-8"?>
<!-- Generator: Adobe Illustrator 26.0.1, SVG Export Plug-In . SVG Version: 6.00 Build 0)  -->
<svg version="1.1" xmlns="http://www.w3.org/2000/svg" xmlns:xlink="http://www.w3.org/1999/xlink" x="0px" y="0px"
	 viewBox="0 0 500 500" style="enable-background:new 0 0 500 500;" xml:space="preserve">
<style type="text/css">
	.st0{fill:#E0E0E0;}
	.st1{fill:#EBEBEB;}
	.st2{fill:#F0F0F0;}
	.st3{display:none;}
	.st4{display:inline;}
	.st5{fill:#407BFF;}
	.st6{opacity:0.9;fill:#FFFFFF;}
	.st7{fill:#F5F5F5;}
	.st8{fill:#263238;}
	.st9{fill:#FFFFFF;}
	.st10{opacity:0.5;}
	.st11{opacity:0.3;enable-background:new    ;}
	.st12{opacity:0.4;fill:#FFFFFF;enable-background:new    ;}
	.st13{opacity:0.7;fill:#FFFFFF;}
	.st14{opacity:0.2;}
	.st15{fill:#A24E3F;}
	.st16{fill:#B97964;}
	.st17{opacity:0.4;}
	.st18{fill:none;stroke:#407BFF;stroke-width:4;stroke-miterlimit:10;}
	.st19{opacity:0.7;fill:none;stroke:#407BFF;stroke-width:4;stroke-miterlimit:10;}
	.st20{opacity:0.3;}
	.st21{opacity:0.2;fill:#FFFFFF;}
	.st22{opacity:0.7;}
	.st23{font-family:'Montserrat-Black';}
	.st24{font-size:47.3409px;}
	.st25{opacity:0.2;enable-background:new    ;}
	.st26{opacity:0.2;fill:none;stroke:#000000;stroke-width:0.75;stroke-linecap:round;stroke-linejoin:round;stroke-miterlimit:10;}
	.st27{fill:#FDBBB5;}
	.st28{fill:none;stroke:#407BFF;stroke-width:0.5;stroke-linecap:round;stroke-linejoin:round;stroke-miterlimit:10;}
	.st29{fill:#FFB45E;}
	.st30{fill:#FFB463;}
	.st31{fill:#FF7800;}
	.st32{opacity:0.2;fill:none;stroke:#000000;stroke-width:0.25;stroke-linecap:round;stroke-linejoin:round;stroke-miterlimit:10;}
</style>
<g id="Background_complete">
	<g>
		<g>
			<g>
				<path class="st0" d="M245.6,452.5c0.9,2.9,2.3,5.6,4.1,8c0.3,0.4,0.9,0,0.6-0.4c-1.8-2.4-3.1-5-4.1-7.8
					C246.1,451.9,245.4,452.1,245.6,452.5L245.6,452.5z"/>
			</g>
		</g>
		<g>
			<g>
				<path class="st0" d="M251.9,460.3c-0.3-3-0.6-6.1-0.9-9.1c0-0.5-0.8-0.5-0.8,0c0.3,3,0.6,6.1,0.9,9.1
					C251.2,460.7,252,460.7,251.9,460.3L251.9,460.3z"/>
			</g>
		</g>
		<g>
			<g>
				<path class="st0" d="M253.8,460.4c0.5-3.1,1.2-6.1,1.7-9.1c0.1-0.5-0.6-0.7-0.7-0.2c-0.5,3.1-1.2,6.1-1.7,9.1
					C253,460.7,253.7,460.9,253.8,460.4L253.8,460.4z"/>
			</g>
		</g>
	</g>
	<g>
		<g>
			<g>
				<path class="st0" d="M418.9,441.3c0.9,2.9,2.3,5.6,4.1,8c0.3,0.4,0.9,0,0.6-0.4c-1.8-2.4-3.1-5-4.1-7.8
					C419.5,440.6,418.8,440.8,418.9,441.3L418.9,441.3z"/>
			</g>
		</g>
		<g>
			<g>
				<path class="st0" d="M425.3,449c-0.3-3-0.6-6.1-0.9-9.1c0-0.5-0.8-0.5-0.8,0c0.3,3,0.6,6.1,0.9,9.1
					C424.5,449.5,425.3,449.5,425.3,449L425.3,449z"/>
			</g>
		</g>
		<g>
			<g>
				<path class="st0" d="M427.1,449.1c0.5-3.1,1.2-6.1,1.7-9.1c0.1-0.5-0.6-0.7-0.7-0.2c-0.5,3.1-1.2,6.1-1.7,9.1
					C426.3,449.4,427.1,449.6,427.1,449.1L427.1,449.1z"/>
			</g>
		</g>
	</g>
	<g>
		<g>
			<g>
				<path class="st0" d="M116.7,457.1c0.9,2.9,2.3,5.6,4.1,8c0.3,0.4,0.9,0,0.6-0.4c-1.8-2.4-3.1-5-4.1-7.8
					C117.3,456.4,116.6,456.6,116.7,457.1L116.7,457.1z"/>
			</g>
		</g>
		<g>
			<g>
				<path class="st0" d="M123.1,464.8c-0.3-3-0.6-6.1-0.9-9.1c0-0.5-0.8-0.5-0.8,0c0.3,3,0.6,6.1,0.9,9.1
					C122.4,465.3,123.1,465.3,123.1,464.8L123.1,464.8z"/>
			</g>
		</g>
		<g>
			<g>
				<path class="st0" d="M124.9,465c0.5-3.1,1.2-6.1,1.7-9.1c0.1-0.5-0.6-0.7-0.7-0.2c-0.5,3.1-1.2,6.1-1.7,9.1
					C124.1,465.2,124.9,465.4,124.9,465L124.9,465z"/>
			</g>
		</g>
	</g>
	<g>
		<g>
			<g>
				<path class="st0" d="M467.1,384.3c0.9,2.9,2.3,5.6,4.1,8c0.3,0.4,0.9,0,0.6-0.4c-1.8-2.4-3.1-5-4.1-7.8
					C467.6,383.7,466.9,383.9,467.1,384.3L467.1,384.3z"/>
			</g>
		</g>
		<g>
			<g>
				<path class="st0" d="M473.4,392.1c-0.3-3-0.6-6.1-0.9-9.1c0-0.5-0.8-0.5-0.8,0c0.3,3,0.6,6.1,0.9,9.1
					C472.7,392.5,473.5,392.5,473.4,392.1L473.4,392.1z"/>
			</g>
		</g>
		<g>
			<g>
				<path class="st0" d="M475.3,392.2c0.5-3.1,1.2-6.1,1.7-9.1c0.1-0.5-0.6-0.7-0.7-0.2c-0.5,3.1-1.2,6.1-1.7,9.1
					C474.5,392.5,475.2,392.7,475.3,392.2L475.3,392.2z"/>
			</g>
		</g>
	</g>
	<g>
		<g>
			<g>
				<path class="st0" d="M58.4,443.3c0.9,2.9,2.3,5.6,4.1,8c0.3,0.4,0.9,0,0.6-0.4c-1.8-2.4-3.1-5-4.1-7.8
					C59,442.6,58.3,442.8,58.4,443.3L58.4,443.3z"/>
			</g>
		</g>
		<g>
			<g>
				<path class="st0" d="M64.8,451c-0.3-3-0.6-6.1-0.9-9.1c0-0.5-0.8-0.5-0.8,0c0.3,3,0.6,6.1,0.9,9.1
					C64.1,451.5,64.8,451.5,64.8,451L64.8,451z"/>
			</g>
		</g>
		<g>
			<g>
				<path class="st0" d="M66.6,451.2c0.5-3.1,1.2-6.1,1.7-9.1c0.1-0.5-0.6-0.7-0.7-0.2c-0.5,3.1-1.2,6.1-1.7,9.1
					C65.8,451.4,66.6,451.6,66.6,451.2L66.6,451.2z"/>
			</g>
		</g>
	</g>
	<g>
		<g>
			<g>
				<path class="st0" d="M274.6,420.8c0.9,2.9,2.3,5.6,4.1,8c0.3,0.4,0.9,0,0.6-0.4c-1.8-2.4-3.1-5-4.1-7.8
					C275.2,420.2,274.4,420.4,274.6,420.8L274.6,420.8z"/>
			</g>
		</g>
		<g>
			<g>
				<path class="st0" d="M280.9,428.6c-0.3-3-0.6-6.1-0.9-9.1c0-0.5-0.8-0.5-0.8,0c0.3,3,0.6,6.1,0.9,9.1
					C280.2,429.1,281,429.1,280.9,428.6L280.9,428.6z"/>
			</g>
		</g>
		<g>
			<g>
				<path class="st0" d="M282.8,428.7c0.5-3.1,1.2-6.1,1.7-9.1c0.1-0.5-0.6-0.7-0.7-0.2c-0.5,3.1-1.2,6.1-1.7,9.1
					C282,429,282.7,429.2,282.8,428.7L282.8,428.7z"/>
			</g>
		</g>
	</g>
	<g>
		<g>
			<g>
				<path class="st0" d="M335.2,451.3c0.9,2.9,2.3,5.6,4.1,8c0.3,0.4,0.9,0,0.6-0.4c-1.8-2.4-3.1-5-4.1-7.8
					C335.7,450.7,335,450.9,335.2,451.3L335.2,451.3z"/>
			</g>
		</g>
		<g>
			<g>
				<path class="st0" d="M341.5,459.1c-0.3-3-0.6-6.1-0.9-9.1c0-0.5-0.8-0.5-0.8,0c0.3,3,0.6,6.1,0.9,9.1
					C340.8,459.6,341.5,459.6,341.5,459.1L341.5,459.1z"/>
			</g>
		</g>
		<g>
			<g>
				<path class="st0" d="M343.4,459.2c0.5-3.1,1.2-6.1,1.7-9.1c0.1-0.5-0.6-0.7-0.7-0.2c-0.5,3.1-1.2,6.1-1.7,9.1
					C342.6,459.5,343.3,459.7,343.4,459.2L343.4,459.2z"/>
			</g>
		</g>
	</g>
	<g>
		<g>
			<g>
				<path class="st0" d="M31.2,383.8c0.9,2.9,2.3,5.6,4.1,8c0.3,0.4,0.9,0,0.6-0.4c-1.8-2.4-3.1-5-4.1-7.8
					C31.8,383.1,31.1,383.3,31.2,383.8L31.2,383.8z"/>
			</g>
		</g>
		<g>
			<g>
				<path class="st0" d="M37.6,391.5c-0.3-3-0.6-6.1-0.9-9.1c0-0.5-0.8-0.5-0.8,0c0.3,3,0.6,6.1,0.9,9.1
					C36.9,392,37.6,392,37.6,391.5L37.6,391.5z"/>
			</g>
		</g>
		<g>
			<g>
				<path class="st0" d="M39.5,391.7c0.5-3.1,1.2-6.1,1.7-9.1c0.1-0.5-0.6-0.7-0.7-0.2c-0.5,3.1-1.2,6.1-1.7,9.1
					C38.7,391.9,39.4,392.1,39.5,391.7L39.5,391.7z"/>
			</g>
		</g>
	</g>
	<g>
		<g>
			<g>
				<g>
					<path class="st0" d="M443.9,369.3H263.2c-3.2,0-5.9-3.1-5.9-6.9V54.5c0-3.8,2.6-6.9,5.9-6.9h180.7c3.2,0,5.9,3.1,5.9,6.9v307.9
						C449.8,366.2,447.2,369.3,443.9,369.3z M263.2,48c-3.1,0-5.6,2.9-5.6,6.6v307.9c0,3.6,2.5,6.6,5.6,6.6h180.7
						c3.1,0,5.6-2.9,5.6-6.6V54.5c0-3.6-2.5-6.6-5.6-6.6H263.2z"/>
				</g>
			</g>
			<g>
				<g>
					<path class="st0" d="M235.5,369.3H54.7c-3.2,0-5.9-3.1-5.9-6.9V54.5c0-3.8,2.6-6.9,5.9-6.9h180.7c3.2,0,5.9,3.1,5.9,6.9v307.9
						C241.4,366.2,238.7,369.3,235.5,369.3z M54.7,48c-3.1,0-5.6,2.9-5.6,6.6v307.9c0,3.6,2.5,6.6,5.6,6.6h180.7
						c3.1,0,5.6-2.9,5.6-6.6V54.5c0-3.6-2.5-6.6-5.6-6.6H54.7z"/>
				</g>
			</g>
		</g>
		<g>
			<g>
				<g>
					<rect x="0" y="391.6" class="st0" width="500" height="0.2"/>
				</g>
			</g>
			<rect x="51.7" y="405.9" class="st0" width="16.1" height="0.2"/>
			<rect x="170.4" y="403.2" class="st0" width="53.5" height="0.2"/>
			<rect x="68.7" y="415.2" class="st0" width="36.2" height="0.2"/>
			<rect x="378.4" y="403" class="st0" width="43.2" height="0.2"/>
			<rect x="430.5" y="403" class="st0" width="6.3" height="0.2"/>
			<rect x="316.2" y="409.3" class="st0" width="53.9" height="0.2"/>
		</g>
	</g>
	<g>
		<g id="freepik--Bitcoin--inject-488_00000110429818970251859670000003968187076513894283_">
			<path class="st0" d="M263.2,199c5.5,11.1,18.4,15.9,28.9,10.7l3.7-1.8l-20-40.2l-3.7,1.8C261.6,174.7,257.7,187.9,263.2,199z"/>
			<path class="st1" d="M307,194.9c-3.9,11.7-16.6,18.1-28.4,14.2c-11.7-3.9-18.1-16.6-14.2-28.4c3.9-11.7,16.6-18.1,28.4-14.2
				C304.6,170.4,310.9,183.1,307,194.9z"/>
			<path class="st2" d="M269.7,195.7c4.4,8.9,15.2,12.5,24.1,8.1c8.9-4.4,12.5-15.2,8.1-24.1c-4.4-8.9-15.2-12.5-24.1-8.1
				C268.8,176.1,265.2,186.9,269.7,195.7z"/>
		</g>
		<path class="st0" d="M268.8,180.9c3.8-9.4,14.4-13.9,23.8-10.1c9.4,3.8,13.9,14.4,10.1,23.8c2.4-8.9-2.2-18.2-10.8-21.7
			c-9.4-3.8-20,0.8-23.8,10.1C268.3,182.3,268.5,181.6,268.8,180.9z"/>
	</g>
	<g>
		<g id="freepik--Bitcoin--inject-488_00000106853228951535232300000014730815871025626020_">
			<path class="st0" d="M423.7,336.4c5.5,11.1,18.4,15.9,28.9,10.7l3.7-1.8l-20-40.2l-3.7,1.8C422.2,312.1,418.2,325.3,423.7,336.4z
				"/>
			<path class="st1" d="M467.6,332.3c-3.9,11.7-16.6,18.1-28.4,14.2c-11.7-3.9-18.1-16.6-14.2-28.4c3.9-11.7,16.6-18.1,28.4-14.2
				C465.2,307.8,471.5,320.5,467.6,332.3z"/>
			<path class="st2" d="M430.2,333.2c4.4,8.9,15.2,12.5,24.1,8.1c8.9-4.4,12.5-15.2,8.1-24.1c-4.4-8.9-15.2-12.5-24.1-8.1
				C429.4,313.5,425.8,324.3,430.2,333.2z"/>
		</g>
		<path class="st0" d="M429.3,318.3c3.8-9.4,14.4-13.9,23.8-10.1c9.4,3.8,13.9,14.4,10.1,23.8c2.4-8.9-2.2-18.2-10.8-21.7
			c-9.4-3.8-20,0.8-23.8,10.1C428.8,319.7,429.1,319,429.3,318.3z"/>
	</g>
	<g>
		<g>
			<path class="st2" d="M203.7,73.1c-1.5-1.1-3.6-1.2-5.1-0.3c-2.1-4.2-7.9-6.1-12-3.9c-1.1-4.5-5.6-8-10.2-8
				c-4.7,0.1-9.1,3.7-10,8.2c-0.2,0.7-0.3,1.5-0.8,2c-0.8,0.9-2.3,0.6-3.5,0.5c-3.8-0.3-7.6,2.4-8.6,6l52-0.2
				C205.9,75.8,205.2,74.2,203.7,73.1z"/>
		</g>
	</g>
	<g>
		<g>
			<path class="st0" d="M458,103.2c-2-1.5-5-1.7-7.3-0.4c-2.9-5.9-11.1-8.6-17-5.4c-1.5-6.4-7.8-11.3-14.4-11.2
				c-6.6,0.1-12.8,5.2-14.1,11.6c-0.2,1-0.4,2.1-1.1,2.9c-1.2,1.2-3.2,0.8-4.9,0.7c-5.3-0.4-10.7,3.3-12.1,8.5l73.4-0.3
				C461.1,107,460,104.8,458,103.2z"/>
		</g>
	</g>
	<g>
		<g>
			<path class="st2" d="M362.5,68.2c-1.5-1.1-3.6-1.2-5.1-0.3c-2.1-4.2-7.9-6.1-12-3.9c-1.1-4.5-5.6-8-10.2-8
				c-4.7,0.1-9.1,3.7-10,8.2c-0.2,0.7-0.3,1.5-0.8,2.1c-0.8,0.9-2.3,0.6-3.5,0.5c-3.8-0.3-7.6,2.4-8.6,6l52-0.2
				C364.8,70.9,364,69.3,362.5,68.2z"/>
		</g>
	</g>
	<g>
		<g>
			<path class="st2" d="M84.8,262.4c-1.5-1.1-3.6-1.2-5.1-0.3c-2.1-4.2-7.9-6.1-12-3.9c-1.1-4.5-5.6-8-10.2-8
				c-4.7,0.1-9.1,3.7-10,8.2c-0.2,0.7-0.3,1.5-0.8,2.1c-0.8,0.9-2.3,0.6-3.5,0.5c-3.8-0.3-7.6,2.4-8.6,6l52-0.2
				C87,265.1,86.2,263.5,84.8,262.4z"/>
		</g>
	</g>
</g>
<g id="Background_simple" class="st3">
	<g class="st4">
		<path class="st5" d="M182.3,30.3c-21.6,2.8-42.4,8.9-60.8,18.4c-21.7,11.2-43.9,28.7-37.4,51.5c12.1,42.1,70.2,42.9,58.6,71.3
			c-13.1,32.1-4.3,69.8,54.6,80.2c112,19.9,247.4-96.5,209.3-160.4C383,51.5,296.8,15.2,182.3,30.3z"/>
		<path class="st6" d="M182.3,30.3c-21.6,2.8-42.4,8.9-60.8,18.4c-21.7,11.2-43.9,28.7-37.4,51.5c12.1,42.1,70.2,42.9,58.6,71.3
			c-13.1,32.1-4.3,69.8,54.6,80.2c112,19.9,247.4-96.5,209.3-160.4C383,51.5,296.8,15.2,182.3,30.3z"/>
	</g>
</g>
<g id="Shadow">
	<g>
		<g>
			<path class="st7" d="M464.9,427.7c0,3.3-35.2,6-78.5,6s-78.5-2.7-78.5-6c0-3.3,35.2-6,78.5-6S464.9,424.3,464.9,427.7z"/>
		</g>
	</g>
</g>
<g id="Plant">
	<g>
		<g>
			<g>
				<path class="st8" d="M184.9,444.1c0-6.8,1.3-13.5,3.7-19.9c0.2-0.5-0.6-0.6-0.7-0.2c-2.4,6.4-3.7,13.3-3.7,20.1
					C184.1,444.6,184.9,444.6,184.9,444.1L184.9,444.1z"/>
			</g>
		</g>
		<g>
			<g>
				<path class="st8" d="M189.5,443.9c1.3-3.3,2.8-6.4,4.7-9.4c0.3-0.4-0.4-0.8-0.6-0.4c-1.9,3-3.5,6.2-4.7,9.6
					C188.6,444.2,189.3,444.4,189.5,443.9L189.5,443.9z"/>
			</g>
		</g>
		<g>
			<g>
				<path class="st5" d="M197.4,418.7c-0.6-1.8-3.1-2.2-4.8-1.3c-1.7,0.9-2.7,2.6-3.6,4.2c0.1-1.6,0.1-3.2-0.3-4.7
					c-0.4-1.5-1.2-3-2.6-3.7c-1.4-0.7-3.3-0.5-4.3,0.7c-0.9,1.2-0.7,2.9-0.1,4.3c1,2.2,2.9,4,5.2,4.8c-1.7-0.4-3.6-0.3-5.4,0.1
					c-1.8,0.4-3.4,2-3.2,3.8c0.2,2.1,2.9,3.3,5,2.8c2.1-0.6,3.6-2.3,4.9-4.1c0.2,1.6,0.4,3.2,1.3,4.5c0.9,1.3,2.6,2.2,4,1.5
					c1.6-0.7,1.9-2.9,1.2-4.5c-0.7-1.6-2.2-2.6-3.6-3.6c1.5-0.1,3.1-0.1,4.5-0.9C196.9,421.8,197.9,420.1,197.4,418.7z"/>
			</g>
			<circle class="st9" cx="188.5" cy="423.5" r="1.3"/>
		</g>
		<g>
			<g>
				<path class="st8" d="M172.7,432c1.7,3.4,2.8,7.1,3.3,10.8c0.1,0.5,0.8,0.5,0.8,0c-0.5-3.9-1.7-7.7-3.4-11.2
					C173.2,431.2,172.5,431.6,172.7,432L172.7,432z"/>
			</g>
		</g>
		<g>
			<g>
				<path class="st5" d="M176.5,423.9c-1.1-0.9-3-0.2-3.7,1c-0.8,1.2-0.8,2.8-0.7,4.3c-0.6-1.1-1.2-2.2-2-3.1
					c-0.9-0.9-2-1.5-3.3-1.5c-1.2,0.1-2.4,1-2.6,2.2c-0.1,1.2,0.7,2.2,1.6,2.9c1.5,1.1,3.6,1.6,5.4,1.2c-1.4,0.4-2.6,1.3-3.6,2.2
					c-1,1-1.5,2.7-0.7,3.8c1,1.4,3.3,1.1,4.4-0.1c1.2-1.2,1.5-3,1.7-4.7c0.7,1,1.5,2,2.6,2.5c1.1,0.5,2.6,0.4,3.3-0.6
					c0.8-1.1,0.1-2.8-1-3.5c-1.1-0.8-2.5-0.9-3.9-1c1-0.6,2.1-1.3,2.7-2.4C177.5,426.1,177.5,424.6,176.5,423.9z"/>
			</g>
			<path class="st9" d="M173.4,430.2c0.3,0.5,0.1,1.1-0.4,1.4c-0.5,0.3-1.1,0.1-1.4-0.4c-0.3-0.5-0.1-1.1,0.4-1.4
				C172.5,429.5,173.1,429.7,173.4,430.2z"/>
			<g class="st10">
				<path class="st9" d="M176.5,423.9c-1.1-0.9-3-0.2-3.7,1c-0.8,1.2-0.8,2.8-0.7,4.3c-0.6-1.1-1.2-2.2-2-3.1
					c-0.9-0.9-2-1.5-3.3-1.5c-1.2,0.1-2.4,1-2.6,2.2c-0.1,1.2,0.7,2.2,1.6,2.9c1.5,1.1,3.6,1.6,5.4,1.2c-1.4,0.4-2.6,1.3-3.6,2.2
					c-1,1-1.5,2.7-0.7,3.8c1,1.4,3.3,1.1,4.4-0.1c1.2-1.2,1.5-3,1.7-4.7c0.7,1,1.5,2,2.6,2.5c1.1,0.5,2.6,0.4,3.3-0.6
					c0.8-1.1,0.1-2.8-1-3.5c-1.1-0.8-2.5-0.9-3.9-1c1-0.6,2.1-1.3,2.7-2.4C177.5,426.1,177.5,424.6,176.5,423.9z"/>
			</g>
		</g>
	</g>
</g>
<g id="Banknotes">
	<path class="st5" d="M158.6,237.9l-6.6-3.7c0,0-2.4-48.6-4-61.2c-1.6-12.6-10.5-57.7-10.5-57.7l6.2-3.6L158.6,237.9z"/>
	<path class="st11" d="M158.6,237.9l-6.6-3.7c0,0-2.4-48.6-4-61.2c-1.6-12.6-10.5-57.7-10.5-57.7l6.2-3.6L158.6,237.9z"/>
	
		<rect x="151" y="107.6" transform="matrix(0.9931 -0.1172 0.1172 0.9931 -18.8132 22.4749)" class="st5" width="61.4" height="127.1"/>
	<path class="st12" d="M214.9,219.9l-12.3-104.1c-3.9,0.5-7.4-2.3-7.9-6.2c0,0,0,0,0,0l-40,4.7c0.5,3.9-2.3,7.4-6.2,7.9c0,0,0,0,0,0
		l12.3,104.2c3.9-0.5,7.4,2.3,7.9,6.2c0,0,0,0,0,0l40-4.7C208.2,223.9,211,220.4,214.9,219.9C214.9,219.9,214.9,219.9,214.9,219.9z
		 M156.8,136c-0.9,0.1-1.7-0.5-1.8-1.4l-0.8-7c-0.1-0.9,0.5-1.7,1.4-1.8l0,0c0.9-0.1,1.7,0.5,1.8,1.4l0.8,7
		C158.3,135.1,157.7,135.9,156.8,136z M183.6,190.3c-10.7,1.3-20.4-6.4-21.6-17.1c-1.3-10.7,6.4-20.4,17.1-21.6
		c10.7-1.3,20.4,6.4,21.6,17.1c0,0,0,0,0,0C202,179.4,194.3,189.1,183.6,190.3C183.6,190.3,183.6,190.3,183.6,190.3z M207.9,216.4
		c-0.9,0.1-1.7-0.5-1.8-1.4l-0.8-7.1c-0.1-0.9,0.5-1.7,1.3-1.9c0.9-0.1,1.7,0.5,1.9,1.3c0,0,0,0.1,0,0.1l0.8,7
		C209.4,215.4,208.8,216.2,207.9,216.4C207.9,216.4,207.9,216.4,207.9,216.4L207.9,216.4z"/>
	<path class="st5" d="M154,251.1l-7.6,0.2c0,0-27.2-40.4-35-50.4c-7.8-10-38.8-44-38.8-44l3.4-6.3L154,251.1z"/>
	<path class="st11" d="M154,251.1l-7.6,0.2c0,0-27.2-40.4-35-50.4c-7.8-10-38.8-44-38.8-44l3.4-6.3L154,251.1z"/>
	
		<rect x="108.6" y="118.5" transform="matrix(0.7901 -0.613 0.613 0.7901 -82.3376 123.6144)" class="st5" width="61.4" height="127.1"/>
	<path class="st12" d="M192.9,206.6l-64.3-82.9c-3.1,2.4-7.5,1.8-9.9-1.3c0,0,0,0,0,0l-31.8,24.7c2.4,3.1,1.8,7.5-1.3,9.9
		c0,0,0,0,0,0l64.3,82.9c3.1-2.4,7.5-1.8,9.9,1.3c0,0,0,0,0,0l31.8-24.7C189.3,213.5,189.8,209,192.9,206.6
		C192.9,206.6,192.9,206.6,192.9,206.6z M99.8,164.7c-0.7,0.5-1.7,0.4-2.3-0.3l-4.3-5.6c-0.5-0.7-0.4-1.7,0.3-2.3l0,0
		c0.7-0.5,1.7-0.4,2.3,0.3l4.3,5.6C100.7,163.1,100.5,164.2,99.8,164.7z M150.8,197.4c-8.5,6.6-20.7,5.1-27.3-3.4
		c-6.6-8.5-5.1-20.7,3.4-27.3c8.5-6.6,20.7-5,27.3,3.5c0,0,0,0,0,0C160.9,178.6,159.4,190.8,150.8,197.4
		C150.9,197.4,150.9,197.4,150.8,197.4z M185,207.2c-0.7,0.5-1.7,0.4-2.3-0.3l-4.4-5.6c-0.6-0.7-0.5-1.7,0.2-2.3
		c0.7-0.6,1.7-0.5,2.3,0.2c0,0,0.1,0.1,0.1,0.1l4.3,5.6C185.9,205.6,185.8,206.6,185,207.2C185.1,207.2,185,207.2,185,207.2
		L185,207.2z"/>
	<path class="st5" d="M144.7,278.3l-7,2.9c0,0-40-27.8-50.9-34.3C76,240.5,34.8,220,34.8,220l0.9-7.1L144.7,278.3z"/>
	<path class="st11" d="M144.7,278.3l-7,2.9c0,0-40-27.8-50.9-34.3C76,240.5,34.8,220,34.8,220l0.9-7.1L144.7,278.3z"/>
	
		<rect x="75.3" y="155.7" transform="matrix(0.5146 -0.8574 0.8574 0.5146 -136.5233 197.3357)" class="st5" width="61.4" height="127.1"/>
	<path class="st12" d="M164.9,222.8l-89.9-54c-2,3.3-6.4,4.4-9.7,2.4c0,0,0,0,0,0l-20.7,34.5c3.3,2,4.4,6.4,2.4,9.7c0,0,0,0,0,0
		l89.9,54c2-3.3,6.4-4.4,9.7-2.4c0,0,0,0,0,0l20.7-34.5C164,230.5,162.9,226.1,164.9,222.8C164.9,222.8,164.9,222.8,164.9,222.8z
		 M63,217.4c-0.5,0.8-1.5,1-2.2,0.6l-6.1-3.6c-0.8-0.5-1-1.5-0.6-2.2l0,0c0.5-0.8,1.5-1,2.2-0.6l6.1,3.6
		C63.2,215.6,63.4,216.6,63,217.4z M122.4,229.4c-5.5,9.2-17.5,12.2-26.7,6.7c-9.2-5.5-12.2-17.5-6.7-26.7
		c5.5-9.2,17.5-12.2,26.7-6.7c0,0,0,0,0,0C124.9,208.2,127.9,220.2,122.4,229.4C122.4,229.4,122.4,229.4,122.4,229.4z M157.8,226.2
		c-0.5,0.8-1.5,1-2.2,0.6l-6.1-3.6c-0.8-0.4-1.1-1.4-0.6-2.2c0.4-0.8,1.4-1.1,2.2-0.6c0,0,0.1,0,0.1,0.1l6.1,3.6
		C158,224.4,158.2,225.4,157.8,226.2C157.8,226.2,157.8,226.2,157.8,226.2L157.8,226.2z"/>
	<path class="st12" d="M145.6,183c0.1,0.2,0.4,0.2,0.6,0.1l1.1-0.8c0.2-0.1,0.2-0.4,0.1-0.6l-5.6-8.5c-0.1-0.2-0.4-0.2-0.6-0.1
		L140,174c-0.2,0.1-0.2,0.4-0.1,0.6l1.6,2.4c0.5,0.8,0.6,1.6,0.4,2.3l-2.7-4.2c-0.1-0.2-0.4-0.2-0.6-0.1l-1.1,0.8
		c-0.2,0.1-0.2,0.4-0.1,0.6l3,4.6c-1.2,0.5-2.3,0.2-3.1-1l-1.6-2.4c-0.1-0.2-0.4-0.2-0.6-0.1l-1.5,1c-0.1,0.1-0.2,0.2-0.2,0.3
		l-1.3,7.6c0,0.1,0,0.2,0.1,0.3l1.5,2.4c0.2,0.3,0.7,0.2,0.8-0.2l1.2-6.9c1.5,2.2,4,2.8,6.3,1.6l1,1.5c0.1,0.2,0.4,0.2,0.6,0.1
		l1.1-0.8c0.2-0.1,0.2-0.4,0.1-0.6l-1.1-1.7c0.3-0.3,0.5-0.7,0.7-1L145.6,183z"/>
	<path class="st12" d="M187.6,172c0.1,0.2,0.4,0.2,0.6,0.1l1.1-0.8c0.2-0.1,0.2-0.4,0.1-0.6l-5.6-8.5c-0.1-0.2-0.4-0.2-0.6-0.1
		L182,163c-0.2,0.1-0.2,0.4-0.1,0.6l1.6,2.4c0.5,0.8,0.6,1.6,0.4,2.3l-2.7-4.2c-0.1-0.2-0.4-0.2-0.6-0.1l-1.1,0.8
		c-0.2,0.1-0.2,0.4-0.1,0.6l3,4.6c-1.2,0.5-2.3,0.2-3.1-1l-1.6-2.4c-0.1-0.2-0.4-0.2-0.6-0.1l-1.5,1c-0.1,0.1-0.2,0.2-0.2,0.3
		l-1.3,7.6c0,0.1,0,0.2,0.1,0.3l1.5,2.4c0.2,0.3,0.7,0.2,0.8-0.2l1.2-6.9c1.5,2.2,4,2.8,6.3,1.6l1,1.5c0.1,0.2,0.4,0.2,0.6,0.1
		l1.1-0.8c0.2-0.1,0.2-0.4,0.1-0.6l-1.1-1.7c0.3-0.3,0.5-0.7,0.7-1L187.6,172z"/>
	<path class="st12" d="M113.4,217.6c0.2,0.1,0.4,0.1,0.6-0.1l0.7-1.2c0.1-0.2,0.1-0.4-0.1-0.6l-8.7-5.3c-0.2-0.1-0.4-0.1-0.6,0.1
		l-0.8,1.3c-0.1,0.2-0.1,0.4,0.1,0.6l2.5,1.5c0.8,0.5,1.2,1.2,1.3,1.9l-4.3-2.6c-0.2-0.1-0.4-0.1-0.6,0.1l-0.7,1.2
		c-0.1,0.2-0.1,0.4,0.1,0.6l4.7,2.8c-0.8,0.9-2,1.1-3.2,0.4l-2.5-1.5c-0.2-0.1-0.4-0.1-0.6,0.1l-0.9,1.6c-0.1,0.1-0.1,0.2,0,0.3
		l2.1,7.4c0,0.1,0.1,0.2,0.2,0.2l2.4,1.5c0.3,0.2,0.7-0.1,0.6-0.5l-1.9-6.8c2.3,1.3,4.8,0.8,6.3-1.3l1.5,0.9
		c0.2,0.1,0.4,0.1,0.6-0.1l0.7-1.2c0.1-0.2,0.1-0.4-0.1-0.6l-1.7-1c0.1-0.4,0.2-0.8,0.2-1.2L113.4,217.6z"/>
</g>
<g id="House">
	<g>
		<g>
			<polygon class="st5" points="386.4,396.8 112.2,396.8 112.2,298.3 384.2,298.3 			"/>
			<polygon class="st13" points="386.4,396.8 112.2,396.8 112.2,298.3 384.2,298.3 			"/>
			<polygon class="st14" points="384.4,308.4 111.7,308.4 112.2,298.3 384.2,298.3 			"/>
		</g>
		<polygon class="st5" points="89.5,293.4 117.8,260.8 386.5,262.1 410.5,293.4 410.5,298.3 89.5,298.3 		"/>
		<polygon class="st14" points="89.5,293.4 117.8,260.8 386.5,262.1 410.5,293.4 410.5,298.3 89.5,298.3 		"/>
		<polygon class="st5" points="142.4,207.4 117.2,261.7 381.4,263.3 355.3,208.2 		"/>
		<polygon class="st14" points="142.4,207.4 117.2,261.7 381.4,263.3 355.3,208.2 		"/>
		<polygon class="st14" points="293.5,208.1 323.8,208.3 354.1,263.3 		"/>
		<g>
			<polyline class="st5" points="141.7,262.1 247,161.9 353.7,262.1 			"/>
			<polyline class="st13" points="141.7,262.1 247,161.9 353.7,262.1 			"/>
		</g>
		<g>
			<rect x="135.4" y="320.5" class="st5" width="64.7" height="42.9"/>
			<rect x="136.6" y="321.7" class="st5" width="62.2" height="39.9"/>
			<rect x="136.6" y="321.7" class="st6" width="62.2" height="39.9"/>
			<path class="st6" d="M159.1,321.7c0,0,2.9,1.3,1,6.1c-1.9,4.8-21.2,7.4-23.5,13.5c0,0,0,14.4,0,13.9c0-0.5,4.6-11.1,13.6-15.6
				c9-4.4,14.2-3,19-7.9c4.8-4.9,5.8-10.1,5.8-10.1H159.1z"/>
			<path class="st6" d="M154.4,361.2c0,0,3.7-9.9,12.1-13.3c8.4-3.4,12.7-3.8,17.1-8.8c4.4-5,11.9-17.5,11.9-17.5h3.3v13.1
				c0,0-4.1,5.6-10.8,9.2c-6.7,3.6-12.6,3.2-15.8,6.3c-3.2,3.1-5.9,11-5.9,11H154.4z"/>
			<rect x="133" y="361.2" class="st5" width="68.6" height="3.2"/>
			<rect x="152.6" y="321.2" class="st5" width="1.8" height="40"/>
			
				<rect x="166.8" y="304.9" transform="matrix(6.123234e-17 -1 1 6.123234e-17 -168.6757 504.0544)" class="st5" width="1.8" height="62.9"/>
			<rect x="180.1" y="321.2" class="st5" width="1.8" height="40"/>
		</g>
		<g>
			<rect x="296.9" y="320" class="st5" width="64.7" height="42.9"/>
			<rect x="298.1" y="321.1" class="st5" width="62.2" height="39.9"/>
			<rect x="298.1" y="321.1" class="st6" width="62.2" height="39.9"/>
			<path class="st6" d="M320.6,321.1c0,0,2.9,1.3,1,6.1c-1.9,4.8-21.2,7.4-23.5,13.5c0,0,0,14.4,0,13.9c0-0.5,4.6-11.1,13.6-15.6
				c9-4.4,14.2-3,19-7.9c4.8-4.9,5.8-10.1,5.8-10.1H320.6z"/>
			<path class="st6" d="M315.9,360.7c0,0,3.7-9.9,12.1-13.3c8.4-3.4,12.7-3.8,17.1-8.8c4.4-5,11.9-17.5,11.9-17.5h3.3v13.1
				c0,0-4.1,5.6-10.8,9.2c-6.7,3.6-12.6,3.2-15.8,6.3c-3.2,3.1-5.9,11-5.9,11H315.9z"/>
			<rect x="294.5" y="360.7" class="st5" width="68.6" height="3.2"/>
			<rect x="314.2" y="320.7" class="st5" width="1.8" height="40"/>
			
				<rect x="328.4" y="304.4" transform="matrix(6.123234e-17 -1 1 6.123234e-17 -6.6095 665.0986)" class="st5" width="1.8" height="62.9"/>
			<rect x="341.7" y="320.7" class="st5" width="1.8" height="40"/>
		</g>
		<g>
			<rect x="228.1" y="318.8" class="st15" width="40.8" height="78.2"/>
			<rect x="233.5" y="324.6" class="st16" width="30" height="68.3"/>
			<rect x="240.3" y="330.8" class="st15" width="16.5" height="55.9"/>
			<polygon class="st14" points="230.5,397 230.5,321.2 268.9,321.2 268.9,318.8 228.1,318.8 228.1,397 			"/>
		</g>
		<g>
			<rect x="214" y="298.3" class="st5" width="9.8" height="2.2"/>
			<rect x="214" y="392.9" class="st5" width="9.8" height="4.2"/>
			<rect x="215.7" y="300.6" class="st5" width="6.4" height="92.3"/>
		</g>
		<g class="st17">
			<rect x="214" y="298.3" class="st9" width="9.8" height="2.2"/>
			<rect x="214" y="392.9" class="st9" width="9.8" height="4.2"/>
			<rect x="215.7" y="300.6" class="st9" width="6.4" height="92.3"/>
		</g>
		<g>
			<g>
				<rect x="274.6" y="298.3" class="st5" width="9.8" height="2.2"/>
				<rect x="274.6" y="392.9" class="st5" width="9.8" height="4.2"/>
				<rect x="276.3" y="300.6" class="st5" width="6.4" height="92.3"/>
			</g>
			<g class="st17">
				<rect x="274.6" y="298.3" class="st9" width="9.8" height="2.2"/>
				<rect x="274.6" y="392.9" class="st9" width="9.8" height="4.2"/>
				<rect x="276.3" y="300.6" class="st9" width="6.4" height="92.3"/>
			</g>
		</g>
		<rect x="326.6" y="188.2" class="st5" width="23.6" height="19.8"/>
		<rect x="323.3" y="186.6" class="st5" width="29.6" height="7.3"/>
		<path class="st9" d="M232.6,361.9c0,0.9-0.7,1.5-1.5,1.5c-0.9,0-1.5-0.7-1.5-1.5s0.7-1.5,1.5-1.5
			C231.9,360.4,232.6,361,232.6,361.9z"/>
		<g>
			<g>
				<rect x="207.4" y="215.5" class="st5" width="22.9" height="35.4"/>
				<rect x="209" y="217" class="st5" width="19.8" height="32"/>
				<rect x="209" y="217" class="st6" width="19.8" height="32"/>
				<path class="st6" d="M223.9,217c0,0,1.6,0.8,0.4,4.2C223,224.7,209,237,209,237v11.4c0,0,8.1-14.7,13.7-20.2
					c5.6-5.5,6.1-6.5,6.1-6.5V217H223.9z"/>
				<rect x="208.5" y="231.3" class="st5" width="20.2" height="1.7"/>
			</g>
			<polygon class="st14" points="210.4,249 210.4,218.4 228.7,218.4 228.7,217 209,217 209,249 			"/>
		</g>
		<g>
			<g>
				<rect x="255.2" y="215.5" class="st5" width="22.9" height="35.4"/>
				<rect x="256.8" y="217" class="st5" width="19.8" height="32"/>
				<rect x="256.8" y="217" class="st6" width="19.8" height="32"/>
				<path class="st6" d="M271.7,217c0,0,1.6,0.8,0.4,4.2c-1.2,3.4-15.3,15.7-15.3,15.7v11.4c0,0,8.1-14.7,13.7-20.2
					c5.6-5.5,6.1-6.5,6.1-6.5V217H271.7z"/>
				<rect x="256.3" y="231.3" class="st5" width="20.2" height="1.7"/>
			</g>
			<polygon class="st14" points="258.2,249 258.2,218.4 276.6,218.4 276.6,217 256.8,217 256.8,249 			"/>
		</g>
		<polygon class="st14" points="138.8,361.4 138.8,323.4 198.8,323.4 198.8,321.7 136.6,321.7 136.6,361.5 		"/>
		<polygon class="st14" points="300.4,360.7 300.4,322.9 360.4,322.9 360.4,321.1 298.1,321.1 298.1,360.7 		"/>
		<g>
			<polyline class="st18" points="141.7,262.1 247,161.9 353.7,262.1 			"/>
			<polyline class="st19" points="141.7,262.1 247,161.9 353.7,262.1 			"/>
		</g>
		<rect x="326.6" y="205.2" class="st14" width="23.6" height="2.1"/>
		<rect x="89.5" y="293.4" class="st14" width="321.1" height="4.9"/>
		<g>
			<g>
				<path class="st8" d="M353.9,261.6c-16.7,0-33.4,0-50.1,0c-12.4,0-24.9,0-37.3,0c-11,0-22,0-33,0c-12.1,0-24.2,0-36.3,0
					c-16,0-32.1,0-48.1,0c-2.4,0-4.7,0-7.1,0c0.2,0.2,0.5,0.5,0.8,0.8c0-0.7,0-1.3,0-2c0-0.1,0-0.3,0-0.4c-0.2-0.7,0.5,0.7-0.2,0.3
					c0,0,0,0,0,0c0,0,0.3-0.3,0.3-0.3c0.6-0.5,1.1-1.1,1.7-1.6c2.4-2.2,4.7-4.5,7.1-6.7c8.3-7.9,16.6-15.8,24.9-23.7
					c10.3-9.8,20.6-19.6,30.9-29.3c9-8.5,18-17.1,27-25.6c3-2.8,5.9-5.6,8.9-8.4c1.4-1.3,2.9-2.6,4.3-4.1c0.1-0.1,0.1-0.1,0.2-0.2
					c0.7-0.7-0.4-1.7-1.1-1.1c-3.6,3.5-7.3,6.9-10.9,10.4c-8.7,8.3-17.4,16.5-26,24.8c-10.3,9.8-20.6,19.6-30.9,29.4
					c-8.7,8.3-17.4,16.6-26.2,24.9c-2.7,2.6-5.4,5.1-8.1,7.7c-1,0.9-2.3,1.8-3.1,2.9c-0.5,0.8-0.2,2.3-0.2,3.2
					c0,0.4,0.3,0.8,0.8,0.8c16.7,0,33.4,0,50.1,0c12.4,0,24.9,0,37.3,0c11,0,22,0,33,0c12.1,0,24.2,0,36.3,0c16,0,32.1,0,48.1,0
					c2.4,0,4.7,0,7.1,0C354.9,263.1,354.9,261.6,353.9,261.6L353.9,261.6z"/>
			</g>
		</g>
		<polygon class="st14" points="150.1,262.1 250.5,166.9 247,163.5 143.4,262 		"/>
		<g>
			<polygon class="st8" points="142.4,369.5 192.1,369.5 194.1,360.2 140.5,360.2 			"/>
			<g>
				<g>
					<g>
						<path class="st5" d="M191.3,360.2c-1.7-2.3-2.6-3.9-5.8-3.5c-0.5-4.1-4.5-7.1-9.3-7.8c-4.8-0.7-9.9,1.6-11.9,5.4
							c-4.4-2-10.6-0.5-13.1,3.2c-2.6-1.3-6.9,0.6-8.4,2.8C160.4,360.5,174.5,360.5,191.3,360.2"/>
					</g>
					<g>
						<path class="st5" d="M184.6,359.9c-0.2,2.3-0.4,4.5-0.6,6.8c0,0.5-0.4,1.3-1.2,1.3c-0.7,0-1.1-0.5-1.3-0.9
							c-0.5-1.3-0.8-2.6-0.7-4c0-0.4,0-0.8-0.4-1c-0.5-0.3-1.4-0.2-2.1-0.1c-1.8,0.1-3.7-0.6-4.4-1.6c-2.8,1.2-6.7,1.4-9.6,0.3
							c-1.5,0.8-3.2,1.6-5.1,1.8c-1.9,0.2-4.3-0.4-4.7-1.6c-0.4,1.1-1.3,2.1-2.4,2.9c-0.5,0.4-1.3,0.7-1.9,0.4
							c-0.3-0.2-0.3-0.4-0.4-0.7c-0.1-1-0.2-2-0.3-2.9c-1.4,0.9-4.1,0.8-5.3-0.2l2.5-1.3L184.6,359.9z"/>
					</g>
				</g>
				<path class="st5" d="M183.8,357.8c0,0,4.6-0.3,2.5-5.9C186.3,351.9,180.9,353.1,183.8,357.8z"/>
				<path class="st5" d="M182.7,352.4c0,0,2.4-2-1.6-4.1C181.2,348.2,178.9,351,182.7,352.4z"/>
				<path class="st5" d="M159.1,353c0,0,0.9-2.8-3.6-2.9C155.4,350.1,155,353.5,159.1,353z"/>
				<g>
					<path class="st20" d="M177.5,355.6c0,0,0.9-2.8-3.6-2.9C173.8,352.6,173.4,356.1,177.5,355.6z"/>
					<path class="st20" d="M178.8,355.2c0,0,1.8,0.2,1.5-2.1C180.3,353.2,178.2,353.3,178.8,355.2z"/>
					<path class="st20" d="M178.1,353.3c0,0,1.3-1.1-0.9-2.3C177.2,350.9,175.9,352.5,178.1,353.3z"/>
				</g>
				<path class="st20" d="M160.6,359.1c0,0,1.8-0.3,0.7-2.4C161.3,356.7,159.3,357.4,160.6,359.1z"/>
				<path class="st20" d="M158.6,358.9c0,0,1.4-1.9-2.1-2.9C156.5,356,155.4,358.5,158.6,358.9z"/>
				<path class="st5" d="M185.4,357.9c0,0,2.8,1.4,3.9-2.6C189.4,355.3,185.7,354.2,185.4,357.9z"/>
				<path class="st5" d="M165,355.5c0,0,1.8-3.8-4.7-4.7C160.3,350.8,159,355.6,165,355.5z"/>
				<path class="st5" d="M166.1,354c0,0,2.7-1.6-0.8-4.3C165.3,349.7,162.5,352.1,166.1,354z"/>
			</g>
		</g>
		<g>
			<polygon class="st8" points="356.7,368 307,368 305.1,358.6 358.7,358.6 			"/>
			<g>
				<g>
					<g>
						<path class="st5" d="M307.8,358.7c1.7-2.3,2.6-3.9,5.8-3.5c0.5-4.1,4.5-7.1,9.3-7.8c4.8-0.7,9.9,1.6,11.9,5.4
							c4.4-2,10.6-0.5,13.1,3.2c2.6-1.3,6.9,0.6,8.4,2.8C338.7,358.9,324.6,359,307.8,358.7"/>
					</g>
					<g>
						<path class="st5" d="M314.5,358.4c0.2,2.3,0.4,4.5,0.6,6.8c0,0.5,0.4,1.3,1.2,1.3c0.7,0,1.1-0.5,1.3-0.9
							c0.5-1.3,0.8-2.6,0.7-4c0-0.4,0-0.8,0.4-1c0.5-0.3,1.4-0.2,2.1-0.1c1.8,0.1,3.7-0.6,4.4-1.6c2.8,1.2,6.7,1.4,9.6,0.3
							c1.5,0.8,3.2,1.6,5.1,1.8c1.9,0.2,4.3-0.4,4.7-1.6c0.4,1.1,1.3,2.1,2.4,2.9c0.5,0.4,1.3,0.7,1.9,0.4c0.3-0.2,0.3-0.4,0.4-0.7
							c0.1-1,0.2-2,0.3-2.9c1.4,0.9,4.1,0.8,5.3-0.2l-2.5-1.3L314.5,358.4z"/>
					</g>
				</g>
				<path class="st5" d="M315.4,356.2c0,0-4.6-0.3-2.5-5.9C312.9,350.3,318.2,351.5,315.4,356.2z"/>
				<path class="st5" d="M316.4,350.8c0,0-2.4-2,1.6-4.1C318,346.6,320.2,349.4,316.4,350.8z"/>
				<path class="st5" d="M340,351.4c0,0-0.9-2.8,3.6-2.9C343.7,348.5,344.1,351.9,340,351.4z"/>
				<g>
					<path class="st20" d="M321.7,354c0,0-0.9-2.8,3.6-2.9C325.3,351.1,325.8,354.5,321.7,354z"/>
					<path class="st20" d="M320.3,353.7c0,0-1.8,0.2-1.5-2.1C318.8,351.6,321,351.7,320.3,353.7z"/>
					<path class="st20" d="M321.1,351.7c0,0-1.3-1.1,0.9-2.3C322,349.4,323.2,351,321.1,351.7z"/>
				</g>
				<path class="st20" d="M338.5,357.6c0,0-1.8-0.3-0.7-2.4C337.8,355.2,339.8,355.8,338.5,357.6z"/>
				<path class="st20" d="M340.5,357.3c0,0-1.4-1.9,2.1-2.9C342.6,354.4,343.7,357,340.5,357.3z"/>
				<path class="st5" d="M313.7,356.4c0,0-2.8,1.4-3.9-2.6C309.7,353.8,313.4,352.7,313.7,356.4z"/>
				<path class="st5" d="M334.2,353.9c0,0-1.8-3.8,4.7-4.7C338.8,349.3,340.1,354.1,334.2,353.9z"/>
				<path class="st5" d="M333,352.5c0,0-2.7-1.6,0.8-4.3C333.8,348.2,336.6,350.6,333,352.5z"/>
			</g>
		</g>
		<g>
			<g>
				<path class="st8" d="M323.5,194.9c9.7,0,19.3,0,29,0c1,0,1-1.5,0-1.5c-9.7,0-19.3,0-29,0C322.6,193.4,322.6,194.9,323.5,194.9
					L323.5,194.9z"/>
			</g>
		</g>
	</g>
</g>
<g id="Coins">
	<g>
		<g>
			<g>
				<g>
					<rect x="79.1" y="433.3" class="st5" width="63.3" height="11"/>
					<g>
						<g class="st20">
							<g>
								<path class="st8" d="M84.2,433.9c0,3.3,0,6.6,0,9.9c0,0.6,0.9,0.6,0.9,0c0-3.3,0-6.6,0-9.9
									C85.1,433.3,84.2,433.3,84.2,433.9L84.2,433.9z"/>
							</g>
						</g>
						<g class="st20">
							<g>
								<path class="st8" d="M89.4,433.9c0,3.3,0,6.6,0,9.9c0,0.6,0.9,0.6,0.9,0c0-3.3,0-6.6,0-9.9
									C90.4,433.3,89.4,433.3,89.4,433.9L89.4,433.9z"/>
							</g>
						</g>
						<g class="st20">
							<g>
								<path class="st8" d="M94.6,433.9c0,3.3,0,6.6,0,9.9c0,0.6,0.9,0.6,0.9,0c0-3.3,0-6.6,0-9.9
									C95.5,433.3,94.6,433.3,94.6,433.9L94.6,433.9z"/>
							</g>
						</g>
						<g class="st20">
							<g>
								<path class="st8" d="M99.7,433.9c0,3.3,0,6.6,0,9.9c0,0.6,0.9,0.6,0.9,0c0-3.3,0-6.6,0-9.9
									C100.7,433.3,99.7,433.3,99.7,433.9L99.7,433.9z"/>
							</g>
						</g>
						<g class="st20">
							<g>
								<path class="st8" d="M104.9,433.9c0,3.3,0,6.6,0,9.9c0,0.6,0.9,0.6,0.9,0c0-3.3,0-6.6,0-9.9
									C105.8,433.3,104.9,433.3,104.9,433.9L104.9,433.9z"/>
							</g>
						</g>
						<g class="st20">
							<g>
								<path class="st8" d="M110,433.9c0,3.3,0,6.6,0,9.9c0,0.6,0.9,0.6,0.9,0c0-3.3,0-6.6,0-9.9C111,433.3,110,433.3,110,433.9
									L110,433.9z"/>
							</g>
						</g>
						<g class="st20">
							<g>
								<path class="st8" d="M115.2,433.9c0,3.3,0,6.6,0,9.9c0,0.6,0.9,0.6,0.9,0c0-3.3,0-6.6,0-9.9
									C116.1,433.3,115.2,433.3,115.2,433.9L115.2,433.9z"/>
							</g>
						</g>
						<g class="st20">
							<g>
								<path class="st8" d="M120.3,433.9c0,3.3,0,6.6,0,9.9c0,0.6,0.9,0.6,0.9,0c0-3.3,0-6.6,0-9.9
									C121.3,433.3,120.3,433.3,120.3,433.9L120.3,433.9z"/>
							</g>
						</g>
						<g class="st20">
							<g>
								<path class="st8" d="M125.5,433.9c0,3.3,0,6.6,0,9.9c0,0.6,0.9,0.6,0.9,0c0-3.3,0-6.6,0-9.9
									C126.4,433.3,125.5,433.3,125.5,433.9L125.5,433.9z"/>
							</g>
						</g>
						<g class="st20">
							<g>
								<path class="st8" d="M130.6,433.9c0,3.3,0,6.6,0,9.9c0,0.6,0.9,0.6,0.9,0c0-3.3,0-6.6,0-9.9
									C131.6,433.3,130.6,433.3,130.6,433.9L130.6,433.9z"/>
							</g>
						</g>
						<g class="st20">
							<g>
								<path class="st8" d="M135.8,433.9c0,3.3,0,6.6,0,9.9c0,0.6,0.9,0.6,0.9,0c0-3.3,0-6.6,0-9.9
									C136.7,433.3,135.8,433.3,135.8,433.9L135.8,433.9z"/>
							</g>
						</g>
					</g>
					<rect x="78.2" y="454.7" class="st5" width="63.3" height="11"/>
					<rect x="83" y="444" class="st5" width="63.3" height="11"/>
					<rect x="83" y="444" class="st14" width="63.3" height="11"/>
					<g>
						<g class="st20">
							<g>
								<path class="st8" d="M88.4,444.6c0,3.3,0,6.6,0,9.9c0,0.6,0.9,0.6,0.9,0c0-3.3,0-6.6,0-9.9C89.3,444,88.4,444,88.4,444.6
									L88.4,444.6z"/>
							</g>
						</g>
						<g class="st20">
							<g>
								<path class="st8" d="M93.6,444.6c0,3.3,0,6.6,0,9.9c0,0.6,0.9,0.6,0.9,0c0-3.3,0-6.6,0-9.9C94.5,444,93.6,444,93.6,444.6
									L93.6,444.6z"/>
							</g>
						</g>
						<g class="st20">
							<g>
								<path class="st8" d="M98.8,444.6c0,3.3,0,6.6,0,9.9c0,0.6,0.9,0.6,0.9,0c0-3.3,0-6.6,0-9.9C99.7,444,98.8,444,98.8,444.6
									L98.8,444.6z"/>
							</g>
						</g>
						<g class="st20">
							<g>
								<path class="st8" d="M103.9,444.6c0,3.3,0,6.6,0,9.9c0,0.6,0.9,0.6,0.9,0c0-3.3,0-6.6,0-9.9
									C104.8,444,103.9,444,103.9,444.6L103.9,444.6z"/>
							</g>
						</g>
						<g class="st20">
							<g>
								<path class="st8" d="M109.1,444.6c0,3.3,0,6.6,0,9.9c0,0.6,0.9,0.6,0.9,0c0-3.3,0-6.6,0-9.9C110,444,109.1,444,109.1,444.6
									L109.1,444.6z"/>
							</g>
						</g>
						<g class="st20">
							<g>
								<path class="st8" d="M114.2,444.6c0,3.3,0,6.6,0,9.9c0,0.6,0.9,0.6,0.9,0c0-3.3,0-6.6,0-9.9
									C115.1,444,114.2,444,114.2,444.6L114.2,444.6z"/>
							</g>
						</g>
						<g class="st20">
							<g>
								<path class="st8" d="M119.4,444.6c0,3.3,0,6.6,0,9.9c0,0.6,0.9,0.6,0.9,0c0-3.3,0-6.6,0-9.9
									C120.3,444,119.4,444,119.4,444.6L119.4,444.6z"/>
							</g>
						</g>
						<g class="st20">
							<g>
								<path class="st8" d="M124.5,444.6c0,3.3,0,6.6,0,9.9c0,0.6,0.9,0.6,0.9,0c0-3.3,0-6.6,0-9.9
									C125.4,444,124.5,444,124.5,444.6L124.5,444.6z"/>
							</g>
						</g>
						<g class="st20">
							<g>
								<path class="st8" d="M129.7,444.6c0,3.3,0,6.6,0,9.9c0,0.6,0.9,0.6,0.9,0c0-3.3,0-6.6,0-9.9
									C130.6,444,129.7,444,129.7,444.6L129.7,444.6z"/>
							</g>
						</g>
						<g class="st20">
							<g>
								<path class="st8" d="M134.8,444.6c0,3.3,0,6.6,0,9.9c0,0.6,0.9,0.6,0.9,0c0-3.3,0-6.6,0-9.9
									C135.8,444,134.8,444,134.8,444.6L134.8,444.6z"/>
							</g>
						</g>
						<g class="st20">
							<g>
								<path class="st8" d="M140,444.6c0,3.3,0,6.6,0,9.9c0,0.6,0.9,0.6,0.9,0c0-3.3,0-6.6,0-9.9C140.9,444,140,444,140,444.6
									L140,444.6z"/>
							</g>
						</g>
					</g>
					<rect x="83" y="422.2" class="st5" width="63.3" height="11"/>
					<rect x="83" y="422.2" class="st14" width="63.3" height="11"/>
					<g>
						<g class="st20">
							<g>
								<path class="st8" d="M88.4,422.7c0,3.3,0,6.6,0,9.9c0,0.6,0.9,0.6,0.9,0c0-3.3,0-6.6,0-9.9
									C89.3,422.1,88.4,422.1,88.4,422.7L88.4,422.7z"/>
							</g>
						</g>
						<g class="st20">
							<g>
								<path class="st8" d="M93.6,422.7c0,3.3,0,6.6,0,9.9c0,0.6,0.9,0.6,0.9,0c0-3.3,0-6.6,0-9.9
									C94.5,422.1,93.6,422.1,93.6,422.7L93.6,422.7z"/>
							</g>
						</g>
						<g class="st20">
							<g>
								<path class="st8" d="M98.8,422.7c0,3.3,0,6.6,0,9.9c0,0.6,0.9,0.6,0.9,0c0-3.3,0-6.6,0-9.9
									C99.7,422.1,98.8,422.1,98.8,422.7L98.8,422.7z"/>
							</g>
						</g>
						<g class="st20">
							<g>
								<path class="st8" d="M103.9,422.7c0,3.3,0,6.6,0,9.9c0,0.6,0.9,0.6,0.9,0c0-3.3,0-6.6,0-9.9
									C104.8,422.1,103.9,422.1,103.9,422.7L103.9,422.7z"/>
							</g>
						</g>
						<g class="st20">
							<g>
								<path class="st8" d="M109.1,422.7c0,3.3,0,6.6,0,9.9c0,0.6,0.9,0.6,0.9,0c0-3.3,0-6.6,0-9.9
									C110,422.1,109.1,422.1,109.1,422.7L109.1,422.7z"/>
							</g>
						</g>
						<g class="st20">
							<g>
								<path class="st8" d="M114.2,422.7c0,3.3,0,6.6,0,9.9c0,0.6,0.9,0.6,0.9,0c0-3.3,0-6.6,0-9.9
									C115.1,422.1,114.2,422.1,114.2,422.7L114.2,422.7z"/>
							</g>
						</g>
						<g class="st20">
							<g>
								<path class="st8" d="M119.4,422.7c0,3.3,0,6.6,0,9.9c0,0.6,0.9,0.6,0.9,0c0-3.3,0-6.6,0-9.9
									C120.3,422.1,119.4,422.1,119.4,422.7L119.4,422.7z"/>
							</g>
						</g>
						<g class="st20">
							<g>
								<path class="st8" d="M124.5,422.7c0,3.3,0,6.6,0,9.9c0,0.6,0.9,0.6,0.9,0c0-3.3,0-6.6,0-9.9
									C125.4,422.1,124.5,422.1,124.5,422.7L124.5,422.7z"/>
							</g>
						</g>
						<g class="st20">
							<g>
								<path class="st8" d="M129.7,422.7c0,3.3,0,6.6,0,9.9c0,0.6,0.9,0.6,0.9,0c0-3.3,0-6.6,0-9.9
									C130.6,422.1,129.7,422.1,129.7,422.7L129.7,422.7z"/>
							</g>
						</g>
						<g class="st20">
							<g>
								<path class="st8" d="M134.8,422.7c0,3.3,0,6.6,0,9.9c0,0.6,0.9,0.6,0.9,0c0-3.3,0-6.6,0-9.9
									C135.8,422.1,134.8,422.1,134.8,422.7L134.8,422.7z"/>
							</g>
						</g>
						<g class="st20">
							<g>
								<path class="st8" d="M140,422.7c0,3.3,0,6.6,0,9.9c0,0.6,0.9,0.6,0.9,0c0-3.3,0-6.6,0-9.9C140.9,422.1,140,422.1,140,422.7
									L140,422.7z"/>
							</g>
						</g>
					</g>
					<g>
						<g class="st20">
							<g>
								<path class="st8" d="M82.7,455.5c0,3.3,0,6.6,0,9.9c0,0.6,0.9,0.6,0.9,0c0-3.3,0-6.6,0-9.9
									C83.7,454.9,82.7,454.9,82.7,455.5L82.7,455.5z"/>
							</g>
						</g>
						<g class="st20">
							<g>
								<path class="st8" d="M88,455.5c0,3.3,0,6.6,0,9.9c0,0.6,0.9,0.6,0.9,0c0-3.3,0-6.6,0-9.9C88.9,454.9,88,454.9,88,455.5
									L88,455.5z"/>
							</g>
						</g>
						<g class="st20">
							<g>
								<path class="st8" d="M93.1,455.5c0,3.3,0,6.6,0,9.9c0,0.6,0.9,0.6,0.9,0c0-3.3,0-6.6,0-9.9C94,454.9,93.1,454.9,93.1,455.5
									L93.1,455.5z"/>
							</g>
						</g>
						<g class="st20">
							<g>
								<path class="st8" d="M98.3,455.5c0,3.3,0,6.6,0,9.9c0,0.6,0.9,0.6,0.9,0c0-3.3,0-6.6,0-9.9
									C99.2,454.9,98.3,454.9,98.3,455.5L98.3,455.5z"/>
							</g>
						</g>
						<g class="st20">
							<g>
								<path class="st8" d="M103.4,455.5c0,3.3,0,6.6,0,9.9c0,0.6,0.9,0.6,0.9,0c0-3.3,0-6.6,0-9.9
									C104.3,454.9,103.4,454.9,103.4,455.5L103.4,455.5z"/>
							</g>
						</g>
						<g class="st20">
							<g>
								<path class="st8" d="M108.6,455.5c0,3.3,0,6.6,0,9.9c0,0.6,0.9,0.6,0.9,0c0-3.3,0-6.6,0-9.9
									C109.5,454.9,108.6,454.9,108.6,455.5L108.6,455.5z"/>
							</g>
						</g>
						<g class="st20">
							<g>
								<path class="st8" d="M113.7,455.5c0,3.3,0,6.6,0,9.9c0,0.6,0.9,0.6,0.9,0c0-3.3,0-6.6,0-9.9
									C114.6,454.9,113.7,454.9,113.7,455.5L113.7,455.5z"/>
							</g>
						</g>
						<g class="st20">
							<g>
								<path class="st8" d="M118.9,455.5c0,3.3,0,6.6,0,9.9c0,0.6,0.9,0.6,0.9,0c0-3.3,0-6.6,0-9.9
									C119.8,454.9,118.9,454.9,118.9,455.5L118.9,455.5z"/>
							</g>
						</g>
						<g class="st20">
							<g>
								<path class="st8" d="M124,455.5c0,3.3,0,6.6,0,9.9c0,0.6,0.9,0.6,0.9,0c0-3.3,0-6.6,0-9.9C125,454.9,124,454.9,124,455.5
									L124,455.5z"/>
							</g>
						</g>
						<g class="st20">
							<g>
								<path class="st8" d="M129.2,455.5c0,3.3,0,6.6,0,9.9c0,0.6,0.9,0.6,0.9,0c0-3.3,0-6.6,0-9.9
									C130.1,454.9,129.2,454.9,129.2,455.5L129.2,455.5z"/>
							</g>
						</g>
						<g class="st20">
							<g>
								<path class="st8" d="M134.3,455.5c0,3.3,0,6.6,0,9.9c0,0.6,0.9,0.6,0.9,0c0-3.3,0-6.6,0-9.9
									C135.3,454.9,134.3,454.9,134.3,455.5L134.3,455.5z"/>
							</g>
						</g>
					</g>
				</g>
			</g>
			<g>
				<g class="st20">
					<polygon points="142.4,433.3 79.1,433.3 79.1,444.3 83,444.3 83,454.7 78.2,454.7 78.2,465.8 141.4,465.8 141.4,455 146.3,455 
						146.3,444 142.4,444 					"/>
				</g>
				<g class="st14">
					<rect x="83" y="422.2" width="63.3" height="11"/>
				</g>
			</g>
		</g>
		<g>
			<g>
				<rect x="39.9" y="433.5" class="st5" width="63.3" height="11"/>
				<g>
					<g class="st20">
						<g>
							<path class="st8" d="M44.9,434.1c0,3.3,0,6.6,0,9.9c0,0.6,0.9,0.6,0.9,0c0-3.3,0-6.6,0-9.9C45.9,433.5,44.9,433.5,44.9,434.1
								L44.9,434.1z"/>
						</g>
					</g>
					<g class="st20">
						<g>
							<path class="st8" d="M50.2,434.1c0,3.3,0,6.6,0,9.9c0,0.6,0.9,0.6,0.9,0c0-3.3,0-6.6,0-9.9C51.1,433.5,50.2,433.5,50.2,434.1
								L50.2,434.1z"/>
						</g>
					</g>
					<g class="st20">
						<g>
							<path class="st8" d="M55.3,434.1c0,3.3,0,6.6,0,9.9c0,0.6,0.9,0.6,0.9,0c0-3.3,0-6.6,0-9.9C56.3,433.5,55.3,433.5,55.3,434.1
								L55.3,434.1z"/>
						</g>
					</g>
					<g class="st20">
						<g>
							<path class="st8" d="M60.5,434.1c0,3.3,0,6.6,0,9.9c0,0.6,0.9,0.6,0.9,0c0-3.3,0-6.6,0-9.9C61.4,433.5,60.5,433.5,60.5,434.1
								L60.5,434.1z"/>
						</g>
					</g>
					<g class="st20">
						<g>
							<path class="st8" d="M65.6,434.1c0,3.3,0,6.6,0,9.9c0,0.6,0.9,0.6,0.9,0c0-3.3,0-6.6,0-9.9C66.6,433.5,65.6,433.5,65.6,434.1
								L65.6,434.1z"/>
						</g>
					</g>
					<g class="st20">
						<g>
							<path class="st8" d="M70.8,434.1c0,3.3,0,6.6,0,9.9c0,0.6,0.9,0.6,0.9,0c0-3.3,0-6.6,0-9.9C71.7,433.5,70.8,433.5,70.8,434.1
								L70.8,434.1z"/>
						</g>
					</g>
					<g class="st20">
						<g>
							<path class="st8" d="M75.9,434.1c0,3.3,0,6.6,0,9.9c0,0.6,0.9,0.6,0.9,0c0-3.3,0-6.6,0-9.9C76.9,433.5,75.9,433.5,75.9,434.1
								L75.9,434.1z"/>
						</g>
					</g>
					<g class="st20">
						<g>
							<path class="st8" d="M81.1,434.1c0,3.3,0,6.6,0,9.9c0,0.6,0.9,0.6,0.9,0c0-3.3,0-6.6,0-9.9C82,433.5,81.1,433.5,81.1,434.1
								L81.1,434.1z"/>
						</g>
					</g>
					<g class="st20">
						<g>
							<path class="st8" d="M86.2,434.1c0,3.3,0,6.6,0,9.9c0,0.6,0.9,0.6,0.9,0c0-3.3,0-6.6,0-9.9C87.2,433.5,86.2,433.5,86.2,434.1
								L86.2,434.1z"/>
						</g>
					</g>
					<g class="st20">
						<g>
							<path class="st8" d="M91.4,434.1c0,3.3,0,6.6,0,9.9c0,0.6,0.9,0.6,0.9,0c0-3.3,0-6.6,0-9.9C92.3,433.5,91.4,433.5,91.4,434.1
								L91.4,434.1z"/>
						</g>
					</g>
					<g class="st20">
						<g>
							<path class="st8" d="M96.5,434.1c0,3.3,0,6.6,0,9.9c0,0.6,0.9,0.6,0.9,0c0-3.3,0-6.6,0-9.9C97.5,433.5,96.5,433.5,96.5,434.1
								L96.5,434.1z"/>
						</g>
					</g>
				</g>
				<rect x="38.9" y="454.9" class="st5" width="63.3" height="11"/>
				<rect x="43.8" y="444.2" class="st5" width="63.3" height="11"/>
				<rect x="43.8" y="444.2" class="st14" width="63.3" height="11"/>
				<g>
					<g class="st20">
						<g>
							<path class="st8" d="M49.1,444.7c0,3.3,0,6.6,0,9.9c0,0.6,0.9,0.6,0.9,0c0-3.3,0-6.6,0-9.9C50.1,444.2,49.1,444.2,49.1,444.7
								L49.1,444.7z"/>
						</g>
					</g>
					<g class="st20">
						<g>
							<path class="st8" d="M54.4,444.7c0,3.3,0,6.6,0,9.9c0,0.6,0.9,0.6,0.9,0c0-3.3,0-6.6,0-9.9C55.3,444.2,54.4,444.2,54.4,444.7
								L54.4,444.7z"/>
						</g>
					</g>
					<g class="st20">
						<g>
							<path class="st8" d="M59.5,444.7c0,3.3,0,6.6,0,9.9c0,0.6,0.9,0.6,0.9,0c0-3.3,0-6.6,0-9.9C60.4,444.2,59.5,444.2,59.5,444.7
								L59.5,444.7z"/>
						</g>
					</g>
					<g class="st20">
						<g>
							<path class="st8" d="M64.7,444.7c0,3.3,0,6.6,0,9.9c0,0.6,0.9,0.6,0.9,0c0-3.3,0-6.6,0-9.9C65.6,444.2,64.7,444.2,64.7,444.7
								L64.7,444.7z"/>
						</g>
					</g>
					<g class="st20">
						<g>
							<path class="st8" d="M69.8,444.7c0,3.3,0,6.6,0,9.9c0,0.6,0.9,0.6,0.9,0c0-3.3,0-6.6,0-9.9C70.7,444.2,69.8,444.2,69.8,444.7
								L69.8,444.7z"/>
						</g>
					</g>
					<g class="st20">
						<g>
							<path class="st8" d="M75,444.7c0,3.3,0,6.6,0,9.9c0,0.6,0.9,0.6,0.9,0c0-3.3,0-6.6,0-9.9C75.9,444.2,75,444.2,75,444.7
								L75,444.7z"/>
						</g>
					</g>
					<g class="st20">
						<g>
							<path class="st8" d="M80.1,444.7c0,3.3,0,6.6,0,9.9c0,0.6,0.9,0.6,0.9,0c0-3.3,0-6.6,0-9.9C81,444.2,80.1,444.2,80.1,444.7
								L80.1,444.7z"/>
						</g>
					</g>
					<g class="st20">
						<g>
							<path class="st8" d="M85.3,444.7c0,3.3,0,6.6,0,9.9c0,0.6,0.9,0.6,0.9,0c0-3.3,0-6.6,0-9.9C86.2,444.2,85.3,444.2,85.3,444.7
								L85.3,444.7z"/>
						</g>
					</g>
					<g class="st20">
						<g>
							<path class="st8" d="M90.4,444.7c0,3.3,0,6.6,0,9.9c0,0.6,0.9,0.6,0.9,0c0-3.3,0-6.6,0-9.9C91.3,444.2,90.4,444.2,90.4,444.7
								L90.4,444.7z"/>
						</g>
					</g>
					<g class="st20">
						<g>
							<path class="st8" d="M95.6,444.7c0,3.3,0,6.6,0,9.9c0,0.6,0.9,0.6,0.9,0c0-3.3,0-6.6,0-9.9C96.5,444.2,95.6,444.2,95.6,444.7
								L95.6,444.7z"/>
						</g>
					</g>
					<g class="st20">
						<g>
							<path class="st8" d="M100.7,444.7c0,3.3,0,6.6,0,9.9c0,0.6,0.9,0.6,0.9,0c0-3.3,0-6.6,0-9.9
								C101.7,444.2,100.7,444.2,100.7,444.7L100.7,444.7z"/>
						</g>
					</g>
				</g>
				<rect x="43.8" y="422.3" class="st5" width="63.3" height="11"/>
				<rect x="43.8" y="422.3" class="st14" width="63.3" height="11"/>
				<g>
					<g class="st20">
						<g>
							<path class="st8" d="M49.1,422.9c0,3.3,0,6.6,0,9.9c0,0.6,0.9,0.6,0.9,0c0-3.3,0-6.6,0-9.9C50.1,422.3,49.1,422.3,49.1,422.9
								L49.1,422.9z"/>
						</g>
					</g>
					<g class="st20">
						<g>
							<path class="st8" d="M54.4,422.9c0,3.3,0,6.6,0,9.9c0,0.6,0.9,0.6,0.9,0c0-3.3,0-6.6,0-9.9C55.3,422.3,54.4,422.3,54.4,422.9
								L54.4,422.9z"/>
						</g>
					</g>
					<g class="st20">
						<g>
							<path class="st8" d="M59.5,422.9c0,3.3,0,6.6,0,9.9c0,0.6,0.9,0.6,0.9,0c0-3.3,0-6.6,0-9.9C60.4,422.3,59.5,422.3,59.5,422.9
								L59.5,422.9z"/>
						</g>
					</g>
					<g class="st20">
						<g>
							<path class="st8" d="M64.7,422.9c0,3.3,0,6.6,0,9.9c0,0.6,0.9,0.6,0.9,0c0-3.3,0-6.6,0-9.9C65.6,422.3,64.7,422.3,64.7,422.9
								L64.7,422.9z"/>
						</g>
					</g>
					<g class="st20">
						<g>
							<path class="st8" d="M69.8,422.9c0,3.3,0,6.6,0,9.9c0,0.6,0.9,0.6,0.9,0c0-3.3,0-6.6,0-9.9C70.7,422.3,69.8,422.3,69.8,422.9
								L69.8,422.9z"/>
						</g>
					</g>
					<g class="st20">
						<g>
							<path class="st8" d="M75,422.9c0,3.3,0,6.6,0,9.9c0,0.6,0.9,0.6,0.9,0c0-3.3,0-6.6,0-9.9C75.9,422.3,75,422.3,75,422.9
								L75,422.9z"/>
						</g>
					</g>
					<g class="st20">
						<g>
							<path class="st8" d="M80.1,422.9c0,3.3,0,6.6,0,9.9c0,0.6,0.9,0.6,0.9,0c0-3.3,0-6.6,0-9.9C81,422.3,80.1,422.3,80.1,422.9
								L80.1,422.9z"/>
						</g>
					</g>
					<g class="st20">
						<g>
							<path class="st8" d="M85.3,422.9c0,3.3,0,6.6,0,9.9c0,0.6,0.9,0.6,0.9,0c0-3.3,0-6.6,0-9.9C86.2,422.3,85.3,422.3,85.3,422.9
								L85.3,422.9z"/>
						</g>
					</g>
					<g class="st20">
						<g>
							<path class="st8" d="M90.4,422.9c0,3.3,0,6.6,0,9.9c0,0.6,0.9,0.6,0.9,0c0-3.3,0-6.6,0-9.9C91.3,422.3,90.4,422.3,90.4,422.9
								L90.4,422.9z"/>
						</g>
					</g>
					<g class="st20">
						<g>
							<path class="st8" d="M95.6,422.9c0,3.3,0,6.6,0,9.9c0,0.6,0.9,0.6,0.9,0c0-3.3,0-6.6,0-9.9C96.5,422.3,95.6,422.3,95.6,422.9
								L95.6,422.9z"/>
						</g>
					</g>
					<g class="st20">
						<g>
							<path class="st8" d="M100.7,422.9c0,3.3,0,6.6,0,9.9c0,0.6,0.9,0.6,0.9,0c0-3.3,0-6.6,0-9.9
								C101.7,422.3,100.7,422.3,100.7,422.9L100.7,422.9z"/>
						</g>
					</g>
				</g>
				<g>
					<g class="st20">
						<g>
							<path class="st8" d="M43.5,455.7c0,3.3,0,6.6,0,9.9c0,0.6,0.9,0.6,0.9,0c0-3.3,0-6.6,0-9.9C44.4,455.1,43.5,455.1,43.5,455.7
								L43.5,455.7z"/>
						</g>
					</g>
					<g class="st20">
						<g>
							<path class="st8" d="M48.7,455.7c0,3.3,0,6.6,0,9.9c0,0.6,0.9,0.6,0.9,0c0-3.3,0-6.6,0-9.9C49.6,455.1,48.7,455.1,48.7,455.7
								L48.7,455.7z"/>
						</g>
					</g>
					<g class="st20">
						<g>
							<path class="st8" d="M53.9,455.7c0,3.3,0,6.6,0,9.9c0,0.6,0.9,0.6,0.9,0c0-3.3,0-6.6,0-9.9C54.8,455.1,53.9,455.1,53.9,455.7
								L53.9,455.7z"/>
						</g>
					</g>
					<g class="st20">
						<g>
							<path class="st8" d="M59,455.7c0,3.3,0,6.6,0,9.9c0,0.6,0.9,0.6,0.9,0c0-3.3,0-6.6,0-9.9C59.9,455.1,59,455.1,59,455.7
								L59,455.7z"/>
						</g>
					</g>
					<g class="st20">
						<g>
							<path class="st8" d="M64.2,455.7c0,3.3,0,6.6,0,9.9c0,0.6,0.9,0.6,0.9,0c0-3.3,0-6.6,0-9.9C65.1,455.1,64.2,455.1,64.2,455.7
								L64.2,455.7z"/>
						</g>
					</g>
					<g class="st20">
						<g>
							<path class="st8" d="M69.3,455.7c0,3.3,0,6.6,0,9.9c0,0.6,0.9,0.6,0.9,0c0-3.3,0-6.6,0-9.9C70.2,455.1,69.3,455.1,69.3,455.7
								L69.3,455.7z"/>
						</g>
					</g>
					<g class="st20">
						<g>
							<path class="st8" d="M74.5,455.7c0,3.3,0,6.6,0,9.9c0,0.6,0.9,0.6,0.9,0c0-3.3,0-6.6,0-9.9C75.4,455.1,74.5,455.1,74.5,455.7
								L74.5,455.7z"/>
						</g>
					</g>
					<g class="st20">
						<g>
							<path class="st8" d="M79.6,455.7c0,3.3,0,6.6,0,9.9c0,0.6,0.9,0.6,0.9,0c0-3.3,0-6.6,0-9.9C80.5,455.1,79.6,455.1,79.6,455.7
								L79.6,455.7z"/>
						</g>
					</g>
					<g class="st20">
						<g>
							<path class="st8" d="M84.8,455.7c0,3.3,0,6.6,0,9.9c0,0.6,0.9,0.6,0.9,0c0-3.3,0-6.6,0-9.9C85.7,455.1,84.8,455.1,84.8,455.7
								L84.8,455.7z"/>
						</g>
					</g>
					<g class="st20">
						<g>
							<path class="st8" d="M89.9,455.7c0,3.3,0,6.6,0,9.9c0,0.6,0.9,0.6,0.9,0c0-3.3,0-6.6,0-9.9C90.8,455.1,89.9,455.1,89.9,455.7
								L89.9,455.7z"/>
						</g>
					</g>
					<g class="st20">
						<g>
							<path class="st8" d="M95.1,455.7c0,3.3,0,6.6,0,9.9c0,0.6,0.9,0.6,0.9,0c0-3.3,0-6.6,0-9.9C96,455.1,95.1,455.1,95.1,455.7
								L95.1,455.7z"/>
						</g>
					</g>
				</g>
			</g>
			<g>
				<rect x="39.9" y="390.3" class="st5" width="63.3" height="11"/>
				<g>
					<g class="st20">
						<g>
							<path class="st8" d="M44.9,390.9c0,3.3,0,6.6,0,9.9c0,0.6,0.9,0.6,0.9,0c0-3.3,0-6.6,0-9.9C45.9,390.3,44.9,390.3,44.9,390.9
								L44.9,390.9z"/>
						</g>
					</g>
					<g class="st20">
						<g>
							<path class="st8" d="M50.2,390.9c0,3.3,0,6.6,0,9.9c0,0.6,0.9,0.6,0.9,0c0-3.3,0-6.6,0-9.9C51.1,390.3,50.2,390.3,50.2,390.9
								L50.2,390.9z"/>
						</g>
					</g>
					<g class="st20">
						<g>
							<path class="st8" d="M55.3,390.9c0,3.3,0,6.6,0,9.9c0,0.6,0.9,0.6,0.9,0c0-3.3,0-6.6,0-9.9C56.3,390.3,55.3,390.3,55.3,390.9
								L55.3,390.9z"/>
						</g>
					</g>
					<g class="st20">
						<g>
							<path class="st8" d="M60.5,390.9c0,3.3,0,6.6,0,9.9c0,0.6,0.9,0.6,0.9,0c0-3.3,0-6.6,0-9.9C61.4,390.3,60.5,390.3,60.5,390.9
								L60.5,390.9z"/>
						</g>
					</g>
					<g class="st20">
						<g>
							<path class="st8" d="M65.6,390.9c0,3.3,0,6.6,0,9.9c0,0.6,0.9,0.6,0.9,0c0-3.3,0-6.6,0-9.9C66.6,390.3,65.6,390.3,65.6,390.9
								L65.6,390.9z"/>
						</g>
					</g>
					<g class="st20">
						<g>
							<path class="st8" d="M70.8,390.9c0,3.3,0,6.6,0,9.9c0,0.6,0.9,0.6,0.9,0c0-3.3,0-6.6,0-9.9C71.7,390.3,70.8,390.3,70.8,390.9
								L70.8,390.9z"/>
						</g>
					</g>
					<g class="st20">
						<g>
							<path class="st8" d="M75.9,390.9c0,3.3,0,6.6,0,9.9c0,0.6,0.9,0.6,0.9,0c0-3.3,0-6.6,0-9.9C76.9,390.3,75.9,390.3,75.9,390.9
								L75.9,390.9z"/>
						</g>
					</g>
					<g class="st20">
						<g>
							<path class="st8" d="M81.1,390.9c0,3.3,0,6.6,0,9.9c0,0.6,0.9,0.6,0.9,0c0-3.3,0-6.6,0-9.9C82,390.3,81.1,390.3,81.1,390.9
								L81.1,390.9z"/>
						</g>
					</g>
					<g class="st20">
						<g>
							<path class="st8" d="M86.2,390.9c0,3.3,0,6.6,0,9.9c0,0.6,0.9,0.6,0.9,0c0-3.3,0-6.6,0-9.9C87.2,390.3,86.2,390.3,86.2,390.9
								L86.2,390.9z"/>
						</g>
					</g>
					<g class="st20">
						<g>
							<path class="st8" d="M91.4,390.9c0,3.3,0,6.6,0,9.9c0,0.6,0.9,0.6,0.9,0c0-3.3,0-6.6,0-9.9C92.3,390.3,91.4,390.3,91.4,390.9
								L91.4,390.9z"/>
						</g>
					</g>
					<g class="st20">
						<g>
							<path class="st8" d="M96.5,390.9c0,3.3,0,6.6,0,9.9c0,0.6,0.9,0.6,0.9,0c0-3.3,0-6.6,0-9.9C97.5,390.3,96.5,390.3,96.5,390.9
								L96.5,390.9z"/>
						</g>
					</g>
				</g>
				<rect x="38.9" y="411.8" class="st5" width="63.3" height="11"/>
				<rect x="43.8" y="401" class="st5" width="63.3" height="11"/>
				<rect x="43.8" y="401" class="st14" width="63.3" height="11"/>
				<g>
					<g class="st20">
						<g>
							<path class="st8" d="M49.1,401.6c0,3.3,0,6.6,0,9.9c0,0.6,0.9,0.6,0.9,0c0-3.3,0-6.6,0-9.9C50.1,401,49.1,401,49.1,401.6
								L49.1,401.6z"/>
						</g>
					</g>
					<g class="st20">
						<g>
							<path class="st8" d="M54.4,401.6c0,3.3,0,6.6,0,9.9c0,0.6,0.9,0.6,0.9,0c0-3.3,0-6.6,0-9.9C55.3,401,54.4,401,54.4,401.6
								L54.4,401.6z"/>
						</g>
					</g>
					<g class="st20">
						<g>
							<path class="st8" d="M59.5,401.6c0,3.3,0,6.6,0,9.9c0,0.6,0.9,0.6,0.9,0c0-3.3,0-6.6,0-9.9C60.4,401,59.5,401,59.5,401.6
								L59.5,401.6z"/>
						</g>
					</g>
					<g class="st20">
						<g>
							<path class="st8" d="M64.7,401.6c0,3.3,0,6.6,0,9.9c0,0.6,0.9,0.6,0.9,0c0-3.3,0-6.6,0-9.9C65.6,401,64.7,401,64.7,401.6
								L64.7,401.6z"/>
						</g>
					</g>
					<g class="st20">
						<g>
							<path class="st8" d="M69.8,401.6c0,3.3,0,6.6,0,9.9c0,0.6,0.9,0.6,0.9,0c0-3.3,0-6.6,0-9.9C70.7,401,69.8,401,69.8,401.6
								L69.8,401.6z"/>
						</g>
					</g>
					<g class="st20">
						<g>
							<path class="st8" d="M75,401.6c0,3.3,0,6.6,0,9.9c0,0.6,0.9,0.6,0.9,0c0-3.3,0-6.6,0-9.9C75.9,401,75,401,75,401.6L75,401.6z
								"/>
						</g>
					</g>
					<g class="st20">
						<g>
							<path class="st8" d="M80.1,401.6c0,3.3,0,6.6,0,9.9c0,0.6,0.9,0.6,0.9,0c0-3.3,0-6.6,0-9.9C81,401,80.1,401,80.1,401.6
								L80.1,401.6z"/>
						</g>
					</g>
					<g class="st20">
						<g>
							<path class="st8" d="M85.3,401.6c0,3.3,0,6.6,0,9.9c0,0.6,0.9,0.6,0.9,0c0-3.3,0-6.6,0-9.9C86.2,401,85.3,401,85.3,401.6
								L85.3,401.6z"/>
						</g>
					</g>
					<g class="st20">
						<g>
							<path class="st8" d="M90.4,401.6c0,3.3,0,6.6,0,9.9c0,0.6,0.9,0.6,0.9,0c0-3.3,0-6.6,0-9.9C91.3,401,90.4,401,90.4,401.6
								L90.4,401.6z"/>
						</g>
					</g>
					<g class="st20">
						<g>
							<path class="st8" d="M95.6,401.6c0,3.3,0,6.6,0,9.9c0,0.6,0.9,0.6,0.9,0c0-3.3,0-6.6,0-9.9C96.5,401,95.6,401,95.6,401.6
								L95.6,401.6z"/>
						</g>
					</g>
					<g class="st20">
						<g>
							<path class="st8" d="M100.7,401.6c0,3.3,0,6.6,0,9.9c0,0.6,0.9,0.6,0.9,0c0-3.3,0-6.6,0-9.9C101.7,401,100.7,401,100.7,401.6
								L100.7,401.6z"/>
						</g>
					</g>
				</g>
				<g>
					<g class="st20">
						<g>
							<path class="st8" d="M43.5,412.5c0,3.3,0,6.6,0,9.9c0,0.6,0.9,0.6,0.9,0c0-3.3,0-6.6,0-9.9C44.4,411.9,43.5,411.9,43.5,412.5
								L43.5,412.5z"/>
						</g>
					</g>
					<g class="st20">
						<g>
							<path class="st8" d="M48.7,412.5c0,3.3,0,6.6,0,9.9c0,0.6,0.9,0.6,0.9,0c0-3.3,0-6.6,0-9.9C49.6,411.9,48.7,411.9,48.7,412.5
								L48.7,412.5z"/>
						</g>
					</g>
					<g class="st20">
						<g>
							<path class="st8" d="M53.9,412.5c0,3.3,0,6.6,0,9.9c0,0.6,0.9,0.6,0.9,0c0-3.3,0-6.6,0-9.9C54.8,411.9,53.9,411.9,53.9,412.5
								L53.9,412.5z"/>
						</g>
					</g>
					<g class="st20">
						<g>
							<path class="st8" d="M59,412.5c0,3.3,0,6.6,0,9.9c0,0.6,0.9,0.6,0.9,0c0-3.3,0-6.6,0-9.9C59.9,411.9,59,411.9,59,412.5
								L59,412.5z"/>
						</g>
					</g>
					<g class="st20">
						<g>
							<path class="st8" d="M64.2,412.5c0,3.3,0,6.6,0,9.9c0,0.6,0.9,0.6,0.9,0c0-3.3,0-6.6,0-9.9C65.1,411.9,64.2,411.9,64.2,412.5
								L64.2,412.5z"/>
						</g>
					</g>
					<g class="st20">
						<g>
							<path class="st8" d="M69.3,412.5c0,3.3,0,6.6,0,9.9c0,0.6,0.9,0.6,0.9,0c0-3.3,0-6.6,0-9.9C70.2,411.9,69.3,411.9,69.3,412.5
								L69.3,412.5z"/>
						</g>
					</g>
					<g class="st20">
						<g>
							<path class="st8" d="M74.5,412.5c0,3.3,0,6.6,0,9.9c0,0.6,0.9,0.6,0.9,0c0-3.3,0-6.6,0-9.9C75.4,411.9,74.5,411.9,74.5,412.5
								L74.5,412.5z"/>
						</g>
					</g>
					<g class="st20">
						<g>
							<path class="st8" d="M79.6,412.5c0,3.3,0,6.6,0,9.9c0,0.6,0.9,0.6,0.9,0c0-3.3,0-6.6,0-9.9C80.5,411.9,79.6,411.9,79.6,412.5
								L79.6,412.5z"/>
						</g>
					</g>
					<g class="st20">
						<g>
							<path class="st8" d="M84.8,412.5c0,3.3,0,6.6,0,9.9c0,0.6,0.9,0.6,0.9,0c0-3.3,0-6.6,0-9.9C85.7,411.9,84.8,411.9,84.8,412.5
								L84.8,412.5z"/>
						</g>
					</g>
					<g class="st20">
						<g>
							<path class="st8" d="M89.9,412.5c0,3.3,0,6.6,0,9.9c0,0.6,0.9,0.6,0.9,0c0-3.3,0-6.6,0-9.9C90.8,411.9,89.9,411.9,89.9,412.5
								L89.9,412.5z"/>
						</g>
					</g>
					<g class="st20">
						<g>
							<path class="st8" d="M95.1,412.5c0,3.3,0,6.6,0,9.9c0,0.6,0.9,0.6,0.9,0c0-3.3,0-6.6,0-9.9C96,411.9,95.1,411.9,95.1,412.5
								L95.1,412.5z"/>
						</g>
					</g>
				</g>
			</g>
		</g>
	</g>
	<g>
		<path class="st5" d="M237.4,84.3c6.4-8.2,14-13.9,20.8-12.1c1.4,0.4,4.1,2.6,5.3,3.5c6.6,5.2,5.7,17.4-2,27.3
			c-7.7,9.9-19.4,13.7-26,8.6c-1-0.8-3.8-2.8-4.4-3.9C227.2,101.8,230.8,92.8,237.4,84.3z"/>
		<g>
			<g class="st14">
				<path class="st9" d="M255.8,102.2l-3.4,3c1.7,0.5,3.1,1.6,4.2,3c1.2-1,2.3-2.1,3.4-3.3C258.9,103.6,257.4,102.7,255.8,102.2z"/>
			</g>
			<g class="st14">
				<path class="st9" d="M263.8,86.3l-0.4,2.3c1.5,0.3,2.8,0.7,4.2,1c0.2-1,0.3-2,0.3-3C266.5,86.4,265.3,86.4,263.8,86.3z"/>
			</g>
			<g class="st14">
				<path class="st9" d="M267.9,85.1c-0.2-3.1-1.1-5.8-2.9-7.9c-0.9,0.1-1.9,0.2-2.8,0.4l1.7,7.2C265.3,84.9,266.7,84.9,267.9,85.1z
					"/>
			</g>
		</g>
		<path class="st14" d="M237.4,84.3c6.4-8.2,14-13.9,20.8-12.1c1.4,0.4,4.1,2.6,5.3,3.5c6.6,5.2,5.7,17.4-2,27.3
			c-7.7,9.9-19.4,13.7-26,8.6c-1-0.8-3.8-2.8-4.4-3.9C227.2,101.8,230.8,92.8,237.4,84.3z"/>
		
			<ellipse transform="matrix(0.6155 -0.7881 0.7881 0.6155 22.941 228.4476)" class="st5" cx="245.6" cy="90.7" rx="22.6" ry="15.3"/>
		<path class="st5" d="M237.5,84.2c5.3-6.8,13.4-9.5,17.9-6c4.5,3.5,3.9,12-1.5,18.8c-5.3,6.8-13.4,9.5-17.9,6
			C231.5,99.4,232.2,91,237.5,84.2z"/>
		<path class="st14" d="M237.5,84.2c5.3-6.8,13.4-9.5,17.9-6c4.5,3.5,3.9,12-1.5,18.8c-5.3,6.8-13.4,9.5-17.9,6
			C231.5,99.4,232.2,91,237.5,84.2z"/>
		<path class="st14" d="M253.4,96.1c-5.3,6.8-13.4,9.5-17.9,6c-0.5-0.4-0.9-0.8-1.3-1.3c0.5,0.9,1.1,1.7,1.9,2.3
			c4.5,3.5,12.5,0.9,17.9-6c4.8-6.1,5.8-13.4,2.8-17.5C259,83.8,257.8,90.5,253.4,96.1z"/>
		<path class="st21" d="M258.1,88.2c0.2,0,5.7-1.9,5.7-1.9l-0.3,2.2l-5.8,1.8L258.1,88.2z"/>
		<path class="st21" d="M233.3,109.6c0.2,0.1,0.5,0.2,0.7,0.3l2.4,0.7c0,0,0,0,0,0l16.1-5.3c0,0,0,0,0,0l3.4-3.2c0,0,0,0,0,0
			C255.9,102.1,235.8,109,233.3,109.6z"/>
		<path class="st21" d="M237,77.6c4-1.3,14.9-5,19.1-6.5C250.5,69.4,243.1,71.9,237,77.6z"/>
		<path class="st21" d="M258.4,86.2l5.6-1.4c0,0,0.1-5.2-1-7.3l-6.2,2.1c0,0,0,0,0,0C258,81.4,258.5,83.7,258.4,86.2z"/>
		<path class="st21" d="M235.9,86.4l-6.8,2.5c-1.2,2.9-1.8,5.8-1.9,8.5l5.9-2.9C233.4,91.9,234.3,89.1,235.9,86.4z"/>
		<g>
			<g>
				<path class="st8" d="M262.4,77c3.2,6.8,0.4,15.2-3.6,21.1c-4,6-10.3,11.3-17.6,12.4c-3.3,0.5-6.6-0.1-9.3-2.1
					c-0.3-0.2-0.6,0.3-0.3,0.5c5.3,4,12.5,2.3,17.8-0.8c7.1-4.3,12.7-11.8,14.5-19.9c0.8-3.8,0.8-7.8-0.9-11.4
					C262.7,76.3,262.2,76.6,262.4,77L262.4,77z"/>
			</g>
		</g>
	</g>
</g>
<g id="Speech_Bubble">
	<g>
		<g>
			<g>
				<path class="st5" d="M384.8,130.8l8.7-3.9c10.8,6.6,25,7,36.4-0.4c15.8-10.2,20.4-31.2,10.2-47c-10.2-15.8-31.4-20.3-47.2-10.2
					c-15.8,10.2-20.4,31.2-10.2,47c0.8,1.3,1.8,2.5,2.7,3.6L384.8,130.8z"/>
			</g>
		</g>
		<g class="st22">
			<g>
				<path class="st9" d="M384.8,130.8l8.7-3.9c10.8,6.6,25,7,36.4-0.4c15.8-10.2,20.4-31.2,10.2-47c-10.2-15.8-31.4-20.3-47.2-10.2
					c-15.8,10.2-20.4,31.2-10.2,47c0.8,1.3,1.8,2.5,2.7,3.6L384.8,130.8z"/>
			</g>
		</g>
		<text transform="matrix(1 0 0 1 389.6976 114.6364)" class="st5 st23 st24">%</text>
	</g>
</g>
<g id="Characters">
	<g>
		<g>
			<g>
				<path class="st16" d="M330.6,283.5c0.1,0.2,0.9,3.3,1,4.4c0.2,1.2-1.7,9.6-2.6,8.9c-0.9-0.7-1-1.1-0.9-3
					c0.2-1.9,0.5-3.6-0.1-3.3c-0.6,0.4-2.5,5.6-2.3,7.2c0.2,1.6,0.6,4.6-0.5,5.1c-1.1,0.5-1.5-0.8-1.5-0.8s-0.4,1.5-1.1,0.8
					c-0.7-0.7-3.2-5.4-3.3-7.3c0-1.9,3.2-9.4,3.8-11.3c0.2-0.6,1.7-4.2,1.7-4.2l6.8,1.7L330.6,283.5z"/>
				<path class="st5" d="M363.6,198c0,0-6.7-0.4-10.7,5.7c-4,6.1-13.8,40.8-16.7,45.2c-4,6.1-13.3,31-13.3,31l10.3,4.5
					c0,0,11.9-22,14.5-31c2.6-9.1,5.5-15.4,5.5-15.4L363.6,198z"/>
				<path class="st17" d="M363.6,198c0,0-6.7-0.4-10.7,5.7c-4,6.1-13.8,40.8-16.7,45.2c-4,6.1-13.3,31-13.3,31l10.3,4.5
					c0,0,11.9-22,14.5-31c2.6-9.1,5.5-15.4,5.5-15.4L363.6,198z"/>
			</g>
			<g>
				<g>
					<g>
						<polygon class="st8" points="352.9,422.8 349.6,446.9 342.2,444.7 340.3,421.4 						"/>
						<g>
							<g>
								<path class="st8" d="M352.1,450.9l-6.7,0.1c0,0-1.4-0.7-2.2-0.6c-0.8,0.1-3.5,0.7-3.5,0.7l-17.8,0.3c0.1-0.7,0.3-1.4,0.5-2
									c0.2-0.7,0.5-1.3,0.8-1.9c1.1-1.8,2.6-2.5,4.2-2.6c2.5-0.2,10.3-5.5,10.3-5.5s2.8-1,2.9-4.1c0-1.1,1.7-2.5,2.5-2.7
									c1.6-0.3,2.5,0.8,2.8,2.4l0.3,1.9l3.8-0.6c0,0,3.8-2,3.6-0.1c-0.1,1.1-0.7,5.8-1,9.6c-0.1,0.9-0.2,1.7-0.2,2.4l0,0
									C352.2,449.8,352.1,450.9,352.1,450.9z"/>
							</g>
						</g>
						<path class="st5" d="M333.8,441.3c0.1-0.1,0.2-0.1,0.3,0c0.4,0.3,0.8,0.7,1.1,1.2c0.1,0.3-0.3,0.5-0.4,0.3
							c-0.2-0.5-0.6-0.8-0.9-1.1C333.7,441.6,333.7,441.4,333.8,441.3C333.8,441.3,333.8,441.3,333.8,441.3z"/>
						<path class="st5" d="M335.2,440.5c0.1-0.1,0.2-0.1,0.3,0c0.4,0.3,0.8,0.7,1.1,1.2c0.1,0.3-0.3,0.5-0.4,0.3
							c-0.2-0.5-0.6-0.8-0.9-1.1C335.1,440.8,335.1,440.6,335.2,440.5C335.2,440.5,335.2,440.5,335.2,440.5z"/>
						<path class="st5" d="M336.6,439.7c0.1-0.1,0.2-0.1,0.3,0c0.4,0.3,0.8,0.7,1.1,1.2c0.1,0.3-0.3,0.5-0.4,0.3
							c-0.2-0.5-0.6-0.8-1-1.1C336.5,440,336.5,439.8,336.6,439.7C336.6,439.7,336.6,439.7,336.6,439.7z"/>
					</g>
					<g>
						<g>
							<g>
								<g>
									<polygon class="st8" points="386.1,417.6 389.4,441.6 397.2,442 399.7,418.9 									"/>
								</g>
							</g>
						</g>
						<g>
							<g>
								<path class="st8" d="M403.9,452.7h-17.5c0,0-0.4-0.7,0.1-2.7c0.1-0.3,0.2-0.6,0.3-1c0,0,0,0,0-0.1c0.2-0.5,0.4-1.2,0.6-1.9
									c0.8-2.9,1.7-6.8,1.7-6.8s2.9-6.2,6.3-4.7c3,1.4,2.3,5.3,2.3,5.3s0.3,2.3,2.6,4.3c1.4,1.2,2.8,2.2,3.5,3.8
									c0.1,0.3,0.2,0.6,0.3,0.9c0,0,0,0.1,0,0.1C404.1,450.8,404.1,451.7,403.9,452.7z"/>
							</g>
						</g>
						<g>
							<g>
								<g>
									<path class="st5" d="M396.9,441.9c-1-0.8-2.3-0.7-3.2,0.2c-0.2,0.2-0.6-0.1-0.4-0.4c1.1-1.1,2.7-1.1,3.9-0.2
										C397.5,441.7,397.2,442.1,396.9,441.9L396.9,441.9z"/>
								</g>
							</g>
						</g>
						<g>
							<g>
								<g>
									<path class="st5" d="M397.4,443.5c-1-0.8-2.3-0.7-3.2,0.2c-0.2,0.2-0.6-0.1-0.4-0.4c1.1-1.1,2.7-1.1,3.9-0.2
										C398,443.4,397.7,443.7,397.4,443.5L397.4,443.5z"/>
								</g>
							</g>
						</g>
						<g>
							<g>
								<g>
									<path class="st5" d="M397.9,445c-1-0.8-2.3-0.7-3.2,0.2c-0.2,0.2-0.6-0.1-0.4-0.4c1.1-1.1,2.7-1.1,3.9-0.2
										C398.5,444.9,398.2,445.2,397.9,445L397.9,445z"/>
								</g>
							</g>
						</g>
					</g>
					<g>
						<g>
							<g>
								<path class="st8" d="M400,261.2l-31.7,7.8l-20.8-3.8c0,0-6,76-7.3,89.1c-1.3,13.1-1.6,83.3-1.6,83.3l17.1,0.4
									c0,0,6.1-72.4,7.5-79.5c1.2-6.2,6.4-48.2,9.8-58.2c0.3,2.1,0.7,4.1,1.1,6.2c0.9,9.3,3.6,38.9,4.8,49.9
									c0,0,2.6,62.9,5.7,81.2l15.9,0c2.1-25.9,1.9-120,1.9-120l0,0C403.1,282.8,400,261.2,400,261.2z"/>
							</g>
						</g>
					</g>
				</g>
				<g>
					<g>
						<g>
							<path class="st5" d="M394.7,198.9c-1.2-0.2-2.5-0.4-3.7-0.5c-6.6-0.8-13.2-1.3-19.8-1.4c-0.8,0-1.6,0-2.4,0.1
								c-3.7,0.2-4.4,0.5-8,1.2c0,0-11.5,30.6-15.9,83c20.8,3.2,40.8,3.2,57.1,0.3c0.4-3.5-2.4-14.6-1.7-28.4
								c0.3-5.9-0.1-16.4,0.7-23.1c1.1-9.7-3.5-20.3-1-29.7C399.9,200.4,400.9,199.8,394.7,198.9z"/>
						</g>
					</g>
				</g>
				<g class="st17">
					<g>
						<g>
							<path d="M394.7,198.9c-1.2-0.2-2.5-0.4-3.7-0.5c-6.6-0.8-13.2-1.3-19.8-1.4c-0.8,0-1.6,0-2.4,0.1c-3.7,0.2-4.4,0.5-8,1.2
								c0,0-11.5,30.6-15.9,83c20.8,3.2,40.8,3.2,57.1,0.3c0.4-3.5-2.4-14.6-1.7-28.4c0.3-5.9-0.1-16.4,0.7-23.1
								c1.1-9.7-3.5-20.3-1-29.7C399.9,200.4,400.9,199.8,394.7,198.9z"/>
						</g>
					</g>
				</g>
				<g>
					<path class="st16" d="M372.9,197c0,0,2.2-2.7,2.9-5c0.5-1.3,0.6-2.7,0.3-4.1c-0.1-0.8-0.3-1.5-0.5-2.2l15.2-9.4
						c-1.8,5.9-5,17.2-1,21.9c0,0-8.4,2.5-12.7,2.3C372.9,200.2,372.9,197,372.9,197z"/>
					<path class="st25" d="M387.5,181.9c-0.3,7.2-7.9,9.4-11.7,10c0.5-1.3,0.6-2.7,0.3-4.1L387.5,181.9z"/>
					<path class="st8" d="M377.6,153.7c-5.3-1.1-4.5,1.9-7.2,3.9c-3.1,2.2-3,6.9,0.3,8.8c1.2,0.7,2.3,0.7,3-0.4
						C375.9,162.8,383.4,154.8,377.6,153.7z"/>
					<path class="st16" d="M394,171.3c-3,8.1-4.5,12.7-10.1,15.6c-8.3,4.4-17.4-2.3-17-11.1c0.4-7.9,5.2-19.8,14.5-20.5
						C390.6,154.5,397,163.3,394,171.3z"/>
					<path class="st8" d="M382,170.5c-0.3,0.9-1,1.5-1.6,1.3c-0.6-0.2-0.9-1.1-0.6-2c0.3-0.9,1-1.5,1.6-1.3
						C382,168.7,382.2,169.6,382,170.5z"/>
					<path class="st8" d="M373.4,168.1c-0.3,0.9-1,1.5-1.6,1.3s-0.9-1.1-0.6-2c0.3-0.9,1-1.5,1.6-1.3
						C373.4,166.3,373.7,167.2,373.4,168.1z"/>
					<path class="st15" d="M375.6,168.1c0,0-4,3.4-5.4,4.8c0.9,1.4,3.1,1.5,3.1,1.5L375.6,168.1z"/>
					<path class="st8" d="M384.3,166.9c-0.1,0-0.3-0.1-0.4-0.2c-0.9-1.6-2.5-1.8-2.5-1.8c-0.2,0-0.4-0.2-0.4-0.5
						c0-0.2,0.2-0.4,0.4-0.4c0.1,0,2,0.2,3.1,2.2c0.1,0.2,0,0.5-0.2,0.6C384.5,166.9,384.4,166.9,384.3,166.9z"/>
					<path class="st8" d="M370,163.2c-0.1,0-0.1-0.1-0.2-0.2c-0.1-0.2,0-0.5,0.2-0.6c2-1.1,3.7-0.3,3.8-0.2c0.2,0.1,0.3,0.4,0.2,0.6
						c-0.1,0.2-0.4,0.3-0.6,0.2c-0.1,0-1.4-0.7-3,0.2C370.3,163.2,370.1,163.2,370,163.2z"/>
					<path class="st8" d="M377.6,147.7c1.1,0.3,2.4,0.8,3.8,1.4c0,0,0,0,0,0c-0.8-1.8,1.3-3.5,2.9-2.4c8.3,5.6,12.5,2.8,17.2,7.5
						c3.3,3.4,0.1,7.7,0.1,7.7s8.7,5.7-4.4,15.4l-8.8,4.8l2.2-5.9c-0.5-0.1-1-0.1-1.6,0c-0.4-2-0.5-4-0.3-6.1
						c0.3-1.6,0.8-3.1,1.5-4.6c0,0-4.8-2.9-5-6.3c0,0-8.7,2.5-13.3-1.3c-1.2-1-1.7-2-2-3.1C368.6,150.3,373.1,146.4,377.6,147.7z"/>
					<g>
						<path class="st16" d="M395.3,179.1c-1.3,1.9-3.4,3-5.3,3.3c-2.9,0.5-3-2.5-2-5c0.9-2.3,2.5-4.9,5.3-4.2
							C396,173.9,396.8,176.9,395.3,179.1z"/>
						<path class="st26" d="M394,176.3c-0.2-0.6-0.8-1-1.5-1c-0.6,0-1.2,0.2-1.8,0.6c-0.6,0.4-1.1,1-1.4,1.7"/>
					</g>
					<g>
						<g>
							<path class="st8" d="M373.7,178.2c1.4,0.5,3.1-0.1,4-1.3c0.3-0.4-0.4-0.8-0.6-0.4c-0.7,1-2,1.4-3.1,1
								c-0.2-0.1-0.4,0.1-0.5,0.3C373.4,178,373.5,178.1,373.7,178.2L373.7,178.2z"/>
						</g>
					</g>
				</g>
			</g>
			<g>
				<g>
					<path class="st8" d="M399.5,212.7c-4,7.4-6.4,15.6-6.8,24c0,0.5,0.7,0.5,0.8,0c0.4-8.3,2.8-16.4,6.7-23.6
						C400.4,212.7,399.8,212.3,399.5,212.7L399.5,212.7z"/>
				</g>
			</g>
			<g>
				<g>
					<path class="st8" d="M354.1,210.2c-2,8.8-3.4,17.7-4.7,26.6c-1.5,10.2-2.8,20.4-3.9,30.6c-0.5,4.6-0.9,9.3-1.2,13.9
						c0,0.5,0.7,0.5,0.8,0c0.5-8.9,1.6-17.8,2.6-26.7c1.3-10.3,2.7-20.6,4.5-30.8c0.8-4.5,1.6-9,2.6-13.4
						C354.9,209.9,354.2,209.7,354.1,210.2L354.1,210.2z"/>
				</g>
			</g>
		</g>
		<g>
			<g>
				<g>
					<path class="st5" d="M396.5,199.2c0,0,9.7,0.5,12.8,12.5c2.2,8.7,8.1,27,8.1,27l17.8,16.6l-3,8.6c0,0-23.6-11.6-26.2-14.5
						c-2.6-2.9-10-19.3-10-19.3L396.5,199.2z"/>
					<path class="st17" d="M396.5,199.2c0,0,9.7,0.5,12.8,12.5c2.2,8.7,8.1,27,8.1,27l17.8,16.6l-3,8.6c0,0-23.6-11.6-26.2-14.5
						c-2.6-2.9-10-19.3-10-19.3L396.5,199.2z"/>
					<g>
						<g>
							<polygon class="st27" points="407.7,445.3 399.1,446.2 392.8,424.5 405.8,423.1 							"/>
							<g>
								<path class="st8" d="M397.9,442.4h3.1c0.7,0,1.3,0.3,1.7,0.9c1.8,2.4,3.1,1.5,5-0.8c1.2-0.1,1.5,1.3,1.6,1.6l2.3,8.3
									c0.2,0.7-0.2,1.4-0.9,1.6c-0.1,0-0.3,0.1-0.4,0.1c-3.7,0-5.5,0-10.1,0h-14.1c-3.9,0-4.6-3.9-3.1-4.2
									c7.1-1.6,12.2-3.7,14.4-5.8C397.8,443.8,397.4,443.5,397.9,442.4z"/>
								<path class="st5" d="M393.3,445.2c1,0,1.9-0.1,2.9-0.4c0.1,0,0.1-0.1,0.1-0.2c0,0-0.1-0.1-0.1-0.1c-0.4-0.2-4.2-2-5.2-1.3
									c-0.2,0.1-0.3,0.3-0.2,0.5c0,0.4,0.2,0.8,0.5,1C391.9,445.1,392.6,445.3,393.3,445.2z M395.6,444.6
									c-1.1,0.2-3.2,0.5-4.1-0.2c-0.2-0.2-0.4-0.4-0.4-0.7c0-0.1,0-0.2,0.1-0.2C391.7,443.1,394,443.9,395.6,444.6z"/>
								<path class="st5" d="M396.1,444.8c0,0,0.1,0,0.1,0c0.1,0,0.1-0.1,0-0.2c0-0.2-0.9-3.9-3-3.7c-0.5,0.1-0.7,0.3-0.7,0.5
									C392.5,442.5,394.9,444.4,396.1,444.8L396.1,444.8z M393.5,441.3c1.3,0,2.1,2.2,2.4,3.1c-1.2-0.7-3-2.2-2.9-2.8
									c0,0,0-0.2,0.4-0.2L393.5,441.3z"/>
								<path class="st28" d="M395.7,444.7c1.1,0.1,2,0.8,2.6,1.7"/>
								<path class="st28" d="M393.8,446.2c1.1,0.1,2,0.8,2.6,1.7"/>
								<path class="st28" d="M391.5,447.4c1.1,0.1,2,0.8,2.6,1.7"/>
							</g>
							<polygon class="st20" points="396.1,435.9 396.9,438.6 407,437 406.8,434.9 							"/>
						</g>
						<g>
							<polygon class="st27" points="457.5,446 448.9,446.8 442.6,425.2 455.6,423.8 							"/>
							<g>
								<path class="st8" d="M447.7,443.1h3.1c0.7,0,1.3,0.3,1.7,0.9c1.8,2.4,3.1,1.5,5-0.8c1.2-0.1,1.5,1.3,1.6,1.6l2.3,8.3
									c0.2,0.7-0.2,1.4-0.9,1.6c-0.1,0-0.3,0.1-0.4,0.1c-3.7,0-5.5,0-10.1,0h-14.1c-3.9,0-4.6-3.9-3.1-4.2
									c7.1-1.6,12.2-3.7,14.4-5.8C447.7,444.5,447.3,444.2,447.7,443.1z"/>
								<path class="st5" d="M443.1,445.9c1,0,1.9-0.1,2.9-0.4c0.1,0,0.1-0.1,0.1-0.2c0,0-0.1-0.1-0.1-0.1c-0.4-0.2-4.2-2-5.2-1.3
									c-0.2,0.1-0.3,0.3-0.2,0.5c0,0.4,0.2,0.8,0.5,1C441.7,445.8,442.4,446,443.1,445.9z M445.4,445.3c-1.1,0.2-3.2,0.5-4.1-0.2
									c-0.2-0.2-0.4-0.4-0.4-0.7c0-0.1,0-0.2,0.1-0.2C441.6,443.8,443.8,444.6,445.4,445.3z"/>
								<path class="st5" d="M446,445.5c0,0,0.1,0,0.1,0c0.1,0,0.1-0.1,0-0.2c0-0.2-0.9-3.9-3-3.7c-0.5,0.1-0.7,0.3-0.7,0.5
									C442.3,443.2,444.7,445.1,446,445.5L446,445.5z M443.3,442c1.3,0,2.1,2.2,2.4,3.1c-1.2-0.7-3-2.2-2.9-2.8c0,0,0-0.2,0.4-0.2
									L443.3,442z"/>
								<path class="st28" d="M445.6,445.4c1.1,0.1,2,0.8,2.6,1.7"/>
								<path class="st28" d="M443.7,446.8c1.1,0.1,2,0.8,2.6,1.7"/>
								<path class="st28" d="M441.3,448.1c1.1,0.1,2,0.8,2.6,1.7"/>
							</g>
							<polygon class="st20" points="446,436.6 446.7,439.3 456.8,437.7 456.6,435.6 							"/>
						</g>
						<g>
							<g>
								<g>
									<g>
										<g>
											<path class="st5" d="M390.3,284.6c0,0-7.5,30.7-10.9,58c-1,8.3-1.2,19.4,0.6,27.6l13.7,68l17.2-1.7
												c-2.7-29.3-6.5-65.5-7.6-80.9l19.8-61.6L390.3,284.6z"/>
										</g>
									</g>
								</g>
								<g>
									<g>
										<g>
											<path class="st5" d="M390.3,284.6c0,0-7.5,30.7-10.9,58c-1,8.3-1.2,19.4,0.6,27.6l13.7,68l17.2-1.7
												c-2.7-29.3-6.5-65.5-7.6-80.9l19.8-61.6L390.3,284.6z"/>
										</g>
									</g>
								</g>
								<path class="st5" d="M446.4,361.1c-0.4-1.7-1-5.1-1.8-9.7c0,0,0,0,0.1,0c-0.6-6-1.6-33.9-3.5-51.6
									c-1.5-11.3-4.4-19-7.3-22.7c-0.2-0.2-0.3-0.4-0.4-0.5c-0.5-0.6-0.8-0.9-0.8-0.9c-0.6,0.1-1.1,0.3-1.7,0.4
									c-0.2,0-0.4,0.1-0.6,0.1c-20.6,4.3-36.9-1.9-36.9-1.9c-1.9,4.7-5.1,15.4-6.5,25.7c2.2,2.4,11.6,5.4,22.4,7.5l3.1,14
									c1.6,8.7,3.7,17.2,5.5,24.8l1.9,8.4c0.1,0.5,0.2,1.1,0.3,1.6c0.9,4.8,23.3,82.4,23.3,82.4l14.6-0.9
									C458.2,437.7,451.7,384,446.4,361.1z"/>
							</g>
							<path class="st25" d="M391.4,280.3c0,0,6.3,6.6,18.6,6.8c12.3,0.1,26.1-7.1,26.1-7.1l-1.5-2.6l-35.5,3.9l-6.8-3.9
								L391.4,280.3z"/>
							<path class="st25" d="M413.4,324.6c0.1,0.3-7.2-26.1-7.2-26.1s-3.6,20,5,33.6L413.4,324.6z"/>
						</g>
						<g>
							<path class="st0" d="M439.6,238.8l2.1-21.7c-4.9-2.8-16.9-5.5-16.9-5.5l-11,0.6c0,0-4.2,0.9-7.9,2.1
								c-4.8,1.6-7.5,2.9-8.6,5.5c0,0-3.6,7.8-3.8,20.4c-0.1,3.4,2.1,17.8,1.2,23.6l-4.9,16.9c20.2,15.7,46-2.2,46-2.2
								c-0.9-2.8-2.9-8.9-3.3-11.6c0.3-3.5,1.3-5.7,2.7-11.8C435.4,254,439.1,239.9,439.6,238.8z"/>
						</g>
					</g>
					<g>
						<g>
							<path class="st16" d="M433.1,256.5c0,0-6.8,1.7-7.7,3.4c-0.9,1.7,1.8,1.7,1.8,1.7s-3,0.2-3.1,1.5c-0.1,1.6,2.8,1.6,2.8,1.6
								s-2.5,0.2-2.5,1.4c0,1.2,3.2,1.4,3.2,1.4s-1.7,0.5-1.3,1.3c0.4,0.8,7.3,1.4,9.4,0.2c2.1-1.2,2.2-10,2.3-12
								c0.1-2.3-1.3-4.2-2.3-4.7l-2.6,4.1L433.1,256.5z"/>
						</g>
						<g>
							<path class="st14" d="M427.2,261.8C427.2,261.8,427.3,261.8,427.2,261.8l5.3-0.6c0.1,0,0.1-0.1,0.1-0.2
								c0-0.1-0.1-0.1-0.1-0.1l-5.3,0.6c-0.1,0-0.1,0.1-0.1,0.2C427.1,261.8,427.2,261.8,427.2,261.8z"/>
						</g>
						<g>
							<path class="st14" d="M427,264.8C427,264.8,427,264.8,427,264.8l5.1-0.1c0.1,0,0.1-0.1,0.1-0.1c0-0.1-0.1-0.1-0.1-0.1
								l-5.1,0.1c-0.1,0-0.1,0.1-0.1,0.1C426.9,264.8,427,264.8,427,264.8z"/>
						</g>
						<g>
							<path class="st14" d="M427.8,267.7l3.8,0c0.1,0,0.1-0.1,0.1-0.1c0-0.1-0.1-0.1-0.1-0.1l-3.8,0c-0.1,0-0.1,0.1-0.1,0.1
								C427.7,267.6,427.7,267.7,427.8,267.7z"/>
						</g>
					</g>
				</g>
			</g>
			<g>
				<path class="st29" d="M447,235.1c2.7,9.9,5.5,20.2,3.5,30.3c-1.2,6.1-4.1,11.8-7,17.3c-2.5,4.9-5,9.7-7.5,14.6
					c-0.6,1.2-1.2,2.4-2.2,3.2l-5.1-3.3c0,0,11.8-35.2,12-37.1c0.2-1.8-4.5-21.9-4.5-21.9L447,235.1z"/>
			</g>
			<path class="st0" d="M437.8,215.7c0,0,3.3-0.1,6,3.3c2.7,3.4,8.6,24.8,8,26.4c-1.7,4.6-13.6,5.6-16.6,1.8
				C432.3,243.4,426.3,216.9,437.8,215.7z"/>
			<g>
				<g>
					<path class="st8" d="M436.9,215.6c-4.7,1.8-6.3,6.9-6.3,11.6c0,6.1,1.5,12.3,3.3,18.1c0.1,0.5,0.9,0.3,0.7-0.2
						c-1.6-5.2-2.8-10.6-3.2-16.1c-0.3-4.8,0.6-10.7,5.7-12.7C437.5,216.2,437.3,215.5,436.9,215.6L436.9,215.6z"/>
				</g>
			</g>
			<g>
				<g>
					<g>
						<path class="st8" d="M426.6,172.7c-3-2.7-5.7-4.3-9.5-4.7c-3.3-0.4-8,0.2-11,1.9c-4,2.4-6.3,7.4-7.7,12.3
							c-1.5,5.5,0.9,12.1,3.5,17c1.1,2,2.1,2.8,4.1,2.6l0.8,1.1c6.3,1.7,12.1,8.1,23-10.3C433.5,186.3,431.6,177.2,426.6,172.7z"/>
					</g>
					<path class="st30" d="M412.4,211.9c0.9-0.9,0.5-2.7,0.3-4.5c-0.1-1.4-0.6-2.8-1.1-4.2l1.8-2l9.6-8.7
						c-0.5,6.1-2.2,15.7,2.5,19.1l2.9,0.7c-1.7,1.3-6.4,6.9-16.3,7.7c-5.3,0.4-4.4-4.5-3-6.8C411.6,212.8,412.4,211.9,412.4,211.9z"
						/>
					<path class="st14" d="M412.7,208.2c2.6-0.6,6.3-2.2,6.9-5.2c0.3-1.2,0.3-2.4,0.3-3.2l-7.8,4.8
						C412.2,205.7,412.7,206.5,412.7,208.2z"/>
					<path class="st30" d="M426.9,182.9c-1.4,9.3-1.7,13.3-6.8,17.9c-7.7,7-18.7,3.9-20.1-5.5c-1.3-8.4,1.1-22.2,10.5-25.7
						C419.7,166.3,428.2,173.6,426.9,182.9z"/>
					<path class="st8" d="M415.1,182.9c-0.1,0-0.2,0-0.3,0c-1.7-0.9-3.2-0.1-3.2-0.1c-0.2,0.1-0.5,0.1-0.6-0.2
						c-0.1-0.2,0-0.5,0.2-0.6c0.1,0,1.9-1.1,4.1,0c0.2,0.1,0.3,0.4,0.2,0.6C415.3,182.8,415.2,182.8,415.1,182.9z"/>
					<path class="st8" d="M402.6,182.2c-0.1,0-0.2-0.1-0.2-0.2c-0.1-0.2,0-0.5,0.3-0.6c2.4-1,4.2,0,4.3,0.1c0.2,0.1,0.3,0.4,0.1,0.6
						c-0.1,0.2-0.4,0.3-0.7,0.1c-0.1,0-1.5-0.8-3.4,0C402.9,182.2,402.7,182.2,402.6,182.2z"/>
					<path class="st31" d="M408.1,185.5c0,0-1.6,3.4-3.4,5.5c-0.3,0.4-0.2,0.9,0.3,1.1c1.1,0.5,2.5,0.2,2.5,0.2L408.1,185.5z"/>
					<path class="st8" d="M413.5,186.6c0,0.9-0.5,1.6-1.2,1.6c-0.6,0-1.1-0.7-1.1-1.5c0-0.9,0.5-1.6,1.2-1.6
						C413.1,185,413.6,185.7,413.5,186.6z"/>
					<path class="st8" d="M412.8,185.1l-2.2-0.4C410.7,184.7,412.2,186.3,412.8,185.1z"/>
					<path class="st8" d="M405.3,186.2c0,0.9-0.5,1.6-1.2,1.6c-0.6,0-1.1-0.7-1.1-1.5c0-0.9,0.5-1.6,1.2-1.6
						C404.9,184.6,405.3,185.3,405.3,186.2z"/>
					<path class="st8" d="M404.6,184.7l-2.2-0.4C402.4,184.3,404,185.8,404.6,184.7z"/>
					<path class="st8" d="M422.4,199.1c9.2-5.9,10.4-29.7-5.9-31.1c-16.3-1.4-17.8,21-17.8,21c6-13.6,20.2-14.3,20.2-14.3
						c-3.2,7.2,3.1,12,3.1,12C424.3,191.6,422.4,199.1,422.4,199.1z"/>
					<path class="st30" d="M429.3,190.7c-1.2,1.9-3.1,3-4.7,3.3c-2.5,0.5-3.6-3.6-2.6-6c0.9-2.2,3.4-3.5,5.8-2.9
						C430.1,185.7,430.7,188.6,429.3,190.7z"/>
					<path class="st32" d="M425.9,187.4c0.8-0.3,1.6,0.2,1.9,0.9c0.3,0.8-0.2,2.6-2.6,3.2"/>
					<g class="st20">
						<g>
							<path d="M418.9,174.5c-0.7,1.2-0.7,2.7-0.3,3.9c0.5,1.4,1.6,2.4,2.8,3.1c3,1.7,6.7,2.3,10.1,2.1c0.5,0,0.5-0.8,0-0.8
								c-3.1,0.2-6.3-0.3-9-1.6c-1.2-0.6-2.4-1.4-3-2.6c-0.6-1.2-0.6-2.7,0-3.8C419.8,174.5,419.2,174.1,418.9,174.5L418.9,174.5z"
								/>
						</g>
					</g>
					<g class="st20">
						<g>
							<path d="M419.7,175c1.4,4,5.7,6.2,9.8,5.2c0.5-0.1,0.3-0.8-0.2-0.7c-3.7,1-7.6-1-8.9-4.6C420.2,174.4,419.5,174.6,419.7,175
								L419.7,175z"/>
						</g>
					</g>
					<g>
						<g>
							<path class="st8" d="M407.3,195.1c1.6,0.1,3.2-0.7,4.1-2c0.1-0.2,0-0.4-0.1-0.5c-0.2-0.1-0.4,0-0.5,0.1
								c-0.8,1.1-2.1,1.7-3.4,1.6c-0.2,0-0.4,0.2-0.4,0.4C406.9,195,407.1,195.1,407.3,195.1L407.3,195.1z"/>
						</g>
					</g>
				</g>
				<g>
					<path class="st8" d="M436.8,165.1c-1.2-2.9-4.4-4.6-7.5-5c-2.1-0.3-4.2-0.1-6.1,0.9c-1.8,1-3.2,2.9-3.3,5
						c0,2.1,1.5,4.2,3.6,4.4l-2.6,0.8c1.7,2.1,4.2,3.6,6.9,3.9c2.7,0.4,5.6-0.5,7.4-2.5S437.9,167.6,436.8,165.1z"/>
				</g>
			</g>
			<g>
				<g>
					<path class="st30" d="M421.3,318.3c-0.8,0.1-1.7-0.7-1.7-1.5c0-0.8,0.4-1.5,0.8-2.2c1.4-2.7,3.2-5.5,3.2-8.6
						c-1.3-0.3-2.8,0.8-4,1.1c-0.4,0.1-0.8,0.1-1.1-0.1c-0.4-0.3-0.4-0.9-0.2-1.3c0.2-0.4,0.6-0.7,1-1c2.8-2.2,7.2-6.2,9.9-8.5
						l5.6,2c0.5,7-0.1,13.2-4.7,17.8c-0.3,0.3-0.7,0.7-1.2,0.7c-0.5,0-1-0.4-0.8-0.9c-0.5,1.9-2.5,3.2-4.4,3
						c-0.2,0.5-0.8,0.7-1.3,0.6C421.8,319.2,421.4,318.8,421.3,318.3z"/>
				</g>
				<g>
					<g>
						<path class="st31" d="M430.1,310.8c-0.7,1.7-1.5,3.3-2.4,4.9c-0.2,0.4,0.4,0.8,0.6,0.4c0.9-1.6,1.7-3.3,2.4-4.9
							c0.1-0.2,0.1-0.4-0.1-0.5C430.4,310.5,430.2,310.6,430.1,310.8L430.1,310.8z"/>
					</g>
				</g>
				<g>
					<g>
						<path class="st31" d="M427.6,310.7c-1.4,2.5-2.8,5.1-4.2,7.6c-0.2,0.4,0.4,0.8,0.6,0.4c1.4-2.5,2.8-5.1,4.2-7.6
							C428.5,310.7,427.9,310.3,427.6,310.7L427.6,310.7z"/>
					</g>
				</g>
				<g>
					<g>
						<path class="st31" d="M425.2,310.1c-1.5,2.7-2.9,5.3-4.4,8c-0.2,0.4,0.4,0.8,0.6,0.4c1.5-2.7,2.9-5.3,4.4-8
							C426.1,310.1,425.4,309.7,425.2,310.1L425.2,310.1z"/>
					</g>
				</g>
			</g>
		</g>
	</g>
</g>
</svg>
