<?xml version="1.0" encoding="utf-8"?>
<!-- Generator: Adobe Illustrator 26.0.1, SVG Export Plug-In . SVG Version: 6.00 Build 0)  -->
<svg version="1.1" xmlns="http://www.w3.org/2000/svg" xmlns:xlink="http://www.w3.org/1999/xlink" x="0px" y="0px"
	 viewBox="0 0 500 500" style="enable-background:new 0 0 500 500;" xml:space="preserve">
<style type="text/css">
	.st0{fill:#F5F5F5;}
	.st1{fill:#F0F0F0;}
	.st2{fill:#E0E0E0;}
	.st3{display:none;}
	.st4{display:inline;}
	.st5{fill:#407BFF;}
	.st6{opacity:0.9;fill:#FFFFFF;}
	.st7{opacity:0.5;fill:#FFFFFF;}
	.st8{fill:#EBEBEB;}
	.st9{opacity:0.2;}
	.st10{fill:#FFFFFF;stroke:#263238;stroke-miterlimit:10;}
	.st11{fill:#263238;}
	.st12{fill:none;stroke:#407BFF;stroke-width:0.75;stroke-linejoin:round;stroke-miterlimit:10;}
	.st13{fill:#FFFFFF;}
	.st14{font-family:'MyriadPro-Regular';}
	.st15{font-size:16px;}
	.st16{opacity:0.3;}
	.st17{opacity:0.2;fill:#FFFFFF;}
	.st18{opacity:0.5;}
	.st19{opacity:0.6;}
	.st20{fill:#FFB7B1;}
	.st21{opacity:0.6;fill:#FFFFFF;}
	.st22{fill:#D7504D;}
	.st23{fill:none;stroke:#263238;stroke-width:0.75;stroke-linecap:round;stroke-linejoin:round;stroke-miterlimit:10;}
	.st24{opacity:0.2;fill:none;stroke:#000000;stroke-width:0.5;stroke-linecap:round;stroke-linejoin:round;stroke-miterlimit:10;}
</style>
<g id="Background_complete">
	<g>
		<g>
			<path class="st0" d="M448.2,100.9c-2.4-1.8-5.9-2-8.5-0.5c-3.5-7-13.1-10.1-20-6.4c-1.8-7.5-9.2-13.3-16.9-13.2
				c-7.7,0.1-15,6.1-16.6,13.6c-0.3,1.2-0.4,2.5-1.3,3.4c-1.4,1.4-3.7,0.9-5.7,0.8c-6.3-0.5-12.6,3.9-14.3,10l86.3-0.3
				C451.9,105.4,450.6,102.7,448.2,100.9z"/>
		</g>
	</g>
	<g>
		<g>
			<path class="st0" d="M190,43.8c-1.1-0.9-2.8-1-4-0.2c-1.6-3.3-6.2-4.8-9.4-3c-0.8-3.6-4.4-6.3-8-6.3c-3.7,0-7.1,2.9-7.9,6.4
				c-0.1,0.6-0.2,1.2-0.6,1.6c-0.7,0.7-1.8,0.4-2.7,0.4c-3-0.2-6,1.9-6.8,4.7l40.8-0.1C191.8,45.9,191.2,44.6,190,43.8z"/>
		</g>
	</g>
	<g>
		<g>
			<path class="st1" d="M141.6,80.3c-2.4-1.8-5.9-2-8.5-0.5c-3.5-7-13.1-10.1-20-6.4c-1.8-7.5-9.2-13.3-16.9-13.2
				c-7.7,0.1-15,6.1-16.6,13.6c-0.3,1.2-0.4,2.5-1.3,3.4c-1.4,1.4-3.7,0.9-5.7,0.8c-6.3-0.5-12.6,3.9-14.3,10l86.3-0.3
				C145.3,84.7,144,82.1,141.6,80.3z"/>
		</g>
	</g>
	<g>
		<g>
			<path class="st1" d="M366.3,51.4c-1.3-1-3.1-1.1-4.5-0.3c-1.8-3.7-6.9-5.3-10.5-3.4c-0.9-4-4.8-7-8.9-7c-4.1,0-7.9,3.2-8.7,7.2
				c-0.1,0.6-0.2,1.3-0.7,1.8c-0.7,0.8-2,0.5-3,0.4c-3.3-0.3-6.6,2.1-7.5,5.2l45.4-0.2C368.3,53.7,367.6,52.4,366.3,51.4z"/>
		</g>
	</g>
	<g>
		<g>
			<path class="st0" d="M365.5,190.2c-1.1-0.9-2.8-1-4-0.2c-1.6-3.3-6.2-4.8-9.4-3c-0.8-3.6-4.4-6.3-8-6.3c-3.7,0-7.1,2.9-7.9,6.4
				c-0.1,0.6-0.2,1.2-0.6,1.6c-0.7,0.7-1.8,0.4-2.7,0.4c-3-0.2-6,1.9-6.8,4.7l40.8-0.1C367.2,192.3,366.6,191.1,365.5,190.2z"/>
		</g>
	</g>
	<g>
		<g>
			<path class="st2" d="M34.1,178.4L34.1,178.4L34.1,178.4c4-3.8,10.4-8.1,17.9-11.4l0,0l0,0c1-0.5,2.1-0.9,3.2-1.3
				c4.8-1.9,9.5-2.9,13.7-3.5c-0.4-0.1-0.7-0.3-1-0.5c-1.8-1.2-0.8-2.5,0.5-3.5l-4.2-1c-5.1,0.4-11.3,0.6-13.3-0.6
				c-1.5-0.9-1.3-2-0.5-2.9l-4.8-1.2c-2.6,0-5.2-0.3-7.7-0.8c-1.1-0.3-2.4-0.8-2.5-1.7c0,0,0,0,0,0l0,0c0,0,0,0,0,0
				c0-0.8,1.2-1.4,2.3-1.7c1.4-0.4,2.9-0.7,4.3-0.9l0,0c0,0,0,0,0,0c7.8-1.1,16.5,0.1,23.7,2.4c3.6,1.1,7.1,2.8,10.1,4.7l0,0
				c0,0,0,0,0,0.1c2.3,1.4,4.3,3,5.8,4.5c0.1-1.4,0.2-2.9,0.5-4.5c0,0,0,0,0,0l0,0c0.5-3.4,1.6-7.2,3.5-10.9
				c0.4-0.8,0.9-1.6,1.3-2.4l0,0l0,0c3.4-5.5,7.7-10.1,11.6-12.7l0,0l0,0c2.9-1.9,5.5-2.8,7.5-2.3c0.1,0,0.5,0.1,0.9,0.3
				c0,0,0,0,0,0l0,0c0.8,0.4,1.6,1.5-0.8,4.7l0.1,0c-0.1,0-0.1,0-0.2,0.1c-0.2,0.2-0.4,0.5-0.6,0.8c-1.6,1.9-3.2,3.2-4.6,4.1
				l-2.7,4.3c0.6,1,0.7,2.5-0.7,4.4c-1.3,1.9-3.1,3.2-4.6,4l-1.5,2.3c1,0.7,1.9,1.9,1.6,3.9c3.5-1.8,7.9-3.6,13-4.5l0,0l0,0
				c0.4-0.1,0.9-0.2,1.3-0.2c13.7-2.1,27.2,0.6,29.5,5c0.1,0.2,2.5,3.2-5.6,3c-3.3-0.1-5.9-0.7-7.9-1.3l-4.5,0.5
				c-0.5,1.1-1.7,2.2-4.5,2.3c-2.5,0.1-4.8-0.4-6.6-1l-3.3,0.4c0,1.4-0.8,3-4.2,4c6.5,2.3,12,6,15.1,8.6c0,0,0,0,0,0l0,0
				c0.7,0.5,1.2,1,1.7,1.5c5.1,4.8,10.8,14.1,9.4,15.8c-0.6,0.7-2.4-1-4.3-3.3l-6.7-4.4c-0.5,0.3-1.1,0.4-1.9,0.3l0.1,0.3
				c-0.1-0.1-0.1-0.2-0.2-0.3c-0.2,0-0.3,0-0.5-0.1c-1.4-0.3-3.4-2.7-5.3-5.4l-7.9-5.2c-0.5,0.2-0.8,0.3-0.8,0.3
				c-0.6,0.3-1.3,0.4-2,0.4l0,0c0,0,0,0,0,0c-2-0.1-4.3-1.4-6.3-3.1l0.8,1.9c0.5,1.1,1,2.2,1.5,3.5l0,0.1l0,0
				c1.1,2.7,2.3,5.8,3.5,9.2c0.4,1.1,0.7,2.2,1.1,3.3l0.1,0c0,0-0.1,0.1-0.1,0.1c6,19.6,7.7,41.3,8.4,51.7
				c0.8,12.4,2.2,96.8,2.2,96.8h-12c2.2-16.9,4.6-67.1,2.6-102.1c0,0,0,0-0.1,0l0.1,0c-0.3-4.8-0.6-9.6-1.1-14.4
				c-2-21.9-7.6-37.9-11.5-46.9c-0.1-0.2-0.3-0.7-0.6-1.3c-0.1,3.3-0.5,6.5-1.7,7.9c-2.7,3.2-6.1-3.6-6.3-3.8
				c-0.2-0.2,2.7,17,0,20.3c-2.7,3.3-6.1-3-6.1-3c1.5,5,1.5,10.4,0.2,15.3l0,0.1c0,0,0-0.1,0-0.1c0,0.1,0,0.2-0.1,0.3
				c-0.3,1.1-0.9,2.4-2,2.3c-1.1-0.1-1.7-1.4-2.1-2.5c-3.1-8.9-1.4-19.5,1.8-27.9c1.2-3.1,3-6.2,5.1-8.8c-0.6,0.3-1.1,0.5-1.8,0.8
				c-6.1,2.5-8.5,1.3-9.5-0.2l-3.1,1.4c-1.3,1.5-3.3,3.2-5.9,4.5c-2.6,1.3-4.3,1.2-5.5,0.7l-5.8,2.7c-1.5,1.4-3.4,3-6,4.5
				c-0.4,0.2-0.7,0.4-1.1,0.6c0,0.1-0.1,0.1-0.1,0.2l0-0.1c-4.3,2.3-5.5,1.6-5.9,0.8l0,0c0,0,0,0,0,0c-0.2-0.4-0.1-0.8-0.1-0.9
				C29.5,183.8,31.1,181.2,34.1,178.4z"/>
		</g>
		<g>
			<path class="st2" d="M471,258.3L471,258.3L471,258.3c-2.4-2.3-6.3-4.9-10.8-6.9v0h0c-0.6-0.3-1.3-0.5-1.9-0.8
				c-2.9-1.1-5.7-1.8-8.3-2.1c0.2-0.1,0.4-0.2,0.6-0.3c1.1-0.7,0.5-1.5-0.3-2.1l2.5-0.6c3.1,0.2,6.8,0.4,8.1-0.4
				c0.9-0.6,0.8-1.2,0.3-1.7l2.9-0.7c1.6,0,3.1-0.2,4.6-0.5c0.7-0.2,1.5-0.5,1.5-1c0,0,0,0,0,0l0,0c0,0,0,0,0,0c0-0.5-0.7-0.8-1.4-1
				c-0.8-0.2-1.7-0.4-2.6-0.6l0,0c0,0,0,0,0,0c-4.7-0.7-10,0.1-14.4,1.4c-2.2,0.7-4.3,1.7-6.1,2.9l0,0c0,0,0,0,0,0
				c-1.4,0.9-2.6,1.8-3.5,2.8c0-0.8-0.1-1.8-0.3-2.7c0,0,0,0,0,0h0c-0.3-2.1-1-4.3-2.1-6.6c-0.3-0.5-0.5-1-0.8-1.4l0,0l0,0
				c-2-3.4-4.6-6.1-7-7.7l0,0l0,0c-1.7-1.2-3.4-1.7-4.5-1.4c0,0-0.3,0-0.5,0.2c0,0,0,0,0,0l0,0c-0.5,0.3-1,0.9,0.5,2.8l-0.1,0
				c0,0,0.1,0,0.1,0c0.1,0.1,0.2,0.3,0.4,0.5c1,1.1,1.9,1.9,2.8,2.5l1.6,2.6c-0.3,0.6-0.4,1.5,0.4,2.6c0.8,1.2,1.9,1.9,2.8,2.4
				l0.9,1.4c-0.6,0.4-1.1,1.1-1,2.4c-2.1-1.1-4.8-2.2-7.9-2.8l0,0l0,0c-0.3,0-0.5-0.1-0.8-0.1c-8.3-1.3-16.5,0.4-17.8,3
				c-0.1,0.1-1.5,1.9,3.4,1.8c2-0.1,3.6-0.4,4.8-0.8l2.7,0.3c0.3,0.7,1,1.3,2.7,1.4c1.5,0.1,2.9-0.2,4-0.6l2,0.2
				c0,0.8,0.5,1.8,2.5,2.4c-3.9,1.4-7.2,3.7-9.1,5.2c0,0,0,0,0,0l0,0c-0.4,0.3-0.7,0.6-1,0.9c-3.1,2.9-6.5,8.5-5.7,9.6
				c0.4,0.5,1.4-0.6,2.6-2l4-2.7c0.3,0.2,0.7,0.3,1.2,0.2l-0.1,0.2c0-0.1,0.1-0.1,0.1-0.2c0.1,0,0.2,0,0.3,0
				c0.8-0.2,2.1-1.6,3.2-3.3l4.8-3.2c0.3,0.1,0.5,0.2,0.5,0.2c0.4,0.2,0.8,0.3,1.2,0.3l0,0c0,0,0,0,0,0c1.2,0,2.6-0.9,3.8-1.9
				l-0.5,1.1c-0.3,0.7-0.6,1.4-0.9,2.1l0,0l0,0c-0.7,1.6-1.4,3.5-2.1,5.6c-0.2,0.7-0.4,1.3-0.6,2l-0.1,0c0,0,0,0,0,0.1
				c-3.7,11.9-4.7,25-5.1,31.3c-0.5,7.5-1.4,47.3-1.4,47.3h7.3c-1.3-10.2-2.7-29.4-1.5-50.5c0,0,0,0,0,0l0,0
				c0.2-2.9,0.4-5.8,0.6-8.7c1.2-13.3,4.6-23,7-28.4c0.1-0.1,0.2-0.4,0.4-0.8c0,2,0.3,4,1,4.8c1.7,1.9,3.7-2.2,3.8-2.3
				c0.1-0.1-1.7,10.3,0,12.3c1.6,2,3.7-1.8,3.7-1.8c-0.9,3-0.9,6.3-0.1,9.3l0,0.1c0,0,0,0,0,0c0,0.1,0,0.1,0,0.2
				c0.2,0.7,0.6,1.4,1.2,1.4c0.6,0,1-0.8,1.3-1.5c1.9-5.4,0.9-11.8-1.1-16.9c-0.7-1.9-1.8-3.7-3.1-5.3c0.3,0.2,0.7,0.3,1.1,0.5
				c3.7,1.5,5.2,0.8,5.7-0.1l1.9,0.9c0.8,0.9,2,2,3.6,2.7c1.6,0.8,2.6,0.7,3.3,0.4l3.5,1.6c0.9,0.9,2.1,1.8,3.6,2.7
				c0.2,0.1,0.4,0.3,0.6,0.4c0,0,0,0.1,0.1,0.1l0-0.1c2.6,1.4,3.4,1,3.6,0.5l0,0c0,0,0,0,0,0c0.1-0.2,0.1-0.5,0.1-0.5
				C473.8,261.6,472.8,260,471,258.3z"/>
		</g>
		<g>
			<path class="st2" d="M27,263.3L27,263.3L27,263.3c2.3-2.2,6.1-4.7,10.4-6.6v0h0c0.6-0.3,1.2-0.5,1.8-0.8c2.8-1.1,5.5-1.7,7.9-2
				c-0.2-0.1-0.4-0.2-0.6-0.3c-1-0.7-0.5-1.4,0.3-2l-2.4-0.6c-2.9,0.2-6.6,0.4-7.7-0.3c-0.9-0.5-0.7-1.1-0.3-1.7l-2.8-0.7
				c-1.5,0-3-0.2-4.4-0.5c-0.7-0.2-1.4-0.4-1.4-1c0,0,0,0,0,0l0,0c0,0,0,0,0,0c0-0.5,0.7-0.8,1.3-1c0.8-0.2,1.7-0.4,2.5-0.5l0,0
				c0,0,0,0,0,0c4.5-0.7,9.6,0.1,13.8,1.4c2.1,0.6,4.1,1.6,5.9,2.8l0,0c0,0,0,0,0,0c1.3,0.8,2.5,1.7,3.4,2.6c0-0.8,0.1-1.7,0.3-2.6
				c0,0,0,0,0,0h0c0.3-2,0.9-4.2,2.1-6.3c0.2-0.5,0.5-0.9,0.8-1.4l0,0l0,0c2-3.2,4.5-5.8,6.7-7.3l0,0l0,0c1.7-1.1,3.2-1.6,4.3-1.3
				c0,0,0.3,0,0.5,0.2c0,0,0,0,0,0l0,0c0.5,0.2,0.9,0.9-0.4,2.7l0.1,0c0,0-0.1,0-0.1,0c-0.1,0.1-0.2,0.3-0.4,0.4
				c-0.9,1.1-1.8,1.8-2.7,2.4l-1.6,2.5c0.3,0.6,0.4,1.4-0.4,2.5c-0.8,1.1-1.8,1.9-2.7,2.3l-0.8,1.3c0.6,0.4,1.1,1.1,1,2.3
				c2-1.1,4.6-2.1,7.5-2.6l0,0l0,0c0.3,0,0.5-0.1,0.8-0.1c7.9-1.2,15.8,0.3,17.1,2.9c0.1,0.1,1.4,1.8-3.2,1.7
				c-1.9-0.1-3.4-0.4-4.6-0.8l-2.6,0.3c-0.3,0.6-1,1.3-2.6,1.4c-1.5,0.1-2.8-0.2-3.8-0.6l-1.9,0.2c0,0.8-0.5,1.7-2.4,2.3
				c3.8,1.3,6.9,3.5,8.8,5c0,0,0,0,0,0l0,0c0.4,0.3,0.7,0.6,1,0.8c3,2.8,6.3,8.2,5.5,9.2c-0.3,0.4-1.4-0.6-2.5-1.9l-3.9-2.5
				c-0.3,0.2-0.6,0.2-1.1,0.2l0.1,0.2c0-0.1-0.1-0.1-0.1-0.2c-0.1,0-0.2,0-0.3,0c-0.8-0.2-2-1.6-3.1-3.1l-4.6-3
				c-0.3,0.1-0.5,0.2-0.5,0.2c-0.4,0.2-0.8,0.3-1.2,0.2l0,0c0,0,0,0,0,0c-1.2,0-2.5-0.8-3.7-1.8l0.5,1.1c0.3,0.6,0.6,1.3,0.9,2l0,0
				l0,0c0.7,1.6,1.3,3.3,2,5.3c0.2,0.6,0.4,1.3,0.6,1.9l0.1,0c0,0,0,0,0,0.1c3.5,11.4,4.5,24,4.9,30c0.5,7.2,1.4,45.4,1.4,45.4h-7
				c1.3-9.8,2.6-28.2,1.4-48.4c0,0,0,0,0,0l0,0c-0.2-2.8-0.4-5.5-0.6-8.4c-1.2-12.7-4.4-22-6.7-27.2c-0.1-0.1-0.2-0.4-0.3-0.7
				c0,1.9-0.3,3.8-1,4.6c-1.6,1.8-3.6-2.1-3.7-2.2c-0.1-0.1,1.6,9.9,0,11.8c-1.6,1.9-3.5-1.8-3.5-1.8c0.9,2.9,0.9,6,0.1,8.9l0,0.1
				c0,0,0,0,0,0c0,0.1,0,0.1,0,0.2c-0.2,0.6-0.5,1.4-1.2,1.3c-0.6,0-1-0.8-1.2-1.4c-1.8-5.2-0.8-11.3,1.1-16.2
				c0.7-1.8,1.8-3.6,2.9-5.1c-0.3,0.1-0.7,0.3-1,0.4c-3.5,1.4-4.9,0.7-5.5-0.1l-1.8,0.8c-0.8,0.9-1.9,1.9-3.4,2.6
				c-1.5,0.7-2.5,0.7-3.2,0.4l-3.4,1.5c-0.8,0.8-2,1.7-3.5,2.6c-0.2,0.1-0.4,0.2-0.6,0.3c0,0,0,0.1-0.1,0.1l0-0.1
				c-2.5,1.3-3.2,0.9-3.4,0.5l0,0c0,0,0,0,0,0c-0.1-0.2-0.1-0.5-0.1-0.5C24.3,266.5,25.3,265,27,263.3z"/>
		</g>
		<g>
			<path class="st2" d="M458.5,165.9L458.5,165.9L458.5,165.9c-4.5-4.7-11.8-9.9-20.2-13.9l0,0l0,0c-1.2-0.6-2.4-1.1-3.6-1.6
				c-5.4-2.3-10.7-3.6-15.4-4.3c0.4-0.2,0.8-0.4,1.1-0.6c2-1.4,1-3-0.5-4.3l4.7-1.3c5.7,0.5,12.8,0.8,15-0.7
				c1.7-1.1,1.4-2.4,0.6-3.5l5.5-1.5c2.9,0,5.9-0.3,8.6-1c1.3-0.3,2.8-0.9,2.8-2c0,0,0,0,0-0.1l0,0c0,0,0,0,0,0c0-1-1.4-1.7-2.6-2.1
				c-1.6-0.5-3.2-0.9-4.9-1.1l0,0c0,0,0,0,0,0c-8.8-1.4-18.6,0.2-26.8,2.9c-4.1,1.4-8,3.5-11.5,5.8l0-0.1c0,0,0,0-0.1,0.1
				c-2.6,1.8-4.8,3.7-6.6,5.6c-0.1-1.7-0.2-3.6-0.5-5.5c0,0,0,0,0,0l0,0c-0.6-4.2-1.8-8.8-4-13.3c-0.5-1-1-1.9-1.5-2.9l0,0l0,0
				c-3.8-6.8-8.7-12.3-13.1-15.5l0,0l0,0c-3.2-2.3-6.3-3.4-8.4-2.8c-0.1,0-0.6,0.1-1,0.3c0,0,0,0,0,0l0,0c-0.9,0.5-1.8,1.9,0.9,5.7
				l-0.1,0.1c0.1,0,0.2,0.1,0.2,0.1c0.2,0.3,0.4,0.6,0.7,0.9c1.8,2.3,3.6,3.9,5.2,5.1l3,5.3c-0.6,1.3-0.7,3,0.7,5.3
				c1.5,2.4,3.5,3.9,5.2,4.9l1.6,2.8c-1.1,0.8-2.1,2.3-1.9,4.8c-4-2.2-9-4.4-14.7-5.6l0,0l0,0c-0.5-0.1-1-0.2-1.5-0.3
				c-15.4-2.6-30.7,0.7-33.3,6.1c-0.1,0.3-2.8,3.9,6.3,3.6c3.7-0.1,6.7-0.8,8.9-1.6l5.1,0.7c0.5,1.4,1.9,2.7,5.1,2.9
				c2.9,0.2,5.4-0.5,7.4-1.2l3.7,0.5c0,1.7,0.9,3.7,4.7,4.9c-7.3,2.8-13.5,7.4-17.1,10.6c0,0,0,0-0.1,0l0,0
				c-0.8,0.7-1.4,1.3-1.9,1.8c-5.8,5.9-12.2,17.2-10.7,19.4c0.7,0.9,2.7-1.2,4.8-4l7.6-5.4c0.5,0.3,1.2,0.5,2.2,0.4l-0.1,0.3
				c0.1-0.1,0.1-0.2,0.2-0.4c0.2,0,0.4,0,0.6-0.1c1.5-0.4,3.8-3.3,6-6.6l9-6.4c0.5,0.3,0.9,0.4,0.9,0.4c0.7,0.4,1.5,0.6,2.3,0.5l0,0
				c0,0,0,0,0,0c2.3-0.1,4.8-1.8,7.1-3.9l-0.9,2.3c-0.6,1.3-1.1,2.7-1.7,4.3l0,0.1l0,0c-1.3,3.3-2.6,7.1-3.9,11.2
				c-0.4,1.3-0.8,2.7-1.2,4l-0.1-0.1c0,0,0.1,0.1,0.1,0.1c-6.8,24.1-8.7,50.7-9.5,63.4c-0.9,15.2-2.6,95.9-2.6,95.9H388
				c-2.5-20.7-5-59.5-2.7-102.3c0,0,0,0,0.1,0l-0.1,0c0.3-5.8,0.7-11.7,1.2-17.7c2.3-26.9,8.6-46.5,13-57.5c0.1-0.2,0.4-0.8,0.7-1.6
				c0.1,4,0.5,8,1.9,9.7c3.1,3.9,6.9-4.4,7.2-4.7c0.2-0.2-3.1,20.8,0,24.9c3.1,4.1,6.9-3.7,6.9-3.7c-1.7,6.2-1.7,12.8-0.2,18.7
				l0,0.1c0,0,0-0.1,0-0.1c0,0.1,0,0.2,0.1,0.3c0.4,1.4,1.1,2.9,2.3,2.8c1.2-0.1,1.9-1.7,2.4-3c3.5-11,1.6-23.9-2.1-34.2
				c-1.4-3.9-3.4-7.5-5.7-10.8c0.6,0.3,1.3,0.6,2,0.9c6.9,3.1,9.6,1.6,10.7-0.2l3.5,1.7c1.5,1.9,3.7,3.9,6.7,5.6
				c2.9,1.6,4.9,1.5,6.2,0.8l6.6,3.3c1.7,1.7,3.9,3.7,6.8,5.5c0.4,0.3,0.8,0.5,1.2,0.7c0,0.1,0.1,0.2,0.1,0.2l0-0.1
				c4.9,2.8,6.3,1.9,6.6,1l0,0c0,0,0,0,0,0c0.2-0.5,0.1-1,0.2-1.1C463.6,172.5,461.8,169.3,458.5,165.9z"/>
		</g>
		<path class="st2" d="M477.2,351c0,0-102.1-28.8-140.8-25.2c-38.6,3.6-99.5,25.7-100.4,25.2C235.1,350.5,477.2,351,477.2,351z"/>
		<path class="st2" d="M254.5,351c0,0-96.4-28.8-132.8-25.2c-36.4,3.6-93.9,25.7-94.8,25.2C26.1,350.5,254.5,351,254.5,351z"/>
	</g>
	<g>
		<g>
			<g>
				<g>
					<path class="st2" d="M443.9,330.2H263.2c-3.2,0-5.9-2.6-5.9-5.9V61.1c0-3.2,2.6-5.9,5.9-5.9h180.7c3.2,0,5.9,2.6,5.9,5.9v263.3
						C449.8,327.6,447.2,330.2,443.9,330.2z M263.2,55.5c-3.1,0-5.6,2.5-5.6,5.6v263.3c0,3.1,2.5,5.6,5.6,5.6h180.7
						c3.1,0,5.6-2.5,5.6-5.6V61.1c0-3.1-2.5-5.6-5.6-5.6H263.2z"/>
				</g>
			</g>
			<g>
				<g>
					<path class="st2" d="M235.5,330.2H54.7c-3.2,0-5.9-2.6-5.9-5.9V61.1c0-3.2,2.6-5.9,5.9-5.9h180.7c3.2,0,5.9,2.6,5.9,5.9v263.3
						C241.4,327.6,238.7,330.2,235.5,330.2z M54.7,55.5c-3.1,0-5.6,2.5-5.6,5.6v263.3c0,3.1,2.5,5.6,5.6,5.6h180.7
						c3.1,0,5.6-2.5,5.6-5.6V61.1c0-3.1-2.5-5.6-5.6-5.6H54.7z"/>
				</g>
			</g>
		</g>
		<g>
			<g>
				<g>
					<rect x="0" y="352.5" class="st2" width="500" height="0.2"/>
				</g>
			</g>
			<rect x="51.7" y="366.8" class="st2" width="16.1" height="0.2"/>
			<rect x="170.4" y="364.1" class="st2" width="53.5" height="0.2"/>
			<rect x="68.7" y="376.1" class="st2" width="36.2" height="0.2"/>
			<rect x="378.4" y="364" class="st2" width="43.2" height="0.2"/>
			<rect x="430.5" y="364" class="st2" width="6.3" height="0.2"/>
			<rect x="316.2" y="370.2" class="st2" width="53.9" height="0.2"/>
		</g>
	</g>
</g>
<g id="Background_simple" class="st3">
	<g class="st4">
		<path class="st5" d="M168.9,52.7c-26.6,3.5-52.2,11-74.9,22.7c-26.8,13.8-54.1,35.3-46,63.4c14.9,51.9,86.5,52.9,72.2,87.8
			c-16.2,39.5-5.3,85.9,67.3,98.8C325.3,349.8,492,206.5,445.2,127.8C416,78.7,309.9,34.1,168.9,52.7z"/>
		<path class="st6" d="M168.9,52.7c-26.6,3.5-52.2,11-74.9,22.7c-26.8,13.8-54.1,35.3-46,63.4c14.9,51.9,86.5,52.9,72.2,87.8
			c-16.2,39.5-5.3,85.9,67.3,98.8C325.3,349.8,492,206.5,445.2,127.8C416,78.7,309.9,34.1,168.9,52.7z"/>
	</g>
</g>
<g id="Shadow">
	<g>
		<g>
			<path class="st0" d="M464.9,468.7c0,10.1-96.2,18.4-214.9,18.4s-214.9-8.2-214.9-18.4c0-10.1,96.2-18.4,214.9-18.4
				S464.9,458.5,464.9,468.7z"/>
		</g>
	</g>
</g>
<g id="Document">
	<g>
		<path class="st5" d="M335.8,317.6H181.1c-3.7,0-6.8-3-6.8-6.8V78.3c0-3.7,3-6.8,6.8-6.8h154.7c3.7,0,6.8,3,6.8,6.8v232.5
			C342.6,314.6,339.6,317.6,335.8,317.6z"/>
		<path class="st7" d="M335.8,317.6H181.1c-3.7,0-6.8-3-6.8-6.8V78.3c0-3.7,3-6.8,6.8-6.8h154.7c3.7,0,6.8,3,6.8,6.8v232.5
			C342.6,314.6,339.6,317.6,335.8,317.6z"/>
		<polygon class="st8" points="187.5,78.3 180.1,78.3 180.1,311.3 335.7,312.7 339.9,307.3 336.2,87.4 		"/>
		<polygon class="st2" points="339.9,307.3 186.2,307.3 186.2,78.3 180.1,78.3 180.1,312.7 335.7,312.7 		"/>
		<polygon class="st9" points="180.1,312.7 186.2,307.3 339.9,307.3 335.7,312.7 		"/>
		<path class="st10" d="M339.9,307.3H186.2c-6-39.6-2.3-138.1,0-229H337C335.8,169.2,338.8,255.4,339.9,307.3z"/>
		<polygon class="st9" points="231.5,71.5 231.5,89.3 286.9,89.7 286.8,86.4 260.2,70.7 		"/>
		<path class="st11" d="M289.5,86.4h-54.7v-11c0-4.2,3.4-7.6,7.6-7.6h39.5c4.2,0,7.6,3.4,7.6,7.6V86.4z"/>
		<path class="st11" d="M252,69.2l-2.1-7.2c-0.2-0.5,0.2-1.1,0.7-1.1h24.5c0.5,0,0.9,0.6,0.7,1.1l-2.5,7.5c-0.1,0.3-0.4,0.6-0.7,0.6
			l-20-0.3C252.4,69.8,252.1,69.6,252,69.2z"/>
		<path class="st12" d="M192.8,68.1c12.9,0,25.8,0,38.6,0"/>
		<line class="st12" x1="190.6" y1="68.1" x2="184.6" y2="68.1"/>
		<g>
			<g>
				<path d="M252.9,67.6c7.1,0,14.2,0,21.3,0c1,0,1-1.5,0-1.5c-7.1,0-14.2,0-21.3,0C251.9,66.1,251.9,67.6,252.9,67.6L252.9,67.6z"
					/>
			</g>
		</g>
		<g>
			<path class="st13" d="M200,128.1c41.2,0,82.4,0,123.6,0"/>
			<g>
				<path class="st11" d="M200,128.9c32.1,0,64.1,0,96.2,0c9.1,0,18.3,0,27.4,0c1,0,1-1.5,0-1.5c-32.1,0-64.1,0-96.2,0
					c-9.1,0-18.3,0-27.4,0C199,127.4,199,128.9,200,128.9L200,128.9z"/>
			</g>
		</g>
		<g>
			<path class="st13" d="M200,138.9c40.6,0,81.1,0,121.7,0"/>
			<g>
				<path class="st11" d="M200,139.7c31.6,0,63.2,0,94.7,0c9,0,18,0,26.9,0c1,0,1-1.5,0-1.5c-31.6,0-63.2,0-94.7,0c-9,0-18,0-26.9,0
					C199,138.2,199,139.7,200,139.7L200,139.7z"/>
			</g>
		</g>
		<g>
			<path class="st13" d="M200,149.8c40.6,0,81.1,0,121.7,0"/>
			<g>
				<path class="st11" d="M200,150.5c31.6,0,63.2,0,94.7,0c9,0,18,0,26.9,0c1,0,1-1.5,0-1.5c-31.6,0-63.2,0-94.7,0c-9,0-18,0-26.9,0
					C199,149,199,150.5,200,150.5L200,150.5z"/>
			</g>
		</g>
		<g>
			<path class="st13" d="M200,160.6c40.6,0,81.1,0,121.7,0"/>
			<g>
				<path class="st11" d="M200,161.3c31.6,0,63.2,0,94.7,0c9,0,18,0,26.9,0c1,0,1-1.5,0-1.5c-31.6,0-63.2,0-94.7,0c-9,0-18,0-26.9,0
					C199,159.8,199,161.3,200,161.3L200,161.3z"/>
			</g>
		</g>
		<g>
			<path class="st13" d="M200,171.4c40.6,0,81.1,0,121.7,0"/>
			<g>
				<path class="st11" d="M200,172.1c31.6,0,63.2,0,94.7,0c9,0,18,0,26.9,0c1,0,1-1.5,0-1.5c-31.6,0-63.2,0-94.7,0c-9,0-18,0-26.9,0
					C199,170.6,199,172.1,200,172.1L200,172.1z"/>
			</g>
		</g>
		<g>
			<path class="st13" d="M200,182.2c40.6,0,81.1,0,121.7,0"/>
			<g>
				<path class="st11" d="M200,183c31.6,0,63.2,0,94.7,0c9,0,18,0,26.9,0c1,0,1-1.5,0-1.5c-31.6,0-63.2,0-94.7,0c-9,0-18,0-26.9,0
					C199,181.5,199,183,200,183L200,183z"/>
			</g>
		</g>
		<g>
			<g>
				<path class="st11" d="M200.8,194.4c17.1,0,34.3,0,51.4,0c1,0,1-1.5,0-1.5c-17.1,0-34.3,0-51.4,0
					C199.9,192.9,199.8,194.4,200.8,194.4L200.8,194.4z"/>
			</g>
		</g>
		<g>
			<path class="st13" d="M200,218.6c40.6,0,81.1,0,121.7,0"/>
			<g>
				<path class="st11" d="M200,219.4c31.6,0,63.2,0,94.7,0c9,0,18,0,26.9,0c1,0,1-1.5,0-1.5c-31.6,0-63.2,0-94.7,0c-9,0-18,0-26.9,0
					C199,217.9,199,219.4,200,219.4L200,219.4z"/>
			</g>
		</g>
		<g>
			<g>
				<path class="st11" d="M200.8,230.8c31.5,0,62.9,0,94.3,0c8.8,0,17.6,0,26.5,0c1,0,1-1.5,0-1.5c-31.5,0-62.9,0-94.3,0
					c-8.8,0-17.6,0-26.5,0C199.9,229.3,199.8,230.8,200.8,230.8L200.8,230.8z"/>
			</g>
		</g>
		<g>
			<g>
				<path class="st11" d="M200.8,262.8c19.9,0,39.8,0,59.8,0c1,0,1-1.5,0-1.5c-19.9,0-39.8,0-59.8,0
					C199.9,261.3,199.8,262.8,200.8,262.8L200.8,262.8z"/>
			</g>
		</g>
		<g>
			<g>
				<path class="st11" d="M200.8,272.4c17.1,0,34.3,0,51.4,0c1,0,1-1.5,0-1.5c-17.1,0-34.3,0-51.4,0
					C199.9,270.9,199.8,272.4,200.8,272.4L200.8,272.4z"/>
			</g>
		</g>
		<rect x="273.8" y="197.7" class="st5" width="41.1" height="12.5"/>
		<g>
			<g>
				<path class="st11" d="M276.7,270.6c2.9-0.6,5.5-2.1,7.6-4.1c2-1.9,4-4.6,4.5-7.3c0.4-2.4-2.2-4.1-4.2-2.9c-2.4,1.4-4,4.3-4.3,7
					c-0.6,5.8,4.5,10.8,10,11.3c6.5,0.6,12-3.9,14.2-9.7c0.9-2.5,1.8-6.3,0.6-8.8c-1.3-2.8-4.4-2.8-6.7-1.3
					c-4.6,3.1-8,10.1-3.9,14.8c4,4.6,11.5,3.5,16.1,0.5c4.1-2.7,8.3-8.2,6.8-13.4c-0.8-3-3.9-4.5-6.8-3.1c-2.8,1.3-3.9,4.7-3.4,7.7
					c0.5,3.2,2.9,5.9,5.9,7c3.1,1,6.5,0.1,8.9-2c0.7-0.7-0.4-1.7-1.1-1.1c-3.8,3.5-9.9,2.2-11.9-2.6c-0.9-2.1-0.8-4.8,0.8-6.5
					c1.7-2,4.9-1.9,5.9,0.7c1.6,3.9-1.6,8.6-4.4,11c-3.3,2.8-8.2,4.4-12.4,3.1c-2.4-0.7-4.5-2.6-4.9-5.2c-0.4-2.3,0.7-4.7,2.1-6.5
					c1.2-1.6,3.6-4.5,5.9-3.8c2.6,0.8,2,4.6,1.6,6.6c-1,4.8-4.1,9.2-8.9,10.7c-4.6,1.5-9.8-0.1-12.1-4.5c-1.3-2.3-1.4-5-0.2-7.4
					c0.6-1.1,1.4-2.2,2.5-2.9c1.4-1,2.6,0.1,2.1,1.6c-1.6,4.8-5.9,8.6-10.8,9.7C275.4,269.4,275.8,270.8,276.7,270.6L276.7,270.6z"
					/>
			</g>
		</g>
		<text transform="matrix(1 0 0 1 196.1592 114.7627)" class="st14 st15">OVER DRAFT LOAN</text>
	</g>
</g>
<g id="Coins">
	<g>
		<g>
			<g>
				<g>
					<rect x="355.7" y="444.8" class="st5" width="56.1" height="9.8"/>
					<g>
						<g class="st16">
							<g>
								<path class="st11" d="M360.2,445.3c0,2.9,0,5.8,0,8.8c0,0.5,0.8,0.5,0.8,0c0-2.9,0-5.8,0-8.8
									C361,444.8,360.2,444.8,360.2,445.3L360.2,445.3z"/>
							</g>
						</g>
						<g class="st16">
							<g>
								<path class="st11" d="M364.9,445.3c0,2.9,0,5.8,0,8.8c0,0.5,0.8,0.5,0.8,0c0-2.9,0-5.8,0-8.8
									C365.6,444.8,364.9,444.8,364.9,445.3L364.9,445.3z"/>
							</g>
						</g>
						<g class="st16">
							<g>
								<path class="st11" d="M369.4,445.3c0,2.9,0,5.8,0,8.8c0,0.5,0.8,0.5,0.8,0c0-2.9,0-5.8,0-8.8
									C370.2,444.8,369.4,444.8,369.4,445.3L369.4,445.3z"/>
							</g>
						</g>
						<g class="st16">
							<g>
								<path class="st11" d="M374,445.3c0,2.9,0,5.8,0,8.8c0,0.5,0.8,0.5,0.8,0c0-2.9,0-5.8,0-8.8C374.7,444.8,374,444.8,374,445.3
									L374,445.3z"/>
							</g>
						</g>
						<g class="st16">
							<g>
								<path class="st11" d="M378.6,445.3c0,2.9,0,5.8,0,8.8c0,0.5,0.8,0.5,0.8,0c0-2.9,0-5.8,0-8.8
									C379.3,444.8,378.6,444.8,378.6,445.3L378.6,445.3z"/>
							</g>
						</g>
						<g class="st16">
							<g>
								<path class="st11" d="M383.1,445.3c0,2.9,0,5.8,0,8.8c0,0.5,0.8,0.5,0.8,0c0-2.9,0-5.8,0-8.8
									C383.9,444.8,383.1,444.8,383.1,445.3L383.1,445.3z"/>
							</g>
						</g>
						<g class="st16">
							<g>
								<path class="st11" d="M387.7,445.3c0,2.9,0,5.8,0,8.8c0,0.5,0.8,0.5,0.8,0c0-2.9,0-5.8,0-8.8
									C388.5,444.8,387.7,444.8,387.7,445.3L387.7,445.3z"/>
							</g>
						</g>
						<g class="st16">
							<g>
								<path class="st11" d="M392.3,445.3c0,2.9,0,5.8,0,8.8c0,0.5,0.8,0.5,0.8,0c0-2.9,0-5.8,0-8.8
									C393,444.8,392.3,444.8,392.3,445.3L392.3,445.3z"/>
							</g>
						</g>
						<g class="st16">
							<g>
								<path class="st11" d="M396.9,445.3c0,2.9,0,5.8,0,8.8c0,0.5,0.8,0.5,0.8,0c0-2.9,0-5.8,0-8.8
									C397.6,444.8,396.9,444.8,396.9,445.3L396.9,445.3z"/>
							</g>
						</g>
						<g class="st16">
							<g>
								<path class="st11" d="M401.4,445.3c0,2.9,0,5.8,0,8.8c0,0.5,0.8,0.5,0.8,0c0-2.9,0-5.8,0-8.8
									C402.2,444.8,401.4,444.8,401.4,445.3L401.4,445.3z"/>
							</g>
						</g>
						<g class="st16">
							<g>
								<path class="st11" d="M406,445.3c0,2.9,0,5.8,0,8.8c0,0.5,0.8,0.5,0.8,0c0-2.9,0-5.8,0-8.8C406.8,444.8,406,444.8,406,445.3
									L406,445.3z"/>
							</g>
						</g>
					</g>
					<rect x="354.8" y="463.8" class="st5" width="56.1" height="9.8"/>
					<rect x="359.1" y="454.3" class="st5" width="56.1" height="9.8"/>
					<rect x="359.1" y="454.3" class="st9" width="56.1" height="9.8"/>
					<g>
						<g class="st16">
							<g>
								<path class="st11" d="M363.9,454.8c0,2.9,0,5.8,0,8.8c0,0.5,0.8,0.5,0.8,0c0-2.9,0-5.8,0-8.8
									C364.7,454.3,363.9,454.3,363.9,454.8L363.9,454.8z"/>
							</g>
						</g>
						<g class="st16">
							<g>
								<path class="st11" d="M368.6,454.8c0,2.9,0,5.8,0,8.8c0,0.5,0.8,0.5,0.8,0c0-2.9,0-5.8,0-8.8
									C369.3,454.3,368.6,454.3,368.6,454.8L368.6,454.8z"/>
							</g>
						</g>
						<g class="st16">
							<g>
								<path class="st11" d="M373.1,454.8c0,2.9,0,5.8,0,8.8c0,0.5,0.8,0.5,0.8,0c0-2.9,0-5.8,0-8.8
									C373.9,454.3,373.1,454.3,373.1,454.8L373.1,454.8z"/>
							</g>
						</g>
						<g class="st16">
							<g>
								<path class="st11" d="M377.7,454.8c0,2.9,0,5.8,0,8.8c0,0.5,0.8,0.5,0.8,0c0-2.9,0-5.8,0-8.8
									C378.5,454.3,377.7,454.3,377.7,454.8L377.7,454.8z"/>
							</g>
						</g>
						<g class="st16">
							<g>
								<path class="st11" d="M382.3,454.8c0,2.9,0,5.8,0,8.8c0,0.5,0.8,0.5,0.8,0c0-2.9,0-5.8,0-8.8
									C383,454.3,382.3,454.3,382.3,454.8L382.3,454.8z"/>
							</g>
						</g>
						<g class="st16">
							<g>
								<path class="st11" d="M386.9,454.8c0,2.9,0,5.8,0,8.8c0,0.5,0.8,0.5,0.8,0c0-2.9,0-5.8,0-8.8
									C387.6,454.3,386.9,454.3,386.9,454.8L386.9,454.8z"/>
							</g>
						</g>
						<g class="st16">
							<g>
								<path class="st11" d="M391.4,454.8c0,2.9,0,5.8,0,8.8c0,0.5,0.8,0.5,0.8,0c0-2.9,0-5.8,0-8.8
									C392.2,454.3,391.4,454.3,391.4,454.8L391.4,454.8z"/>
							</g>
						</g>
						<g class="st16">
							<g>
								<path class="st11" d="M396,454.8c0,2.9,0,5.8,0,8.8c0,0.5,0.8,0.5,0.8,0c0-2.9,0-5.8,0-8.8C396.8,454.3,396,454.3,396,454.8
									L396,454.8z"/>
							</g>
						</g>
						<g class="st16">
							<g>
								<path class="st11" d="M400.6,454.8c0,2.9,0,5.8,0,8.8c0,0.5,0.8,0.5,0.8,0c0-2.9,0-5.8,0-8.8
									C401.3,454.3,400.6,454.3,400.6,454.8L400.6,454.8z"/>
							</g>
						</g>
						<g class="st16">
							<g>
								<path class="st11" d="M405.1,454.8c0,2.9,0,5.8,0,8.8c0,0.5,0.8,0.5,0.8,0c0-2.9,0-5.8,0-8.8
									C405.9,454.3,405.1,454.3,405.1,454.8L405.1,454.8z"/>
							</g>
						</g>
						<g class="st16">
							<g>
								<path class="st11" d="M409.7,454.8c0,2.9,0,5.8,0,8.8c0,0.5,0.8,0.5,0.8,0c0-2.9,0-5.8,0-8.8
									C410.5,454.3,409.7,454.3,409.7,454.8L409.7,454.8z"/>
							</g>
						</g>
					</g>
					<rect x="359.1" y="434.9" class="st5" width="56.1" height="9.8"/>
					<rect x="359.1" y="434.9" class="st9" width="56.1" height="9.8"/>
					<g>
						<g class="st16">
							<g>
								<path class="st11" d="M363.9,435.4c0,2.9,0,5.8,0,8.8c0,0.5,0.8,0.5,0.8,0c0-2.9,0-5.8,0-8.8
									C364.7,434.9,363.9,434.9,363.9,435.4L363.9,435.4z"/>
							</g>
						</g>
						<g class="st16">
							<g>
								<path class="st11" d="M368.6,435.4c0,2.9,0,5.8,0,8.8c0,0.5,0.8,0.5,0.8,0c0-2.9,0-5.8,0-8.8
									C369.3,434.9,368.6,434.9,368.6,435.4L368.6,435.4z"/>
							</g>
						</g>
						<g class="st16">
							<g>
								<path class="st11" d="M373.1,435.4c0,2.9,0,5.8,0,8.8c0,0.5,0.8,0.5,0.8,0c0-2.9,0-5.8,0-8.8
									C373.9,434.9,373.1,434.9,373.1,435.4L373.1,435.4z"/>
							</g>
						</g>
						<g class="st16">
							<g>
								<path class="st11" d="M377.7,435.4c0,2.9,0,5.8,0,8.8c0,0.5,0.8,0.5,0.8,0c0-2.9,0-5.8,0-8.8
									C378.5,434.9,377.7,434.9,377.7,435.4L377.7,435.4z"/>
							</g>
						</g>
						<g class="st16">
							<g>
								<path class="st11" d="M382.3,435.4c0,2.9,0,5.8,0,8.8c0,0.5,0.8,0.5,0.8,0c0-2.9,0-5.8,0-8.8
									C383,434.9,382.3,434.9,382.3,435.4L382.3,435.4z"/>
							</g>
						</g>
						<g class="st16">
							<g>
								<path class="st11" d="M386.9,435.4c0,2.9,0,5.8,0,8.8c0,0.5,0.8,0.5,0.8,0c0-2.9,0-5.8,0-8.8
									C387.6,434.9,386.9,434.9,386.9,435.4L386.9,435.4z"/>
							</g>
						</g>
						<g class="st16">
							<g>
								<path class="st11" d="M391.4,435.4c0,2.9,0,5.8,0,8.8c0,0.5,0.8,0.5,0.8,0c0-2.9,0-5.8,0-8.8
									C392.2,434.9,391.4,434.9,391.4,435.4L391.4,435.4z"/>
							</g>
						</g>
						<g class="st16">
							<g>
								<path class="st11" d="M396,435.4c0,2.9,0,5.8,0,8.8c0,0.5,0.8,0.5,0.8,0c0-2.9,0-5.8,0-8.8C396.8,434.9,396,434.9,396,435.4
									L396,435.4z"/>
							</g>
						</g>
						<g class="st16">
							<g>
								<path class="st11" d="M400.6,435.4c0,2.9,0,5.8,0,8.8c0,0.5,0.8,0.5,0.8,0c0-2.9,0-5.8,0-8.8
									C401.3,434.9,400.6,434.9,400.6,435.4L400.6,435.4z"/>
							</g>
						</g>
						<g class="st16">
							<g>
								<path class="st11" d="M405.1,435.4c0,2.9,0,5.8,0,8.8c0,0.5,0.8,0.5,0.8,0c0-2.9,0-5.8,0-8.8
									C405.9,434.9,405.1,434.9,405.1,435.4L405.1,435.4z"/>
							</g>
						</g>
						<g class="st16">
							<g>
								<path class="st11" d="M409.7,435.4c0,2.9,0,5.8,0,8.8c0,0.5,0.8,0.5,0.8,0c0-2.9,0-5.8,0-8.8
									C410.5,434.9,409.7,434.9,409.7,435.4L409.7,435.4z"/>
							</g>
						</g>
					</g>
					<g>
						<g class="st16">
							<g>
								<path class="st11" d="M358.9,464.5c0,2.9,0,5.8,0,8.8c0,0.5,0.8,0.5,0.8,0c0-2.9,0-5.8,0-8.8
									C359.7,464,358.9,464,358.9,464.5L358.9,464.5z"/>
							</g>
						</g>
						<g class="st16">
							<g>
								<path class="st11" d="M363.6,464.5c0,2.9,0,5.8,0,8.8c0,0.5,0.8,0.5,0.8,0c0-2.9,0-5.8,0-8.8
									C364.3,464,363.6,464,363.6,464.5L363.6,464.5z"/>
							</g>
						</g>
						<g class="st16">
							<g>
								<path class="st11" d="M368.1,464.5c0,2.9,0,5.8,0,8.8c0,0.5,0.8,0.5,0.8,0c0-2.9,0-5.8,0-8.8
									C368.9,464,368.1,464,368.1,464.5L368.1,464.5z"/>
							</g>
						</g>
						<g class="st16">
							<g>
								<path class="st11" d="M372.7,464.5c0,2.9,0,5.8,0,8.8c0,0.5,0.8,0.5,0.8,0c0-2.9,0-5.8,0-8.8
									C373.4,464,372.7,464,372.7,464.5L372.7,464.5z"/>
							</g>
						</g>
						<g class="st16">
							<g>
								<path class="st11" d="M377.3,464.5c0,2.9,0,5.8,0,8.8c0,0.5,0.8,0.5,0.8,0c0-2.9,0-5.8,0-8.8C378,464,377.3,464,377.3,464.5
									L377.3,464.5z"/>
							</g>
						</g>
						<g class="st16">
							<g>
								<path class="st11" d="M381.8,464.5c0,2.9,0,5.8,0,8.8c0,0.5,0.8,0.5,0.8,0c0-2.9,0-5.8,0-8.8
									C382.6,464,381.8,464,381.8,464.5L381.8,464.5z"/>
							</g>
						</g>
						<g class="st16">
							<g>
								<path class="st11" d="M386.4,464.5c0,2.9,0,5.8,0,8.8c0,0.5,0.8,0.5,0.8,0c0-2.9,0-5.8,0-8.8
									C387.2,464,386.4,464,386.4,464.5L386.4,464.5z"/>
							</g>
						</g>
						<g class="st16">
							<g>
								<path class="st11" d="M391,464.5c0,2.9,0,5.8,0,8.8c0,0.5,0.8,0.5,0.8,0c0-2.9,0-5.8,0-8.8C391.7,464,391,464,391,464.5
									L391,464.5z"/>
							</g>
						</g>
						<g class="st16">
							<g>
								<path class="st11" d="M395.6,464.5c0,2.9,0,5.8,0,8.8c0,0.5,0.8,0.5,0.8,0c0-2.9,0-5.8,0-8.8
									C396.3,464,395.6,464,395.6,464.5L395.6,464.5z"/>
							</g>
						</g>
						<g class="st16">
							<g>
								<path class="st11" d="M400.1,464.5c0,2.9,0,5.8,0,8.8c0,0.5,0.8,0.5,0.8,0c0-2.9,0-5.8,0-8.8
									C400.9,464,400.1,464,400.1,464.5L400.1,464.5z"/>
							</g>
						</g>
						<g class="st16">
							<g>
								<path class="st11" d="M404.7,464.5c0,2.9,0,5.8,0,8.8c0,0.5,0.8,0.5,0.8,0c0-2.9,0-5.8,0-8.8
									C405.5,464,404.7,464,404.7,464.5L404.7,464.5z"/>
							</g>
						</g>
					</g>
				</g>
			</g>
			<g>
				<g class="st16">
					<polygon points="411.8,444.8 355.7,444.8 355.7,454.6 359.1,454.6 359.1,463.8 354.8,463.8 354.8,473.6 411,473.6 411,464 
						415.3,464 415.3,454.3 411.8,454.3 					"/>
				</g>
				<g class="st9">
					<rect x="359.1" y="434.9" width="56.1" height="9.8"/>
				</g>
			</g>
		</g>
		<g>
			<g>
				<rect x="320.8" y="444.9" class="st5" width="56.1" height="9.8"/>
				<g>
					<g class="st16">
						<g>
							<path class="st11" d="M325.4,445.5c0,2.9,0,5.8,0,8.8c0,0.5,0.8,0.5,0.8,0c0-2.9,0-5.8,0-8.8
								C326.1,445,325.4,445,325.4,445.5L325.4,445.5z"/>
						</g>
					</g>
					<g class="st16">
						<g>
							<path class="st11" d="M330,445.5c0,2.9,0,5.8,0,8.8c0,0.5,0.8,0.5,0.8,0c0-2.9,0-5.8,0-8.8C330.8,445,330,445,330,445.5
								L330,445.5z"/>
						</g>
					</g>
					<g class="st16">
						<g>
							<path class="st11" d="M334.6,445.5c0,2.9,0,5.8,0,8.8c0,0.5,0.8,0.5,0.8,0c0-2.9,0-5.8,0-8.8
								C335.3,445,334.6,445,334.6,445.5L334.6,445.5z"/>
						</g>
					</g>
					<g class="st16">
						<g>
							<path class="st11" d="M339.2,445.5c0,2.9,0,5.8,0,8.8c0,0.5,0.8,0.5,0.8,0c0-2.9,0-5.8,0-8.8
								C339.9,445,339.2,445,339.2,445.5L339.2,445.5z"/>
						</g>
					</g>
					<g class="st16">
						<g>
							<path class="st11" d="M343.7,445.5c0,2.9,0,5.8,0,8.8c0,0.5,0.8,0.5,0.8,0c0-2.9,0-5.8,0-8.8
								C344.5,445,343.7,445,343.7,445.5L343.7,445.5z"/>
						</g>
					</g>
					<g class="st16">
						<g>
							<path class="st11" d="M348.3,445.5c0,2.9,0,5.8,0,8.8c0,0.5,0.8,0.5,0.8,0c0-2.9,0-5.8,0-8.8
								C349.1,445,348.3,445,348.3,445.5L348.3,445.5z"/>
						</g>
					</g>
					<g class="st16">
						<g>
							<path class="st11" d="M352.9,445.5c0,2.9,0,5.8,0,8.8c0,0.5,0.8,0.5,0.8,0c0-2.9,0-5.8,0-8.8
								C353.6,445,352.9,445,352.9,445.5L352.9,445.5z"/>
						</g>
					</g>
					<g class="st16">
						<g>
							<path class="st11" d="M357.4,445.5c0,2.9,0,5.8,0,8.8c0,0.5,0.8,0.5,0.8,0c0-2.9,0-5.8,0-8.8
								C358.2,445,357.4,445,357.4,445.5L357.4,445.5z"/>
						</g>
					</g>
					<g class="st16">
						<g>
							<path class="st11" d="M362,445.5c0,2.9,0,5.8,0,8.8c0,0.5,0.8,0.5,0.8,0c0-2.9,0-5.8,0-8.8C362.8,445,362,445,362,445.5
								L362,445.5z"/>
						</g>
					</g>
					<g class="st16">
						<g>
							<path class="st11" d="M366.6,445.5c0,2.9,0,5.8,0,8.8c0,0.5,0.8,0.5,0.8,0c0-2.9,0-5.8,0-8.8
								C367.3,445,366.6,445,366.6,445.5L366.6,445.5z"/>
						</g>
					</g>
					<g class="st16">
						<g>
							<path class="st11" d="M371.2,445.5c0,2.9,0,5.8,0,8.8c0,0.5,0.8,0.5,0.8,0c0-2.9,0-5.8,0-8.8
								C371.9,445,371.2,445,371.2,445.5L371.2,445.5z"/>
						</g>
					</g>
				</g>
				<rect x="320" y="463.9" class="st5" width="56.1" height="9.8"/>
				<rect x="324.3" y="454.4" class="st5" width="56.1" height="9.8"/>
				<rect x="324.3" y="454.4" class="st9" width="56.1" height="9.8"/>
				<g>
					<g class="st16">
						<g>
							<path class="st11" d="M329.1,454.9c0,2.9,0,5.8,0,8.8c0,0.5,0.8,0.5,0.8,0c0-2.9,0-5.8,0-8.8
								C329.8,454.4,329.1,454.4,329.1,454.9L329.1,454.9z"/>
						</g>
					</g>
					<g class="st16">
						<g>
							<path class="st11" d="M333.7,454.9c0,2.9,0,5.8,0,8.8c0,0.5,0.8,0.5,0.8,0c0-2.9,0-5.8,0-8.8
								C334.5,454.4,333.7,454.4,333.7,454.9L333.7,454.9z"/>
						</g>
					</g>
					<g class="st16">
						<g>
							<path class="st11" d="M338.3,454.9c0,2.9,0,5.8,0,8.8c0,0.5,0.8,0.5,0.8,0c0-2.9,0-5.8,0-8.8
								C339.1,454.4,338.3,454.4,338.3,454.9L338.3,454.9z"/>
						</g>
					</g>
					<g class="st16">
						<g>
							<path class="st11" d="M342.9,454.9c0,2.9,0,5.8,0,8.8c0,0.5,0.8,0.5,0.8,0c0-2.9,0-5.8,0-8.8
								C343.6,454.4,342.9,454.4,342.9,454.9L342.9,454.9z"/>
						</g>
					</g>
					<g class="st16">
						<g>
							<path class="st11" d="M347.4,454.9c0,2.9,0,5.8,0,8.8c0,0.5,0.8,0.5,0.8,0c0-2.9,0-5.8,0-8.8
								C348.2,454.4,347.4,454.4,347.4,454.9L347.4,454.9z"/>
						</g>
					</g>
					<g class="st16">
						<g>
							<path class="st11" d="M352,454.9c0,2.9,0,5.8,0,8.8c0,0.5,0.8,0.5,0.8,0c0-2.9,0-5.8,0-8.8C352.8,454.4,352,454.4,352,454.9
								L352,454.9z"/>
						</g>
					</g>
					<g class="st16">
						<g>
							<path class="st11" d="M356.6,454.9c0,2.9,0,5.8,0,8.8c0,0.5,0.8,0.5,0.8,0c0-2.9,0-5.8,0-8.8
								C357.3,454.4,356.6,454.4,356.6,454.9L356.6,454.9z"/>
						</g>
					</g>
					<g class="st16">
						<g>
							<path class="st11" d="M361.2,454.9c0,2.9,0,5.8,0,8.8c0,0.5,0.8,0.5,0.8,0c0-2.9,0-5.8,0-8.8
								C361.9,454.4,361.2,454.4,361.2,454.9L361.2,454.9z"/>
						</g>
					</g>
					<g class="st16">
						<g>
							<path class="st11" d="M365.7,454.9c0,2.9,0,5.8,0,8.8c0,0.5,0.8,0.5,0.8,0c0-2.9,0-5.8,0-8.8
								C366.5,454.4,365.7,454.4,365.7,454.9L365.7,454.9z"/>
						</g>
					</g>
					<g class="st16">
						<g>
							<path class="st11" d="M370.3,454.9c0,2.9,0,5.8,0,8.8c0,0.5,0.8,0.5,0.8,0c0-2.9,0-5.8,0-8.8
								C371.1,454.4,370.3,454.4,370.3,454.9L370.3,454.9z"/>
						</g>
					</g>
					<g class="st16">
						<g>
							<path class="st11" d="M374.9,454.9c0,2.9,0,5.8,0,8.8c0,0.5,0.8,0.5,0.8,0c0-2.9,0-5.8,0-8.8
								C375.6,454.4,374.9,454.4,374.9,454.9L374.9,454.9z"/>
						</g>
					</g>
				</g>
				<rect x="324.3" y="435" class="st5" width="56.1" height="9.8"/>
				<rect x="324.3" y="435" class="st9" width="56.1" height="9.8"/>
				<g>
					<g class="st16">
						<g>
							<path class="st11" d="M329.1,435.5c0,2.9,0,5.8,0,8.8c0,0.5,0.8,0.5,0.8,0c0-2.9,0-5.8,0-8.8
								C329.8,435,329.1,435,329.1,435.5L329.1,435.5z"/>
						</g>
					</g>
					<g class="st16">
						<g>
							<path class="st11" d="M333.7,435.5c0,2.9,0,5.8,0,8.8c0,0.5,0.8,0.5,0.8,0c0-2.9,0-5.8,0-8.8
								C334.5,435,333.7,435,333.7,435.5L333.7,435.5z"/>
						</g>
					</g>
					<g class="st16">
						<g>
							<path class="st11" d="M338.3,435.5c0,2.9,0,5.8,0,8.8c0,0.5,0.8,0.5,0.8,0c0-2.9,0-5.8,0-8.8
								C339.1,435,338.3,435,338.3,435.5L338.3,435.5z"/>
						</g>
					</g>
					<g class="st16">
						<g>
							<path class="st11" d="M342.9,435.5c0,2.9,0,5.8,0,8.8c0,0.5,0.8,0.5,0.8,0c0-2.9,0-5.8,0-8.8
								C343.6,435,342.9,435,342.9,435.5L342.9,435.5z"/>
						</g>
					</g>
					<g class="st16">
						<g>
							<path class="st11" d="M347.4,435.5c0,2.9,0,5.8,0,8.8c0,0.5,0.8,0.5,0.8,0c0-2.9,0-5.8,0-8.8
								C348.2,435,347.4,435,347.4,435.5L347.4,435.5z"/>
						</g>
					</g>
					<g class="st16">
						<g>
							<path class="st11" d="M352,435.5c0,2.9,0,5.8,0,8.8c0,0.5,0.8,0.5,0.8,0c0-2.9,0-5.8,0-8.8C352.8,435,352,435,352,435.5
								L352,435.5z"/>
						</g>
					</g>
					<g class="st16">
						<g>
							<path class="st11" d="M356.6,435.5c0,2.9,0,5.8,0,8.8c0,0.5,0.8,0.5,0.8,0c0-2.9,0-5.8,0-8.8
								C357.3,435,356.6,435,356.6,435.5L356.6,435.5z"/>
						</g>
					</g>
					<g class="st16">
						<g>
							<path class="st11" d="M361.2,435.5c0,2.9,0,5.8,0,8.8c0,0.5,0.8,0.5,0.8,0c0-2.9,0-5.8,0-8.8
								C361.9,435,361.2,435,361.2,435.5L361.2,435.5z"/>
						</g>
					</g>
					<g class="st16">
						<g>
							<path class="st11" d="M365.7,435.5c0,2.9,0,5.8,0,8.8c0,0.5,0.8,0.5,0.8,0c0-2.9,0-5.8,0-8.8
								C366.5,435,365.7,435,365.7,435.5L365.7,435.5z"/>
						</g>
					</g>
					<g class="st16">
						<g>
							<path class="st11" d="M370.3,435.5c0,2.9,0,5.8,0,8.8c0,0.5,0.8,0.5,0.8,0c0-2.9,0-5.8,0-8.8
								C371.1,435,370.3,435,370.3,435.5L370.3,435.5z"/>
						</g>
					</g>
					<g class="st16">
						<g>
							<path class="st11" d="M374.9,435.5c0,2.9,0,5.8,0,8.8c0,0.5,0.8,0.5,0.8,0c0-2.9,0-5.8,0-8.8
								C375.6,435,374.9,435,374.9,435.5L374.9,435.5z"/>
						</g>
					</g>
				</g>
				<g>
					<g class="st16">
						<g>
							<path class="st11" d="M324.1,464.6c0,2.9,0,5.8,0,8.8c0,0.5,0.8,0.5,0.8,0c0-2.9,0-5.8,0-8.8
								C324.8,464.1,324.1,464.1,324.1,464.6L324.1,464.6z"/>
						</g>
					</g>
					<g class="st16">
						<g>
							<path class="st11" d="M328.7,464.6c0,2.9,0,5.8,0,8.8c0,0.5,0.8,0.5,0.8,0c0-2.9,0-5.8,0-8.8
								C329.5,464.1,328.7,464.1,328.7,464.6L328.7,464.6z"/>
						</g>
					</g>
					<g class="st16">
						<g>
							<path class="st11" d="M333.3,464.6c0,2.9,0,5.8,0,8.8c0,0.5,0.8,0.5,0.8,0c0-2.9,0-5.8,0-8.8
								C334,464.1,333.3,464.1,333.3,464.6L333.3,464.6z"/>
						</g>
					</g>
					<g class="st16">
						<g>
							<path class="st11" d="M337.9,464.6c0,2.9,0,5.8,0,8.8c0,0.5,0.8,0.5,0.8,0c0-2.9,0-5.8,0-8.8
								C338.6,464.1,337.9,464.1,337.9,464.6L337.9,464.6z"/>
						</g>
					</g>
					<g class="st16">
						<g>
							<path class="st11" d="M342.4,464.6c0,2.9,0,5.8,0,8.8c0,0.5,0.8,0.5,0.8,0c0-2.9,0-5.8,0-8.8
								C343.2,464.1,342.4,464.1,342.4,464.6L342.4,464.6z"/>
						</g>
					</g>
					<g class="st16">
						<g>
							<path class="st11" d="M347,464.6c0,2.9,0,5.8,0,8.8c0,0.5,0.8,0.5,0.8,0c0-2.9,0-5.8,0-8.8C347.8,464.1,347,464.1,347,464.6
								L347,464.6z"/>
						</g>
					</g>
					<g class="st16">
						<g>
							<path class="st11" d="M351.6,464.6c0,2.9,0,5.8,0,8.8c0,0.5,0.8,0.5,0.8,0c0-2.9,0-5.8,0-8.8
								C352.3,464.1,351.6,464.1,351.6,464.6L351.6,464.6z"/>
						</g>
					</g>
					<g class="st16">
						<g>
							<path class="st11" d="M356.1,464.6c0,2.9,0,5.8,0,8.8c0,0.5,0.8,0.5,0.8,0c0-2.9,0-5.8,0-8.8
								C356.9,464.1,356.1,464.1,356.1,464.6L356.1,464.6z"/>
						</g>
					</g>
					<g class="st16">
						<g>
							<path class="st11" d="M360.7,464.6c0,2.9,0,5.8,0,8.8c0,0.5,0.8,0.5,0.8,0c0-2.9,0-5.8,0-8.8
								C361.5,464.1,360.7,464.1,360.7,464.6L360.7,464.6z"/>
						</g>
					</g>
					<g class="st16">
						<g>
							<path class="st11" d="M365.3,464.6c0,2.9,0,5.8,0,8.8c0,0.5,0.8,0.5,0.8,0c0-2.9,0-5.8,0-8.8
								C366,464.1,365.3,464.1,365.3,464.6L365.3,464.6z"/>
						</g>
					</g>
					<g class="st16">
						<g>
							<path class="st11" d="M369.9,464.6c0,2.9,0,5.8,0,8.8c0,0.5,0.8,0.5,0.8,0c0-2.9,0-5.8,0-8.8
								C370.6,464.1,369.9,464.1,369.9,464.6L369.9,464.6z"/>
						</g>
					</g>
				</g>
			</g>
			<g>
				<rect x="320.8" y="406.6" class="st5" width="56.1" height="9.8"/>
				<g>
					<g class="st16">
						<g>
							<path class="st11" d="M325.4,407.2c0,2.9,0,5.8,0,8.8c0,0.5,0.8,0.5,0.8,0c0-2.9,0-5.8,0-8.8
								C326.1,406.7,325.4,406.7,325.4,407.2L325.4,407.2z"/>
						</g>
					</g>
					<g class="st16">
						<g>
							<path class="st11" d="M330,407.2c0,2.9,0,5.8,0,8.8c0,0.5,0.8,0.5,0.8,0c0-2.9,0-5.8,0-8.8C330.8,406.7,330,406.7,330,407.2
								L330,407.2z"/>
						</g>
					</g>
					<g class="st16">
						<g>
							<path class="st11" d="M334.6,407.2c0,2.9,0,5.8,0,8.8c0,0.5,0.8,0.5,0.8,0c0-2.9,0-5.8,0-8.8
								C335.3,406.7,334.6,406.7,334.6,407.2L334.6,407.2z"/>
						</g>
					</g>
					<g class="st16">
						<g>
							<path class="st11" d="M339.2,407.2c0,2.9,0,5.8,0,8.8c0,0.5,0.8,0.5,0.8,0c0-2.9,0-5.8,0-8.8
								C339.9,406.7,339.2,406.7,339.2,407.2L339.2,407.2z"/>
						</g>
					</g>
					<g class="st16">
						<g>
							<path class="st11" d="M343.7,407.2c0,2.9,0,5.8,0,8.8c0,0.5,0.8,0.5,0.8,0c0-2.9,0-5.8,0-8.8
								C344.5,406.7,343.7,406.7,343.7,407.2L343.7,407.2z"/>
						</g>
					</g>
					<g class="st16">
						<g>
							<path class="st11" d="M348.3,407.2c0,2.9,0,5.8,0,8.8c0,0.5,0.8,0.5,0.8,0c0-2.9,0-5.8,0-8.8
								C349.1,406.7,348.3,406.7,348.3,407.2L348.3,407.2z"/>
						</g>
					</g>
					<g class="st16">
						<g>
							<path class="st11" d="M352.9,407.2c0,2.9,0,5.8,0,8.8c0,0.5,0.8,0.5,0.8,0c0-2.9,0-5.8,0-8.8
								C353.6,406.7,352.9,406.7,352.9,407.2L352.9,407.2z"/>
						</g>
					</g>
					<g class="st16">
						<g>
							<path class="st11" d="M357.4,407.2c0,2.9,0,5.8,0,8.8c0,0.5,0.8,0.5,0.8,0c0-2.9,0-5.8,0-8.8
								C358.2,406.7,357.4,406.7,357.4,407.2L357.4,407.2z"/>
						</g>
					</g>
					<g class="st16">
						<g>
							<path class="st11" d="M362,407.2c0,2.9,0,5.8,0,8.8c0,0.5,0.8,0.5,0.8,0c0-2.9,0-5.8,0-8.8C362.8,406.7,362,406.7,362,407.2
								L362,407.2z"/>
						</g>
					</g>
					<g class="st16">
						<g>
							<path class="st11" d="M366.6,407.2c0,2.9,0,5.8,0,8.8c0,0.5,0.8,0.5,0.8,0c0-2.9,0-5.8,0-8.8
								C367.3,406.7,366.6,406.7,366.6,407.2L366.6,407.2z"/>
						</g>
					</g>
					<g class="st16">
						<g>
							<path class="st11" d="M371.2,407.2c0,2.9,0,5.8,0,8.8c0,0.5,0.8,0.5,0.8,0c0-2.9,0-5.8,0-8.8
								C371.9,406.7,371.2,406.7,371.2,407.2L371.2,407.2z"/>
						</g>
					</g>
				</g>
				<rect x="320" y="425.6" class="st5" width="56.1" height="9.8"/>
				<rect x="324.3" y="416.1" class="st5" width="56.1" height="9.8"/>
				<rect x="324.3" y="416.1" class="st9" width="56.1" height="9.8"/>
				<g>
					<g class="st16">
						<g>
							<path class="st11" d="M329.1,416.6c0,2.9,0,5.8,0,8.8c0,0.5,0.8,0.5,0.8,0c0-2.9,0-5.8,0-8.8
								C329.8,416.1,329.1,416.1,329.1,416.6L329.1,416.6z"/>
						</g>
					</g>
					<g class="st16">
						<g>
							<path class="st11" d="M333.7,416.6c0,2.9,0,5.8,0,8.8c0,0.5,0.8,0.5,0.8,0c0-2.9,0-5.8,0-8.8
								C334.5,416.1,333.7,416.1,333.7,416.6L333.7,416.6z"/>
						</g>
					</g>
					<g class="st16">
						<g>
							<path class="st11" d="M338.3,416.6c0,2.9,0,5.8,0,8.8c0,0.5,0.8,0.5,0.8,0c0-2.9,0-5.8,0-8.8
								C339.1,416.1,338.3,416.1,338.3,416.6L338.3,416.6z"/>
						</g>
					</g>
					<g class="st16">
						<g>
							<path class="st11" d="M342.9,416.6c0,2.9,0,5.8,0,8.8c0,0.5,0.8,0.5,0.8,0c0-2.9,0-5.8,0-8.8
								C343.6,416.1,342.9,416.1,342.9,416.6L342.9,416.6z"/>
						</g>
					</g>
					<g class="st16">
						<g>
							<path class="st11" d="M347.4,416.6c0,2.9,0,5.8,0,8.8c0,0.5,0.8,0.5,0.8,0c0-2.9,0-5.8,0-8.8
								C348.2,416.1,347.4,416.1,347.4,416.6L347.4,416.6z"/>
						</g>
					</g>
					<g class="st16">
						<g>
							<path class="st11" d="M352,416.6c0,2.9,0,5.8,0,8.8c0,0.5,0.8,0.5,0.8,0c0-2.9,0-5.8,0-8.8C352.8,416.1,352,416.1,352,416.6
								L352,416.6z"/>
						</g>
					</g>
					<g class="st16">
						<g>
							<path class="st11" d="M356.6,416.6c0,2.9,0,5.8,0,8.8c0,0.5,0.8,0.5,0.8,0c0-2.9,0-5.8,0-8.8
								C357.3,416.1,356.6,416.1,356.6,416.6L356.6,416.6z"/>
						</g>
					</g>
					<g class="st16">
						<g>
							<path class="st11" d="M361.2,416.6c0,2.9,0,5.8,0,8.8c0,0.5,0.8,0.5,0.8,0c0-2.9,0-5.8,0-8.8
								C361.9,416.1,361.2,416.1,361.2,416.6L361.2,416.6z"/>
						</g>
					</g>
					<g class="st16">
						<g>
							<path class="st11" d="M365.7,416.6c0,2.9,0,5.8,0,8.8c0,0.5,0.8,0.5,0.8,0c0-2.9,0-5.8,0-8.8
								C366.5,416.1,365.7,416.1,365.7,416.6L365.7,416.6z"/>
						</g>
					</g>
					<g class="st16">
						<g>
							<path class="st11" d="M370.3,416.6c0,2.9,0,5.8,0,8.8c0,0.5,0.8,0.5,0.8,0c0-2.9,0-5.8,0-8.8
								C371.1,416.1,370.3,416.1,370.3,416.6L370.3,416.6z"/>
						</g>
					</g>
					<g class="st16">
						<g>
							<path class="st11" d="M374.9,416.6c0,2.9,0,5.8,0,8.8c0,0.5,0.8,0.5,0.8,0c0-2.9,0-5.8,0-8.8
								C375.6,416.1,374.9,416.1,374.9,416.6L374.9,416.6z"/>
						</g>
					</g>
				</g>
				<g>
					<g class="st16">
						<g>
							<path class="st11" d="M324.1,426.3c0,2.9,0,5.8,0,8.8c0,0.5,0.8,0.5,0.8,0c0-2.9,0-5.8,0-8.8
								C324.8,425.8,324.1,425.8,324.1,426.3L324.1,426.3z"/>
						</g>
					</g>
					<g class="st16">
						<g>
							<path class="st11" d="M328.7,426.3c0,2.9,0,5.8,0,8.8c0,0.5,0.8,0.5,0.8,0c0-2.9,0-5.8,0-8.8
								C329.5,425.8,328.7,425.8,328.7,426.3L328.7,426.3z"/>
						</g>
					</g>
					<g class="st16">
						<g>
							<path class="st11" d="M333.3,426.3c0,2.9,0,5.8,0,8.8c0,0.5,0.8,0.5,0.8,0c0-2.9,0-5.8,0-8.8
								C334,425.8,333.3,425.8,333.3,426.3L333.3,426.3z"/>
						</g>
					</g>
					<g class="st16">
						<g>
							<path class="st11" d="M337.9,426.3c0,2.9,0,5.8,0,8.8c0,0.5,0.8,0.5,0.8,0c0-2.9,0-5.8,0-8.8
								C338.6,425.8,337.9,425.8,337.9,426.3L337.9,426.3z"/>
						</g>
					</g>
					<g class="st16">
						<g>
							<path class="st11" d="M342.4,426.3c0,2.9,0,5.8,0,8.8c0,0.5,0.8,0.5,0.8,0c0-2.9,0-5.8,0-8.8
								C343.2,425.8,342.4,425.8,342.4,426.3L342.4,426.3z"/>
						</g>
					</g>
					<g class="st16">
						<g>
							<path class="st11" d="M347,426.3c0,2.9,0,5.8,0,8.8c0,0.5,0.8,0.5,0.8,0c0-2.9,0-5.8,0-8.8C347.8,425.8,347,425.8,347,426.3
								L347,426.3z"/>
						</g>
					</g>
					<g class="st16">
						<g>
							<path class="st11" d="M351.6,426.3c0,2.9,0,5.8,0,8.8c0,0.5,0.8,0.5,0.8,0c0-2.9,0-5.8,0-8.8
								C352.3,425.8,351.6,425.8,351.6,426.3L351.6,426.3z"/>
						</g>
					</g>
					<g class="st16">
						<g>
							<path class="st11" d="M356.1,426.3c0,2.9,0,5.8,0,8.8c0,0.5,0.8,0.5,0.8,0c0-2.9,0-5.8,0-8.8
								C356.9,425.8,356.1,425.8,356.1,426.3L356.1,426.3z"/>
						</g>
					</g>
					<g class="st16">
						<g>
							<path class="st11" d="M360.7,426.3c0,2.9,0,5.8,0,8.8c0,0.5,0.8,0.5,0.8,0c0-2.9,0-5.8,0-8.8
								C361.5,425.8,360.7,425.8,360.7,426.3L360.7,426.3z"/>
						</g>
					</g>
					<g class="st16">
						<g>
							<path class="st11" d="M365.3,426.3c0,2.9,0,5.8,0,8.8c0,0.5,0.8,0.5,0.8,0c0-2.9,0-5.8,0-8.8
								C366,425.8,365.3,425.8,365.3,426.3L365.3,426.3z"/>
						</g>
					</g>
					<g class="st16">
						<g>
							<path class="st11" d="M369.9,426.3c0,2.9,0,5.8,0,8.8c0,0.5,0.8,0.5,0.8,0c0-2.9,0-5.8,0-8.8
								C370.6,425.8,369.9,425.8,369.9,426.3L369.9,426.3z"/>
						</g>
					</g>
				</g>
			</g>
		</g>
	</g>
	<g>
		<path class="st5" d="M328.6,290.8c13.2-4.2,25.8-4.6,31.8,2.4c1.2,1.5,2.5,6,3.1,7.8c3.4,10.7-6.8,23.4-22.7,28.4
			c-15.9,5-31.5,0.5-34.9-10.2c-0.5-1.5-2-5.9-1.9-7.5C304.3,302.2,315,295.1,328.6,290.8z"/>
		<g>
			<g class="st9">
				<path class="st13" d="M335.3,324.2l-6,0.7c1.4,1.8,2.2,4.1,2.3,6.4c2-0.2,4.1-0.5,6.2-1C337.6,328,336.7,325.9,335.3,324.2z"/>
			</g>
			<g class="st9">
				<path class="st13" d="M356.1,312.8l-2.1,2.2c1.4,1.5,2.5,2.8,3.8,4.3c1-1,1.8-2,2.6-3.1C358.9,314.9,357.6,314,356.1,312.8z"/>
			</g>
			<g class="st9">
				<path class="st13" d="M361.4,314.6c2.1-3.5,3.1-7.2,2.8-10.8c-1.1-0.6-2.2-1.2-3.3-1.7l-3.6,9.2
					C358.7,312.4,360.2,313.4,361.4,314.6z"/>
			</g>
		</g>
		<path class="st9" d="M328.7,290.8c13.2-4.2,25.8-4.6,31.8,2.4c1.2,1.5,2.5,6,3.1,7.8c3.4,10.7-6.8,23.4-22.7,28.4
			c-15.9,5-31.5,0.5-34.9-10.2c-0.5-1.5-2-5.9-1.9-7.5C304.4,302.2,315.1,295.1,328.7,290.8z"/>
		
			<ellipse transform="matrix(0.9535 -0.3013 0.3013 0.9535 -76.1123 114.3852)" class="st5" cx="332.8" cy="304" rx="30" ry="20.2"/>
		
			<ellipse transform="matrix(0.9535 -0.3013 0.3013 0.9535 -76.0816 114.4405)" class="st5" cx="333" cy="303.9" rx="20.9" ry="13.8"/>
		
			<ellipse transform="matrix(0.9535 -0.3013 0.3013 0.9535 -76.0816 114.4405)" class="st9" cx="333" cy="303.9" rx="20.9" ry="13.8"/>
		<path class="st9" d="M337.2,315.7c-11,3.5-21.8,0.4-24.1-6.9c-0.3-0.8-0.4-1.6-0.4-2.5c-0.1,1.3,0,2.6,0.4,3.9
			c2.3,7.3,13.1,10.4,24.1,6.9c9.8-3.1,16.4-10.3,16.1-17C352.6,306.4,346.3,312.8,337.2,315.7z"/>
		<path class="st17" d="M348.3,310.6c0.3,0.1,7.7,2.2,7.7,2.2l-2,2.2l-7.8-2.4L348.3,310.6z"/>
		<path class="st17" d="M305.2,315.4c0.2,0.3,0.3,0.6,0.5,0.9l2.1,2.6c0,0,0,0,0,0l21.6,6.2c0,0,0,0,0,0l6.1-1c0,0,0,0,0,0
			C335.5,324.1,308.4,316.6,305.2,315.4z"/>
		<path class="st17" d="M333.2,283.1c5.4,1.6,20.1,5.7,25.8,7.3C354.2,284.3,344.2,281.4,333.2,283.1z"/>
		<path class="st17" d="M350.1,308.7l7.1,2.7c0,0,4-5.6,4.4-8.7l-8.3-2.4c0,0,0,0,0,0C353.4,303.1,352.2,306,350.1,308.7z"/>
		<path class="st17" d="M325.4,292l-9.3-2.4c-3.5,2.3-6.3,5-8.5,7.8l8.6,1.2C318.5,296,321.7,293.7,325.4,292z"/>
		<g>
			<g class="st9">
				<path d="M343.2,298.5l3.4-1.1l0.6,2l-3.3,1c0.5,2.1,0.1,4.3-0.8,5.9l-3.9,0.7l-0.2-0.6c0.8-1.4,1.2-3.1,0.9-4.6l-5.1,1.6
					c-0.1,2.5-0.4,5.4-4.8,6.8c-3.2,1-6.5,0.3-8-2.7l-3.4,1.1l-0.6-2l3.3-1c-0.3-1.6-0.2-3.3,0.5-4.7l4-0.2l0.2,0.6
					c-0.4,1.1-0.9,2.1-0.8,3l5.2-1.6c0.1-2.5,0.4-5.4,4.7-6.7C338.4,294.8,341.6,295.5,343.2,298.5z M330.5,304.8l-4.3,1.4
					c0.7,1,1.7,1.1,2.7,0.8C329.9,306.6,330.3,305.8,330.5,304.8z M336.6,299c-1.1,0.3-1.4,1.1-1.6,2.1l4.2-1.3
					C338.5,298.9,337.6,298.7,336.6,299z"/>
			</g>
			<g>
				<path class="st5" d="M343.4,299.2l3.4-1.1l0.6,2l-3.3,1c0.5,2.1,0.1,4.3-0.8,5.9l-4.1,0c0.8-1.4,1.2-3.1,0.9-4.6l-5.1,1.6
					c-0.1,2.5-0.4,5.4-4.8,6.8c-3.2,1-6.5,0.3-8-2.7l-3.4,1.1l-0.6-2l3.3-1c-0.3-1.6-0.2-3.3,0.5-4.7l4-0.2
					c-0.5,1.3-0.7,2.5-0.6,3.6l5.2-1.6c0.1-2.5,0.4-5.4,4.7-6.7C338.6,295.5,341.8,296.2,343.4,299.2z M330.7,305.5l-4.3,1.4
					c0.7,1,1.7,1.1,2.7,0.8C330.1,307.3,330.5,306.5,330.7,305.5z M336.8,299.6c-1.1,0.3-1.4,1.1-1.6,2.1l4.2-1.3
					C338.7,299.5,337.8,299.3,336.8,299.6z"/>
			</g>
		</g>
		<g>
			<g>
				<path class="st11" d="M361.5,301.4c-1.5,9.2-9.7,15.9-17.7,19.6c-9.1,4.2-20.6,5.7-30,1.5c-4.2-1.9-7.8-5.1-9.2-9.6
					c-0.1-0.5-0.9-0.3-0.7,0.2c2.9,8.7,12.6,12.2,21,12.5c10.8,0.4,22.3-3.7,30.1-11.3c3.5-3.4,6.4-7.8,7.2-12.7
					C362.3,301.2,361.6,301,361.5,301.4L361.5,301.4z"/>
			</g>
		</g>
	</g>
	<g>
		<g>
			
				<ellipse transform="matrix(0.9966 -8.256792e-02 8.256792e-02 0.9966 -28.7233 33.3373)" class="st5" cx="388.7" cy="363.9" rx="30.3" ry="30.3"/>
			
				<ellipse transform="matrix(0.2338 -0.9723 0.9723 0.2338 -56.2787 656.9072)" class="st5" cx="388.7" cy="364.2" rx="21.1" ry="20.7"/>
			
				<ellipse transform="matrix(0.2338 -0.9723 0.9723 0.2338 -56.2787 656.9072)" class="st9" cx="388.7" cy="364.2" rx="21.1" ry="20.7"/>
			<path class="st9" d="M370.3,360.2c2.7-11.3,13.9-18.3,25.1-15.6c1.2,0.3,2.4,0.7,3.5,1.2c-1.6-0.9-3.5-1.7-5.4-2.2
				c-11.1-2.7-22.3,4.3-25.1,15.6c-2.4,10.1,2.7,20.1,11.7,24.1C372.3,378.9,368.1,369.5,370.3,360.2z"/>
			<path class="st17" d="M369.6,372.7c-0.4,0.2-7.9,5-7.9,5l-1.3-3.1l8.3-5L369.6,372.7z"/>
			<path class="st17" d="M392,333.8c-0.5-0.1-1-0.1-1.5-0.1l-4.9,0.1c0,0,0,0-0.1,0l-22.5,14c0,0,0,0,0,0l-2.8,5.7c0,0,0,0,0,0
				C360.4,353.5,388.3,335.7,392,333.8z"/>
			<path class="st17" d="M415.8,377.4c-5.7,3.4-20.9,13.1-26.7,16.8C400.4,394.1,410.8,387.6,415.8,377.4z"/>
			<path class="st17" d="M371,375.4l-8.3,4.2c0,0,4.7,6.8,8.5,9.1l8.7-5.4c0,0,0,0,0,0C376.2,381.6,373.1,378.8,371,375.4z"/>
			<path class="st17" d="M409.3,365.4l9.3-6.2c-0.7-4.3-2.3-8.4-4.7-12l-7.3,6.4C408.6,357.1,409.6,361.1,409.3,365.4z"/>
			<g>
				<g class="st9">
					<path d="M388.9,376l-0.8,3.5l-3.1-0.8l0.8-3.4c-3-0.9-5.8-2.6-7.2-4.4l1.7-3.6l1,0.2c1.3,1.5,3.3,2.9,5.5,3.7l1.3-5.2
						c-3.3-1.7-6.9-3.8-5.8-8.2c0.8-3.3,3.9-5.6,8.9-4.9l0.8-3.5l3.1,0.8l-0.8,3.4c2.3,0.7,4.4,1.9,5.9,3.4l-2.5,3.5l-1-0.2
						c-1.2-1-2.1-2.1-3.4-2.5l-1.3,5.3c3.3,1.6,6.8,3.7,5.7,8.1C397,374.3,394,376.6,388.9,376z M389.1,361.5l1.1-4.4
						c-1.7,0-2.6,0.7-2.9,1.8C387.1,359.9,387.9,360.7,389.1,361.5z M392.7,370.3c0.3-1.1-0.5-1.9-1.7-2.7l-1,4.3
						C391.6,371.9,392.5,371.3,392.7,370.3z"/>
				</g>
				<g>
					<path class="st5" d="M388,375.8l-0.8,3.5l-3.1-0.8l0.8-3.4c-3-0.9-5.8-2.6-7.2-4.4l2.6-3.4c1.3,1.5,3.3,2.9,5.5,3.7l1.3-5.2
						c-3.3-1.7-6.9-3.8-5.8-8.2c0.8-3.3,3.9-5.6,8.9-4.9l0.8-3.5l3.1,0.8l-0.8,3.4c2.3,0.7,4.4,1.9,5.9,3.4l-2.5,3.5
						c-1.4-1.3-2.9-2.2-4.4-2.8l-1.3,5.3c3.3,1.6,6.8,3.7,5.7,8.1C396.1,374.1,393,376.4,388,375.8z M388.2,361.2l1.1-4.4
						c-1.7,0-2.6,0.7-2.9,1.8C386.1,359.6,386.9,360.5,388.2,361.2z M391.7,370c0.3-1.1-0.5-1.9-1.7-2.7l-1,4.3
						C390.6,371.7,391.5,371,391.7,370z"/>
				</g>
			</g>
		</g>
		<polygon class="st1" points="409.4,348.4 409.4,353.8 414.2,356.1 408.8,356.1 406.5,360.9 406.5,355.6 401.7,353.2 407,353.2 		
			"/>
	</g>
	<g>
		<path class="st5" d="M386.3,219.3c11.2,6.8,19.4,15.4,18.2,24c-0.3,1.8-2.7,5.6-3.6,7.1c-5.5,9-20.8,9.7-34.3,1.6
			c-13.5-8.2-20-22.1-14.5-31.1c0.8-1.3,3-5.1,4.2-6.1C363,209.1,374.7,212.3,386.3,219.3z"/>
		<g>
			<g class="st9">
				<path class="st13" d="M366.8,244.8l-4.2-3.8c-0.4,2.1-1.5,4.1-3.1,5.6c1.4,1.3,2.9,2.6,4.6,3.7
					C365.4,248.9,366.3,246.9,366.8,244.8z"/>
			</g>
			<g class="st9">
				<path class="st13" d="M387.7,252.5l-2.9-0.1c-0.2,1.9-0.5,3.6-0.7,5.4c1.3,0.1,2.6,0,3.8-0.1C388,255.8,387.9,254.4,387.7,252.5
					z"/>
			</g>
			<g class="st9">
				<path class="st13" d="M389.8,257.4c3.8-0.7,7.1-2.3,9.4-4.7c-0.2-1.1-0.5-2.3-0.9-3.4l-8.8,3.2
					C389.7,254.1,389.9,255.8,389.8,257.4z"/>
			</g>
		</g>
		<path class="st9" d="M386.3,219.3c11.2,6.8,19.4,15.4,18.2,24c-0.3,1.8-2.7,5.6-3.6,7.1c-5.5,9-20.8,9.7-34.3,1.6
			c-13.5-8.2-20-22.1-14.5-31.1c0.8-1.3,3-5.1,4.2-6.1C363,209.1,374.8,212.3,386.3,219.3z"/>
		
			<ellipse transform="matrix(0.5176 -0.8556 0.8556 0.5176 -14.0971 435.8788)" class="st5" cx="379.5" cy="230.4" rx="19.1" ry="28.4"/>
		
			<ellipse transform="matrix(0.5176 -0.8556 0.8556 0.5176 -14.1034 436.0783)" class="st5" cx="379.7" cy="230.5" rx="13.1" ry="19.7"/>
		
			<ellipse transform="matrix(0.5176 -0.8556 0.8556 0.5176 -14.1034 436.0783)" class="st9" cx="379.7" cy="230.5" rx="13.1" ry="19.7"/>
		<path class="st9" d="M373.9,240.9c-9.3-5.6-13.8-15.2-10.1-21.4c0.4-0.7,0.9-1.3,1.5-1.8c-1,0.7-1.9,1.6-2.5,2.7
			c-3.7,6.2,0.8,15.8,10.1,21.4c8.3,5,17.6,5.2,22.2,0.9C390.2,246,381.6,245.5,373.9,240.9z"/>
		<path class="st17" d="M384.5,245.6c0.1,0.3,3.2,6.8,3.2,6.8l-2.8-0.1l-3.2-7L384.5,245.6z"/>
		<path class="st17" d="M354.2,218c-0.1,0.3-0.2,0.6-0.3,0.9l-0.6,3.1c0,0,0,0,0,0l9,19.2c0,0,0,0,0,0l4.5,3.7c0,0,0,0,0,0
			C366.9,244.9,355.3,220.9,354.2,218z"/>
		<path class="st17" d="M394.6,217.8c2.2,4.8,8.5,17.9,10.9,22.9C406.8,233.3,402.6,224.5,394.6,217.8z"/>
		<path class="st17" d="M387,245.7l2.5,6.7c0,0,6.5-0.6,8.9-2.3l-3.5-7.4c0,0,0,0,0,0C393,244.5,390.2,245.5,387,245.7z"/>
		<path class="st17" d="M383.4,217.8l-4.1-8.1c-3.8-1-7.5-1.4-10.8-1.1l4.5,6.9C376.2,215.4,379.8,216.1,383.4,217.8z"/>
		<g>
			<g class="st9">
				<path d="M389.8,234.4l2.9,1.7l-1,1.7l-2.8-1.7c-1.2,1.6-3,2.8-4.7,3.1l-2.9-2.3l0.3-0.5c1.5-0.3,2.9-1.1,3.9-2.3l-4.3-2.6
					c-1.9,1.5-4.1,3.1-7.8,0.9c-2.7-1.6-4.3-4.4-3.1-7.4l-2.9-1.7l1-1.7l2.8,1.7c0.9-1.2,2.2-2.2,3.7-2.6l2.6,2.8l-0.3,0.5
					c-1,0.4-2,0.6-2.6,1.3l4.4,2.6c1.8-1.5,4.1-3.1,7.7-0.9C389.5,228.7,391,231.4,389.8,234.4z M377.4,229.3l-3.6-2.2
					c-0.2,1.1,0.3,1.9,1.1,2.4C375.8,230.1,376.6,229.8,377.4,229.3z M385.4,230.1c-0.9-0.5-1.7-0.3-2.5,0.2l3.5,2.1
					C386.7,231.4,386.3,230.6,385.4,230.1z"/>
			</g>
			<g>
				<path class="st5" d="M389.5,235l2.9,1.7l-1,1.7l-2.8-1.7c-1.2,1.6-3,2.8-4.7,3.1l-2.6-2.8c1.5-0.3,2.9-1.1,3.9-2.3l-4.3-2.6
					c-1.9,1.5-4.1,3.1-7.8,0.9c-2.7-1.6-4.3-4.4-3.1-7.4l-2.9-1.7l1-1.7l2.8,1.7c0.9-1.2,2.2-2.2,3.7-2.6l2.6,2.8
					c-1.3,0.4-2.3,1.1-2.9,1.8l4.4,2.6c1.8-1.5,4.1-3.1,7.7-0.9C389.2,229.2,390.7,232,389.5,235z M377.1,229.8l-3.6-2.2
					c-0.2,1.1,0.3,1.9,1.1,2.4C375.5,230.6,376.3,230.4,377.1,229.8z M385.1,230.6c-0.9-0.5-1.7-0.3-2.5,0.2l3.5,2.1
					C386.4,231.9,385.9,231.1,385.1,230.6z"/>
			</g>
		</g>
		<g>
			<g>
				<path class="st11" d="M399.2,249.2c-8.3,5.2-19.5,2.6-27.6-1.7c-7.7-4.2-15-11.2-17.3-19.9c-1-3.9-0.8-8.1,1.3-11.7
					c0.2-0.4-0.4-0.8-0.6-0.4c-4.2,7-1.2,15.6,3.4,21.7c6.2,8.2,16.1,14.1,26.3,15.3c5.1,0.6,10.5,0.1,14.9-2.7
					C400,249.6,399.6,249,399.2,249.2L399.2,249.2z"/>
			</g>
		</g>
	</g>
</g>
<g id="Piggy_bank">
	<g>
		<g>
			<path class="st5" d="M295.3,390.7c0,0-12.8-42.3-61-44.2c-48.2-1.8-86.5,11-88,53.7c-1.5,42.7,23.4,51.1,23.4,51.1l0.7,22.3h24.5
				v-13.1c0,0,32.1,1.5,44.2-2.2v19h26.3l0.4-25.6c0,0,19.3-9.5,25.6-25.9h13.5c4.6-13.6,6.2-26.9,2.1-35.3L295.3,390.7z"/>
			<path class="st7" d="M295.3,390.7c0,0-12.8-42.3-61-44.2c-48.2-1.8-86.5,11-88,53.7c-1.5,42.7,23.4,51.1,23.4,51.1l0.7,22.3h24.5
				v-13.1c0,0,32.1,1.5,44.2-2.2v19h26.3l0.4-25.6c0,0,19.3-9.5,25.6-25.9h13.5c4.6-13.6,6.2-26.9,2.1-35.3L295.3,390.7z"/>
			<path class="st5" d="M252.5,348.6c3.3-4.7,8.2-8.6,13.9-9.3c1.3-0.2,3,0,3.6,1.2c0.4,0.7,0.3,1.5,0.2,2.3
				c-0.9,7.7-1.8,15.3-2.7,23l-22.1-1.5C247.3,358.8,249.2,353.3,252.5,348.6z"/>
			<path class="st7" d="M252.5,348.6c3.3-4.7,8.2-8.6,13.9-9.3c1.3-0.2,3,0,3.6,1.2c0.4,0.7,0.3,1.5,0.2,2.3
				c-0.9,7.7-1.8,15.3-2.7,23l-22.1-1.5C247.3,358.8,249.2,353.3,252.5,348.6z"/>
			<path class="st5" d="M270.6,357.8c3.3-4.7,8.2-8.6,13.9-9.3c1.3-0.2,3,0,3.6,1.2c0.4,0.7,0.3,1.5,0.2,2.3
				c-0.9,7.7-1.8,15.3-2.7,23l-22.1-1.5C265.4,368.1,267.3,362.6,270.6,357.8z"/>
			<path class="st7" d="M270.6,357.8c3.3-4.7,8.2-8.6,13.9-9.3c1.3-0.2,3,0,3.6,1.2c0.4,0.7,0.3,1.5,0.2,2.3
				c-0.9,7.7-1.8,15.3-2.7,23l-22.1-1.5C265.4,368.1,267.3,362.6,270.6,357.8z"/>
			<g>
				<path class="st5" d="M145.7,399.6c-2.4-4-8.1-3.7-11.3-0.9c-3.4,3.1-5.6,9.7-3.6,14.1c1.1,2.4,4.2,3.7,6,1.3
					c1.7-2.3,0.8-5.5-0.1-8c-1.6-4.4-4.7-8.8-9.1-10.7c-4.5-1.9-10.4-0.8-13,3.5c-0.9,1.5-3.2,0.1-2.3-1.4c3.1-5.1,9.9-6.9,15.4-5
					c6.3,2.2,10.5,8.4,12.3,14.6c0.9,3.2,0.9,6.9-1.6,9.4c-2.3,2.2-5.6,1.9-7.9,0c-5.2-4.3-2.8-13.7,0.8-18.3
					c4.2-5.2,13.1-6.3,16.9,0C149,399.8,146.6,401.1,145.7,399.6L145.7,399.6z"/>
			</g>
			<g class="st18">
				<path class="st13" d="M145.7,399.6c-2.4-4-8.1-3.7-11.3-0.9c-3.4,3.1-5.6,9.7-3.6,14.1c1.1,2.4,4.2,3.7,6,1.3
					c1.7-2.3,0.8-5.5-0.1-8c-1.6-4.4-4.7-8.8-9.1-10.7c-4.5-1.9-10.4-0.8-13,3.5c-0.9,1.5-3.2,0.1-2.3-1.4c3.1-5.1,9.9-6.9,15.4-5
					c6.3,2.2,10.5,8.4,12.3,14.6c0.9,3.2,0.9,6.9-1.6,9.4c-2.3,2.2-5.6,1.9-7.9,0c-5.2-4.3-2.8-13.7,0.8-18.3
					c4.2-5.2,13.1-6.3,16.9,0C149,399.8,146.6,401.1,145.7,399.6L145.7,399.6z"/>
			</g>
			<g>
				<g>
					<g>
						<path class="st5" d="M198.4,343.3c-14.3,1.1-27.9,6.5-39.1,15.3c-0.8,0.6,0.3,1.7,1.1,1.1c10.9-8.6,24.2-13.8,38.1-14.9
							C199.3,344.8,199.3,343.3,198.4,343.3L198.4,343.3z"/>
					</g>
				</g>
				<g>
					<g>
						<path class="st5" d="M155.3,363.4c-1.2,1.3-2.4,2.5-3.6,3.8c-0.3,0.3-0.3,0.8,0,1.1c0.3,0.3,0.8,0.3,1.1,0
							c1.2-1.3,2.4-2.5,3.6-3.8c0.3-0.3,0.3-0.8,0-1.1C156.1,363.2,155.6,363.1,155.3,363.4L155.3,363.4z"/>
					</g>
				</g>
			</g>
		</g>
		<g>
			<g>
				<path d="M239.8,354.4c-6.3-1.1-12.7-1.5-19-1.4c-5.6,0.1-11.2,0.5-16.7,1.8c-0.5,0.1-0.3,0.8,0.2,0.7c5.4-1.3,11-1.7,16.5-1.8
					c6.3-0.1,12.6,0.3,18.8,1.4C240.1,355.2,240.3,354.5,239.8,354.4L239.8,354.4z"/>
			</g>
		</g>
		<g>
			<g>
				<path d="M305.2,425.5c-5.2-10.3-4.5-23.2,1.9-32.8c0.3-0.4-0.4-0.8-0.6-0.4c-6.6,9.9-7.3,23-1.9,33.5
					C304.8,426.3,305.4,425.9,305.2,425.5L305.2,425.5z"/>
			</g>
		</g>
		<g>
			<g>
				<path d="M274.3,386.4c-0.1,2.4-0.1,4.7-0.2,7.1c0,0.5,0.7,0.5,0.8,0c0.1-2.4,0.1-4.7,0.2-7.1
					C275.1,385.9,274.3,385.9,274.3,386.4L274.3,386.4z"/>
			</g>
		</g>
	</g>
</g>
<g id="Character">
	<g>
		<g>
			<g>
				<g>
					<path class="st11" d="M126.6,141.5c4.5-6.8,13.8-12.6,22-12.5h0.2c-2.5,2.6-3.1,6.9-1.3,10.1c1,1.8,2.7,3.3,3.4,5.2
						c0.7,2,0.4,4.3-1,6c-1.3,1.6-3.5,2.5-5.6,2.2c-2.4-0.4-4.6-2.2-7-2c-2.8,0.3-4.9,3.2-7.8,3.3c-2.6,0.1-4.8-2.4-5.1-5
						C124.1,146.3,125.2,143.7,126.6,141.5z"/>
				</g>
				<g class="st19">
					<path class="st13" d="M126.6,141.5c4.5-6.8,13.8-12.6,22-12.5h0.2c-2.5,2.6-3.1,6.9-1.3,10.1c1,1.8,2.7,3.3,3.4,5.2
						c0.7,2,0.4,4.3-1,6c-1.3,1.6-3.5,2.5-5.6,2.2c-2.4-0.4-4.6-2.2-7-2c-2.8,0.3-4.9,3.2-7.8,3.3c-2.6,0.1-4.8-2.4-5.1-5
						C124.1,146.3,125.2,143.7,126.6,141.5z"/>
				</g>
			</g>
			<path class="st20" d="M111.2,155.6c0,0,16.7,12.2,22.4,17.2l0.1-16.9c-3.3-0.7-4.8-3.1-4.3-6.1c0.3-1.7,0.9-3.4,1.6-5.1l-3.2-1.9
				l-11.3-11.4c0.2,1,0.3,2.2,0.4,3.4c0.1,1.5,0.1,3.2,0.1,4.9c-0.2,4.2-0.9,8.6-2.6,11.9C113.6,153.2,112.5,154.6,111.2,155.6z"/>
			<path class="st9" d="M129.3,150.4c-3.1-1.9-6.5-5.1-6.1-8.7c0.2-1.5,0.5-3,0.9-3.9l6.3,8.4C129.9,147.5,129.7,148.4,129.3,150.4z
				"/>
			<path class="st20" d="M114.4,118.5c1,11.6,1.2,16.5,7.2,22.7c9,9.2,22.9,6.1,25.3-5.4c2.2-10.4,0.1-27.6-11.3-32.5
				C124.4,98.4,113.3,106.8,114.4,118.5z"/>
			<g class="st9">
				<g>
					<path d="M144,125.8c-0.1,0.1-0.2,0.1-0.2,0.2c0,0-0.1,0-0.1,0.1c0,0,0,0-0.1,0c0,0-0.1,0,0,0c-0.1,0-0.2,0.1-0.3,0.1
						c0,0-0.1,0-0.1,0c0,0,0,0-0.1,0c0,0-0.1,0-0.1,0c0,0,0,0,0,0c0,0,0,0-0.1,0c0,0-0.1,0-0.1,0c-0.1,0-0.2,0-0.3,0
						c-0.1,0,0.1,0,0,0c0,0,0,0-0.1,0c0,0-0.1,0-0.1,0c-0.1,0-0.2-0.1-0.3-0.1c-0.2-0.1-0.4,0.1-0.5,0.3c0,0.2,0.1,0.4,0.3,0.5
						c0.9,0.3,1.9,0.2,2.7-0.4c0.2-0.1,0.2-0.3,0.1-0.5C144.4,125.8,144.1,125.7,144,125.8L144,125.8z"/>
				</g>
			</g>
			<g class="st9">
				<g>
					<path d="M134.9,109.5c-1.2,0.3-2.5,0.3-3.8,0.1c-0.2,0-0.4,0.1-0.5,0.3c-0.1,0.2,0.1,0.4,0.3,0.5c1.4,0.3,2.8,0.3,4.2-0.1
						C135.6,110.1,135.4,109.4,134.9,109.5L134.9,109.5z"/>
				</g>
			</g>
			<path class="st11" d="M127,118c0.1,0,0.3,0,0.4-0.1c1.8-1.7,3.8-1.1,3.8-1.1c0.3,0.1,0.6-0.1,0.7-0.4c0.1-0.3-0.1-0.6-0.4-0.7
				c-0.1,0-2.6-0.8-4.9,1.3c-0.2,0.2-0.2,0.6,0,0.8C126.7,117.9,126.9,118,127,118z"/>
			<path class="st21" d="M127,118c0.1,0,0.3,0,0.4-0.1c1.8-1.7,3.8-1.1,3.8-1.1c0.3,0.1,0.6-0.1,0.7-0.4c0.1-0.3-0.1-0.6-0.4-0.7
				c-0.1,0-2.6-0.8-4.9,1.3c-0.2,0.2-0.2,0.6,0,0.8C126.7,117.9,126.9,118,127,118z"/>
			<path class="st11" d="M144.7,116.4c0.1,0,0.2-0.1,0.3-0.3c0.1-0.3,0-0.6-0.3-0.7c-2.7-1.5-4.6-0.4-4.7-0.3
				c-0.2,0.1-0.3,0.5-0.1,0.7c0.2,0.3,0.5,0.4,0.7,0.2c0.1,0,1.6-0.9,3.7,0.3C144.5,116.5,144.6,116.5,144.7,116.4z"/>
			<path class="st21" d="M144.7,116.4c0.1,0,0.2-0.1,0.3-0.3c0.1-0.3,0-0.6-0.3-0.7c-2.7-1.5-4.6-0.4-4.7-0.3
				c-0.2,0.1-0.3,0.5-0.1,0.7c0.2,0.3,0.5,0.4,0.7,0.2c0.1,0,1.6-0.9,3.7,0.3C144.5,116.5,144.6,116.5,144.7,116.4z"/>
			<path class="st22" d="M137.8,121.7c0,0,1.8,4.4,3.9,7.1c0.4,0.5,0.1,1.2-0.4,1.4c-1.4,0.5-3.1,0-3.1,0L137.8,121.7z"/>
			<path class="st11" d="M129.4,120.6C129.3,120.6,129.3,120.6,129.4,120.6l2.6-0.7c0,0-0.6,0.8-1.4,1c0.4,0.4,0.6,1.1,0.6,1.8
				c0.1,1.2-0.5,2.2-1.3,2.2c-0.8,0-1.4-1-1.5-2.3C128.4,121.7,128.8,120.8,129.4,120.6z"/>
			<path class="st11" d="M140.8,121.1C140.8,121.1,140.8,121.1,140.8,121.1l2.7-0.6c0,0-0.7,0.9-1.5,1.1c0.3,0.4,0.6,1,0.6,1.7
				c0.1,1.2-0.5,2.1-1.3,2.1c-0.8,0-1.4-1-1.5-2.2C139.7,122.1,140.2,121.2,140.8,121.1z"/>
			<path class="st11" d="M92.2,139.2c1.5,0.8,3.3,0.7,4.9,0c0.7-0.3,1.7-0.7,2.2-0.1c0.4,0.4,0.3,1.1,0.2,1.7
				c-0.3,1.3-0.5,2.6-0.4,3.8c0.2,1.3,0.9,2.6,2,3.1s2.6,0.3,3.8-0.3c1.2-0.6,2.2-1.4,3.4-2c0.5-0.3,1.2-0.5,1.8-0.3
				c0.8,0.3,1.1,1.2,1.4,2c0.4,1.2,0.9,2.3,1.7,3.3c0.4,0.5,0.9,0.9,1.4,1.2c1.7-3.3,2.4-7.7,2.6-11.9c0.1-1.8,0.1-3.5-0.1-4.9
				c0-0.1,0-0.3,0-0.4c-0.7-2-2.2-7.5,1.1-12.6c0,0,6-9,5.7-16.3c0,0,11.5-3,20.6,9.3c0.9,1.2,1.5,2.8,2.2,4.5c1,5,1.4,9.6,0.8,14
				c2.2-4.9,18-32.9-18.2-40c-6.3-1.2-9,5.5-9,5.5c-10.6-4.5-20.6,6.5-20.2,19.3l0,0c-0.5,2.1-0.2,4.1-0.2,6.2
				c0,2.1-0.5,4.5-2.2,5.7c-1.2,0.9-2.7,1-4.1,1.5c-1.7,0.6-3.4,1.9-3.6,3.7C89.7,136.7,90.7,138.4,92.2,139.2z"/>
			<path class="st21" d="M92.2,139.2c1.5,0.8,3.3,0.7,4.9,0c0.7-0.3,1.7-0.7,2.2-0.1c0.4,0.4,0.3,1.1,0.2,1.7
				c-0.3,1.3-0.5,2.6-0.4,3.8c0.2,1.3,0.9,2.6,2,3.1s2.6,0.3,3.8-0.3c1.2-0.6,2.2-1.4,3.4-2c0.5-0.3,1.2-0.5,1.8-0.3
				c0.8,0.3,1.1,1.2,1.4,2c0.4,1.2,0.9,2.3,1.7,3.3c0.4,0.5,0.9,0.9,1.4,1.2c1.7-3.3,2.4-7.7,2.6-11.9c0.1-1.8,0.1-3.5-0.1-4.9
				c0-0.1,0-0.3,0-0.4c-0.7-2-2.2-7.5,1.1-12.6c0,0,6-9,5.7-16.3c0,0,11.5-3,20.6,9.3c0.9,1.2,1.5,2.8,2.2,4.5c1,5,1.4,9.6,0.8,14
				c2.2-4.9,18-32.9-18.2-40c-6.3-1.2-9,5.5-9,5.5c-10.6-4.5-20.6,6.5-20.2,19.3l0,0c-0.5,2.1-0.2,4.1-0.2,6.2
				c0,2.1-0.5,4.5-2.2,5.7c-1.2,0.9-2.7,1-4.1,1.5c-1.7,0.6-3.4,1.9-3.6,3.7C89.7,136.7,90.7,138.4,92.2,139.2z"/>
			<path class="st23" d="M130.8,131.2c0,0,1.1,3.1,4.6,2.4"/>
			<path class="st20" d="M110.8,127.9c1.4,2.4,3.6,3.9,5.6,4.4c3.1,0.8,4.7-4.2,3.6-7.2c-0.9-2.8-4-4.6-7-4
				C110.2,121.7,109.3,125.2,110.8,127.9z"/>
			<path class="st24" d="M117.3,127.3c-0.1-1.1-0.6-2.2-1.4-2.9c-0.8-0.7-1.9-1.1-3-1"/>
			<path class="st5" d="M112.2,131.2c0,1.4,1.1,2.5,2.5,2.5c1.4,0,2.5-1.1,2.5-2.5c0-1.4-1.1-2.5-2.5-2.5
				C113.4,128.6,112.2,129.8,112.2,131.2z"/>
			<g class="st9">
				<g>
					<path d="M131.4,129.5c-0.6-0.1-1.2,0-1.7,0.4c-0.4,0.3-0.7,0.8-0.8,1.4c0,0.2,0,0.4,0.3,0.5c0.2,0,0.4-0.1,0.5-0.3
						c0-0.1,0-0.2,0.1-0.3c0,0,0-0.1,0-0.1c0,0,0,0,0,0c0,0,0-0.1,0.1-0.1c0,0,0.1-0.1,0.1-0.1c0,0,0.1-0.1,0,0c0,0,0,0,0,0
						c0.1-0.1,0.2-0.2,0.2-0.2c0,0-0.1,0,0,0c0,0,0,0,0.1,0c0,0,0.1-0.1,0.1-0.1c0,0,0.1,0,0.1,0c0,0,0,0,0,0c0.1,0,0.1,0,0.2-0.1
						c0.1,0,0.1,0,0.2,0c0,0-0.1,0,0,0c0,0,0.1,0,0.1,0c0.1,0,0.1,0,0.2,0c0,0,0.1,0,0.1,0c0.1,0-0.1,0,0,0c0.2,0,0.4,0,0.5-0.3
						C131.7,129.8,131.6,129.5,131.4,129.5L131.4,129.5z"/>
				</g>
			</g>
			<g class="st9">
				<g>
					<path d="M130.5,125.6c-1,0.5-2.2,0.3-3-0.5c-0.3-0.3-0.9,0.2-0.5,0.5c1,1,2.6,1.3,3.9,0.6c0.2-0.1,0.2-0.3,0.1-0.5
						C130.9,125.6,130.7,125.5,130.5,125.6L130.5,125.6z"/>
				</g>
			</g>
			<g class="st9">
				<g>
					<path d="M137.7,110.9c-3,1.1-6.2,1.1-9.2,0c-0.5-0.2-0.7,0.6-0.2,0.7c3.1,1.1,6.5,1.1,9.6,0
						C138.3,111.4,138.1,110.7,137.7,110.9L137.7,110.9z"/>
				</g>
			</g>
			<g class="st16">
				<g>
					<path class="st13" d="M123.5,106.1c-5.7,4.5-13.3,6.3-20.4,4.7c-0.5-0.1-0.7,0.6-0.2,0.7c7.4,1.7,15.2-0.2,21.1-4.9
						C124.4,106.3,123.9,105.8,123.5,106.1L123.5,106.1z"/>
				</g>
			</g>
			<g class="st16">
				<g>
					<path class="st13" d="M123.3,108.1c-0.6,2-2.2,3.3-3.8,4.4c-1.8,1.2-3.6,2.2-5.5,3.2c-4,2-8.8,3.3-13.1,1.1
						c-0.4-0.2-0.8,0.4-0.4,0.6c4.3,2.3,9.3,1.1,13.5-0.9c2.2-1.1,4.4-2.3,6.5-3.7c1.6-1.1,3-2.5,3.6-4.5
						C124.2,107.8,123.5,107.6,123.3,108.1L123.3,108.1z"/>
				</g>
			</g>
		</g>
		<g>
			<path class="st20" d="M155,442.4L155,442.4l1.9-82l-6.5-101l-39.7,9.6c-3.9,19.6,11.3,34,11.3,34c-0.9,13.4,2.8,30.7,6.3,43.5
				c2.9,10.6,4.9,13.6,5.7,18.3c0.8,5.3-1,13.2-0.5,20c1.6,19.5,5,38.8,10.2,57.7l0.7,3.3l3.2,12.1l8.4,0.3l-0.7-12.1L155,442.4z"/>
			<path class="st16" d="M155,442.4L155,442.4l1.9-82l-6.5-101l-39.7,9.6c-3.9,19.6,11.3,34,11.3,34c-0.9,13.4,2.8,30.7,6.3,43.5
				c2.9,10.6,4.9,13.6,5.7,18.3c0.8,5.3-1,13.2-0.5,20c1.6,19.5,5,38.8,10.2,57.7l0.7,3.3l3.2,12.1l8.4,0.3l-0.7-12.1L155,442.4z"/>
			<path class="st11" d="M168.5,472.8c-1.4-0.9-2.9-1.6-4.5-2l0,0c0,0-5-4.1-7.9-17l-6.3-1.3c-2.2-0.4-4.5,0.5-5.6,2.2
				c-0.2,0.2-0.3,0.5-0.4,0.8c-0.3,1.4-0.4,2.8-0.5,4.2c-0.1,4.8,0,9.5,0.5,14.3h1.1v-9c0-3.1,2.8,0.4,3.6,3.7
				c0.9,3.2,2.6,6.7,10,6.6C167.1,475,170.7,474.6,168.5,472.8z"/>
			<path class="st20" d="M154.8,449.1c0,0,1.6,5.9,4,12.4c1,3.4,2.8,6.5,5.1,9.3c0,0-5.5,1.1-8-2.2c-2.5-3.3-6.3-14.6-11.8-13.8
				c0.4-0.9,0.9-1.7,1.6-2.4C146.6,451.1,154.8,449.1,154.8,449.1z"/>
			<path class="st16" d="M154.8,449.1c0,0,1.6,5.9,4,12.4c1,3.4,2.8,6.5,5.1,9.3c0,0-5.5,1.1-8-2.2c-2.5-3.3-6.3-14.6-11.8-13.8
				c0.4-0.9,0.9-1.7,1.6-2.4C146.6,451.1,154.8,449.1,154.8,449.1z"/>
			<path class="st20" d="M95.7,264.7c-7.6,18.7,3.9,35.3,3.9,35.3c-3.6,13.1-3.6,30.6-2.9,43.8c0.6,10.9,2,14.2,1.7,18.9
				c-0.3,5.4-3.5,12.9-4.5,19.6c-2.4,19.3-3,38.8-1.9,58.1l0,3.7l0.5,12.5l7.8,1.7l1.8-12l0.5-3.7l0.1,0l18.1-80.5l14-100.5
				L95.7,264.7z"/>
			<path class="st16" d="M95.7,264.7c-7.6,18.7,3.9,35.3,3.9,35.3c-3.6,13.1-3.6,30.6-2.9,43.8c0.6,10.9,2,14.2,1.7,18.9
				c-0.3,5.4-3.5,12.9-4.5,19.6c-2.4,19.3-3,38.8-1.9,58.1l0,3.7l0.5,12.5l7.8,1.7l1.8-12l0.5-3.7l0.1,0l18.1-80.5l14-100.5
				L95.7,264.7z"/>
			<path class="st11" d="M109.3,474.7c-1.1-1.1-2.4-2-3.8-2.7l0,0c0,0-3.9-4.9-4-18l-5.7-2.3c-2-0.7-4.3-0.2-5.7,1.3
				c-0.2,0.2-0.4,0.4-0.5,0.7c-0.5,1.3-1,2.7-1.3,4c-1.1,4.7-1.9,9.4-2.4,14.1l1.1,0.2l1.9-8.8c0.6-3,2.5,0.9,2.7,4.2
				c0.2,3.3,1.1,7.1,8.1,8.1C107.6,476.7,111.1,476.9,109.3,474.7z"/>
			<path class="st20" d="M101.2,449.2c0,0,0.3,6.1,1.4,12.8c0.3,3.5,1.3,6.8,3,9.9c0,0-5.4,0.2-7.1-3.4c-1.7-3.6-3-15.4-8.4-15.5
				c0.6-0.8,1.2-1.5,1.9-2.1C93,449.9,101.2,449.2,101.2,449.2z"/>
			<path class="st16" d="M101.2,449.2c0,0,0.3,6.1,1.4,12.8c0.3,3.5,1.3,6.8,3,9.9c0,0-5.4,0.2-7.1-3.4c-1.7-3.6-3-15.4-8.4-15.5
				c0.6-0.8,1.2-1.5,1.9-2.1C93,449.9,101.2,449.2,101.2,449.2z"/>
		</g>
		<g>
			<path class="st5" d="M148,158.9c0,0,6.9,2.7,9.1,9.2c2.2,6.4,11,53.9,14.5,54.8c3.6,0.9,8,18.2-14.8,21L148,158.9z"/>
			<path class="st11" d="M134.3,155.6c0,0-3.2,6.2-11,4.3s-8.7-6.7-8.9-6.5c-0.2,0.2-2.8,1-2.8,1s-10.7,120.6-3.6,123
				c7.1,2.4,44.6,5.4,45.4,2.4c0.7-3-6.9-115.4-9.7-118.9C140.9,157.4,134.3,155.6,134.3,155.6z"/>
			<path class="st11" d="M159.8,320.2l1.6,37.5c0,0-31.3,1.7-46.5,1.7S86.1,360,86.1,360s0.3-68,6.5-89.8
				c5.7-20.1,12.7-25.2,12.7-25.2s45.2-0.8,45.2,2C156.4,262.1,159.3,292.2,159.8,320.2z"/>
			<g class="st9">
				<g>
					<path d="M138.3,309.9c-6.1,12.6-12.1,25.3-18.2,37.9c-0.2,0.4,0.4,0.8,0.6,0.4c6.1-12.6,12.1-25.3,18.2-37.9
						C139.1,309.8,138.5,309.4,138.3,309.9L138.3,309.9z"/>
				</g>
			</g>
			<path class="st5" d="M112.8,152.9c0,0-18.5,5.4-20.6,10.1c-2,4.7,2.4,65.2,2.4,67.2c0,2-18.5,45.5-13.8,85.7
				c0,0,38.8,2.1,40.1-3.1c1.2-5.2-2-80.6,0-93.2C123,206.9,115.5,152.9,112.8,152.9z"/>
			<g class="st9">
				<g>
					<path d="M112.5,153.3c-1.2,0.8-1.9,2.4-2.5,3.6c-1,2-1.7,4.3-1.9,6.5c-0.4,4.5,1.6,9.1,5.1,11.8c0-0.2,0-0.4,0-0.5
						c-3.9,4.1-4.5,10.2-3.1,15.5c1.6,6.4,6,11.7,10.1,16.7c0.3,0.4,0.8-0.2,0.5-0.5c-3.9-4.7-8-9.7-9.7-15.7
						c-1.5-5.2-1.1-11.4,2.7-15.5c0.1-0.1,0.2-0.4,0-0.5c-3.3-2.6-5.2-6.7-4.9-10.9c0.1-2.1,0.8-4.2,1.7-6.2
						c0.5-1.2,1.2-2.9,2.4-3.7C113.3,153.6,112.9,153,112.5,153.3L112.5,153.3z"/>
				</g>
			</g>
			<path class="st5" d="M130.6,153.7c-0.2-1.2,17.5,5.2,17.5,5.2s7.1,47.8,9.3,72.7c0.5,5.7,13.7,75.8,9.8,81
				c-4,5.2-27,5.4-26.8,2.2c0.2-3.2-5.3-119.4-7.1-127.4C131.6,179.5,131,156.6,130.6,153.7z"/>
			<g class="st16">
				<g>
					<path d="M149.7,170.3c0.9,8.7,1.9,17.5,2.9,26.2c1.3,11.2,2.6,22.5,4.2,33.7c0.6,4.5,1.3,9.1,2.1,13.6c0.1,0.5,0.8,0.3,0.7-0.2
						c-1.7-9.2-2.8-18.5-3.9-27.8c-1.4-11-2.6-22.1-3.9-33.1c-0.5-4.1-0.9-8.2-1.4-12.3C150.4,169.8,149.7,169.8,149.7,170.3
						L149.7,170.3z"/>
				</g>
			</g>
			<g class="st9">
				<g>
					<path d="M131.2,155.3c3.8,1.1,6.9,4.1,8,7.9c1.2,4,0,8.5-2.9,11.5c-0.2,0.2-0.1,0.4,0.1,0.6c4.3,3.1,5.8,8.8,5.2,13.9
						c-0.6,6.1-4,11.5-7.1,16.7c-0.3,0.4,0.4,0.8,0.6,0.4c3.3-5.5,6.8-11.3,7.2-17.8c0.3-5.2-1.4-10.6-5.7-13.8
						c0,0.2,0.1,0.4,0.1,0.6c3.1-3.2,4.4-8,3.1-12.3c-1.2-4.1-4.5-7.3-8.5-8.5C130.9,154.5,130.7,155.2,131.2,155.3L131.2,155.3z"/>
				</g>
			</g>
			<g class="st16">
				<g>
					<path d="M110.4,250.7c-2.9,6-8.3,10.6-14.7,12.5c-0.5,0.1-0.3,0.9,0.2,0.7c6.5-2,12.1-6.7,15.1-12.8
						C111.2,250.6,110.6,250.2,110.4,250.7L110.4,250.7z"/>
				</g>
			</g>
			<g class="st16">
				<g>
					<path d="M162.4,262.5c-3.2-2.2-6-5-8.3-8.1c-0.3-0.4-0.9,0-0.6,0.4c2.3,3.3,5.2,6.1,8.5,8.4
						C162.4,263.4,162.8,262.8,162.4,262.5L162.4,262.5z"/>
				</g>
			</g>
		</g>
		<g>
			<g>
				<g>
					<path class="st5" d="M144.9,188.1c0,0-10.7,49.4-7.8,51c2.9,1.6,34.7-0.7,35.1-2.1c1.1-4.1,9.4-47.9,8.9-48.8
						C178.9,184.7,144.9,188.1,144.9,188.1z"/>
					<path class="st21" d="M144.9,188.1c0,0-10.7,49.4-7.8,51c2.9,1.6,34.7-0.7,35.1-2.1c1.1-4.1,9.4-47.9,8.9-48.8
						C178.9,184.7,144.9,188.1,144.9,188.1z"/>
					<g class="st16">
						<g>
							<path d="M144.9,188.3c0.2,0.8,1.1,1.3,1.9,1.4c1,0.2,2.1,0.2,3.1,0.1c0.5,0,0.5-0.8,0-0.8c-0.9,0-1.8,0.1-2.7,0
								c-0.5-0.1-1.5-0.3-1.6-1C145.5,187.7,144.8,187.9,144.9,188.3L144.9,188.3z"/>
						</g>
					</g>
					<g class="st16">
						<g>
							<path d="M146.8,189.7c-1.2,5.8-2.1,11.7-3.2,17.5c-1.3,7.8-2.7,15.6-4,23.4c-0.5,2.7-0.9,5.3-1.5,8c-0.1,0.5,0.6,0.7,0.7,0.2
								c1.2-5.8,2.1-11.7,3.2-17.5c1.3-7.8,2.7-15.6,4-23.4c0.5-2.7,0.9-5.3,1.5-8C147.7,189.4,146.9,189.2,146.8,189.7L146.8,189.7
								z"/>
						</g>
					</g>
					<path class="st11" d="M148.9,190.2c0,0-9.4,47.4-6.8,48.9c2.6,1.5,31.1-0.6,31.4-1.9c1-3.9,8.1-46.7,7.8-47.6
						C180.9,188.6,148.9,190.2,148.9,190.2z"/>
					<g>
						<g>
							<path class="st20" d="M176.3,216.2c0,0-8.8,1.5-9.8,3.4c-1,1.9,2,1.9,2,1.9s-3.3,0.2-3.5,1.6c-0.1,1.7,3,1.7,3,1.7
								s-2.7,0.3-2.7,1.5c0,1.3,3.6,1.6,3.6,1.6s-1.9,0.6-1.4,1.4c0.5,0.9,8.1,1.6,10.4,0.3c2.3-1.3,3.1-9.8,2.4-12.9
								c-0.5-2.1-1.1-4.4-3.2-4.8L176.3,216.2L176.3,216.2z"/>
						</g>
					</g>
					<g>
						<g>
							<path class="st22" d="M168,221.9c2.9-0.2,5.8-0.6,8.7-1.2c0.5-0.1,0.3-0.8-0.2-0.7c-2.8,0.6-5.6,1-8.5,1.2
								C167.5,221.1,167.5,221.9,168,221.9L168,221.9z"/>
						</g>
					</g>
					<g>
						<g>
							<path class="st22" d="M167.6,225.3c2.8,0,5.7-0.3,8.5-0.9c0.5-0.1,0.3-0.8-0.2-0.7c-2.7,0.5-5.5,0.8-8.3,0.8
								C167.2,224.6,167.2,225.3,167.6,225.3L167.6,225.3z"/>
						</g>
					</g>
					<g>
						<g>
							<path class="st22" d="M168.9,228.4c2.4,0,4.7-0.2,7-0.7c0.5-0.1,0.3-0.8-0.2-0.7c-2.2,0.5-4.5,0.7-6.8,0.7
								C168.4,227.6,168.4,228.4,168.9,228.4L168.9,228.4z"/>
						</g>
					</g>
				</g>
				<g>
					<g>
						<path class="st20" d="M121.7,221.3c0,0,9.3-3.7,12.1-5c2.8-1.3,5.6-2.2,5.6-2.2s-0.7,3.1-0.7,3.3c0,0,8,0.7,9.6,1.2
							c1.6,0.5,1.9,1.8,1.7,2.3c-0.4,0.8-2.6,0.8-2.6,0.8s3.3,0.8,3.1,2.1c-0.3,2.2-3.4,1.7-3.4,1.7s1.5,1.1,1.2,2.4
							c-0.2,1.4-4.4,1-4.4,1s1.5,1.3,0.8,2.2c-0.7,0.8-1.5,0.7-2.9,0.5c-1.3-0.2-3.7-0.8-5.3-0.6c-1.5,0.2-5,0.4-7.2,0.3
							c-2.2-0.1-8.6-1.1-8.6-1.1L121.7,221.3z"/>
						<g>
							<g>
								<path class="st22" d="M147,221.5c-2.8-0.2-5.5-0.7-8.3-1.1c-0.5-0.1-0.7,0.7-0.2,0.7c2.8,0.4,5.6,0.9,8.5,1.1
									C147.4,222.2,147.4,221.5,147,221.5L147,221.5z"/>
							</g>
						</g>
						<g>
							<g>
								<path class="st22" d="M138.7,216.9c-1.7,0.1-3.5,0.3-5.2,0.4c-0.5,0-0.5,0.8,0,0.8c1.7-0.1,3.5-0.3,5.2-0.4
									C139.2,217.6,139.2,216.8,138.7,216.9L138.7,216.9z"/>
							</g>
						</g>
						<g>
							<g>
								<path class="st22" d="M147,225.2c-2-0.1-4-0.3-5.9-0.5c-1.2-0.1-2.4-0.3-3.6-0.4c-0.3,0-0.5,0.4-0.3,0.6
									c0,0,0.1,0.1,0.2,0.1c0.5,0.1,0.7-0.6,0.2-0.7c0.1,0,0.1,0.1,0.2,0.1c-0.1,0.2-0.2,0.4-0.3,0.6c1.2,0,2.4,0.3,3.6,0.4
									c2,0.2,3.9,0.4,5.9,0.5C147.5,225.9,147.5,225.2,147,225.2L147,225.2z"/>
							</g>
						</g>
						<g>
							<g>
								<path class="st22" d="M143.8,228.6c-1.9-0.2-3.9-0.4-5.8-0.5c-0.3,0-0.6-0.1-0.8-0.1c-0.5,0-0.5,0.7,0,0.8
									c1.9,0.2,3.9,0.4,5.8,0.5c0.3,0,0.6,0.1,0.8,0.1C144.3,229.4,144.3,228.6,143.8,228.6L143.8,228.6z"/>
							</g>
						</g>
					</g>
					<g>
						<path class="st5" d="M99.6,157.8c-3.1,0.6-9,4.7-11.1,7.2c-8.9,10.9-13.4,29.7-16.4,44.5c-2.9,14.2-0.2,24,10.6,24.7
							c8.4,0.5,33,4.4,37.5,0.8c4.4-3.6,1.8-16.1,0-18.7c-1.8-2.6-26.7-3-26.7-3c-0.4-1.6,6.9-19.1,6.9-22.4
							c0-2.2,4.6-25.2,3.3-34.8L99.6,157.8z"/>
						<g class="st16">
							<g>
								<path d="M122.7,223.9c-0.2-1.3-0.5-2.5-0.8-3.7c-0.4-1.5-0.6-3.4-1.8-4.5c-1-0.9-2.4-1.1-3.6-1.3c-1-0.2-2-0.4-3-0.5
									c-5.1-0.6-10.3-0.6-15.5-0.8c-1.6-0.1-3.2-0.1-4.7-0.2c0.1,0.2,0.2,0.3,0.4,0.5c1.1-4.7,2.3-9.3,3.4-14
									c1.5-6,3.1-12,3.8-18.1c0.7-6.2,0-12.4-3.2-17.8c-0.2-0.4-0.9,0-0.6,0.4c5.1,8.5,3.5,18.5,1.2,27.7
									c-1.3,5.4-2.6,10.8-4,16.2c-0.4,1.8-0.9,3.6-1.3,5.4c-0.1,0.2,0.1,0.5,0.4,0.5c3.6,0.1,7.2,0.2,10.8,0.4
									c4.6,0.2,9.5,0.2,14,1.3c2.2,0.6,2.5,2.6,3,4.5c0.3,1.4,0.6,2.7,0.9,4.1C122.1,224.6,122.8,224.4,122.7,223.9L122.7,223.9z"
									/>
							</g>
						</g>
					</g>
				</g>
			</g>
			<g class="st16">
				<g>
					<path d="M120.8,234.7c-9,2-18.3,2.2-27.3,0.5c-0.5-0.1-0.7,0.6-0.2,0.7c9.2,1.7,18.6,1.5,27.7-0.5
						C121.4,235.4,121.2,234.6,120.8,234.7L120.8,234.7z"/>
				</g>
			</g>
			<g class="st16">
				<g>
					<path d="M94.2,213.1c-4.1,0.4-8,2.5-10.6,5.7c-0.3,0.4,0.2,0.9,0.5,0.5c2.4-3.1,6.1-5.1,10.1-5.5
						C94.7,213.8,94.7,213,94.2,213.1L94.2,213.1z"/>
				</g>
			</g>
		</g>
	</g>
</g>
</svg>
