<?xml version="1.0" encoding="utf-8"?>
<!-- Generator: Adobe Illustrator 26.0.1, SVG Export Plug-In . SVG Version: 6.00 Build 0)  -->
<svg version="1.1" xmlns="http://www.w3.org/2000/svg" xmlns:xlink="http://www.w3.org/1999/xlink" x="0px" y="0px"
	 viewBox="0 0 500 500" style="enable-background:new 0 0 500 500;" xml:space="preserve">
<style type="text/css">
	.st0{fill:#C7DEFF;}
	.st1{fill:#4D313E;}
	.st2{fill:#407BFF;}
	.st3{opacity:0.4;fill:#4739B3;}
	.st4{fill:#FFFFFF;}
	.st5{fill:#EFAD85;}
	.st6{opacity:0.4;}
	.st7{fill:#4739B3;}
	.st8{opacity:0.58;fill:#EFAD85;}
	.st9{opacity:9.000000e-02;fill:#5285FF;}
	.st10{fill:#F591D8;}
	.st11{fill:none;stroke:#5B8FEA;stroke-linecap:round;stroke-linejoin:round;stroke-miterlimit:10;}
	.st12{opacity:0.76;fill:#407BFF;}
	.st13{opacity:0.46;fill:#F9BDC8;}
	.st14{fill:#5F99FF;}
	.st15{fill:#263238;}
	.st16{fill:#5285FF;}
	.st17{fill:#F7B100;}
	.st18{opacity:0.47;fill:#F7B100;}
	.st19{font-family:'MyriadPro-Regular';}
	.st20{font-size:22px;}
</style>
<g id="BACKGROUND">
</g>
<g id="OBJECTS">
	<path class="st0" d="M472.4,305c0,100.4-95.3,114.8-209.1,114.8S60.1,405.4,60.1,305c0-100.4,92.3-181.8,206.1-181.8
		S472.4,204.6,472.4,305z"/>
	<g>
		<path class="st1" d="M391.2,129.6c-4.1-5.4-5.7-12.4-6.4-19.2c-0.7-6.8-0.6-13.7-2-20.4c-1.4-6.7-4.6-13.3-10.3-17.1
			c-5.7-3.8-14.2-3.7-18.7,1.4L336,86c-7,5.1-12.1,12.6-14.3,20.9c-2.2,8.3-1.4,17.4,2.2,25.3c2.6,5.7,6.5,10.6,9.8,15.9
			s6,11.3,5.6,17.5c-0.4,6.2-4.7,12.5-10.8,13.5c9.8,1.1,20-2.9,26.4-10.5c-6.4,10.3-6.3,24.4,0.4,34.6c-2-7.3,2.3-14.9,7.9-20
			c5.6-5.1,12.4-8.8,17.7-14.2c10.4-10.8,12.9-28.4,5.9-41.6C388.3,128,389.7,128.8,391.2,129.6z"/>
	</g>
	<path class="st2" d="M301.9,168.2c-5.6,13-24.9,35.4-28,37.4c-0.2,0.1-0.3,0.2-0.4,0.1l-7.3-18.2l3-3.7
		c5.9-7.4,10.5-15.9,13.6-24.9c6.3-18.3,14.4-19.9,14.4-19.9l2.2,14.1L301.9,168.2z"/>
	<path class="st3" d="M301.9,168.2c-5.6,13-24.9,35.4-28,37.4l2.3-10.7c5.9-7.4,10.5-15.9,13.6-24.9c3.2-9.2,6.8-14.2,9.7-16.9
		L301.9,168.2z"/>
	<g>
		<path class="st2" d="M354.2,220.3c8.3,17.2,7.8,29.9,7.8,29.9l-72.6,1.7c0,0,1.6-14.1,4.2-26.1c1.4-6.7,2-13.5,1.9-20.4l-4.3-15.9
			c-2.2-8.1-1.7-16.7,1.3-24.5l2.9-7.5c1.3-3.3,2-6.9,2-10.4l0-7.9l27.8-3.5l2.1-0.3c2.8-0.4,5.7-0.4,8.5-0.1l4.5,0.4
			c6.5,0.6,7.9,1.8,13.3,5.5c0.3,0.2,0.5,0.4,0.8,0.5l22.6,13.8c0,0-14.2,38.1-23.1,55.6C352.5,213.3,353,217.9,354.2,220.3z"/>
	</g>
	<path class="st3" d="M373.8,163.3c-2.9,1.3-5.6,2.9-8,4.9c-6.8,5.3-12.2,12.5-15.8,20.3c-2,4.3-3.2,8.7-3.7,13.4
		c-0.5,5.1-0.4,10.2-0.7,15.3c0,0.4-0.3,0.7-0.7,0.7c-1.6,0-3.3-0.1-4.9-0.1c-6.4-0.4-12.8-1.4-19.1-2.4c-3.2-0.5-6.5-1-9.7-1.4
		c-3.2-0.4-6.4-0.5-9.6-0.7c-1.5-0.1-3-0.3-4.5-0.4c-0.5,0-1.2-0.2-1.7-0.1c-0.1,1.5-0.2,2.9-0.4,4.4c0.9,0.7,2.2,1.1,3.2,1.4
		c1.7,0.4,3.5,0.7,5.3,0.9c5.4,0.6,10.7,1.5,16.1,2.1c6.5,0.7,13,1.1,19.5,1.8c2.8,0.3,5.6,0.5,8.3,1c1.6,0.3,3.1,0.9,4.4,1.9
		c1.4,1.1,2.3,2.5,3.2,4c1.1,2,2.1,4,3.1,6.1c1.8,3.9,3.2,8.1,4.1,12.3c-0.2-3.9-1.2-14.6-7.8-28.3c-1.2-2.4-1.7-6.9-0.5-9.3
		C360.1,198.5,369.2,175.4,373.8,163.3z"/>
	<path class="st4" d="M338.3,151.4c-11.2,9.8-20.8,22-20.8,22c-2.8-9.9-1-19.3,1.8-26.7C323.6,148.9,330,151.2,338.3,151.4z"/>
	<path class="st5" d="M353.5,141c-3.8,1.6-7.7,4.3-11.6,7.4c-1.2,1-2.4,2-3.6,3c-8.3-0.2-14.7-2.5-19-4.7c0.3-0.9,0.7-1.8,1.1-2.7
		c1.6-3.5,3.3-6.4,4.7-8.6l2.1-0.3c0.9-0.1,1.8-0.2,2.8-0.2c1.9-0.1,3.8-0.1,5.7,0.1l4.5,0.4c4.3,0.4,6.4,1.1,8.8,2.5
		C350.3,138.8,351.7,139.7,353.5,141z"/>
	<path class="st5" d="M350.5,118.6l-1.4,18.6c-0.4,5.3-5,9.3-10.3,8.9l0,0c-5.3-0.4-9.3-5-8.9-10.3l1.4-18.6l14.5,1.1L350.5,118.6z"
		/>
	<g class="st6">
		<g>
			<path class="st7" d="M350,130.2c0,0-0.6,12.9-5.4,16.2c-11.6,8-20.4,16.1-25.8,24.5c-0.5-8.5,0.5-24,11.5-35.8l0.5-6.2
				c0,0-12.5,0-21.7,12.6l5.7,2.8l-8.4,4.6l6.3,38c0,0,17.2-15.2,31.4-23.2l-5.6-5l11.4-0.3C360.4,149.1,359.7,139.7,350,130.2z"/>
		</g>
		<g class="st6">
			<path class="st7" d="M350,130.2c0,0-0.6,12.9-5.4,16.2c-11.6,8-20.4,16.1-25.8,24.5c-0.5-8.5,0.5-24,11.5-35.8l0.5-6.2
				c0,0-12.5,0-21.7,12.6l5.7,2.8l-8.4,4.6l6.3,38c0,0,17.2-15.2,31.4-23.2l-5.6-5l11.4-0.3C360.4,149.1,359.7,139.7,350,130.2z"/>
		</g>
	</g>
	<path class="st8" d="M346.5,118.5c0.2,9.2-6,16.8-13.9,17c-0.9,0-1.8-0.1-2.7-0.2l1.6-21.7l14.5,1.1
		C346.3,116,346.5,117.2,346.5,118.5z"/>
	<g>
		<path class="st5" d="M317.1,101.6c0.6-2.8,1.3-5.6,1.7-8.4c0.6-4,3.4-7.9,6.2-11.1c1.7-2,3.8-3.8,6.1-5.1c6.2-3.5,14.8-3.3,21,0
			c8.7,4.7,8.7,13.9,5.4,21.8c6.1-2.3,5.6,5.1,5.6,5.1c-0.5,7.4-7.7,6.7-7.7,6.7c-2.8,6.9-8.1,10.7-8.1,10.7
			c-4.9,3.7-9.1,5.6-12.6,6.5c-6.9,1.7-13.8-1.6-16.8-7.7c-2.5-5-2.7-10.5-1.5-16C316.7,103.3,316.9,102.4,317.1,101.6z"/>
		<path class="st1" d="M362,76.2c-3.2-4.3-7.8-7.6-13-8.9c-6.8-1.6-14.1,0.4-19.8,4.5c-3.7,2.3-7,5.4-9.2,9.1
			c-3.4,5.7-4.9,12.7-10,16.9c1,0.3,2.2,0.2,3.1-0.5c-0.9,4.4,0.8,8.9,2.5,13.1c0.7-4.9,1.4-9.7,2.9-14.4c0.5-0.8,2.2-3.4,3.6-5.3
			c1.5-2.1,3.2-4,5.3-5.5c0,0,0,0,0,0c-1.1,1.9-0.3,4.5,1.3,6.1c1.6,1.6,3.8,2.4,5.9,3.2c-1.3-1.3-2.2-3.1-2.6-4.9
			c3.6,3.8,10.2,2.4,14.3,5.6c1.8,1.4,2.9,3.7,3.1,6c0.2,2.3-0.5,4.6-1.7,6.6c0.2,0.2,0.8,0,1.4-0.2c-0.5,0.9-1,1.7-1.1,2.7
			c-0.1,1.4,0.6,2.8,1.5,3.8c1,1,2.2,1.7,3.4,2.4c-1-2-0.2-4.5,1.1-6.4c1.3-1.8,3.2-3.2,4.7-5c1.5-1.7,2.6-4,2.1-6.2
			c2.2,2.5,2.6,6.4,0.9,9.3c4.7-4,6.2-10.8,5.7-17C366.9,85.8,365.1,80.5,362,76.2z"/>
		<path class="st8" d="M324.8,109.6c0.3-0.5,0.8-0.9,1.3-1.4c0.5-0.5,0.9-1,1.3-1.6c0.8-1.2,1.3-2.5,1.7-3.8
			c0.1-0.4,0.6-0.6,0.9-0.5c0.4,0.1,0.5,0.5,0.4,0.9c-0.6,2.3-1.8,4.4-3.4,6c-0.6,0.6-1.5,1.3-0.9,2.2c0.6,0.9,2,0.9,3,0.9
			c0.9,0,0.8,1.4-0.1,1.4c-1.3,0-2.8-0.1-3.7-1.1C324.4,111.9,324.1,110.6,324.8,109.6z"/>
		<path class="st1" d="M339.3,105.1c-0.4,1.2-1.4,2.1-2.2,1.9c-0.9-0.2-1.2-1.4-0.9-2.6c0.4-1.2,1.4-2.1,2.2-1.9
			C339.3,102.7,339.7,103.9,339.3,105.1z"/>
		<path class="st1" d="M325.8,102.9c-0.4,1.2-1.4,2.1-2.2,1.9c-0.9-0.2-1.2-1.4-0.9-2.6c0.4-1.2,1.4-2.1,2.2-1.9
			C325.7,100.5,326.1,101.7,325.8,102.9z"/>
		<path class="st1" d="M326.7,93.8c-0.3-0.2-0.6-0.2-0.9-0.2c-1.9,0-3.6,1.4-4.2,3.5c0.2-0.3,0.3-0.5,0.6-0.7c0,0,0,0,0,0
			c0.1-0.1,0.3-0.2,0.4-0.3c0.6-0.3,1.3-0.3,1.9-0.4c0.7,0,1.3,0,2-0.2c0.3-0.1,0.6-0.3,0.6-0.7C327.2,94.4,326.9,94,326.7,93.8z"/>
		<path class="st1" d="M338.5,95.1c0.3-0.2,0.6-0.2,0.9-0.2c1.9,0.1,3.3,1.6,3.6,3.8c-0.1-0.3-0.3-0.6-0.5-0.7c0,0,0,0,0,0
			c-0.1-0.1-0.2-0.3-0.4-0.3c-0.5-0.3-1.2-0.4-1.8-0.5c-0.7-0.1-1.3-0.1-1.9-0.4c-0.3-0.1-0.5-0.3-0.5-0.7
			C337.9,95.6,338.2,95.3,338.5,95.1z"/>
		<path class="st8" d="M337.7,114.9c-2.5,2.1-5.9,2.8-8.9,1.9c-0.9-0.2-1.3,1.1-0.4,1.3c3.5,1,7.4,0.1,10.2-2.3
			C339.4,115.2,338.4,114.3,337.7,114.9z"/>
	</g>
	<path class="st2" d="M277.1,202.9c0,0-2.4,4.1-5.8,5.9c-2.2,1.2-4.4-0.2-6.1-2.1c-6.5-7.6-10.7-29.6-12.5-41.6
		c3.6,0.6,8.6,0.2,12.8-4c0.9,4.6,2.9,13.2,6.5,19.8C272,180.9,282.2,195.9,277.1,202.9z"/>
	<path class="st9" d="M440.9,434c-0.3,7.9-17.8,22.3-179.1,18.5c-8.2-0.2-16.8-0.4-25.8-0.7c-8.1-0.3-16.2-0.6-24-0.9
		c-100.2-4.1-177.7-13-177.4-20.7c0.3-8.2,90.9-12,202.4-8.3C348.5,425.5,441.2,425.7,440.9,434z"/>
	<g>
		<path class="st4" d="M261.8,452.5c-8.2-0.2-16.8-0.4-25.8-0.7c-8.1-0.3-16.2-0.6-24-0.9c0.9-0.2,1.9-0.4,2.8-0.5
			c1.8-0.2,3.7-0.3,5.4-1c1.7-0.7,3.1-2.4,3-4.2c-0.2-1.8-1.8-3.1-3.4-3.9c-4.5-2.5-9.8-3.7-15-3.3l31.4-2
			c5.3-1.4,11.1-0.5,15.8,2.3c4.7,2.8,8.2,7.5,9.5,12.8C261.6,451.4,261.7,452,261.8,452.5z"/>
	</g>
	<g>
		<path class="st4" d="M261.8,452.5c-8.2-0.2-16.8-0.4-25.8-0.7c-8.1-0.3-16.2-0.6-24-0.9c0.9-0.2,1.9-0.4,2.8-0.5
			c1.8-0.2,3.7-0.3,5.4-1c1.7-0.7,3.1-2.4,3-4.2c-0.2-1.8-1.8-3.1-3.4-3.9c-4.5-2.5-9.8-3.7-15-3.3l31.4-2
			c5.3-1.4,11.1-0.5,15.8,2.3c4.7,2.8,8.2,7.5,9.5,12.8C261.6,451.4,261.7,452,261.8,452.5z"/>
	</g>
	<path class="st2" d="M186.1,272c4.4,3,12.8,8.6,18.3,12.1c4.6-7.1,7.3-16.9,6.1-28.9c-0.3-3.2-0.8-6.3-1.4-9.5
		c-8.7,4.9-15.4,2.6-18.9,0.5c-1-0.6-1.8-1.6-2.2-2.9c-0.3-0.8-0.5-1.8-0.5-2.7c-0.2-3.5,1.6-6.6,4-7.2c5.6-1.4,9.7-3.9,12.6-6.3
		c-2.6-7.4-5.7-14.4-8.9-20.7c-3.1,4.1-6.5,8.1-9.4,10.5c-2.4,2-5.5,0.2-6.3-3.5c-0.2-1-0.3-2.1-0.1-3.2c0.2-1,0.5-2,1-2.9
		c1.8-3.1,4.8-8.5,7.2-14.8c-3.6-6.1-6.8-10.8-8.7-13.5c-1.2-1.7-1.8-2.6-1.8-2.6l-14,18.2c1.1,5.4,2.7,13.5,4.1,20.5
		c1.2,6.2-3.9,11-7.3,6.9c-2.4-2.9-5.1-7-8-12.8l-9.5,12.4c0.7,9.6,6.2,24.4,12.1,29.7c3.8,3.5-2.4,10.7-8.4,5.8
		c-2.9-2.4-12.1-11.1-14.1-21.3c-4.9,8.7-6.7,20.3-4.5,31c5.3,24.9,27.4,25.1,36.3,24.1c1.8-0.2,3.1-0.4,3.5-0.5c0,0,0,0,0,0
		c0.1,0,0.2,0,0.2,0c5.1,6.8,13.2,8.7,21,6.3l-8.5-12.4c-0.4-0.5-0.6-1.1-0.9-1.7c-1.2-3.1-0.7-7.2,1.4-9.6
		C182,271.2,184.2,270.8,186.1,272z"/>
	<path class="st10" d="M147.2,282c4.3,2.2,9.9,3.4,14.5,3.2c1.4,0,2.8-0.3,4.2-0.6c0.7-2.1,1.3-4.4,2-6.9c-1,0.2-3.3,0.7-5.1,0.8
		c-2.3,0.1-4.5-0.2-6.8-0.7c-5.1-1.1-9.7-4.6-13.9-8.6c-2.2-2.1-5-4.9-6.5-7.6c2.2,1.7,8.3,7.1,13.7,10c4.3,2.2,9.9,3.4,14.5,3.2
		c1.7-0.1,3.4-0.4,5.1-0.7c0,0,0,0,0,0c0.3-1.3,0.7-2.7,1-4.1c-0.6-0.1-1.3-0.2-1.9-0.4c-3.5-0.8-6.6-3.2-9.5-6
		c-1.5-1.4-3.4-3.4-4.4-5.2c1.5,1.1,5.7,4.9,9.3,6.9c2.1,1.1,4.6,1.8,7,2.1c0.1-0.4,0.2-0.7,0.2-1.1c-0.7-0.6-1.7-1.5-2.5-2.5
		c-1.2-1.4-2.3-3-3.3-4.7c-2.3-3.8-3.6-8.5-4.5-13.3c-0.5-2.5-1-5.7-1-8.1c0.6,2.3,2.1,9,4,13.9c1.5,3.9,4.1,8,6.5,10.8
		c0.4,0.5,0.9,1,1.3,1.4c0.2-1.4,0.6-4.2,1.1-7.7c0,0,0,0,0,0c0,0-0.2-0.2-0.4-0.5c-0.4-0.5-1-1.2-1.5-2c-0.7-1.1-1.3-2.3-1.9-3.6
		c-1.3-2.9-1.8-6.2-2.2-9.5c-0.2-1.7-0.3-4-0.2-5.6c0.3,1.6,0.8,6.3,1.8,9.9c0.8,2.8,2.2,5.9,3.6,8.1c0.3,0.4,0.5,0.8,0.8,1.1
		c0.1,0.1,0.1,0.2,0.2,0.2c0.6-4,1.2-8.8,1.8-13.3c-0.1,0-0.1,0-0.2-0.1c0,0-0.2-0.2-0.4-0.5c-0.4-0.5-1-1.2-1.5-2
		c-0.7-1.1-1.3-2.3-1.9-3.6c-1.3-2.9-1.8-6.2-2.2-9.5c-0.2-1.7-0.3-4-0.2-5.6c0.3,1.6,0.8,6.3,1.8,9.9c0.8,2.8,2.2,5.9,3.6,8.1
		c0.3,0.4,0.5,0.8,0.8,1.1c0.1,0.1,0.2,0.3,0.4,0.4c1.2-8.8,2.3-16.6,2.3-16.6s-0.8,10-2,21.3c0,0,0,0,0.1-0.1
		c0.2-0.3,0.5-0.5,0.7-0.8c1.2-1.6,2.6-3.9,3.3-6c1-2.7,1.7-6.3,2-7.5c0,1.2-0.3,3-0.5,4.3c-0.5,2.6-1.1,5.1-2.3,7.2
		c-0.5,0.9-1.1,1.8-1.7,2.6c-0.4,0.5-0.9,1.1-1.3,1.4c-0.2,0.2-0.3,0.3-0.3,0.3c0,0-0.1,0-0.2,0c-0.1,1.2-0.3,2.5-0.4,3.7
		c0.1-0.1,0.3-0.1,0.4-0.2c0.4-0.2,0.8-0.3,1.1-0.5c2.1-1.1,4.5-3.1,6.2-5.2c2.1-2.7,4.3-6.7,5.1-8.1c-0.4,1.6-1.3,3.6-2.1,5.1
		c-1.5,2.9-3.1,5.7-5.3,7.5c-1,0.8-1.9,1.5-3,2.1c-0.7,0.4-1.5,0.7-2.1,0.9c-0.3,0.1-0.5,0.2-0.5,0.2c-0.4,3.5-0.8,7-1.2,10.2
		c0.1,0,0.2-0.1,0.3-0.1c0.4-0.2,0.8-0.3,1.1-0.5c2.1-1.1,4.5-3.1,6.2-5.2c2.1-2.7,4.3-6.7,5.1-8.1c-0.4,1.6-1.3,3.6-2.1,5.1
		c-1.5,2.9-3.1,5.7-5.3,7.5c-1,0.8-1.9,1.5-3,2.1c-0.7,0.4-1.5,0.7-2.1,0.9c-0.3,0.1-0.5,0.1-0.5,0.2c0,0.2-0.1,0.4-0.1,0.6
		c0.3,0.1,0.7,0.3,1,0.4c2.4,0.8,4.9,1.2,7.1,1c3.9-0.3,8.8-2,10.5-2.4c-1.4,1.3-3.7,2.3-5.4,3c-3.4,1.4-6.9,2.2-10.4,1.5
		c-0.6-0.1-1.3-0.3-1.9-0.5c-0.4-0.1-0.9-0.3-1.3-0.5c0,0.2-0.1,0.5-0.1,0.7c0,0.2-0.1,0.4-0.1,0.6c-0.1,0.8-0.2,1.7-0.4,2.5
		c-0.5,3.2-1.1,6.6-1.8,10c0.1,0.2,0.2,0.4,0.3,0.7c1.1,2.3,2.6,4.5,4,6c2.6,2.7,6.5,4.9,7.7,5.9c-1.5-0.1-3.4-1-4.8-1.7
		c-2.8-1.5-5.4-3.4-7.3-6.5c-0.2-0.4-0.5-0.8-0.7-1.2c-0.5,2.4-1.1,4.8-1.8,7.2c0,0,0,0,0,0c-0.4,0.1-1.7,0.4-3.5,0.5
		c0.3-0.8,0.6-1.7,0.9-2.6c-1.1,0.2-2.6,0.5-3.9,0.5c-2.3,0.1-4.5-0.2-6.8-0.7c-5.1-1.1-9.7-4.6-13.9-8.6c-2.2-2.1-5-4.9-6.5-7.6
		C135.7,273.7,141.8,279.1,147.2,282z"/>
	<g>
		<g>
			<path class="st2" d="M190.6,303c-1.5-1.7-3-3.5-4.7-5.5l-19.5,11.1c0,0,7.2-10.8,12.7-18.9c-3-3.4-6.3-7.1-9.7-10.9L152.2,293
				c0,0,5.2-12.9,9.4-22.8c-12.6-13.7-26.9-28.4-41.4-41.5l-12.8,21.6l4.5-28.9c-1.1-0.9-2.2-1.8-3.3-2.7
				c-2.4,10.6-5.7,24.4-5.8,24.9l1.3-28.5l0,0c-1.5-1.2-2.9-2.3-4.4-3.4c-1.1,11.1-2.6,26.7-2.7,26c-0.1-0.7-1.1-17.4-1.8-29.3
				c-7.4-5.4-14.5-9.8-21.2-13c1.2,5.8,2.5,14.2,0.8,18.6c-0.4,1.1-2,1.1-2.3-0.1L66.1,192c-1.3-0.4-2.6-0.8-3.8-1.1
				c-3.3-0.8-6.5-0.4-9.3,0.7c-6.9,2.9-11.3,10.8-8.6,18.7c3.5,10.2,11.2,26.2,27.9,50.8c9.2,1.2,23.4,3.4,23.4,3.4l-15,8.6
				c5.5,7.8,11.9,16.2,19.1,25.5l1.5,2.1l29.1-8.4l-19,21.9l22.6,30.5c5.4,7.3,15,10.4,23.6,7.5c5.1-1.7,11.2-4.5,18.1-9.2
				c0.9-0.6,1.9-1.3,2.8-2c3.4-2.5,7-5.5,10.7-9C197.4,324.3,198,311.5,190.6,303z"/>
			<path class="st2" d="M141.1,336.1c4.8,0.1,21-2.9,25.8-4.5c0,0-0.1-0.1-0.1-0.1c-0.5-0.6-1-1.3-1.5-1.9c-0.8-1-1.6-2-2.4-3.1
				c-0.7-0.8-1.3-1.6-2-2.5c-0.1-0.1-0.1-0.2-0.2-0.2l0,0c-6.7,1.8-13.6,2.4-20.6,2.4c-1.5,0-1.2-2.3,0.2-2.3
				c6.3,0,12.6-0.6,18.7-2.1l0,0c-0.6-0.8-1.2-1.5-1.8-2.2c-0.4-0.5-0.8-1-1.2-1.5c-0.7-0.8-1.4-1.7-2.1-2.5
				c-0.4-0.4-0.7-0.9-1.1-1.3c-1.5,0.6-3.1,0.7-4.7,0.9c-2.1,0.2-4.3,0.4-6.4,0.5c-4.3,0.3-8.7,0.3-13-0.1c-1.5-0.1-1.2-2.4,0.2-2.3
				c4.1,0.4,8.3,0.4,12.5,0.2c1.9-0.1,3.7-0.3,5.6-0.5c1.4-0.1,2.9-0.2,4.3-0.6c-0.9-1-1.7-2.1-2.6-3.1c-1.4-1.7-2.8-3.3-4.2-5
				c-0.1-0.1-0.1-0.1-0.2-0.2c-0.5-0.5-0.9-1.1-1.4-1.6c-0.5-0.6-1.1-1.3-1.6-1.9c-1.1-1.3-2.2-2.6-3.4-3.9c-0.8-1-1.7-1.9-2.5-2.9
				c-0.9-1-1.8-2.1-2.7-3.1c-0.9-1-1.8-2.1-2.7-3.1c-0.1,0-0.2,0-0.3,0c-7.9-1.7-15.8,2-23.8,1.7c-1.5,0-1.2-2.3,0.2-2.3
				c7,0.2,14-2.6,21-2.1c0-0.2,0.1-0.3,0.1-0.5c0,0,0,0,0,0l0,0c-1.1-1.2-2.2-2.5-3.2-3.7c-0.8-0.9-1.7-1.9-2.5-2.8
				c-0.1,0-0.2,0-0.2,0c-1.6-0.2-3.1,0.3-4.6,0.7c-1.5,0.4-3.1,0.7-4.6,1c-3.7,0.9-7.3,1.9-10.9,3c-1.4,0.4-2.3-1.7-0.9-2.1
				c3.8-1.2,7.6-2.2,11.5-3.1c2.4-0.6,5.1-1.5,7.7-1.7l0,0c-0.2-0.3-0.4-0.5-0.7-0.8c-0.8-0.9-1.6-1.8-2.4-2.6c0,0,0,0,0,0
				c-0.3-0.3-0.6-0.6-0.8-0.9c-0.8-0.9-1.6-1.8-2.4-2.7l0,0c-8.3-0.1-15.5,5.9-23.7,6.6c-1.5,0.1-1.8-2.1-0.4-2.3
				c7.8-0.6,14.4-5.7,22.1-6.5c-0.3-0.3-0.6-0.7-0.9-1c-0.7-0.8-1.4-1.5-2.1-2.2c-0.7-0.8-1.5-1.6-2.2-2.4c-0.7-0.8-1.4-1.6-2.1-2.3
				c-0.7-0.8-1.4-1.5-2.1-2.3c-1.1-1.1-2.1-2.3-3.1-3.4l0,0c-4,0-8-1.6-11.9-2.6c-4.8-1.3-9.6-2.9-14.4-4.2
				c-1.4-0.4-0.6-2.5,0.8-2.1c4.6,1.3,9.2,2.8,13.8,4.1c3.1,0.8,6.2,2,9.3,2.5c-2.4-2.6-4.8-5.1-7.1-7.6c-6.3-0.8-12.4-2.9-18.6-4
				c-1.4-0.3-1.2-2.5,0.2-2.3c5.3,1,10.5,2.6,15.8,3.6c-1.3-1.4-2.5-2.7-3.8-4c-1-1.1-2.1-2.2-3.1-3.2c-0.7-0.8-1.5-1.5-2.2-2.3
				c-5.9-1.5-11.9-2.7-17.8-4.3c-1.4-0.4-0.6-2.5,0.8-2.1c4.7,1.3,9.4,2.3,14.1,3.4c-0.7-0.7-1.3-1.4-2-2.1
				c-0.3-0.3-0.6-0.6-0.9-0.9c-0.3-0.4-0.7-0.7-1-1c-0.1-0.1-0.1-0.1-0.2-0.2c-0.5-0.6-1.1-1.1-1.6-1.7c-1.4-1.5-2.7-2.8-4-4.1
				c-1.7,0.2-3.5,0.2-5.2,0c-1.7-0.2-3.5-0.5-5.1-1c-1.4-0.5-0.6-2.6,0.8-2.1c2.3,0.7,4.9,1,7.4,1c-0.4-0.4-0.8-0.8-1.2-1.2
				c-0.6-0.6-1.1-1.1-1.6-1.6c-0.2-0.2-0.4-0.4-0.5-0.6c-1.1-1.1-2.1-2.1-2.9-3c-0.1-0.1-0.1-0.1-0.2-0.2c-0.1-0.1-0.1-0.1-0.2-0.2
				c-0.1-0.2-0.3-0.3-0.4-0.4c-0.1-0.1-0.1-0.1-0.2-0.2c-0.3-0.3-0.5-0.5-0.7-0.8c-0.1-0.1-0.1-0.1-0.2-0.2
				c-0.2-0.2-0.3-0.3-0.5-0.5c-0.1-0.1-0.1-0.1-0.2-0.2c-0.1-0.1-0.1-0.1-0.2-0.2c-0.1-0.1-0.1-0.1-0.2-0.2c-0.6-0.6-1-1-1-1
				c0,0,0,0,0.1,0c0,0,0,0,0.1,0c0,0,0.1,0,0.2,0c0,0,0.1,0,0.1,0c0,0,0.1,0,0.1,0c0,0,0.1,0,0.1,0c0.3,0,0.6,0.1,1,0.3
				c0.1,0,0.2,0.1,0.2,0.1c0.4,0.2,0.9,0.5,1.4,0.8c0.1,0,0.1,0.1,0.2,0.1c0.1,0,0.1,0.1,0.2,0.1c0.4,0.3,0.9,0.6,1.4,1
				c0.1,0.1,0.2,0.1,0.3,0.2c0.1,0.1,0.2,0.2,0.3,0.2c0.2,0.1,0.3,0.2,0.5,0.4c0.2,0.2,0.4,0.3,0.7,0.5c0.5,0.4,1,0.8,1.5,1.2
				c1.2,1,2.5,2.2,3.9,3.6c0.3,0.2,0.5,0.5,0.8,0.7c0.3,0.3,0.6,0.6,0.9,0.9c0,0,0,0,0,0c0.4,0.1,0.7,0.4,0.8,0.8
				c0.4,0.3,0.7,0.7,1.1,1.1c3,2.9,3.7,3.7,4.5,4.5c1,1.1,2.1,2.2,3.2,3.3c0.7,0.7,1.4,1.4,2.1,2.1c0.3,0.3,0.6,0.6,0.9,0.9
				c0-0.9,0.1-1.7,0.2-2.6c0.1-0.9,0.3-1.7,0.4-2.5c0.6-4.6,1.8-9.3,1.3-14c-0.2-1.5,2.1-1.8,2.3-0.4c0.4,4.1-0.3,8.1-0.9,12.1
				c-0.2,1.6-0.4,3.2-0.7,4.8c-0.2,1.7-0.6,3.9,0.6,5.3c0.2,0.2,0.3,0.5,0.3,0.7l0,0c1.4,1.4,2.7,2.9,4.2,4.5
				c1-7.4,1.1-14.9,1.3-22.4c0-1.5,2.3-1.2,2.3,0.2c-0.2,8.1-0.3,16.3-1.6,24.3l1.2,1.3c0.4,0.4,0.8,0.9,1.2,1.3l0,0c0,0,0,0,0,0
				c0.4,0.1,0.7,0.5,0.8,0.8l0,0c1.5,1.6,3,3.3,4.5,5c0.7,0.8,1.5,1.6,2.2,2.4c0,0,0.1,0.1,0.1,0.1c0.8,0.8,1.5,1.7,2.3,2.6
				c0.4,0.4,0.8,0.9,1.2,1.3c0.8,0.9,1.6,1.8,2.4,2.6c2,2.2,4,4.5,6,6.7c1.5-5.8,3.6-11.4,6.6-16.6c0.7-1.3,2.6,0.1,1.9,1.3
				c-3.1,5.4-5.1,11.3-6.6,17.4c0.6,0.7,1.2,1.4,1.9,2.1l1.9,2.1c0.1,0.2,0.3,0.3,0.4,0.5c2.1-5.1,9.5-19.3,10-21
				c0.4-1.4,2.6-0.6,2.1,0.8c-0.5,1.7-9.3,19-9.7,20c-0.1,0.3-0.5,1-0.6,1.4c0.1,0.3,0,0.5-0.1,0.8c2.3,2.7,4.7,5.4,7.1,8.1
				c0.6,0.6,1.1,1.3,1.7,1.9c0.2,0.3,0.5,0.5,0.7,0.8c2-8.4,5.4-16.4,7.2-24.9c0.3-1.4,2.6-1.2,2.3,0.2c-1.9,9.1-5.7,17.7-7.6,26.8
				c0.1,0.1,0.2,0.2,0.2,0.3c0.8,1,1.7,1.9,2.5,2.9c1.9,2.2,3.8,4.4,5.7,6.6l0,0c2-6,7.5-20.5,9.6-23.9c0.8-1.2,2.6,0.1,1.9,1.3
				c-2.3,3.7-8.3,19.9-9.7,24.6l0,0c0.8,1,1.6,1.9,2.5,2.9l4.3,5c0.7,0.9,1.5,1.7,2.2,2.6c0.6,0.7,1.2,1.4,1.7,2
				c2.3-4.1,9.1-14.3,11.3-17c0.9-1.1,2.8,0.2,1.9,1.3c-2.3,2.8-10.1,14.4-11.6,17.5c0,0,0,0,0,0.1c0,0,0,0,0,0l0,0
				c0.1,0.1,0.2,0.2,0.3,0.3c0.4,0.5,0.8,1,1.3,1.5c0,0,0,0,0,0c0,0,0,0,0,0c0,0,0,0,0,0c0.2,0.1,0.3,0.3,0.4,0.5l0,0c0,0,0,0,0,0
				l0,0c1,1.2,2,2.3,2.9,3.4c1.7-3.8,10.6-19.6,10.9-21.3c0.2-1.4,2.5-1.2,2.3,0.2c-0.2,1.5-9.5,18.5-11.5,22.9
				c0.5,0.6,1,1.2,1.5,1.8c0.5,0.6,0.9,1.1,1.4,1.7c0,0,0,0,0.1,0.1l0,0c0.3,0.4,0.6,0.8,1,1.1c1.4,1.7,2.8,3.3,4.1,4.9
				c4.4-6.6,9.2-12.9,13.5-19.5c0.8-1.2,2.7,0.1,1.9,1.3c-4.4,6.8-9.4,13.3-13.8,20l0.4,0.4l0,0.1c3.5-3.7,14.3-14,17.3-16.5
				c1.1-0.9,2.6,0.8,1.4,1.8c-3,2.4-14.2,13.1-17.3,16.4c0,0,0,0,0,0.1l1.6,1.9c0.4,0.5,0.9,1,1.3,1.5l0.4,0.5
				c0.3,0.4,0.6,0.8,1,1.1c0.1,0.1,0.2,0.3,0.3,0.4c0.7,0.9,1.5,1.7,2.2,2.6c0.3,0.4,0.6,0.8,1,1.1c0.2,0.2,0.3,0.4,0.5,0.6
				c-1,0.7-1.9,1.4-2.8,2c-1.2-1.7-2.5-3.3-3.8-5c-0.2-0.3-0.4-0.6-0.7-0.9c-0.9-1.2-1.8-2.4-2.8-3.6c-0.1-0.1-0.1-0.1-0.2-0.2l0,0
				c-5.8,2.6-22.2,5.1-27.5,5C139.4,338.3,139.6,336,141.1,336.1z"/>
		</g>
		<path class="st11" d="M147.2,304.2c-10.2-12.2-20.3-23.9-30.5-35.1c0.6,0.6,1.1,1.3,1.7,1.9c2.3,2.7,4.7,5.4,7.1,8.1
			c0.6,0.6,1.1,1.3,1.7,1.9c0.2,0.3,0.5,0.5,0.7,0.8c0.6,0.7,1.2,1.4,1.8,2.1c0.1,0.1,0.2,0.2,0.2,0.3c0.8,1,1.7,1.9,2.5,2.9
			c1.9,2.2,3.8,4.4,5.7,6.6l0,0c0.6,0.7,1.2,1.4,1.8,2l0,0c0.8,1,1.6,1.9,2.5,2.9l4.3,5C146.8,303.8,147,304,147.2,304.2z"/>
	</g>
	<g>
		<path class="st2" d="M131.7,355c-4.6-1.2-7.9-5.4-7.6-10.4c0.2-3.9,2.7-7.3,6.3-8.7c8.7-3.5,25-10,35.7-14.5
			c-1-12.6-7-24.9-20.3-33.9c-3.5-2.4-7.2-4.5-11.1-6.4c-6.5,16.3-17.5,23.5-24.1,26.5c-1.8,0.8-3.9,1-5.8,0.5
			c-1.2-0.3-2.4-0.9-3.4-1.7c-3.6-2.8-4.4-7.9-1.9-11.8c5.9-8.9,8.8-16.9,10.2-22.8c-10.6-2.9-21.5-4.8-31.8-6.1
			c0.1,7.9-0.4,16.1-1.9,22.2c-1.2,5.1-6.9,7.7-11.6,5.5c-1.3-0.6-2.4-1.5-3.3-2.6c-0.8-1.1-1.4-2.5-1.6-3.9
			c-0.6-5.2-2.1-14.1-5.1-23c-10.7-0.4-19.4-0.2-24.5,0c-3.1,0.1-4.9,0.3-4.9,0.3l-0.4,35.2c6.7,3.2,16.7,8.1,25.4,12.4
			c7.7,3.7,5.7,15.1-2.8,16.2c-6,0.8-13.6,0.9-22.9-0.3l-0.3,24c10.3,7.6,32,12.9,44.8,9.6c8.3-2.1,7.4,12.7-5.2,16.6
			c-6,1.9-26.6,6.8-39.2,0.6c2.2,14.4,11.1,27.2,24.5,33.5c31.3,14.7,60.2-15.5,70.8-28.6c-2.1-5.7-5-12.5-9.2-20.4
			c-4.4-8.3-10-17.9-17.4-28.7c-1.2-1.8,18.8,19,30.7,43.7c0.1-0.2,0.2-0.3,0.2-0.3c13.3-1,25.6-10.4,33.5-23.2l-23.1,0.7
			C133.6,355.3,132.6,355.2,131.7,355z"/>
		<path class="st12" d="M89.6,398.1c7.8-3.9,16.2-10.6,22-17.1c1.7-1.9,3.3-4.1,4.8-6.2c-1.2-2.8-2.6-5.7-4.2-8.8
			c-1,1.5-3.5,5.1-5.9,7.8c-2.9,3.2-6.1,6-9.6,8.7c-7.8,6-17,9.3-26.5,11.5c-4.9,1.2-11.3,2.5-15.9,2.3c4.5-1.6,17.8-5.2,27.6-10
			c7.8-3.9,16.2-10.6,22-17.1c2.1-2.4,4-5.1,5.9-7.7c0,0,0,0,0,0c-0.9-1.6-1.8-3.2-2.7-4.9c-0.9,0.8-1.8,1.5-2.8,2.3
			c-5.3,4.1-11.6,6.2-18.1,7.7c-3.3,0.8-7.7,1.6-10.8,1.5c3.1-1.1,12.2-3.4,18.8-6.7c3.8-1.9,7.8-4.7,11.2-7.7
			c-0.2-0.4-0.5-0.9-0.8-1.3c-1.4,0.4-3.7,1-5.6,1.2c-2.9,0.4-5.8,0.5-8.8,0.4c-6.7-0.3-12.9-2.6-18.9-5.6c-3-1.5-7-3.6-9.3-5.7
			c3,1.1,11.6,5.1,18.8,6.8c5.8,1.4,13.1,1.5,19,0.7c1-0.1,2.1-0.4,3.1-0.6c-1.2-1.6-3.4-4.5-6.1-8.3c0,0,0,0,0,0c0,0-0.4,0.1-1,0.1
			c-1,0.1-2.5,0.3-3.9,0.3c-2,0-4-0.2-5.9-0.5c-4.5-0.8-8.4-2.9-12.2-5.4c-1.9-1.3-4.3-3.1-5.7-4.7c1.9,1,7.3,4.4,12,6.2
			c3.7,1.4,8.7,2.2,12.7,2.2c0.7,0,1.4-0.1,2.1-0.1c0.2,0,0.3,0,0.5-0.1c-3.2-4.3-7-9.4-10.6-14.3c-0.1,0.1-0.2,0.2-0.3,0.2
			c0,0-0.4,0.1-1,0.1c-1,0.1-2.5,0.3-3.9,0.3c-2,0-4-0.2-5.9-0.5c-4.5-0.8-8.4-2.9-12.2-5.4c-1.9-1.3-4.3-3.1-5.7-4.7
			c1.9,1,7.3,4.4,12,6.2c3.7,1.4,8.7,2.2,12.7,2.2c0.7,0,1.4-0.1,2.1-0.1c0.3,0,0.6-0.1,0.9-0.1c-7.1-9.5-13.2-17.8-13.2-17.8
			s8.7,10,18.2,21.5c0,0,0-0.1,0-0.1c0.1-0.6,0.1-1.1,0.1-1.7c0.1-3.1-0.5-7-1.5-9.9c-1.3-3.7-3.9-7.9-4.7-9.4
			c1.2,1.1,2.6,3,3.6,4.5c1.9,2.9,3.5,6,4.1,9.5c0.2,1.5,0.4,3.1,0.3,4.6c0,1-0.2,2.2-0.3,3c-0.1,0.5-0.1,0.8-0.1,0.8
			c0,0.1-0.1,0.2-0.2,0.2c1,1.3,2.1,2.6,3.1,3.9c0.1-0.2,0.2-0.5,0.4-0.7c0.3-0.7,0.7-1.3,1-2c1.6-3.9,2.8-8.9,2.9-13.1
			c0.1-5.3-1.1-11.8-1.3-14.1c1,2,1.8,5,2.3,7.4c1,4.6,1.5,9.3,0.4,13.9c-0.5,2.1-1,4-1.8,6c-0.5,1.3-1.3,2.7-1.8,3.6
			c-0.3,0.4-0.4,0.8-0.5,0.9c2.9,3.7,5.8,7.3,8.3,10.7c0.1-0.2,0.2-0.4,0.3-0.6c0.3-0.7,0.7-1.3,1-2c1.6-3.9,2.8-8.9,2.9-13.1
			c0.1-5.3-1.1-11.8-1.3-14.1c1,2,1.8,5,2.3,7.4c1,4.6,1.5,9.3,0.4,13.9c-0.5,2.1-1,4-1.8,6c-0.5,1.3-1.3,2.7-1.8,3.6
			c-0.3,0.4-0.4,0.8-0.5,0.9c0.2,0.2,0.3,0.4,0.5,0.6c0.6-0.3,1.1-0.7,1.7-1.1c3.8-2.6,7.6-5.7,10.3-8.9c4.9-5.6,9.5-13.8,11.3-16.5
			c-0.6,3.1-2.6,7.1-4.2,10.1c-3.1,5.9-6.8,11.5-12,15.6c-1,0.7-1.9,1.5-2.9,2.1c-0.7,0.5-1.4,0.9-2.1,1.4c0.2,0.3,0.4,0.5,0.6,0.8
			c0.2,0.2,0.3,0.4,0.5,0.6c0.7,0.9,1.3,1.8,2,2.7c2.5,3.5,5,7.3,7.5,11.3c0.3,0.1,0.7,0.1,1,0.2c3.7,0.5,7.7,0.5,11.1-0.2
			c6-1.2,13.2-4.6,15.8-5.5c-2,2-5.4,3.8-8,5.1c-5.1,2.5-10.3,4.5-15.8,4.2c-0.7,0-1.4-0.1-2.1-0.1c1.6,2.9,3.2,5.8,4.7,8.8
			c0,0,0,0,0,0c-0.5,0.7-1.9,2.7-4.1,5.4c-0.4-1.1-0.9-2.3-1.4-3.6c-1.2,1.7-2.9,4-4.6,5.8c-2.9,3.2-6.1,6-9.6,8.7
			c-7.8,6-17,9.3-26.5,11.5c-4.9,1.2-11.3,2.5-15.9,2.3C66.5,406.6,79.8,403,89.6,398.1z"/>
	</g>
	<polygon class="st4" points="416.3,323.1 413.3,429.4 265,439 257.1,435.5 149.3,439.7 149.1,332.5 258.2,302.6 258.6,302.5 
		265.8,300.6 266.7,299.7 340.3,230.3 	"/>
	<polygon class="st13" points="340.3,230.3 265.8,300.6 149.1,332.5 149.2,341 149.2,341 149.3,439.7 257.1,435.5 265,439 
		266.6,308.9 267,308.8 341.4,238.7 416.2,329.7 416.3,323.1 	"/>
	<polygon class="st4" points="257.8,302.9 149.1,332.9 149.3,439.7 256.4,435.1 	"/>
	<polygon class="st14" points="149.1,332.5 149.3,439.7 79.7,427.7 78.8,328.5 	"/>
	<path class="st7" d="M339.7,218.8l-80.5,74.6l-110.1,30.6L66,321.6l0.1,6.5c1.2-0.8,83.1,4.4,83.1,4.4l116.7-32l74.5-70.2
		l90.6,110.3l11.6,0.3L339.7,218.8z"/>
	<path class="st7" d="M339.7,218.8l-80.5,74.6l-110.1,30.6L66,321.6l0.1,6.5c1.2-0.8,83.1,4.4,83.1,4.4l116.7-32l74.5-70.2
		l90.6,110.3l11.6,0.3L339.7,218.8z"/>
	<polygon class="st15" points="250.4,232.2 182.1,291.1 66,321.6 149.1,324.1 259.2,293.5 339.7,218.8 	"/>
	<polygon class="st15" points="66,321.6 149.1,324.1 259.2,293.5 182.1,291.1 	"/>
	<polygon class="st7" points="204.7,372.8 204.4,437.5 239.4,436.2 239.9,373.8 	"/>
	<polygon class="st10" points="207.6,376.2 207.2,437.6 236.5,436.2 237.1,377 	"/>
	<path class="st7" d="M235.5,406.8c0,1.2-1,2.1-2.1,2.1c-1.2,0-2.1-1-2.1-2.2c0-1.2,1-2.1,2.1-2.1
		C234.5,404.6,235.5,405.6,235.5,406.8z"/>
	<g>
		<g>
			<polygon class="st7" points="292.3,332.6 317.4,333.4 316,411.2 291.2,411.1 			"/>
			<polygon class="st7" points="325.3,333.6 348.4,334.3 346.7,411.2 323.9,411.2 			"/>
			<polygon class="st7" points="379.9,335.2 378,411.3 355.2,411.3 356.9,334.5 			"/>
		</g>
		<g>
			<polygon class="st16" points="314,336.6 312.8,407.9 304.1,407.9 304.1,407.9 294.4,407.9 295.5,336 			"/>
			<polygon class="st16" points="346,337.5 344.5,408.7 341,408.7 326.2,408.7 327.5,337 			"/>
			<polygon class="st16" points="377.5,338.4 375.8,409.5 357.5,409.5 359.1,337.9 			"/>
		</g>
		<g>
			<polygon class="st16" points="313.9,345.4 313.7,357.8 295.1,363.5 295.3,351.1 			"/>
			<polygon class="st16" points="346,337.5 345.8,347.9 327.2,353.6 327.5,341.2 340.2,337.3 			"/>
			<polygon class="st16" points="376.8,338.4 359,343.9 359.1,337.9 			"/>
			<polygon class="st16" points="313.4,374.5 313.2,386.8 294.7,392.5 294.9,380.2 			"/>
			<polygon class="st16" points="345.5,364.6 345.2,376.9 326.7,382.6 326.9,370.3 			"/>
			<polygon class="st16" points="377.1,354.8 376.8,367.2 358.3,372.9 358.6,360.5 			"/>
			<polygon class="st16" points="304.1,407.9 312.9,405.2 312.8,407.9 			"/>
			<polygon class="st16" points="344.8,395.3 344.5,407.6 341,408.7 326.2,408.7 326.3,401 			"/>
			<polygon class="st16" points="376.4,385.6 376.1,397.9 357.6,403.6 357.9,391.3 			"/>
		</g>
	</g>
	<polygon class="st7" points="415.7,321.6 415.1,338.7 430.6,339.2 	"/>
	<path class="st5" d="M265,157.8c0,0,0.2,1.3,0.6,3.3c-4.2,4.2-9.2,4.5-12.8,4c-0.7-4.8-1.1-8-1.1-8l-6.7-11.7
		c-0.3-0.5,0.1-1.2,0.7-1.1l24.5,3.5C270.1,147.7,268.9,152.5,265,157.8z"/>
	<path class="st2" d="M366.1,152.4c0,0-6.4,5.5-2.6,24.8c1.7,8.5,1.8,17.2,0.8,25.8l-65.4-1.8l-0.4,13.4l71.8,9.3
		c2,0.3,4.1,0,5.9-0.9c4-2,5.1-5.8,5.6-11.5c0.9-10.9,2.2-27.2,3.1-40.4C385.5,160.6,376.7,151.8,366.1,152.4z"/>
	<path class="st3" d="M311.2,208.4c-0.2-2.7-1.5-5.1-3.4-6.9l-9-0.2l-0.4,13.4l10.9,1.4C310.7,213.8,311.4,211.1,311.2,208.4z"/>
	<polygon class="st5" points="254.5,134.8 256.5,148.8 263.8,147.9 258.4,131 	"/>
	<path class="st8" d="M264.9,152.1c-0.3-1.3-0.9-2.4-1.8-3.4l0.7-0.8l-5.4-16.8l-3.9,3.8l2.6,11l-11-1.6c0.3,1.5,0.9,2.9,1.6,4.2
		c0.9,1.6,2.1,3,3.4,4.2c1.3,1.2,2.7,2.2,4.4,2.8c0.9,0.3,1.9,0.5,2.8,0.4c0.8,0,1.6-0.2,2.4-0.4c1.3-0.3,2.7-0.5,3.9,0.4
		C265,154.7,265.1,153.4,264.9,152.1z"/>
	<path class="st5" d="M270.2,138.7l-0.7-0.3c-0.8-0.3-1.7-0.2-2.4,0.2l-3.2,2.1c-1,0.6-1,2-0.1,2.7c1,0.8,2.5,1.3,4.5,0.3
		c0,0-10.8,8.4-9.3,13.9l6,0.2c0,0,3.8-5.6,6-10.2c0.7-1.5,1.1-4.2,0.8-5.9l-0.2-1.4C271.4,139.6,270.9,139,270.2,138.7z"/>
	<g>
		<path class="st11" d="M229.4,182c0.2-0.4,0.5-0.8,0.7-1.3c0.6-1.1,1.3-2.3,1.9-3.4c0.9-1.7,1.8-3.3,2.8-5c1.1-2,2.2-4.1,3.3-6.1
			c1.2-2.2,2.4-4.4,3.6-6.6c1.2-2.1,2.4-4.3,3.5-6.4c1.1-1.9,2.1-3.9,3.2-5.8c0.8-1.5,1.7-3.1,2.5-4.6c0.5-0.9,1-1.9,1.5-2.8
			c0.8-1.4,1.6-2.7,2.8-3.8c0.7-0.7,1.6-1.2,2.5-1.5c0.9-0.2,1.8-0.1,2.6,0.3c0.9,0.4,1.6,1,2.2,1.7c0.7,0.8,1.3,1.6,1.8,2.6
			c0.4,0.8,0.7,1.5,1,2.3c0.5,1.2,1,2.3,1.4,3.5c0.7,1.8,1.5,3.5,2.2,5.3c0.9,2.1,1.8,4.3,2.7,6.4c1,2.3,1.9,4.6,2.9,6.9
			c0.9,2.3,1.9,4.5,2.8,6.8c0.8,2,1.7,4,2.5,6c0.6,1.5,1.3,3.1,1.9,4.6c0.4,0.9,0.7,1.7,1.1,2.6c0,0.1,0.1,0.2,0.1,0.3
			c0.1,0.3,0.6,0.4,0.8,0.2c0.3-0.2,0.4-0.5,0.2-0.8c-0.2-0.5-0.4-0.9-0.6-1.4c-0.5-1.2-1-2.5-1.5-3.7c-0.8-1.8-1.5-3.7-2.3-5.5
			c-0.9-2.2-1.8-4.3-2.7-6.5c-1-2.3-1.9-4.6-2.9-7c-0.9-2.2-1.9-4.5-2.8-6.7c-0.8-2-1.6-3.9-2.4-5.9c-0.6-1.5-1.2-2.9-1.8-4.4
			c-0.3-0.7-0.6-1.5-0.9-2.2c-0.3-0.8-0.7-1.5-1.1-2.2c-1.1-1.7-2.6-3.5-4.6-4.2c-3.8-1.4-7.1,2.1-8.7,5.1c-0.3,0.5-0.6,1.1-0.9,1.6
			c-0.7,1.2-1.4,2.5-2.1,3.7c-1,1.8-1.9,3.5-2.9,5.3c-1.1,2.1-2.3,4.1-3.4,6.2c-1.2,2.2-2.4,4.4-3.6,6.6c-1.2,2.1-2.4,4.3-3.5,6.4
			c-1,1.9-2.1,3.8-3.1,5.7c-0.8,1.4-1.6,2.9-2.4,4.3c-0.4,0.8-0.9,1.6-1.3,2.4c-0.1,0.1-0.1,0.2-0.2,0.3
			C228,182,229,182.7,229.4,182L229.4,182z"/>
	</g>
	<path class="st5" d="M263.7,143.4c0.8,0.6,2,1.1,3.6,0.7c0,0,0,0,0,0c1.6-0.7,3-1.7,4.4-2.6l-0.2-1.1c-0.1-0.8-0.6-1.4-1.3-1.7
		l-0.7-0.3c-0.8-0.3-1.7-0.2-2.4,0.2l-3.2,2.1C262.9,141.4,262.8,142.7,263.7,143.4z"/>
	<polygon class="st17" points="296.2,258.6 214.5,255.9 213.1,252.6 217.2,174.3 297.4,173.7 298.9,177 	"/>
	<polygon class="st18" points="296.2,258.6 214.5,255.9 213.1,252.6 217.2,174.3 297.4,173.7 298.9,177 	"/>
	<polygon class="st17" points="294.8,255.3 213.1,252.6 216.9,172.3 297.4,173.7 	"/>
	<g>
		<path class="st5" d="M296.1,199.9l-0.9-2.8c-0.7-2.3-0.6-4.6,0.4-6.6c0.2-0.5,0.5-0.9,0.8-1.2c1.1-1.2,3.8-0.1,3.6,1.5l0,0
			c-0.2,2.3,0.1,4.6,1,6.9l1.5,3.7l-7-1.6"/>
		<g>
			<path class="st5" d="M303.7,211.3c0.2,2-1.4,5.9-9.5,3.9c-2-0.5-3.9-1.5-5.4-3c-0.8-0.8-1.4-1.7-1.4-2.6c0,0-2.8-0.8-1.5-4.7
				c0,0-3.3-3.6,1.8-4.1c0,0-4.7-3.7,2.8-4.1c0,0,4.8-0.3,8.8,0.9c1.6,0.5,3.1,1.9,3.2,3.3L303.7,211.3z"/>
			<path class="st8" d="M287,209c3,0.4,5.9,1,8.8,2c0.6,0.2,0.4,0.9-0.2,0.7c-2.8-0.9-5.6-1.5-8.5-1.9
				C286.4,209.6,286.4,208.9,287,209z"/>
			<path class="st8" d="M285.7,204.5l9.6,1.3c0.6,0.1,0.6,0.8,0,0.8l-9.6-1.3C285.2,205.2,285.1,204.4,285.7,204.5z"/>
			<path class="st8" d="M287.1,200.3c3.4,0,6.8,0.4,10.2,1.2c0.6,0.1,0.4,0.8-0.2,0.7c-3.3-0.7-6.6-1.1-9.9-1.1
				C286.5,201.1,286.5,200.3,287.1,200.3z"/>
		</g>
	</g>
	<g>
		<path class="st5" d="M244.9,144.5c0.8-1,2.9-3.6,5.6-5.2c0,0,0,0,0-0.1c0.3-2.1,2.5-3.3,4.5-2.5c2.8,1.1,7.6,3.6,8.3,7.7
			c0.2,1-0.6,1.8-1.6,1.7c-0.3,0-0.8-0.1-1.2-0.4c0,0,1.1,0.9,1.6,1.9c0.4,1-0.5,2.1-1.6,2c-0.8-0.1-2-0.5-3.5-1.9
			c0,0,1.6,1.4,2,2.8c0.3,0.9-0.5,1.8-1.5,1.7c-0.8-0.1-1.9-0.5-3.5-1.6c-1.5-1.1-3.1-2-4.9-2.6c-1.5-0.5-3.2-1.4-4.2-2.6
			C244.7,145.1,244.7,144.8,244.9,144.5z"/>
		<g>
			<path class="st8" d="M257.5,147.8c-2-2.1-4.4-3.7-7.1-4.8c-0.3-0.1-0.4,0.3-0.2,0.4c2.6,1,5,2.6,6.9,4.7
				C257.4,148.4,257.7,148.1,257.5,147.8z"/>
			<path class="st8" d="M261,145.8c-2.4-2.1-5.2-3.8-8.3-4.9c-0.3-0.1-0.5,0.3-0.2,0.4c3,1.1,5.8,2.7,8.2,4.8
				C261,146.3,261.3,146,261,145.8z"/>
		</g>
	</g>
	<path class="st5" d="M254.8,136.1c0,0-2.7-5,1-6.9c0,0,3.1-1,4.7,2.7c0.4,0.9,0.8,2,0.5,2.9c-0.3,1.2-0.9,2.2-2.4,1.5
		c-0.7-0.3-1.3-0.8-1.8-1.4l-0.8-1L254.8,136.1z"/>
	<text transform="matrix(1 0 0 1 226.4461 220.0113)" class="st4 st19 st20">LOAN</text>
</g>
</svg>
